<svg width="62" height="62" viewBox="0 0 62 62" fill="none" xmlns="http://www.w3.org/2000/svg">
<g clip-path="url(#clip0)">
<path d="M18.8271 40.1599H43.0975V46.4874H18.8271V40.1599Z" fill="#1D2123"/>
<path d="M30.9619 40.1599H43.0966V46.4874H30.9619V40.1599Z" fill="black"/>
<path d="M22.8438 34.3872H39.0803V51.6061H22.8438V34.3872Z" fill="#FFBB7D"/>
<path d="M30.9619 34.3876H39.0802V51.6065H30.9619V34.3876Z" fill="#EFA36A"/>
<path d="M13.3672 44.7909H48.5578V61.3512H13.3672V44.7909Z" fill="#FFD4A6"/>
<path d="M30.9619 44.7909H48.5576V61.3508H30.9619V44.7909Z" fill="#FFBB7D"/>
<path d="M60.91 55.6242C54.1624 64.8423 43.2608 70.8292 30.9623 70.8292C18.6639 70.8292 7.76226 64.8423 1.01465 55.6242C1.20011 49.6098 6.13513 44.7907 12.1945 44.7907H22.8441L30.9623 52.5728L39.0806 44.7907H49.7316C55.7925 44.7907 60.726 49.6083 60.91 55.6242Z" fill="#55085D"/>
<path d="M60.9096 55.6242C54.162 64.8423 43.2603 70.8292 30.9619 70.8292V52.5728L37.3096 46.4874L39.0802 44.7907H49.7312C55.792 44.7907 60.7256 49.6083 60.9096 55.6242Z" fill="#37003D"/>
<path d="M44.5268 18.5448C43.9537 9.84508 36.9166 6.62994 30.962 6.62994C25.0074 6.62994 17.9703 9.84508 17.3972 18.5448C15.8573 18.8426 14.7635 20.8624 14.9358 22.4953L15.1998 26.2115C15.3805 27.9263 16.8878 29.1783 18.549 28.992L18.8354 28.9609C22.2382 38.0983 27.5747 39.0509 30.962 39.5859C34.3493 39.0509 39.6858 38.0983 43.0886 28.9609L43.375 28.992C45.0362 29.1783 46.5435 27.9264 46.7242 26.2115L46.9882 22.4953C47.1605 20.8624 46.0667 18.8426 44.5268 18.5448Z" fill="#FFD4A6"/>
<path d="M46.9881 22.4953L46.7241 26.2115C46.5434 27.9263 45.0361 29.1783 43.3749 28.992L43.0885 28.9609C41.9254 32.0802 40.5381 34.2466 39.0802 35.7667C36.2687 38.6996 33.1934 39.233 30.9619 39.5859V6.62994C36.9165 6.62994 43.9536 9.84508 44.5267 18.5448C46.0665 18.8426 47.1602 20.8624 46.9881 22.4953Z" fill="#FFBB7D"/>
<path d="M33.8353 26.2783C32.179 24.8701 29.7463 24.8701 28.09 26.2783C26.243 27.8486 23.9232 28.7551 21.5008 28.8531L18.8359 28.9609L19.0146 30.0352C19.9861 35.8775 25.0401 40.1605 30.9625 40.1605C37.0177 39.8246 42.0295 35.333 43.0243 29.3507L43.0891 28.9609L40.4242 28.8531C38.0021 28.7551 35.6824 27.8486 33.8353 26.2783Z" fill="#EFEBDC"/>
<path d="M43.0879 28.9612L43.0242 29.351C42.5272 32.343 41.0246 34.9612 38.8904 36.8738C36.7561 38.7864 33.9902 39.9933 30.9619 40.1599V25.2216C31.9849 25.2216 33.0078 25.5737 33.8351 26.2778C35.681 27.8485 38.0008 28.7555 40.4233 28.8526L43.0879 28.9612Z" fill="#D6CFBD"/>
<path d="M18.8275 40.1599L30.9628 52.5728L24.8952 59.0929L14.5176 44.791L18.8275 40.1599Z" fill="#73147D"/>
<path d="M43.0972 40.1599L30.9619 52.5728L37.0296 59.0929L47.4071 44.791L43.0972 40.1599Z" fill="#55085E"/>
<path d="M22.7401 0.918869C22.7401 0.918869 14.8945 8.56626 16.5194 16.1127L17.6519 23.6307H20.7671L22.2564 18.0868C22.7863 16.1144 24.8196 14.9183 26.7863 15.4686C26.9755 15.5215 27.1638 15.5812 27.3507 15.6476L27.8953 15.8408C29.8899 16.5488 32.065 16.4787 34.037 15.7103C34.4343 15.5556 34.8388 15.4315 35.2474 15.3379C37.1855 14.8941 39.1268 16.0698 39.6426 17.99L41.158 23.6307H44.2732L45.4026 15.803C45.645 9.09323 40.2511 0.918869 22.7401 0.918869Z" fill="#212121"/>
<path d="M45.4018 15.8036L44.2731 23.6307H41.1579L39.6424 17.99C39.1266 16.0702 37.185 14.8937 35.2464 15.3385C34.8378 15.4313 34.4335 15.5559 34.0365 15.7109C33.0455 16.0963 32.0051 16.3064 30.9619 16.3296V1.63899C41.9896 3.7776 45.6003 10.2861 45.4018 15.8036Z" fill="black"/>
</g>
<defs>
<clipPath id="clip0">
<rect width="62" height="62" rx="31" fill="white"/>
</clipPath>
</defs>
</svg>
