<svg width="62" height="62" viewBox="0 0 62 62" fill="none" xmlns="http://www.w3.org/2000/svg">
<path d="M31 0C19.9828 0 11.0195 9.08433 11.0195 20.1016C11.0195 31.2998 14.6878 38.7659 14.8439 39.078C15.1526 39.6936 15.7805 40.082 16.4688 40.082H31H45.5312C46.2195 40.082 46.8474 39.6936 47.1561 39.078C47.3122 38.7659 50.9805 31.2998 50.9805 20.1016C50.9805 9.08433 42.0172 0 31 0Z" fill="#212121"/>
<path d="M47.1561 39.078C47.3122 38.7659 50.9805 31.2998 50.9805 20.1016C50.9805 9.08433 42.0172 0 31 0V40.082H45.5312C46.2195 40.082 46.8474 39.6936 47.1561 39.078Z" fill="black"/>
<path d="M53.3982 51.8473H31H8.60177C7.84809 53.9161 7.38672 56.6882 7.38672 60.1836C7.38672 61.1876 8.19914 62 9.20312 62H31H52.7969C53.8009 62 54.6133 61.1876 54.6133 60.1836C54.6133 56.6882 54.1519 53.9161 53.3982 51.8473Z" fill="#55085D"/>
<path d="M54.6133 60.1836C54.6133 56.6882 54.1519 53.9161 53.3982 51.8473H31V62H52.7969C53.8009 62 54.6133 61.1876 54.6133 60.1836Z" fill="#37003D"/>
<path d="M51.6424 48.5712H30.9997H10.3569C9.67264 49.4528 9.07952 50.5349 8.60156 51.8473C15.9821 53.7334 23.488 54.7162 30.9997 54.7162C38.5114 54.7162 46.0172 53.7335 53.3979 51.8473C52.9198 50.5349 52.3267 49.4528 51.6424 48.5712Z" fill="#F2F2FC"/>
<path d="M51.6427 48.5712H31V54.7162C38.5117 54.7162 46.0176 53.7335 53.3982 51.8473C52.9202 50.5349 52.327 49.4528 51.6427 48.5712Z" fill="#E2D9FB"/>
<path d="M43.7666 44.0518C40.1178 42.9627 37.4819 42.1751 36.6499 37.2563C36.501 36.3818 35.7452 35.7432 34.8583 35.7432H31.0003H27.1422C26.2553 35.7432 25.4997 36.3818 25.3506 37.2563C24.5187 42.1751 21.8828 42.9627 18.234 44.0518C15.5635 44.8498 12.5355 45.7645 10.3574 48.5712C17.1649 50.2384 24.0818 51.0825 31.0002 51.0825C37.9185 51.0825 44.8354 50.2384 51.6429 48.5712C49.465 45.7645 46.4371 44.8498 43.7666 44.0518Z" fill="#FFD4A6"/>
<path d="M43.7663 44.0518C40.1175 42.9627 37.4817 42.1751 36.6496 37.2563C36.5007 36.3818 35.7449 35.7432 34.858 35.7432H31V51.0824C37.9185 51.0824 44.8352 50.2383 51.6427 48.5711C49.4647 45.7645 46.4368 44.8498 43.7663 44.0518Z" fill="#FFBB7D"/>
<path d="M41.6341 17.228C41.1445 15.8284 40.5911 14.2444 40.0039 12.3092C39.7432 11.4489 38.8828 10.9149 37.9995 11.0392C37.1091 11.1703 36.4492 11.9349 36.4492 12.8359C36.4492 16.3148 33.9984 18.4508 31 19.7752C26.2824 21.859 20.1995 21.918 20.0997 21.918C19.0976 21.9198 18.2852 22.7322 18.2852 23.7344V27.3672C18.2852 34.3762 23.9652 40.0644 31 40.0762C31.0073 40.0762 31.0139 40.0784 31.0213 40.0784C38.3683 40.0784 43.7148 33.9953 43.7148 26.9361C43.7148 23.1774 42.8421 20.6816 41.6341 17.228Z" fill="#FFD4A6"/>
<path d="M43.7148 26.9361C43.7148 23.1773 42.8421 20.6816 41.6341 17.2279C41.1445 15.8283 40.5911 14.2443 40.0039 12.3091C39.7432 11.4488 38.8828 10.9148 37.9995 11.039C37.1091 11.1703 36.4492 11.9349 36.4492 12.8359C36.4492 16.3148 33.9984 18.4508 31 19.7752V40.0763C31.0073 40.0763 31.0139 40.0785 31.0213 40.0785C38.3683 40.0785 43.7148 33.9954 43.7148 26.9361Z" fill="#FFBB7D"/>
</svg>
