<svg width="24" height="24" viewBox="0 0 24 24" fill="none" xmlns="http://www.w3.org/2000/svg">
<path d="M2.05013 12.05C0.739175 13.3638 0.00292969 15.144 0.00292969 17C0.00292969 18.856 0.739175 20.6362 2.05013 21.95C3.02912 22.9289 4.2764 23.5955 5.63425 23.8656C6.9921 24.1356 8.39953 23.9969 9.67857 23.4671C10.9576 22.9373 12.0508 22.0401 12.82 20.8889C13.5891 19.7378 13.9996 18.3844 13.9996 17C13.9996 15.6156 13.5891 14.2622 12.82 13.1111C12.0508 11.96 10.9576 11.0627 9.67857 10.5329C8.39953 10.0031 6.9921 9.86442 5.63425 10.1345C4.2764 10.4045 3.02912 11.0711 2.05013 12.05ZM11.9184 16.128L10.0896 16.4938L8.77263 14.65L9.19963 12.515C9.90719 12.858 10.5229 13.3646 10.9956 13.9929C11.4684 14.6212 11.7847 15.3531 11.9184 16.128ZM6.37638 16.3763L7.32263 16.061L8.16888 17.2455L7.24538 18.1688L6.06088 17.3228L6.37638 16.3763ZM7.26038 12.0148L6.84063 14.1148L5.85588 14.443L4.24288 12.83C5.13561 12.2425 6.19323 11.9567 7.26038 12.0148ZM2.82888 14.2428L4.44163 15.8558L4.11363 16.8405L2.01363 17.26C1.95576 16.193 2.2415 15.1355 2.82888 14.2428ZM3.46438 20.5358C3.07604 20.146 2.75502 19.6945 2.51438 19.1998L4.64938 18.7728L6.49313 20.0898L6.12738 21.9183C5.11816 21.7429 4.1878 21.26 3.46363 20.5355L3.46438 20.5358ZM8.18088 21.8513L8.62813 19.6145L9.61438 18.6283L11.8514 18.181C11.6393 19.0726 11.1839 19.8878 10.5358 20.5358C9.88773 21.1839 9.07249 21.6392 8.18088 21.8513Z" fill="#9EA6C9"/>
<path d="M13.2905 10.2936L19.2896 4.2945L20.7036 5.70851L14.7045 11.7076L13.2905 10.2936Z" fill="#9EA6C9"/>
<path d="M14.29 14.2913L19.2892 9.29207L20.7032 10.7061L15.704 15.7053L14.29 14.2913Z" fill="#9EA6C9"/>
<path d="M9.29102 8.29211L13.7904 3.79276L15.2044 5.20676L10.705 9.70611L9.29102 8.29211Z" fill="#9EA6C9"/>
<path d="M15.29 2.29333L17.2898 0.293587L18.7038 1.70759L16.704 3.70733L15.29 2.29333Z" fill="#9EA6C9"/>
<path d="M20.2891 8.2926L22.2888 6.29285L23.7028 7.70685L21.7031 9.7066L20.2891 8.2926Z" fill="#9EA6C9"/>
<path d="M20.2896 3.29333L22.2893 1.29359L23.7033 2.70759L21.7036 4.70733L20.2896 3.29333Z" fill="#9EA6C9"/>
</svg>
