<svg width="512" height="512" viewBox="0 0 512 512" fill="none" xmlns="http://www.w3.org/2000/svg">
<g clip-path="url(#clip0)">
<path d="M511.961 255.961C511.961 373.327 432.958 472.254 325.235 502.447C309.115 506.971 292.347 509.948 275.087 511.212C274.126 511.296 273.165 511.358 272.193 511.411C266.833 511.756 261.443 511.923 256 511.923C250.557 511.923 245.145 511.756 239.786 511.411C239.776 511.411 239.776 511.411 239.776 511.411C238.804 511.359 237.843 511.286 236.882 511.212C219.633 509.948 202.876 506.97 186.755 502.447C79.031 472.243 0.0390015 373.327 0.0390015 255.961C0.0390015 204.696 15.115 156.941 41.066 116.906C49.319 104.181 58.659 92.24 68.971 81.207C72.648 77.279 76.451 73.455 80.369 69.767C97.409 53.678 116.663 39.908 137.621 28.959C173.016 10.458 213.291 0 256 0C298.719 0 338.984 10.458 374.39 28.971C395.337 39.92 414.581 53.679 431.621 69.768C435.539 73.456 439.342 77.269 443.019 81.208L443.029 81.218C453.341 92.24 462.681 104.181 470.924 116.896C496.886 156.93 511.961 204.686 511.961 255.961Z" fill="#75C5F2"/>
<path d="M452.338 350.427C419.502 420.999 367.484 470.875 325.235 502.447C303.222 508.621 279.998 511.923 256 511.923C232.002 511.923 208.778 508.622 186.755 502.447C154.807 478.564 117.248 444.192 86.638 398.318C83.075 392.99 79.617 387.505 76.274 381.863C70.34 371.875 64.771 361.407 59.663 350.427C24.507 274.861 31.382 177.679 41.067 116.907C46.613 82.075 53.08 59.205 53.08 59.205C80.473 46.396 108.786 36.315 137.62 28.96C176.453 19.056 216.226 14.104 256 14.104C295.784 14.104 335.557 19.056 374.39 28.971C403.214 36.316 431.516 46.408 458.909 59.206C458.909 59.206 465.376 82.075 470.923 116.897C480.609 177.669 487.494 274.861 452.338 350.427Z" fill="#B28A30"/>
<path d="M433.595 341.703C391.586 431.989 315.727 486.891 275.087 511.212C274.126 511.296 273.165 511.358 272.193 511.411C266.833 511.756 261.443 511.923 256 511.923C250.557 511.923 245.145 511.756 239.786 511.411C239.776 511.411 239.776 511.411 239.776 511.411C238.804 511.359 237.843 511.286 236.882 511.212C224.763 503.962 209.531 494.026 193.086 481.291C157.628 453.856 108.953 407.365 78.405 341.703C36.574 251.814 58.973 125.787 68.971 81.207C69.587 78.459 70.162 76.015 70.663 73.915C73.881 72.494 77.109 71.115 80.369 69.767C84.318 68.127 88.299 66.549 92.3 65.024C97.785 62.935 103.301 60.95 108.849 59.079C156.154 43.096 206.208 34.769 256 34.769C305.782 34.769 355.835 43.096 403.141 59.08C408.699 60.95 414.215 62.935 419.69 65.025C423.691 66.55 427.672 68.128 431.621 69.768C434.881 71.116 438.119 72.495 441.337 73.916C441.838 76.016 442.413 78.461 443.019 81.208L443.029 81.218C453.017 125.787 475.416 251.824 433.595 341.703Z" fill="#1B3466"/>
<path d="M435.163 232.058C435.079 233.939 434.985 235.819 434.87 237.689C434.034 252.117 432.488 266.566 430.054 280.711C429.72 282.602 429.375 284.503 429.009 286.405C425.854 302.922 421.414 318.98 415.375 334.056C377.346 428.981 308.425 486.39 272.193 511.411C266.833 511.756 261.443 511.923 256 511.923C250.557 511.923 245.145 511.756 239.786 511.411C239.786 511.401 239.776 511.411 239.776 511.411C228.754 503.795 214.723 493.222 199.543 479.567C178.147 460.354 151.401 432.146 127.832 394.933C126.798 393.303 125.774 391.663 124.76 390.002C120.853 383.619 117.05 376.985 113.372 370.089C112.505 368.449 111.638 366.788 110.771 365.106C105.725 355.265 100.971 344.911 96.615 334.056C59.746 242.004 82.521 113.563 92.3 65.025C97.785 62.936 103.301 60.951 108.849 59.08C156.154 43.096 206.208 34.769 256 34.769C305.782 34.769 355.835 43.096 403.141 59.08C408.699 60.95 414.215 62.935 419.69 65.025C426.146 97.046 438.255 163.857 435.163 232.058Z" fill="white"/>
<path d="M400.168 327.82C359.492 437.881 279.735 496.491 255.997 512C246.209 505.603 226.912 491.916 204.922 470.487C176.148 442.445 136.627 394.93 111.826 327.819C77.237 234.217 100.666 102.258 108.848 59.083C156.157 43.094 206.208 34.771 255.997 34.771C305.786 34.771 355.838 43.094 403.146 59.083C411.318 102.249 434.757 234.208 400.168 327.82Z" fill="#F10900"/>
<path d="M400.168 327.82C359.492 437.881 279.735 496.491 255.997 512V34.771C305.785 34.771 355.838 43.094 403.146 59.083C411.318 102.249 434.757 234.208 400.168 327.82Z" fill="#DD0E00"/>
<path d="M158.997 175.376C154.813 175.376 151.768 173.302 150.854 169.828L148.253 160.725H133.529L130.904 169.913C130.014 173.301 126.971 175.375 122.785 175.375C117.845 175.375 111.002 172.177 111.002 166.172C111.002 165.467 111.16 164.836 111.312 164.225L111.372 164.011L129.155 106.055C130.436 101.787 135.026 99.0129 140.845 99.0129C146.809 99.0129 151.326 101.721 152.634 106.08L170.514 164.397C170.62 164.799 170.779 165.407 170.779 166.172C170.778 171.596 164.57 175.376 158.997 175.376ZM122.761 167.643C122.757 167.654 122.754 167.666 122.751 167.679L122.761 167.643ZM159 167.567L159.007 167.591C159.004 167.584 159.002 167.575 159 167.567ZM158.814 166.918C158.869 166.92 158.93 166.921 158.996 166.921C160.186 166.921 161.511 166.351 162.142 165.891L144.542 108.535C144.474 108.31 143.631 107.744 142.043 107.541L154.451 151.326H127.234L139.64 107.547C138.135 107.756 137.302 108.313 137.243 108.508L119.627 165.923C120.24 166.369 121.553 166.919 122.783 166.919C122.85 166.919 122.91 166.918 122.966 166.916L127.15 152.269H154.628L158.814 166.918ZM138.421 142.872H143.27L140.846 134.317L138.421 142.872Z" fill="#B28A30"/>
<path d="M177.791 175.376C172.259 175.376 167.758 171.785 167.758 167.371V131.067C167.758 126.409 171.884 123.154 177.791 123.154C180.819 123.154 183.433 124.201 185.161 125.904C187.766 123.94 190.953 122.602 194.469 122.602H197.325C201.965 122.602 205.884 126.901 205.884 131.989C205.884 137.127 201.965 141.468 197.325 141.468H194.469C191.406 141.468 188.1 145.065 188.1 150.878V167.371C188.099 171.786 183.475 175.376 177.791 175.376ZM176.213 166.592C176.511 166.743 177.036 166.921 177.791 166.921C178.619 166.921 179.27 166.685 179.645 166.481V152.376L178.907 153.961V131.77C178.663 131.689 178.29 131.61 177.79 131.61C177.057 131.61 176.535 131.717 176.212 131.821V166.592H176.213ZM194.468 131.056C192.043 131.056 189.695 132.716 188.157 134.7C190.149 133.594 192.319 133.013 194.468 133.013H197.041C197.194 132.856 197.429 132.49 197.429 131.988C197.429 131.564 197.203 131.209 197.05 131.055H194.468V131.056Z" fill="#B28A30"/>
<path d="M220.911 176.206C208.994 176.206 200.006 170.982 200.006 164.055C200.006 160.096 203.121 154.576 208.196 154.576C210.407 154.576 212.036 155.604 213.475 156.511C215.199 157.599 216.981 158.723 220.635 158.723C221.225 158.723 221.705 158.692 222.089 158.647C220.916 158.166 219.176 157.681 217.884 157.319C211.68 155.586 201.297 152.683 201.297 140.56C201.297 132.276 206.723 122.604 222.017 122.604C234.411 122.604 240.894 127.743 240.894 132.821C240.894 136.389 238.035 142.761 232.337 142.761C231.826 142.761 231.336 142.706 230.862 142.612C236.491 144.905 242.093 149.129 242.093 158.528C242.092 169.266 233.778 176.206 220.911 176.206ZM208.481 163.952C209.126 165.091 213.561 167.751 220.911 167.751C225.664 167.751 233.637 166.553 233.637 158.526C233.637 152.23 229.294 150.618 222.141 148.711C217.411 147.45 211.523 145.88 211.523 140.006C211.523 135.845 215.191 131.632 222.2 131.632C226.123 131.632 229.037 132.887 230.964 133.716C231.26 133.843 231.615 133.996 231.919 134.117C232.056 133.885 232.189 133.596 232.287 133.325C231.048 132.461 227.374 131.056 222.017 131.056C211.345 131.056 209.751 137.009 209.751 140.558C209.751 145.725 212.923 147.151 220.16 149.174C224.984 150.522 231.589 152.368 231.589 158.986C231.589 160.354 231.061 167.176 220.635 167.176C214.538 167.176 211.05 164.976 208.965 163.661C208.866 163.598 208.758 163.53 208.648 163.462C208.573 163.633 208.512 163.808 208.481 163.952ZM222.694 140.099C223.262 140.259 223.828 140.41 224.32 140.541C225.303 140.803 226.384 141.092 227.513 141.435C226.076 140.816 224.586 140.193 222.694 140.099Z" fill="#B28A30"/>
<path d="M265.504 176.206C249.886 176.206 238.978 166.7 238.978 153.09V145.258C238.978 132.766 249.927 122.603 263.384 122.603C276.398 122.603 286.592 132.069 286.592 144.153C286.592 151.119 283.566 154.18 280.349 155.526C283.879 157.117 285.948 161.21 285.948 164.332C285.949 170.879 276.777 176.206 265.504 176.206ZM263.385 131.056C254.589 131.056 247.434 137.427 247.434 145.257V153.089C247.434 161.859 254.696 167.751 265.505 167.751C272.568 167.751 276.472 165.164 277.404 164.062C277.31 163.85 277.161 163.591 277.016 163.41C276.661 163.565 276.142 163.84 275.732 164.058C273.672 165.153 270.558 166.808 265.873 166.808C257.037 166.808 250.865 161.433 250.865 153.735V142.77C250.865 136.37 256.243 131.356 263.108 131.356C270.025 131.356 275.443 136.41 275.443 142.863C275.443 144.164 275.164 146.575 273.301 148.126H273.795C277.474 148.126 278.137 148.126 278.137 144.153C278.138 135.955 270.637 131.056 263.385 131.056ZM260.403 156.579C261.967 158.186 264.787 158.352 265.872 158.352C268.45 158.352 270.06 157.496 271.764 156.592C271.771 156.588 271.779 156.584 271.787 156.579H260.403ZM259.891 141.122H266.385C265.648 140.229 264.347 139.81 263.109 139.81C262.061 139.81 260.663 140.183 259.891 141.122Z" fill="#B28A30"/>
<path d="M322.813 175.376C317.041 175.376 312.688 171.935 312.688 167.371V145.534C312.688 143.704 310.939 141.469 308.899 141.469C307.612 141.469 305.571 142.572 305.571 145.534V167.371C305.571 171.71 300.893 175.376 295.355 175.376C289.678 175.376 285.23 171.859 285.23 167.371V131.067C285.23 127.256 288.399 123.154 295.355 123.154C298.226 123.154 300.722 124.114 302.431 125.691C305.141 123.875 308.662 122.602 312.954 122.602C323.836 122.602 333.03 133.104 333.03 145.534V167.371C333.03 172.009 328.733 175.376 322.813 175.376ZM321.144 166.626C321.514 166.773 322.111 166.923 322.813 166.923C323.592 166.923 324.205 166.775 324.574 166.634V145.535C324.574 137.823 319.144 131.058 312.953 131.058C310.154 131.058 307.882 132.021 306.319 133.322C307.169 133.119 308.037 133.016 308.898 133.016C315.42 133.016 321.141 138.867 321.141 145.536V166.626H321.144ZM293.686 166.582C293.997 166.738 294.551 166.922 295.355 166.922C296.135 166.922 296.756 166.691 297.116 166.492V150.652L296.378 152.165V131.762C296.149 131.686 295.807 131.611 295.353 131.611C294.573 131.611 294.021 131.723 293.684 131.831V166.583H293.686V166.582Z" fill="#B28A30"/>
<path d="M347.044 176.206C337.351 176.206 330.838 169.582 330.838 159.724C330.838 142.995 347.976 142.014 355.288 141.956C354.372 140.733 352.904 140.733 352.203 140.733C348.742 140.733 347.374 141.49 346.051 142.223C344.952 142.832 343.583 143.59 341.699 143.59C337.684 143.59 333.417 140.042 333.417 133.465C333.417 126.056 344.737 122.604 352.386 122.604C370.109 122.604 376.423 134.069 376.423 144.798V167.373C376.423 171.936 372.11 175.378 366.39 175.378C363.266 175.378 360.582 174.251 358.858 172.43C355.84 174.549 351.972 176.206 347.044 176.206ZM345.188 151.754C339.9 153.5 339.291 156.68 339.291 159.723C339.291 166.358 343.505 167.751 347.042 167.751C348.231 167.751 349.353 167.596 350.436 167.271C345.83 166.671 342.722 163.092 342.722 158.157C342.724 155.273 343.698 153.218 345.188 151.754ZM365.277 166.736C365.508 166.828 365.88 166.921 366.394 166.921C367.142 166.921 367.666 166.776 367.972 166.647V144.795C367.972 139.663 365.947 131.055 352.39 131.055C347.494 131.055 343.044 132.825 341.902 133.917C341.939 134.228 342.008 134.516 342.086 134.753C343.821 133.794 346.699 132.275 352.206 132.275C360.727 132.275 364.541 138.655 364.541 144.979V154.286C364.541 154.296 364.541 154.306 364.541 154.316L365.279 153.476V166.737H365.277V166.736ZM351.262 158.831C351.351 158.862 351.539 158.905 351.835 158.905C352.753 158.905 354.173 157.96 355.115 156.721C351.934 156.999 351.331 157.598 351.23 157.746C351.217 157.77 351.18 157.9 351.18 158.156C351.179 158.513 351.227 158.733 351.262 158.831Z" fill="#B28A30"/>
<path d="M387.768 175.376C382.091 175.376 377.643 171.859 377.643 167.371V105.544C377.643 101.733 380.812 97.631 387.768 97.631C393.687 97.631 397.985 100.958 397.985 105.544V167.371C397.984 171.71 393.305 175.376 387.768 175.376ZM386.098 166.582C386.409 166.738 386.963 166.922 387.767 166.922C388.547 166.922 389.168 166.691 389.528 166.492V106.377C389.175 106.239 388.587 106.089 387.767 106.089C386.987 106.089 386.435 106.201 386.098 106.309V166.582Z" fill="#B28A30"/>
<path d="M115.23 166.173C115.23 165.989 115.322 165.62 115.414 165.252L133.197 107.296C134.027 104.532 137.436 103.241 140.845 103.241C144.346 103.241 147.756 104.531 148.585 107.296L166.369 165.252C166.461 165.621 166.553 165.897 166.553 166.173C166.553 169.029 162.223 171.149 158.997 171.149C156.969 171.149 155.403 170.504 154.942 168.753L151.441 156.498H130.34L126.839 168.753C126.378 170.504 124.812 171.149 122.785 171.149C119.56 171.149 115.23 169.121 115.23 166.173ZM148.861 147.1L140.845 118.813L132.829 147.1H148.861Z" fill="white"/>
<path d="M194.468 137.241C189.124 137.241 183.872 142.493 183.872 150.878V167.371C183.872 169.214 181.108 171.149 177.791 171.149C174.382 171.149 171.986 169.214 171.986 167.371V131.067C171.986 128.855 174.382 127.381 177.791 127.381C180.739 127.381 183.135 128.855 183.135 131.067V134.845C184.978 130.882 189.4 126.829 194.468 126.829H197.324C199.536 126.829 201.655 129.225 201.655 131.989C201.655 134.845 199.535 137.241 197.324 137.241H194.468Z" fill="white"/>
<path d="M227.361 158.986C227.361 150.878 205.524 155.946 205.524 140.558C205.524 134.016 209.671 126.829 222.017 126.829C229.481 126.829 236.667 129.408 236.667 132.819C236.667 134.477 235.101 138.532 232.337 138.532C230.125 138.532 227.269 135.86 222.202 135.86C217.595 135.86 215.752 138.164 215.752 140.007C215.752 146.733 237.866 142.126 237.866 158.527C237.866 166.727 231.785 171.98 220.913 171.98C211.515 171.98 204.235 168.11 204.235 164.056C204.235 162.121 205.894 158.804 208.198 158.804C210.869 158.804 212.897 162.951 220.637 162.951C226.07 162.948 227.361 160.829 227.361 158.986Z" fill="white"/>
<path d="M282.366 144.151C282.366 151.983 277.944 152.351 273.797 152.351H255.092V153.733C255.092 159.077 259.422 162.579 265.873 162.579C271.954 162.579 274.442 159.078 277.206 159.078C279.97 159.078 281.721 162.487 281.721 164.33C281.721 167.463 275.363 171.978 265.505 171.978C252.421 171.978 243.207 164.422 243.207 153.089V145.257C243.207 135.306 252.145 126.829 263.386 126.829C273.52 126.829 282.366 133.924 282.366 144.151ZM268.545 145.349C270.48 145.349 271.216 144.888 271.216 142.861C271.216 138.531 267.53 135.582 263.108 135.582C258.961 135.582 255.092 138.346 255.092 142.769V145.348H268.545V145.349Z" fill="white"/>
<path d="M301.345 167.372C301.345 169.215 298.581 171.15 295.355 171.15C291.853 171.15 289.458 169.215 289.458 167.372V131.068C289.458 128.856 291.854 127.382 295.355 127.382C298.211 127.382 300.607 128.856 300.607 131.068V133.832C302.357 130.238 306.78 126.829 312.954 126.829C321.431 126.829 328.802 135.306 328.802 145.533V167.37C328.802 169.858 325.762 171.148 322.812 171.148C320.048 171.148 316.915 169.858 316.915 167.37V145.533C316.915 141.386 313.321 137.241 308.899 137.241C305.121 137.241 301.343 140.374 301.343 145.533V167.371H301.345V167.372Z" fill="white"/>
<path d="M372.198 144.797V167.372C372.198 169.492 369.71 171.15 366.393 171.15C363.353 171.15 361.049 169.492 361.049 167.372V164.7C357.732 168.478 353.401 171.98 347.043 171.98C340.501 171.98 335.065 168.11 335.065 159.725C335.065 149.129 343.818 146.18 356.533 146.18H360.311V144.982C360.311 141.02 358.284 136.505 352.203 136.505C345.108 136.505 343.91 139.361 341.699 139.361C339.028 139.361 337.645 136.136 337.645 133.464C337.645 129.686 345.845 126.83 352.387 126.83C366.761 126.829 372.198 135.49 372.198 144.797ZM360.312 152.352H358.93C352.757 152.352 346.952 152.997 346.952 158.157C346.952 161.566 349.071 163.133 351.835 163.133C355.613 163.133 360.312 158.803 360.312 154.287V152.352Z" fill="white"/>
<path d="M393.756 105.545V167.372C393.756 169.215 390.992 171.15 387.766 171.15C384.264 171.15 381.869 169.215 381.869 167.372V105.545C381.869 103.333 384.265 101.859 387.766 101.859C390.992 101.859 393.756 103.333 393.756 105.545Z" fill="white"/>
<path d="M256.467 300.163C249.985 300.163 244.724 305.423 244.724 311.906C244.724 318.388 249.984 323.649 256.467 323.649C262.949 323.649 268.21 318.389 268.21 311.906C268.209 305.425 262.949 300.163 256.467 300.163Z" stroke="#42413C" stroke-miterlimit="10"/>
<path d="M464.546 237.693V279.027L386.528 282.832L382.348 292.648L271.028 318.481L262.808 326.701L240.498 323.178C240.498 323.178 167.506 389.143 86.642 398.312C90.976 388.311 87.218 383.3 76.271 381.863C97.877 378.688 141.663 365.526 176.618 311.905L185.035 292.657L147.703 294.479C135.425 295.08 124.669 287.809 120.159 277.203H111.732C108.67 277.203 105.898 275.963 103.888 273.953C101.878 271.943 100.638 269.162 100.638 266.1C100.638 259.975 105.608 255.006 111.732 255.006H120.149C124.47 244.832 134.559 237.693 146.311 237.693H464.544H464.546Z" fill="#B28A30"/>
<path d="M146.312 232.057C133.912 232.057 122.639 238.745 116.655 249.37H111.732C102.507 249.37 95.002 256.875 95.002 266.1C95.002 275.334 102.507 282.84 111.732 282.84H116.655C122.649 293.465 133.903 300.153 146.293 300.153C146.847 300.153 147.411 300.134 147.975 300.115L176.232 298.734L171.638 309.218C154.917 334.742 134.465 353.52 110.774 365.103C111.638 366.784 112.502 368.447 113.376 370.092C133.442 360.229 156.485 342.774 176.617 311.905L185.034 292.657L147.702 294.479C147.222 294.507 146.763 294.517 146.293 294.517C134.607 294.517 124.489 287.405 120.159 277.204H111.732C105.607 277.204 100.638 272.234 100.638 266.1C100.638 263.038 101.878 260.266 103.888 258.256C105.898 256.246 108.67 255.006 111.732 255.006H120.149C124.47 244.832 134.559 237.693 146.311 237.693H434.869C434.982 235.815 435.076 233.935 435.16 232.057H146.312ZM382.347 292.648L271.027 318.481L262.807 326.701L240.497 323.178C240.497 323.178 189.093 369.641 124.762 389.999C125.776 391.662 126.8 393.306 127.834 394.931C129.948 394.246 132.07 393.531 134.203 392.78C152.465 386.336 171.329 377.364 190.248 366.119C217.087 350.168 236.148 334.405 242.226 329.162L261.926 332.271L264.763 332.713L266.792 330.684L273.875 323.61L383.626 298.133L386.407 297.495L387.534 294.855L390.334 288.289L429.009 286.401C429.376 284.504 429.723 282.605 430.052 280.708L386.529 282.831L382.347 292.648Z" fill="white"/>
<path d="M256.467 225.199C208.576 225.199 169.76 264.015 169.76 311.906C169.76 359.797 208.576 398.613 256.467 398.613C304.358 398.613 343.174 359.797 343.174 311.906C343.174 264.015 304.358 225.199 256.467 225.199ZM264.921 247.406C282.47 249.689 297.828 258.951 308.096 272.338L270.51 294.038C268.829 292.704 266.95 291.614 264.921 290.807V247.406ZM248.012 247.406V290.807C245.983 291.615 244.104 292.704 242.423 294.038L204.837 272.338C215.105 258.951 230.463 249.689 248.012 247.406ZM191.403 311.906C191.403 303.066 193.169 294.649 196.363 286.965L233.967 308.675C233.807 309.727 233.732 310.807 233.732 311.906C233.732 313.005 233.807 314.085 233.967 315.137L196.363 336.847C193.169 329.163 191.403 320.746 191.403 311.906ZM248.012 376.406C230.464 374.123 215.105 364.861 204.837 351.474L242.423 329.774C244.105 331.108 245.983 332.198 248.012 333.005V376.406ZM256.467 323.649C249.985 323.649 244.724 318.389 244.724 311.906C244.724 305.424 249.984 300.163 256.467 300.163C262.949 300.163 268.21 305.423 268.21 311.906C268.209 318.388 262.949 323.649 256.467 323.649ZM264.921 376.406V333.005C266.95 332.197 268.829 331.108 270.51 329.774L308.096 351.474C297.828 364.861 282.47 374.124 264.921 376.406ZM316.57 336.847L278.966 315.137C279.126 314.085 279.201 313.005 279.201 311.906C279.201 310.807 279.126 309.727 278.966 308.675L316.57 286.965C319.764 294.649 321.53 303.067 321.53 311.906C321.53 320.745 319.764 329.163 316.57 336.847Z" fill="#B28A30"/>
<path d="M256.467 401.432C207.103 401.432 166.941 361.271 166.941 311.906C166.941 262.541 207.102 222.38 256.467 222.38C305.832 222.38 345.993 262.541 345.993 311.906C345.993 361.271 305.831 401.432 256.467 401.432ZM256.467 228.017C210.21 228.017 172.577 265.65 172.577 311.907C172.577 358.164 210.21 395.796 256.467 395.796C302.724 395.796 340.357 358.163 340.357 311.907C340.357 265.651 302.723 228.017 256.467 228.017ZM262.103 379.615V331.094L263.879 330.387C265.643 329.685 267.285 328.736 268.76 327.566L270.261 326.375L312.289 350.64L310.333 353.189C299.262 367.624 283.263 376.862 265.286 379.2L262.103 379.615ZM267.74 334.836V373.114C281.872 370.54 294.498 363.247 303.835 352.266L270.69 333.13C269.748 333.765 268.763 334.335 267.74 334.836ZM250.83 379.615L247.648 379.201C229.671 376.863 213.672 367.625 202.601 353.19L200.645 350.641L242.673 326.376L244.174 327.567C245.649 328.737 247.29 329.686 249.055 330.388L250.831 331.095V379.615H250.83ZM209.098 352.268C218.435 363.248 231.061 370.542 245.193 373.116V334.838C244.17 334.337 243.185 333.767 242.243 333.133L209.098 352.268ZM317.941 340.894L275.891 316.617L276.18 314.716C276.315 313.828 276.383 312.884 276.383 311.907C276.383 310.931 276.315 309.986 276.18 309.098L275.891 307.197L317.941 282.92L319.173 285.884C322.608 294.147 324.349 302.902 324.349 311.907C324.349 320.912 322.607 329.668 319.173 337.93L317.941 340.894ZM281.962 313.613L315.126 332.76C317.506 326.081 318.711 319.08 318.711 311.906C318.711 304.732 317.506 297.731 315.126 291.052L281.962 310.199C282 310.76 282.018 311.33 282.018 311.906C282.018 312.483 281.999 313.052 281.962 313.613ZM194.992 340.894L193.76 337.93C190.325 329.667 188.584 320.912 188.584 311.907C188.584 302.902 190.326 294.146 193.76 285.884L194.992 282.92L237.042 307.197L236.753 309.098C236.618 309.986 236.55 310.93 236.55 311.907C236.55 312.883 236.618 313.828 236.753 314.716L237.042 316.617L194.992 340.894ZM197.806 291.052C195.426 297.731 194.221 304.732 194.221 311.906C194.221 319.08 195.426 326.081 197.806 332.76L230.97 313.613C230.932 313.052 230.914 312.482 230.914 311.906C230.914 311.329 230.933 310.76 230.97 310.199L197.806 291.052ZM256.467 326.467C248.438 326.467 241.906 319.935 241.906 311.906C241.906 303.877 248.438 297.345 256.467 297.345C264.496 297.345 271.028 303.877 271.028 311.906C271.028 319.935 264.496 326.467 256.467 326.467ZM256.467 302.982C251.546 302.982 247.543 306.985 247.543 311.906C247.543 316.827 251.546 320.83 256.467 320.83C261.388 320.83 265.391 316.827 265.391 311.906C265.391 306.985 261.388 302.982 256.467 302.982ZM270.261 297.438L268.76 296.247C267.285 295.077 265.644 294.128 263.879 293.426L262.103 292.719V244.198L265.285 244.612C283.263 246.951 299.261 256.189 310.332 270.624L312.288 273.173L270.261 297.438ZM267.74 288.976C268.763 289.477 269.748 290.047 270.69 290.681L303.834 271.544C294.497 260.564 281.871 253.271 267.739 250.696V288.976H267.74ZM242.672 297.438L200.644 273.173L202.6 270.624C213.672 256.189 229.67 246.951 247.647 244.613L250.829 244.199V292.72L249.053 293.427C247.289 294.129 245.647 295.078 244.172 296.248L242.672 297.438ZM209.098 271.545L242.242 290.682C243.184 290.048 244.17 289.478 245.192 288.977V250.699C231.062 253.272 218.436 260.564 209.098 271.545Z" fill="white"/>
</g>
<defs>
<clipPath id="clip0">
<rect width="512" height="512" fill="white"/>
</clipPath>
</defs>
</svg>
