<svg width="512" height="512" viewBox="0 0 512 512" fill="none" xmlns="http://www.w3.org/2000/svg">
<g clip-path="url(#clip0)">
<path d="M512 256C512 296.375 502.648 334.576 485.992 368.546C476.243 388.441 463.986 406.883 449.64 423.455C402.693 477.696 333.354 512 256 512C178.625 512 109.255 477.665 62.318 423.403C47.972 406.831 35.725 388.388 25.976 368.494C9.341 334.535 0 296.354 0 256C0 114.615 114.615 0 256 0C397.385 0 512 114.615 512 256Z" fill="#1D2123"/>
<path d="M499.503 288.392C499.503 316.479 494.749 343.448 485.992 368.546C476.243 388.441 463.986 406.883 449.64 423.455C402.693 477.696 333.354 512 256 512C178.625 512 109.255 477.665 62.3181 423.403C47.9721 406.831 35.7251 388.388 25.9761 368.494C17.2301 343.406 12.4861 316.458 12.4861 288.392C12.4871 153.903 121.511 44.889 256 44.889C390.478 44.889 499.503 153.903 499.503 288.392Z" fill="#DCA200"/>
<path d="M492.074 288.392C492.074 338.62 476.39 385.181 449.641 423.456C402.693 477.696 333.354 512 256 512C178.625 512 109.255 477.665 62.318 423.403C35.59 385.139 19.916 338.599 19.916 288.392C19.916 158.009 125.618 52.308 256 52.308C386.382 52.308 492.074 158.009 492.074 288.392Z" fill="#234EA8"/>
<path d="M113.707 398.609C114.68 397.842 115.98 398.452 116.804 399.496L126.724 412.064C127.52 413.072 126.817 414.329 125.844 415.096C124.728 415.977 123.357 416.24 122.618 415.304L114.773 405.365L107.571 411.05L111.92 416.56C112.659 417.496 112.157 418.711 111.184 419.478C110.355 420.132 109.042 420.468 108.247 419.459L103.898 413.949L94.031 421.738C93.058 422.505 91.616 421.715 90.707 420.562C89.769 419.374 89.363 417.823 90.336 417.056L113.707 398.609Z" fill="white"/>
<path d="M114.831 433.618L123.54 424.239C128.753 418.625 134.117 419.725 138.555 423.845C142.993 427.966 144.52 433.265 139.306 438.879L130.597 448.258C125.384 453.872 119.986 452.741 115.548 448.621C111.111 444.501 109.618 439.232 114.831 433.618ZM134.937 434.821C137.403 432.165 137.182 429.706 134.998 427.677C132.78 425.616 130.377 425.641 127.912 428.297L119.203 437.676C116.737 440.332 116.891 442.728 119.109 444.789C121.294 446.818 123.763 446.857 126.229 444.201L134.937 434.821Z" fill="white"/>
<path d="M138.696 454.733L145.811 444.096C150.07 437.728 155.54 437.966 160.572 441.332C165.605 444.698 167.951 449.689 163.692 456.056L156.577 466.694C152.318 473.062 146.81 472.798 141.777 469.433C136.745 466.065 134.437 461.101 138.696 454.733ZM158.736 452.74C160.751 449.728 160.143 447.336 157.665 445.678C155.149 443.995 152.781 444.399 150.767 447.41L143.652 458.047C141.637 461.059 142.168 463.401 144.684 465.083C147.163 466.74 149.605 466.388 151.62 463.376L158.736 452.74Z" fill="white"/>
<path d="M192.613 458.45C193.779 458.99 193.741 460.49 193.201 461.655C192.603 462.945 191.439 463.822 190.357 463.321L184.279 460.506L173.231 484.359C172.711 485.483 171.067 485.429 169.735 484.812C168.361 484.176 167.299 482.976 167.82 481.852L178.868 457.999L172.749 455.164C171.666 454.662 171.563 453.25 172.18 451.918C172.72 450.752 173.839 449.754 175.005 450.294L192.613 458.45Z" fill="white"/>
<path d="M198.752 462.762C199.091 461.571 200.501 461.303 201.781 461.667L210.298 464.085C214.887 465.388 218.742 468.104 216.962 474.37C215.935 477.988 213.846 479.971 211.219 480.321C213.61 482.144 214.974 484.392 213.722 488.805L213.459 489.732C211.505 496.616 206.964 497.997 201.978 496.581L192.623 493.925C191.079 493.486 190.346 492.372 190.609 491.445L198.752 462.762ZM202.214 491.212C204.906 491.977 206.908 490.972 207.86 487.618L208.061 486.912C209.038 483.47 207.801 481.784 205.109 481.02L200.123 479.604L197.229 489.797L202.214 491.212ZM201.4 475.102L206.342 476.505C208.725 477.181 210.311 475.963 210.95 473.712C211.602 471.417 210.678 469.63 208.429 468.991L203.531 467.6L201.4 475.102Z" fill="white"/>
<path d="M220.126 498.532C220.136 498.441 220.203 498.263 220.27 498.087L232.381 470.44C232.949 469.12 234.709 468.677 236.395 468.873C238.126 469.074 239.739 469.906 239.99 471.321L245.469 501.003C245.494 501.19 245.523 501.332 245.508 501.469C245.344 502.882 243.082 503.682 241.486 503.497C240.483 503.381 239.745 502.972 239.618 502.08L238.588 495.819L228.153 494.612L225.719 500.473C225.391 501.312 224.579 501.542 223.577 501.426C221.982 501.241 219.956 499.991 220.126 498.532ZM237.85 491.024L235.504 476.575L229.921 490.106L237.85 491.024Z" fill="white"/>
<path d="M258.164 503.908C256.835 503.956 255.528 503.362 255.483 502.123L254.4 472.324C254.353 471.041 255.8 470.437 257.313 470.382C258.78 470.329 260.313 470.824 260.36 472.108L261.321 498.561L272.508 498.155C273.7 498.111 274.343 499.373 274.391 500.703C274.438 501.986 273.89 503.338 272.698 503.381L258.164 503.908Z" fill="white"/>
<path d="M287.22 501.612C285.911 501.846 284.534 501.441 284.315 500.221L279.062 470.87C278.835 469.606 280.184 468.805 281.674 468.539C283.119 468.281 284.706 468.556 284.932 469.82L289.594 495.875L300.612 493.903C301.785 493.693 302.599 494.852 302.833 496.161C303.06 497.425 302.707 498.84 301.532 499.05L287.22 501.612Z" fill="white"/>
<path d="M326.341 461.257C323.51 462.455 322.567 464.698 323.962 467.993L328.95 479.78C330.345 483.076 332.611 483.959 335.527 482.726C339.371 481.099 338.548 478.21 337.923 476.381C337.453 475.035 338.457 474.113 339.894 473.504C341.795 472.699 342.915 472.873 343.827 475.027C345.991 480.139 343.184 485.163 337.27 487.666C331.946 489.919 326.445 489.159 323.459 482.104L318.471 470.316C315.485 463.261 318.812 458.764 324.135 456.511C330.007 454.026 335.514 455.381 337.588 460.282C338.518 462.479 337.845 463.361 335.986 464.148C334.423 464.809 333.085 464.827 332.507 463.579C331.867 462.306 330.355 459.558 326.341 461.257Z" fill="white"/>
<path d="M359.316 476.455C358.182 477.152 356.752 477.277 356.103 476.222L340.489 450.816C339.816 449.722 340.778 448.484 342.069 447.692C343.32 446.923 344.898 446.599 345.57 447.694L359.431 470.246L368.968 464.385C369.985 463.76 371.165 464.543 371.861 465.676C372.534 466.77 372.722 468.216 371.706 468.841L359.316 476.455Z" fill="white"/>
<path d="M372.815 427.702C371.984 426.722 372.749 425.353 373.905 424.375C375.025 423.426 376.536 422.868 377.367 423.848L391.242 440.232C396.194 446.078 394.32 451.392 389.63 455.364C384.904 459.367 379.389 460.31 374.438 454.462L360.563 438.078C359.732 437.098 360.497 435.729 361.653 434.75C362.773 433.801 364.284 433.243 365.115 434.223L378.99 450.607C381.302 453.337 383.835 453.418 386.251 451.372C388.667 449.326 389.005 446.815 386.693 444.085L372.815 427.702Z" fill="white"/>
<path d="M382.697 418.496C381.754 417.692 382.099 416.298 382.963 415.286L388.709 408.55C391.805 404.92 395.88 402.547 400.836 406.775C403.698 409.216 404.63 411.941 403.855 414.476C406.509 413.061 409.12 412.757 412.61 415.734L413.342 416.359C418.787 421.004 418.152 425.708 414.787 429.651L408.475 437.05C407.433 438.271 406.115 438.474 405.382 437.848L382.697 418.496ZM395.019 421.229L398.353 417.32C399.961 415.435 399.513 413.486 397.733 411.967C395.918 410.418 393.908 410.514 392.389 412.293L389.084 416.167L395.019 421.229ZM410.006 427.198C411.822 425.069 411.743 422.83 409.09 420.567L408.532 420.091C405.809 417.769 403.761 418.191 401.944 420.321L398.579 424.265L406.641 431.143L410.006 427.198Z" fill="white"/>
<path d="M143.897 107.515C140.577 109.76 139.936 112.868 142.55 116.732L151.902 130.554C154.516 134.418 157.64 134.977 161.057 132.665C165.565 129.615 163.783 126.126 162.523 123.945C161.583 122.342 162.635 120.909 164.319 119.769C166.548 118.26 168.024 118.201 169.734 120.727C173.79 126.722 171.466 133.855 164.53 138.548C158.288 142.771 151.057 143.186 145.46 134.913L136.108 121.091C130.51 112.817 133.634 106.226 139.876 102.003C146.762 97.3439 154.147 97.6909 158.035 103.438C159.778 106.015 159.139 107.312 156.96 108.788C155.127 110.028 153.421 110.389 152.366 108.935C151.23 107.464 148.603 104.33 143.897 107.515Z" fill="white"/>
<path d="M195.079 100.95L182.549 105.859L188.81 121.842C189.399 123.346 187.866 124.845 186.085 125.543C184.247 126.263 182.159 126.181 181.571 124.678L167.391 88.48C166.78 86.921 168.3 85.554 170.138 84.834C171.921 84.136 174.02 84.085 174.63 85.644L180.324 100.18L192.854 95.271L187.16 80.735C186.549 79.176 188.069 77.809 189.907 77.089C191.69 76.391 193.789 76.34 194.399 77.899L208.579 114.097C209.168 115.601 207.635 117.1 205.854 117.798C204.016 118.518 201.928 118.436 201.34 116.933L195.079 100.95Z" fill="white"/>
<path d="M222.094 88.3909L231.075 86.9729C232.611 86.7309 233.731 88.0669 233.983 89.6629C234.197 91.0219 233.681 92.7379 232.027 92.9989L223.046 94.4169L224.922 106.292L241.642 103.652C243.178 103.41 244.316 104.865 244.605 106.696C244.857 108.292 244.359 110.126 242.705 110.388L221.671 113.71C219.957 113.981 218.173 113.414 217.921 111.82L211.866 73.4739C211.614 71.8779 213.138 70.7909 214.851 70.5199L235.885 67.1979C237.539 66.9369 238.578 68.5289 238.83 70.1239C239.119 71.9559 238.485 73.6899 236.949 73.9339L220.229 76.5739L222.094 88.3909Z" fill="white"/>
<path d="M255.423 110.127C253.69 110.059 252.049 109.157 252.113 107.543L253.633 68.695C253.699 67.021 255.639 66.38 257.611 66.457C259.523 66.532 261.468 67.326 261.402 69L260.052 103.485L274.635 104.056C276.189 104.117 276.9 105.821 276.832 107.554C276.766 109.228 275.922 110.93 274.368 110.869L255.423 110.127Z" fill="white"/>
<path d="M303.548 104.884C305.628 96.157 286.315 94.382 289.601 80.593C291.667 71.925 299.821 70.732 306.512 72.327C309.944 73.145 317.372 75.776 316.457 79.616C316.138 80.955 314.569 83.409 312.475 82.91C310.672 82.481 309.861 79.951 304.974 78.786C300.785 77.788 297.997 78.906 297.332 81.699C295.612 88.913 314.884 90.863 311.293 105.931C309.31 114.25 302.466 117.169 294.437 115.256C286.816 113.439 281.913 108.212 282.717 104.838C283.105 103.209 285.201 101.127 287.004 101.556C289.389 102.124 289.892 106.979 295.827 108.393C299.316 109.225 302.716 108.375 303.548 104.884Z" fill="white"/>
<path d="M333.053 101.367L341.287 105.225C342.696 105.884 342.873 107.62 342.188 109.082C341.605 110.328 340.215 111.46 338.698 110.75L330.464 106.892L325.363 117.78L340.692 124.962C342.101 125.621 342.228 127.465 341.441 129.144C340.756 130.607 339.316 131.847 337.8 131.137L318.516 122.103C316.946 121.367 315.784 119.898 316.469 118.435L332.939 83.2799C333.624 81.8179 335.496 81.7699 337.066 82.5059L356.35 91.5399C357.867 92.2509 357.835 94.1509 357.15 95.6139C356.363 97.2929 354.866 98.3749 353.457 97.7149L338.128 90.5329L333.053 101.367Z" fill="white"/>
<path d="M345.075 131.272C345.147 131.177 345.34 131.023 345.533 130.869L377.519 107.949C379.035 106.849 381.303 107.524 383.062 108.865C384.87 110.243 386.121 112.25 385.462 114.004L371.835 150.92C371.738 151.147 371.676 151.325 371.567 151.469C370.443 152.943 367.374 152.333 365.708 151.065C364.661 150.268 364.107 149.318 364.558 148.233L367.573 140.529L356.681 132.226L350.051 137.175C349.124 137.897 348.062 137.614 347.016 136.817C345.353 135.544 343.916 132.793 345.075 131.272ZM369.942 134.66L376.935 116.903L361.666 128.351L369.942 134.66Z" fill="white"/>
<path d="M256 456.004C348.569 456.004 423.612 380.962 423.612 288.392C423.612 195.822 348.569 120.78 256 120.78C163.43 120.78 88.3879 195.822 88.3879 288.392C88.3879 380.962 163.43 456.004 256 456.004Z" fill="#DCA200"/>
<path d="M256 447.864C344.074 447.864 415.472 376.466 415.472 288.392C415.472 200.318 344.074 128.92 256 128.92C167.926 128.92 96.5281 200.318 96.5281 288.392C96.5281 376.466 167.926 447.864 256 447.864Z" fill="white"/>
<path d="M362.074 271.842C345.233 268.938 338.555 281.226 338.555 281.226C338.555 271.644 364.297 255.484 370.203 249.578C381.277 238.504 373.49 212.802 352.781 216.094C332.067 219.381 335.359 236.611 335.359 236.611C335.422 235.863 335.558 235.151 335.75 234.474L335.359 236.611C336.567 229.352 346.762 224.992 351.52 233.417C359.432 247.426 322.484 257.081 322.484 277.986C322.484 296.714 336.903 305.062 341.357 312.102C345.857 319.216 346.796 331.532 334.97 334.024C325.8 335.956 316.612 330.151 312.308 323.802C311.407 322.027 310.613 320.186 309.914 318.323C306.461 309.113 305.353 299.401 305.353 294.682C305.353 284.421 298.773 277.26 298.773 277.26L298.791 267.737C302.734 269.636 307.38 270.246 311.933 266.999C323.356 258.869 313.291 246.482 313.291 246.482C313.291 246.482 312.129 253.259 303.802 250.739C295.48 248.225 292.966 231.773 300.898 227.708C308.836 223.643 316.193 233.516 316.193 233.516C314.254 228.87 315.955 218.099 315.955 218.099C314.457 218.598 312.465 218.918 309.997 218.61C303.801 217.838 307.093 208.93 313.482 207.385C319.869 205.834 319.481 211.833 319.481 211.833C321.032 208.175 323.923 204.133 326.548 200.887L326.066 198.187L328.185 198.907C330.38 196.328 332.064 194.609 332.064 194.609C332.064 194.609 329.741 190.736 326.065 189.382C324.073 188.644 323.329 187.118 323.068 185.869C322.812 184.667 321.826 183.755 320.618 183.535C309.445 181.48 303.841 180.243 295.869 176.799C287.35 173.123 287.739 164.023 287.739 164.023C269.69 173.024 275.301 179.702 275.301 179.702C273.939 179.702 272.354 179.702 270.51 179.702C261.028 179.702 258.507 187.832 258.507 187.832C258.507 187.832 265.719 189.138 266.736 193.929C267.753 198.72 266.736 203.456 258.461 208.274C255.388 208.84 252.801 207.928 250.931 206.81L247.672 204.091C240.947 213.382 253.09 219.19 253.09 219.19C253.09 225.723 244.089 236.756 244.089 236.756C237.768 237.598 225.721 235.003 221.012 232.665C220.887 232.599 220.761 232.534 220.636 232.469C220.612 232.456 220.585 232.443 220.561 232.43C219.447 231.853 218.338 231.305 217.248 230.786C217.248 230.786 208.829 223.098 201.018 220.358V214.932C201.018 214.932 217.278 206.802 217.278 192.476C217.278 171.959 198.115 170.02 194.247 170.02C191.152 169.772 175.565 172.441 173.242 185.217C170.919 197.993 176.871 208.736 188.822 212.028L183.212 214.351C185.084 216.223 187.635 216.914 189.937 217.094V220.009L189.02 219.577C189.02 219.577 183.986 220.738 181.663 225.187C179.34 229.641 183.986 232.934 183.986 232.934C183.986 232.934 180.31 233.898 180.31 236.999C180.31 240.094 183.597 242.998 183.597 242.998C182.053 247.835 186.889 250.547 189.601 250.547V298.745C189.601 298.745 184.81 300.586 183.817 304.529C183.817 304.529 176.529 305.33 177.209 315.394C179.332 313.271 181.791 312.918 183.811 313.144C183.81 313.145 179.143 317.276 181.855 323.325C183.703 321.479 185.726 320.633 187.509 320.285C187.509 320.285 186.942 324.927 190.182 328.168V365.089H186.454V370.025V372.057V375.106H191.826C188.851 376.922 187.758 380.333 187.758 383.237C187.758 383.237 187.724 384.707 188.722 386.293V386.294H188.723C189.734 387.898 191.802 389.62 196.035 390.058C204.455 390.929 207.359 376.993 198.939 374.815H203.875V364.22H200.971V333.441C201.798 333.691 202.841 333.719 204.118 333.199C204.118 333.199 204.118 326.039 213.212 321.585C222.312 317.137 228.699 325.07 228.699 325.07C245.54 321.005 258.896 304.553 258.896 304.553L266.253 317.909C260.835 320.522 239.587 334.023 231.747 347.96C223.907 361.897 238.425 367.414 238.425 367.414C237.119 391.078 228.989 393.11 223.907 393.11C218.826 393.11 207.502 390.787 201.115 395.723C194.728 400.659 199.083 409.851 199.083 409.851C196.597 418.737 203.92 421.274 203.92 421.274L203.658 420.048C202.89 414.052 211.059 412.174 213.605 412.174C214.019 412.174 214.462 412.174 214.911 412.174C213.024 420.06 220.184 423.016 220.184 423.016C220.184 415.27 226.196 412.838 230.585 412.093C230.585 419.607 237.994 420.694 237.994 420.694C236.833 415.079 243.412 412.372 245.932 412.372C248.446 412.372 255.414 410.63 257.546 398.435C260.833 381.787 278.405 380.241 278.405 380.241C269.184 378.174 261.071 374.265 263.353 366.879C266.026 358.217 275.196 355.583 282.871 354.958L282.869 354.96C282.869 354.96 286.919 371.188 307.243 375.398C307.243 375.398 314.502 387.884 305.792 397.755C305.792 397.755 277.099 394.126 282.518 414.305C282.518 414.305 283.311 420.132 286.966 423.787C286.966 418.95 291.031 415.465 296.455 415.465C298.255 415.465 299.772 415.465 301.002 415.465C301.002 415.465 300.369 423.16 304.968 424.756C304.968 417.877 311.074 416.168 314.78 415.764C314.78 415.764 314.992 421.615 319.684 422.823L319.726 422.024C320.049 418.976 322.221 417.277 324.757 416.341C329.499 414.589 332.404 409.764 331.986 404.727C329.542 375.221 346.396 358.366 346.396 358.366C320.23 369.254 311.966 338.489 311.751 337.67C317.018 347.147 356.273 355.835 361.297 335.329C366.331 314.812 349.492 307.264 346.007 297.194C345.838 296.704 345.72 296.218 345.628 295.734C344.517 288.005 354.462 285.14 360.96 293.082C367.493 301.067 360.96 306.583 360.96 306.583L365.17 304.358C380.895 294.663 378.914 274.745 362.074 271.842ZM201.22 253.259C201.22 253.259 208.928 254.383 215.224 256.954C225.14 266.87 213.403 269.978 213.403 269.978C215 272.388 217.886 274.746 223.089 274.746C233.739 274.746 238.768 266.808 238.768 266.808C243.222 267.778 244.964 273.004 244.964 273.004C244.964 273.004 222.679 283.72 217.09 289.31C211.501 294.9 201.219 297.585 201.219 297.585V253.26H201.22V253.259ZM235.382 417.935L235.467 417C236.251 418.719 237.407 420.061 237.831 420.52L235.382 417.935Z" fill="#D1D3D4"/>
<path d="M321.52 213.189C321.52 213.189 324.133 218.802 332.844 218.416C341.555 218.03 342.909 208.641 342.909 205.64C342.909 205.64 336.618 216.964 324.617 208.93L321.52 213.189Z" fill="#D1D3D4"/>
<path d="M326.651 229.932C327.859 222.673 338.054 218.313 342.812 226.738C350.724 240.747 313.776 250.402 313.776 271.307C313.776 290.035 328.195 298.383 332.649 305.423C337.149 312.537 338.088 324.853 326.262 327.345C314.435 329.837 302.574 319.46 301.206 311.643L298.097 319.36L312.034 334.603L333.375 338.522L348.183 327.489L344.989 308.035L327.567 280.597V263.032L351.086 241.255L356.894 222.092L341.506 215.559L330.182 220.35L327.714 224.124L326.651 229.932Z" fill="#6979B7"/>
<path d="M229.284 414.015C229.284 414.015 221.875 412.928 221.875 405.414C221.875 401.82 215.928 401.82 215.928 401.82L213.315 408.353L210.992 412.418L211.474 416.337C211.474 416.337 204.314 413.381 206.201 405.495C208.088 397.609 199.959 404.723 199.959 404.723L195.749 407.482L194.298 410.386L195.215 414.596C195.215 414.596 187.892 412.06 190.378 403.173C190.378 403.173 186.023 393.98 192.41 389.045C198.797 384.109 210.121 386.432 215.202 386.432C220.283 386.432 228.413 384.4 229.72 360.736C229.72 360.736 215.202 355.219 223.042 341.282C230.882 327.345 252.13 313.844 257.548 311.231C262.966 308.618 262.966 301.795 262.966 301.795L270.08 293.375L285.904 295.698L283.872 328.217L250.481 349.413L239.303 396.45L227.398 403.273L226.672 411.258L229.284 414.015Z" fill="#6979B7"/>
<path d="M356.459 297.683L352.249 299.908C352.249 299.908 358.782 294.391 352.249 286.407C345.716 278.423 335.696 281.359 336.931 289.181C338.167 297.004 330.908 287.568 330.908 287.568L340.925 271.454L359.798 272.616L362.557 284.811L359.944 293.957L356.459 297.683Z" fill="#6979B7"/>
<path d="M179.051 376.561C179.051 373.655 180.145 370.246 183.119 368.429C186.094 366.613 192.846 374.091 192.846 374.091L190.668 379.608L184.571 381.786L180.016 379.619L179.051 376.561Z" fill="#6979B7"/>
<path d="M211.854 225.752C216.196 228.145 228.849 230.948 235.382 230.078C235.382 230.078 244.383 219.045 244.383 212.512C244.383 212.512 232.24 206.704 238.965 197.413L249.755 206.414V201.596C258.03 196.778 259.046 192.041 258.03 187.251C257.013 182.46 249.801 181.154 249.801 181.154L254.859 176.096H262.53L266.595 173.024C266.595 173.024 260.986 166.346 279.033 157.345L277.192 164.459L279.66 182.46L265.142 214.398L254.545 243.288L239.302 255.773L235.092 258.532L227.688 256.645L220.72 235.159L211.854 225.752Z" fill="#6979B7"/>
<path d="M204.691 263.3C204.691 263.3 216.428 260.192 206.512 250.276C196.596 240.36 219.799 240.36 219.799 240.36L225.026 260.323L214.186 265.356H208.378L204.691 263.3Z" fill="#6979B7"/>
<path d="M181.231 208.592V215.996L206.346 226.304L208.54 224.11C208.54 224.11 198.07 214.545 189.65 212.948L188.633 206.706L181.231 208.592Z" fill="#6979B7"/>
<path d="M180.116 205.351C168.166 202.059 162.213 191.316 164.536 178.54C166.859 165.764 182.446 163.095 185.541 163.343C188.636 163.591 181.522 173.023 181.522 173.023L177.748 179.556L184.426 199.59L180.116 205.351Z" fill="#6979B7"/>
<path d="M236.252 266.325C236.252 266.325 213.967 277.041 208.378 282.631C202.789 288.221 192.507 290.906 192.507 290.906L188.924 288.874V242.708L180.893 243.87V292.068C180.893 292.068 176.102 293.909 175.109 297.852C175.109 297.852 167.821 298.653 168.501 308.717L171.939 304.408L175.103 306.468C175.103 306.468 170.435 310.598 173.147 316.649L177.02 311.812L181.23 310.07L178.801 313.609C178.801 313.609 178.234 318.251 181.474 321.492V358.413H177.746V365.381L187.618 364.51L189.505 349.556L189.941 325.022C189.941 325.022 191.735 328.019 195.411 326.52L191.926 318.971V304.262L226.379 293.954L255.849 268.694L254.688 262.886L239.589 263.757L236.252 266.325Z" fill="#6979B7"/>
<path d="M274.158 348.282C274.158 348.282 278.208 364.51 298.532 368.72C298.532 368.72 305.791 381.205 297.081 391.077C297.081 391.077 268.388 387.448 273.807 407.627C273.807 407.627 274.6 413.454 278.255 417.109L277.773 412.127L283.435 406.61L292.291 408.788C292.291 408.788 291.658 416.483 296.257 418.079L295.63 413.433L301.872 407.191L306.067 409.086C306.067 409.086 306.279 414.937 310.971 416.145L311.598 404.142L315.808 366.832L297.952 351.153L282.128 342.298L274.158 348.282Z" fill="#6979B7"/>
<path d="M353.364 265.164C336.523 262.26 329.845 274.548 329.845 274.548C329.845 264.966 355.587 248.806 361.493 242.9C372.567 231.826 364.78 206.124 344.071 209.416C323.357 212.703 326.649 229.933 326.649 229.933C327.613 218.51 344.552 215.317 349.296 223.353C355.196 233.898 350.84 238.452 328.972 257.225C307.846 275.36 333.229 295.162 339.228 304.651C345.232 314.133 348.328 334.069 325.1 333.106C301.872 332.136 296.645 298.264 296.645 288.003C296.645 277.742 290.065 270.581 290.065 270.581L290.083 261.058C294.026 262.957 298.672 263.567 303.225 260.32C314.648 252.19 304.583 239.803 304.583 239.803C304.583 239.803 303.421 246.58 295.094 244.06C286.772 241.546 284.258 225.094 292.19 221.029C300.128 216.964 307.485 226.836 307.485 226.836C305.546 222.19 307.247 211.419 307.247 211.419C305.749 211.918 303.757 212.238 301.289 211.93C295.093 211.158 298.385 202.25 304.774 200.705C311.161 199.154 310.773 205.153 310.773 205.153C312.324 201.495 315.216 197.453 317.84 194.207L317.358 191.507L319.477 192.227C321.672 189.648 323.356 187.929 323.356 187.929C323.356 187.929 321.033 184.056 317.357 182.702C315.365 181.964 314.621 180.438 314.36 179.189C314.104 177.987 313.118 177.075 311.91 176.855C300.737 174.8 295.133 173.563 287.161 170.119C278.642 166.443 279.031 157.343 279.031 157.343C266.447 166.825 273.997 173.022 273.997 173.022C273.997 173.022 271.286 173.022 261.802 173.022C252.32 173.022 249.799 181.152 249.799 181.152C255.803 175.153 267.417 183.086 261.802 191.994C249.218 210.188 238.963 197.412 238.963 197.412C238.963 209.607 252.9 211.349 252.9 211.349C251.739 218.126 241.477 234.768 241.477 234.768C241.477 234.768 243.991 237.288 242.058 245.418C240.124 253.548 232.169 254.123 232.169 254.123C234.138 250.186 234.538 245.064 229.864 239.222C219.022 225.674 192.31 217.736 192.31 217.736V208.254C192.31 208.254 208.57 200.124 208.57 185.798C208.57 165.281 189.407 163.342 185.539 163.342C181.666 163.342 170.244 166.054 169.082 182.703C167.921 199.346 180.115 205.35 180.115 205.35L174.505 207.673C178.86 212.028 186.891 209.996 186.891 209.996V215.995L180.311 212.9C180.311 212.9 175.277 214.061 172.954 218.51C170.631 222.964 175.277 226.257 175.277 226.257C175.277 226.257 171.601 227.221 171.601 230.322C171.601 233.417 174.888 236.321 174.888 236.321C173.344 241.158 178.18 243.87 180.892 243.87C183.598 243.87 186.891 246.582 186.891 250.45C186.891 254.323 186.891 290.907 186.891 290.907H192.506V246.58C192.506 246.58 212.442 249.484 214.376 256.643C216.315 263.803 204.69 263.298 204.69 263.298C206.287 265.708 209.173 268.066 214.376 268.066C225.026 268.066 230.055 260.128 230.055 260.128C234.509 261.098 236.251 266.324 236.251 266.324L251.541 267.486C251.541 267.486 239.346 275.227 221.542 285.68C203.732 296.133 192.89 296.324 184.761 296.324C176.631 296.324 176.73 300.488 176.73 300.488C169.471 300.488 168.501 308.717 168.501 308.717C173.054 304.164 179.151 307.747 179.151 307.747C173.727 310.07 173.147 316.65 173.147 316.65C177.891 311.911 183.797 313.746 183.797 313.746C181.184 316.359 181.474 321.493 181.474 321.493C183.283 318.887 185.2 317.879 186.892 317.636V359.575C186.892 359.575 186.311 361.898 177.746 363.349V368.43H183.118C183.118 368.43 190.232 369.592 188.054 376.27C186.502 381.029 181.246 379.928 179.05 376.563C179.05 376.563 178.908 382.513 187.328 383.384C195.748 384.255 198.652 370.319 190.232 368.141H195.168V357.544H192.264V322.274C193.212 324.816 195.411 326.523 195.411 326.523C195.411 326.523 195.411 319.363 204.505 314.909C213.605 310.461 219.992 318.394 219.992 318.394C236.833 314.329 250.189 297.877 250.189 297.877L257.546 311.233C257.546 311.233 263.835 314.038 268.771 309.101C273.707 304.164 269.967 296.233 269.967 296.233C274.148 296.68 278.318 298.277 279.224 302.713C281.158 312.202 271.483 318.2 261.802 322.655C252.122 327.103 233.347 333.491 230.252 343.944C227.151 354.397 238.092 359.623 238.092 359.623C238.092 359.623 238.092 372.497 231.798 381.109C225.509 389.726 220.381 390.209 204.313 390.209C188.245 390.209 190.376 403.176 190.376 403.176H195.213C190.277 408.112 195.213 414.599 195.213 414.599C193.088 407.631 202.181 405.499 204.893 405.499C207.605 405.499 211.473 405.499 211.473 405.499C206.827 410.145 211.473 416.341 211.473 416.341C211.473 404.146 226.38 405.116 226.38 405.116C224.638 409.373 229.284 414.019 229.284 414.019C228.122 408.404 234.702 405.697 237.222 405.697C239.736 405.697 246.704 403.955 248.836 391.76C252.123 375.112 269.695 373.566 269.695 373.566C260.474 371.499 252.361 367.59 254.643 360.204C259.48 344.525 285.612 348.59 285.612 348.59C285.612 363.108 305.356 361.174 305.356 361.174C315.809 377.045 301.871 393.693 301.871 393.693C271.094 391.951 273.806 407.63 273.806 407.63H278.254C275.06 410.824 278.254 417.112 278.254 417.112C278.254 412.275 282.319 408.79 287.743 408.79C293.161 408.79 296.065 408.79 296.065 408.79C292.099 412.756 296.256 418.081 296.256 418.081C296.256 408.209 308.84 408.981 308.84 408.981C307.87 412.273 310.972 416.147 310.972 416.147C310.972 412.636 313.236 410.729 315.939 409.703C320.695 407.898 323.701 403.165 323.277 398.095C320.811 368.561 337.684 351.688 337.684 351.688C311.518 362.576 303.255 331.811 303.039 330.992C308.306 340.469 347.561 349.157 352.585 328.651C357.619 308.134 340.78 300.586 337.295 290.516C333.81 280.453 347.358 271.55 355.489 279.68C363.619 287.809 356.459 297.681 356.459 297.681C372.184 287.985 370.203 268.066 353.364 265.164Z" fill="#234EA8"/>
<path d="M296.84 191.509C296.84 191.509 285.323 188.315 288.033 184.734H293.937C293.937 184.734 293.066 188.508 297.711 189.863L296.84 191.509Z" fill="white"/>
<path d="M299.792 187.783L301.583 184.831H297.518C297.517 184.831 296.259 187.783 299.792 187.783Z" fill="white"/>
<path d="M189.991 224.222C189.991 224.222 182.925 218.318 178.764 218.318C174.602 218.318 175.183 223.738 177.602 224.222C180.02 224.705 186.409 225.674 189.991 224.222Z" fill="#6979B7"/>
<path d="M179.184 227.569C181.121 227.959 186.115 229.102 189.409 231.093C189.409 231.093 185.573 233.501 178.244 233.094C177.575 233.056 176.958 232.707 176.615 232.132C176.017 231.129 175.548 229.44 177.646 227.888C178.085 227.564 178.649 227.461 179.184 227.569Z" fill="#6979B7"/>
<path d="M187.861 237.772C185.657 236.744 181.893 236.273 180.205 236.105C179.437 236.029 178.663 236.4 178.327 237.095C178.081 237.603 178.015 238.288 178.509 239.141C178.9 239.815 179.685 240.156 180.454 240.033C182.274 239.745 185.888 239.04 187.861 237.772Z" fill="#6979B7"/>
<path d="M181.365 186.246C181.226 185.781 181.156 185.294 181.156 184.783C181.156 184.086 181.29 183.418 181.539 182.808C181.354 184.011 181.284 185.166 181.365 186.246Z" stroke="#6979B7" stroke-miterlimit="10"/>
<path d="M189.362 199.01L189.943 193.638C183.81 192.884 181.651 190.009 181.366 186.245C181.999 188.463 184.043 190.084 186.459 190.084C189.386 190.084 191.761 187.709 191.761 184.782C191.761 181.855 189.386 179.48 186.459 179.48C184.229 179.48 182.324 180.856 181.541 182.807C181.575 182.551 181.622 182.285 181.668 182.023C182.974 174.909 196.767 173.893 197.492 183.765C198.217 193.638 189.362 199.01 189.362 199.01Z" fill="#6979B7"/>
<path d="M186.462 190.082C189.39 190.082 191.764 187.708 191.764 184.78C191.764 181.852 189.39 179.478 186.462 179.478C183.534 179.478 181.16 181.852 181.16 184.78C181.16 187.708 183.534 190.082 186.462 190.082Z" fill="#D1D3D4"/>
<path d="M315.906 202.253L312.809 206.512C312.809 206.512 315.422 212.125 324.133 211.739C332.844 211.353 334.198 201.964 334.198 198.963C334.198 198.961 327.907 210.285 315.906 202.253Z" fill="#DE0029"/>
<path d="M451.114 258.678C462.981 258.678 472.6 249.058 472.6 237.192C472.6 225.326 462.981 215.706 451.114 215.706C439.248 215.706 429.628 225.326 429.628 237.192C429.628 249.058 439.248 258.678 451.114 258.678Z" fill="#DE0029"/>
<path d="M451.113 261C437.985 261 427.304 250.319 427.304 237.191C427.304 224.063 437.985 213.382 451.113 213.382C464.241 213.382 474.922 224.063 474.922 237.191C474.922 250.319 464.241 261 451.113 261ZM451.113 218.027C440.546 218.027 431.95 226.623 431.95 237.19C431.95 247.757 440.546 256.353 451.113 256.353C461.68 256.353 470.276 247.757 470.276 237.19C470.276 226.624 461.68 218.027 451.113 218.027Z" fill="white"/>
<path d="M451.114 361.349C462.98 361.349 472.6 351.729 472.6 339.863C472.6 327.997 462.98 318.377 451.114 318.377C439.248 318.377 429.628 327.997 429.628 339.863C429.628 351.729 439.248 361.349 451.114 361.349Z" fill="#DE0029"/>
<path d="M451.113 363.67C437.985 363.67 427.304 352.989 427.304 339.861C427.304 326.733 437.985 316.052 451.113 316.052C464.241 316.052 474.922 326.733 474.922 339.861C474.922 352.99 464.241 363.67 451.113 363.67ZM451.113 320.699C440.546 320.699 431.95 329.295 431.95 339.862C431.95 350.429 440.546 359.025 451.113 359.025C461.68 359.025 470.276 350.429 470.276 339.862C470.276 329.295 461.68 320.699 451.113 320.699Z" fill="white"/>
<path d="M61.2961 258.678C73.1624 258.678 82.7821 249.058 82.7821 237.192C82.7821 225.326 73.1624 215.706 61.2961 215.706C49.4297 215.706 39.8101 225.326 39.8101 237.192C39.8101 249.058 49.4297 258.678 61.2961 258.678Z" fill="#DE0029"/>
<path d="M61.2961 261C48.1681 261 37.4871 250.319 37.4871 237.191C37.4871 224.063 48.1681 213.382 61.2961 213.382C74.4241 213.382 85.1051 224.063 85.1051 237.191C85.1051 250.319 74.4241 261 61.2961 261ZM61.2961 218.027C50.7291 218.027 42.1331 226.623 42.1331 237.19C42.1331 247.757 50.7291 256.353 61.2961 256.353C71.8631 256.353 80.4591 247.757 80.4591 237.19C80.4591 226.624 71.8631 218.027 61.2961 218.027Z" fill="white"/>
<path d="M61.2961 361.349C73.1624 361.349 82.7821 351.729 82.7821 339.863C82.7821 327.997 73.1624 318.377 61.2961 318.377C49.4297 318.377 39.8101 327.997 39.8101 339.863C39.8101 351.729 49.4297 361.349 61.2961 361.349Z" fill="#DE0029"/>
<path d="M61.2961 363.67C48.1681 363.67 37.4871 352.989 37.4871 339.861C37.4871 326.733 48.1681 316.052 61.2961 316.052C74.4241 316.052 85.1051 326.733 85.1051 339.861C85.1051 352.99 74.4241 363.67 61.2961 363.67ZM61.2961 320.699C50.7291 320.699 42.1331 329.295 42.1331 339.862C42.1331 350.429 50.7291 359.025 61.2961 359.025C71.8631 359.025 80.4591 350.429 80.4591 339.862C80.4591 329.295 71.8631 320.699 61.2961 320.699Z" fill="white"/>
</g>
<defs>
<clipPath id="clip0">
<rect width="512" height="512" fill="white"/>
</clipPath>
</defs>
</svg>
