<svg width="30" height="30" viewBox="0 0 30 30" fill="none" xmlns="http://www.w3.org/2000/svg">
<path d="M4 16.7241V24.4827C4 25.6258 4.92588 26.5517 6.06897 26.5517H27.7931C28.9362 26.5517 29.8621 25.6258 29.8621 24.4827V16.7241H4Z" fill="#541BB7"/>
<path d="M4 13.6207H29.8621V16.7242H4V13.6207Z" fill="#37003D"/>
<path d="M29.8621 12.069V13.6207H4V12.069C4 10.9259 4.92588 10 6.06897 10H27.7931C28.9362 10 29.8621 10.9259 29.8621 12.069Z" fill="#541BB7"/>
<path d="M6.58618 18.7931H15.8965V20.8621H6.58618V18.7931Z" fill="#37003D"/>
<path d="M17.4482 18.2759H18.4827V19.3104H17.4482V18.2759Z" fill="#F2F2F2"/>
<path d="M19.5173 18.2759H20.5518V19.3104H19.5173V18.2759Z" fill="#F2F2F2"/>
<path d="M21.5862 18.2759H22.6207V19.3104H21.5862V18.2759Z" fill="#F2F2F2"/>
<path d="M8.51346 25.3559L7.81817 23.9656H6.58618V22.9311H8.45765L8.79683 23.6097L9.47546 22.9311H11.4555L12.49 23.9656H12.7931V25.0001H12.0617L11.0272 23.9656H9.9038L8.51346 25.3559Z" fill="#F2F2F2"/>
<path d="M13.2361 8.63283L14.4827 10.2414L13.2361 11.8499L13.5154 13.8621L11.6329 14.6329L10.8621 16.5155L8.84992 16.2361L7.24137 17.4828L5.63282 16.2361L3.62068 16.5155L2.84987 14.6329L0.967301 13.8621L1.24663 11.8499L0 10.2414L0.801622 9.2069L1.24663 8.63283L0.967301 6.62069L2.84987 5.84988L3.62068 3.9673L5.63282 4.24663L7.24137 3L8.84992 4.24663L10.3448 4.03953L10.8621 3.9673L11.6329 5.84988L13.5154 6.62069L13.2361 8.63283Z" fill="#27AE60"/>
<path d="M4.25732 13.0122L9.42974 6.80579L10.2245 7.468L5.05213 13.6746L4.25732 13.0122Z" fill="#F2F2F2"/>
<path d="M4.65527 8.17249H5.68976V9.20697H4.65527V8.17249Z" fill="#F2F2F2"/>
<path d="M8.79297 11.2759H9.82745V12.3104H8.79297V11.2759Z" fill="#F2F2F2"/>
</svg>
