<svg width="16" height="16" viewBox="0 0 16 16" fill="none" xmlns="http://www.w3.org/2000/svg">
    <path
        d="M2.26122 15.3333H11.1888C11.3651 15.3333 11.5076 15.1909 11.5076 15.0145V12.7826H13.7395C13.9159 12.7826 14.0583 12.6401 14.0583 12.4638V2.26086C14.0583 1.38187 13.3431 0.666656 12.4641 0.666656H3.53659C2.65759 0.666656 1.94238 1.38187 1.94238 2.26086V15.0145C1.94238 15.1909 2.08483 15.3333 2.26122 15.3333ZM11.5076 2.26086C11.5076 1.73356 11.9368 1.30434 12.4641 1.30434C12.9914 1.30434 13.4206 1.73356 13.4206 2.26086V12.1449H11.5076V2.26086ZM2.58006 2.26086C2.58006 1.73356 3.00928 1.30434 3.53659 1.30434H11.1894C10.9889 1.57087 10.8699 1.90216 10.8699 2.26086V14.6956H2.58006V2.26086Z"
        fill="#9EA6C9" />
    <path
        d="M8.44481 5.99999H4.88926C4.76632 5.99999 4.66703 6.14892 4.66703 6.33332C4.66703 6.51773 4.76632 6.66666 4.88926 6.66666H8.44481C8.56775 6.66666 8.66703 6.51773 8.66703 6.33332C8.66703 6.14892 8.56775 5.99999 8.44481 5.99999Z"
        fill="#9EA6C9" />
    <path
        d="M8.44481 7.99999H4.88926C4.76632 7.99999 4.66703 8.14892 4.66703 8.33332C4.66703 8.51773 4.76632 8.66666 4.88926 8.66666H8.44481C8.56775 8.66666 8.66703 8.51773 8.66703 8.33332C8.66703 8.14892 8.56775 7.99999 8.44481 7.99999Z"
        fill="#9EA6C9" />
    <path
        d="M6.44481 9.99999H4.88926C4.76632 9.99999 4.66703 10.1489 4.66703 10.3333C4.66703 10.5177 4.76632 10.6667 4.88926 10.6667H6.44481C6.56775 10.6667 6.66703 10.5177 6.66703 10.3333C6.66703 10.1489 6.56775 9.99999 6.44481 9.99999Z"
        fill="#9EA6C9" />
    <path
        d="M2.26122 15.3333H11.1888C11.3651 15.3333 11.5076 15.1909 11.5076 15.0145V12.7826H13.7395C13.9159 12.7826 14.0583 12.6401 14.0583 12.4638V2.26086C14.0583 1.38187 13.3431 0.666656 12.4641 0.666656H3.53659C2.65759 0.666656 1.94238 1.38187 1.94238 2.26086V15.0145C1.94238 15.1909 2.08483 15.3333 2.26122 15.3333ZM11.5076 2.26086C11.5076 1.73356 11.9368 1.30434 12.4641 1.30434C12.9914 1.30434 13.4206 1.73356 13.4206 2.26086V12.1449H11.5076V2.26086ZM2.58006 2.26086C2.58006 1.73356 3.00928 1.30434 3.53659 1.30434H11.1894C10.9889 1.57087 10.8699 1.90216 10.8699 2.26086V14.6956H2.58006V2.26086Z"
        stroke="#9EA6C9" stroke-width="0.8" />
    <path
        d="M8.44481 5.99999H4.88926C4.76632 5.99999 4.66703 6.14892 4.66703 6.33332C4.66703 6.51773 4.76632 6.66666 4.88926 6.66666H8.44481C8.56775 6.66666 8.66703 6.51773 8.66703 6.33332C8.66703 6.14892 8.56775 5.99999 8.44481 5.99999Z"
        stroke="#9EA6C9" stroke-width="0.8" />
    <path
        d="M8.44481 7.99999H4.88926C4.76632 7.99999 4.66703 8.14892 4.66703 8.33332C4.66703 8.51773 4.76632 8.66666 4.88926 8.66666H8.44481C8.56775 8.66666 8.66703 8.51773 8.66703 8.33332C8.66703 8.14892 8.56775 7.99999 8.44481 7.99999Z"
        stroke="#9EA6C9" stroke-width="0.8" />
    <path
        d="M6.44481 9.99999H4.88926C4.76632 9.99999 4.66703 10.1489 4.66703 10.3333C4.66703 10.5177 4.76632 10.6667 4.88926 10.6667H6.44481C6.56775 10.6667 6.66703 10.5177 6.66703 10.3333C6.66703 10.1489 6.56775 9.99999 6.44481 9.99999Z"
        stroke="#9EA6C9" stroke-width="0.8" />
</svg>
