<svg width="24" height="24" viewBox="0 0 24 24" fill="none" xmlns="http://www.w3.org/2000/svg">
<path d="M12 2C10.0222 2 8.08879 2.58649 6.4443 3.6853C4.79981 4.78412 3.51808 6.34591 2.76121 8.17317C2.00433 10.0004 1.8063 12.0111 2.19215 13.9509C2.578 15.8907 3.53041 17.6725 4.92894 19.0711C6.32746 20.4696 8.10929 21.422 10.0491 21.8079C11.9889 22.1937 13.9996 21.9957 15.8268 21.2388C17.6541 20.4819 19.2159 19.2002 20.3147 17.5557C21.4135 15.9112 22 13.9778 22 12C21.997 9.34877 20.9424 6.80699 19.0677 4.93228C17.193 3.05758 14.6512 2.00303 12 2V2ZM19.4792 15.0158L16.4627 15.9417L15.3848 14.325L16.0706 10.8958L18.5337 9.66417L20.2023 10.5373C20.4712 12.0299 20.3248 13.5678 19.7792 14.9829C19.678 14.9754 19.5763 14.9865 19.4792 15.0158ZM4.22084 14.9827C3.67532 13.5678 3.52895 12.0303 3.79771 10.5379L5.46625 9.66479L7.92938 10.8958L8.61521 14.325L7.53729 15.9417L4.52084 15.0158C4.42369 14.9866 4.32202 14.9754 4.22084 14.9827ZM8.42125 4.47563L11.1667 5.84833V8.15167L8.66667 9.40167L6.57688 8.35667L7.08083 5.27917C7.50149 4.96993 7.95026 4.7009 8.42125 4.47563ZM16.9192 5.27917L17.4231 8.35667L15.3333 9.40167L12.8333 8.15167V5.84833L15.5787 4.47563C16.0497 4.7009 16.4985 4.96993 16.9192 5.27917ZM10.1831 13.6667L9.60854 10.794L12 9.59833L14.3915 10.794L13.8169 13.6667H10.1831ZM19.4437 8.26042L19.0635 8.0625L18.9594 7.42396C19.1368 7.6932 19.2986 7.97249 19.4437 8.26042ZM13.2748 3.76417L12 4.40167L10.7252 3.76417C11.5701 3.63417 12.4299 3.63417 13.2748 3.76417ZM5.04167 7.42313L4.9375 8.0625L4.55729 8.26125C4.70243 7.97276 4.86416 7.69291 5.04167 7.42313ZM5.34875 17.0129L7.19688 17.5804L7.77354 19.1775C6.8318 18.6208 6.00789 17.8855 5.34813 17.0129H5.34875ZM9.86208 20.0546L8.78604 17.0754L9.94604 15.3333H14.054L15.2142 17.0735L14.1385 20.054C12.7372 20.4265 11.2628 20.4265 9.86146 20.054L9.86208 20.0546ZM16.2271 19.1775L16.8037 17.5804L18.6519 17.0129C17.9923 17.8855 17.1686 18.6208 16.2271 19.1775Z" fill="#9EA6C9"/>
</svg>
