<svg width="16" height="17" viewBox="0 0 16 17" fill="none" xmlns="http://www.w3.org/2000/svg">
    <path
        d="M15.75 1.25391C15.75 0.796875 15.3281 0.375 14.8711 0.375H0.84375C0.386719 0.375 0 0.796875 0 1.25391V15.2812C0 15.7383 0.386719 16.125 0.84375 16.125H8.40234V10.043H6.32812V7.65234H8.40234V5.89453C8.40234 3.89062 9.63281 2.76562 11.4609 2.76562C12.3047 2.76562 13.0781 2.83594 13.2891 2.87109V4.98047H12.0234C11.0391 4.98047 10.8633 5.47266 10.8633 6.14062V7.65234H13.2188L12.9023 10.043H10.8633V16.125H14.8711C15.3281 16.125 15.75 15.7383 15.75 15.2812V1.25391Z"
        fill="white" />
</svg>
