<svg width="30" height="30" viewBox="0 0 30 30" fill="none" xmlns="http://www.w3.org/2000/svg">
<g clip-path="url(#clip0)">
<path d="M24.3479 15.2109L21.5002 14.1738C21.4123 14.1387 21.3069 14.1211 21.2015 14.1211H2.95532C2.46308 14.1211 2.07642 14.5078 2.07642 15V27.3633C2.07642 28.8222 3.25409 30 4.71314 30H22.2913C23.7503 30 24.928 28.8222 24.928 27.3633V16.0371C24.928 15.668 24.6994 15.334 24.3479 15.2109Z" fill="#541BB7"/>
<path d="M24.928 16.0371V27.3633C24.928 28.8222 23.7503 30 22.2913 30H13.5022V14.1211H21.2014C21.3069 14.1211 21.4124 14.1387 21.5002 14.1738L24.3479 15.2109C24.6994 15.334 24.928 15.668 24.928 16.0371Z" fill="#541BB7"/>
<path d="M24.6116 5.72977C24.3129 4.51687 23.4163 3.56771 22.2034 3.18093C21.0081 2.81173 19.7248 3.07546 18.7933 3.91916L16.7541 5.71219L16.3499 3.02279C16.1565 1.79232 15.3655 0.755147 14.1878 0.263017C13.9593 0.175068 13.7308 0.104755 13.5023 0.0695987C12.5355 -0.123761 11.5335 0.0871769 10.7249 0.684893C9.65262 1.45833 9.10775 2.75912 9.28347 4.05984C9.47689 5.36062 10.3558 6.46805 11.6038 6.9075L13.5023 7.59305L15.8402 8.45438C15.8578 8.45438 15.8578 8.45438 15.8578 8.45438L19.9183 9.94846C20.3226 10.0891 20.7444 10.1595 21.1487 10.1595C22.0102 10.1595 22.8539 9.843 23.5218 9.2454C24.5062 8.36649 24.928 7.01291 24.6116 5.72977Z" fill="#9B51E0"/>
<path d="M23.5217 9.24544C22.8538 9.84304 22.01 10.1596 21.1486 10.1596C20.7444 10.1596 20.3225 10.0892 19.9182 9.94851L15.8577 8.45442C15.8577 8.45442 15.8577 8.45442 15.8401 8.45442L13.5022 7.59309V0.0695801C13.7307 0.104795 13.9592 0.175049 14.1877 0.262998C15.3654 0.755128 16.1565 1.7923 16.3498 3.02277L16.754 5.71217L18.7932 3.91914C19.7247 3.07545 21.008 2.81171 22.2033 3.18091C23.4162 3.56769 24.3127 4.51686 24.6115 5.72975C24.928 7.01295 24.5061 8.36653 23.5217 9.24544Z" fill="#BB6BD9"/>
<path d="M27.9338 13.7167L26.7385 17.0214C26.5978 17.3729 26.2638 17.5839 25.9123 17.5839C25.8068 17.5839 25.7013 17.5663 25.6135 17.5312L16.5255 14.2265L15.6994 11.5019L13.5021 11.994L11.5686 12.4335L2.48063 9.12876C2.0236 8.95304 1.79514 8.44321 1.95328 8.00376L3.16618 4.69918C3.39469 4.03121 3.88694 3.50375 4.51975 3.20498C5.15257 2.90621 5.87321 2.87099 6.54118 3.11708L13.5022 5.64834L13.9769 5.82406C13.9769 5.82406 15.8752 9.26944 15.928 9.26944C15.9633 9.26944 16.7191 8.84757 17.4573 8.44321C18.1954 8.03891 18.9338 7.61709 18.9338 7.61709L26.3517 10.3241C27.0197 10.5702 27.547 11.0624 27.8458 11.6952C28.1447 12.328 28.1798 13.0487 27.9338 13.7167Z" fill="#5A25B7"/>
<path d="M27.9339 13.7167L26.7386 17.0214C26.5979 17.3729 26.2639 17.5839 25.9123 17.5839C25.8069 17.5839 25.7014 17.5663 25.6136 17.5312L16.5256 14.2265L15.6995 11.5019L13.5022 11.994V5.64837L13.9769 5.82409C13.9769 5.82409 15.8752 9.26947 15.928 9.26947C15.9633 9.26947 16.7191 8.84759 17.4573 8.44324C18.1955 8.03894 18.9339 7.61712 18.9339 7.61712L26.3518 10.3241C27.0197 10.5702 27.5471 11.0624 27.8459 11.6953C28.1448 12.328 28.1799 13.0488 27.9339 13.7167Z" fill="#8254D3"/>
<path d="M10.8655 14.1211V30H16.1389V14.1211H10.8655Z" fill="#BB6BD9"/>
<path d="M13.9768 5.82415L13.5021 7.12493L11.5686 12.4336L13.5021 13.1368L15.6994 13.9278L16.5255 14.2266L18.9339 7.61718L13.9768 5.82415Z" fill="#BB6BD9"/>
<path d="M16.1392 14.1211H13.5024V30H16.1392V14.1211Z" fill="#9B51E0"/>
<path d="M18.9339 7.61718L16.5256 14.2266L15.6995 13.9277L13.5022 13.1367V7.12493L13.9768 5.82415L18.9339 7.61718Z" fill="#9B51E0"/>
</g>
<defs>
<clipPath id="clip0">
<rect width="30" height="30" fill="white"/>
</clipPath>
</defs>
</svg>
