<svg width="16" height="16" viewBox="0 0 16 16" fill="none" xmlns="http://www.w3.org/2000/svg">
<path d="M7.66642 5.90238C7.30029 5.90238 7.03996 6.05621 7.03996 6.28288V9.36727C7.03996 9.56155 7.30032 9.75585 7.66642 9.75585C8.01625 9.75585 8.30099 9.56155 8.30099 9.36727V6.28288C8.30099 6.05621 8.01625 5.90238 7.66642 5.90238Z" fill="#9EA6C9"/>
<path d="M7.66633 3.99992C7.29209 3.99992 6.9992 4.26707 6.9992 4.5747C6.9992 4.88233 7.29209 5.15759 7.66633 5.15759C8.03245 5.15759 8.32534 4.88233 8.32534 4.5747C8.32534 4.2671 8.03242 3.99992 7.66633 3.99992Z" fill="#9EA6C9"/>
<path d="M7.66634 0.666656C4.16568 0.666656 1.33301 3.48392 1.33301 6.9651C1.33301 9.80766 3.21381 12.1679 5.74956 12.9695L7.18987 15.0821C7.29702 15.2392 7.47548 15.3333 7.66634 15.3333C7.8572 15.3333 8.03566 15.2392 8.14281 15.0821L9.58312 12.9695C12.12 12.1676 13.9997 9.80643 13.9997 6.9651C13.9997 3.48171 11.1647 0.666656 7.66634 0.666656ZM9.06673 11.9273C8.9356 11.9638 8.82174 12.0453 8.74531 12.1574L7.66634 13.7399L6.5874 12.1574C6.51094 12.0454 6.39708 11.9638 6.26595 11.9273C4.1075 11.3268 2.48452 9.35153 2.48452 6.9651C2.48452 4.12392 4.80909 1.81249 7.66634 1.81249C10.5236 1.81249 12.8482 4.12392 12.8482 6.9651C12.8482 9.35391 11.2228 11.3274 9.06673 11.9273Z" fill="#9EA6C9"/>
<path d="M7.66642 5.90238C7.30029 5.90238 7.03996 6.05621 7.03996 6.28288V9.36727C7.03996 9.56155 7.30032 9.75585 7.66642 9.75585C8.01625 9.75585 8.30099 9.56155 8.30099 9.36727V6.28288C8.30099 6.05621 8.01625 5.90238 7.66642 5.90238Z" stroke="#B2B5C2" stroke-width="0.5"/>
<path d="M7.66633 3.99992C7.29209 3.99992 6.9992 4.26707 6.9992 4.5747C6.9992 4.88233 7.29209 5.15759 7.66633 5.15759C8.03245 5.15759 8.32534 4.88233 8.32534 4.5747C8.32534 4.2671 8.03242 3.99992 7.66633 3.99992Z" stroke="#B2B5C2" stroke-width="0.5"/>
<path d="M7.66634 0.666656C4.16568 0.666656 1.33301 3.48392 1.33301 6.9651C1.33301 9.80766 3.21381 12.1679 5.74956 12.9695L7.18987 15.0821C7.29702 15.2392 7.47548 15.3333 7.66634 15.3333C7.8572 15.3333 8.03566 15.2392 8.14281 15.0821L9.58312 12.9695C12.12 12.1676 13.9997 9.80643 13.9997 6.9651C13.9997 3.48171 11.1647 0.666656 7.66634 0.666656ZM9.06673 11.9273C8.9356 11.9638 8.82174 12.0453 8.74531 12.1574L7.66634 13.7399L6.5874 12.1574C6.51094 12.0454 6.39708 11.9638 6.26595 11.9273C4.1075 11.3268 2.48452 9.35153 2.48452 6.9651C2.48452 4.12392 4.80909 1.81249 7.66634 1.81249C10.5236 1.81249 12.8482 4.12392 12.8482 6.9651C12.8482 9.35391 11.2228 11.3274 9.06673 11.9273Z" stroke="#B2B5C2" stroke-width="0.5"/>
</svg>
