<svg width="512" height="512" viewBox="0 0 512 512" fill="none" xmlns="http://www.w3.org/2000/svg">
<path d="M512 256C512 333.657 477.414 403.247 422.808 450.194C416.173 455.899 409.245 461.27 402.046 466.275C399.977 467.717 397.887 469.128 395.777 470.507C394.21 471.531 392.621 472.545 391.033 473.527H391.023C381.473 479.472 371.504 484.791 361.17 489.451C348.903 494.989 336.124 499.597 322.927 503.16C320.221 503.891 317.504 504.581 314.766 505.218C306.135 507.245 297.337 508.844 288.393 509.962C277.786 511.31 266.971 512 256 512C245.018 512 234.203 511.31 223.598 509.962C217.266 509.168 211.017 508.144 204.842 506.89C203.024 506.514 201.206 506.127 199.398 505.72C182.512 501.906 166.264 496.42 150.821 489.451C140.487 484.791 130.519 479.462 120.968 473.527C119.38 472.545 117.792 471.531 116.224 470.507C114.113 469.128 112.024 467.717 109.955 466.275C102.745 461.27 95.818 455.889 89.182 450.194C34.576 403.237 0 333.657 0 256C0 114.615 114.615 0 256 0C397.385 0 512 114.615 512 256Z" fill="#EBEBED"/>
<path d="M255.999 158.12H267.099C267.099 158.12 291.107 181.741 334.088 181.741C377.069 181.741 396.431 158.12 396.431 158.12H403.401C403.401 158.12 407.66 244.858 394.108 306.039C380.556 367.22 350.545 430.919 318.987 462.477L255.998 498.488L193.009 462.477C161.45 430.918 131.44 367.22 117.888 306.039C104.336 244.858 108.595 158.12 108.595 158.12H115.566C115.566 158.12 134.927 181.741 177.909 181.741C220.891 181.741 244.898 158.12 244.898 158.12H255.999Z" fill="#DE0029"/>
<path d="M255.083 483.517L204.926 462.991L204.205 462.171C180.658 435.369 161.413 403.955 147.007 368.797C135.504 340.726 127.044 310.22 121.86 278.127C113.036 223.49 116.718 183.734 116.879 182.067L117.507 175.569L123.441 178.291C142.565 187.061 161.712 191.507 180.353 191.507C224.864 191.506 252.537 165.97 252.81 165.712L256.004 162.708L259.193 165.718C259.462 165.971 287.123 191.508 331.637 191.508C331.64 191.508 331.641 191.508 331.644 191.508C350.289 191.507 369.437 187.061 388.556 178.292L394.49 175.57L395.118 182.068C395.278 183.734 398.961 223.491 390.136 278.128C384.952 310.221 376.492 340.727 364.989 368.798C350.582 403.956 331.338 435.371 307.791 462.172L307.07 462.992L256.913 483.518H255.08V483.517H255.083Z" fill="white"/>
<path d="M256.002 478.87L304.303 459.104C406.044 343.306 390.496 182.514 390.496 182.514C309.437 219.688 256 169.091 256 169.091C256 169.091 202.563 219.688 121.504 182.515C121.504 182.515 105.956 343.307 207.697 459.105L255.998 478.871H256.002V478.87Z" fill="#DE0029"/>
<path d="M383.207 254.376C382.417 261.524 381.418 269.036 380.148 276.835C375.068 308.131 366.812 337.846 355.598 365.16C341.797 398.794 323.451 428.866 301.062 454.57L255.997 496.553L210.93 454.57C188.541 428.867 170.194 398.794 156.394 365.16C145.187 337.845 136.924 308.129 131.851 276.835C130.581 269.036 129.581 261.524 128.792 254.376C125.548 224.993 125.911 201.83 126.429 190.546C144.496 197.872 162.603 201.574 180.354 201.574C219.727 201.574 246.546 183.646 255.994 176.187C265.45 183.644 292.261 201.574 331.634 201.574H331.641C349.392 201.574 367.498 197.865 385.566 190.546C386.089 201.829 386.452 224.994 383.207 254.376Z" fill="white"/>
<path d="M258.32 118.491V74.0931C258.32 74.0931 270.975 64.5441 277.681 51.1151C284.396 37.6941 282.328 20.6561 282.328 20.6561C275.357 30.4691 259.613 27.1071 258.064 22.9801C256.515 18.8531 257.545 15.4911 261.936 15.4911C266.327 15.4911 263.88 21.4471 263.88 21.4471C266.327 20.2621 267.969 18.4651 267.357 15.7541C265.552 7.74605 257.033 12.1381 257.033 12.1381C259.612 5.16705 255.995 0.00305176 255.995 0.00305176C255.995 0.00305176 252.386 5.16905 254.965 12.1381C254.965 12.1381 246.446 7.74705 244.641 15.7541C244.029 18.4641 245.671 20.2621 248.11 21.4471C248.11 21.4471 245.67 15.4911 250.062 15.4911C254.445 15.4911 255.483 18.8521 253.934 22.9801C252.385 27.1071 236.633 30.4691 229.663 20.6561C229.663 20.6561 227.602 37.6941 234.31 51.1151C241.025 64.5441 253.671 74.0931 253.671 74.0931V118.492H82.265V155.929H429.736V118.492H258.32V118.491ZM234.575 30.7231C254.71 34.5951 255.996 26.8511 255.996 26.8511C255.996 26.8511 257.29 34.5961 277.425 30.7231C277.425 30.7231 278.974 53.9561 255.996 68.9271C233.027 53.9561 234.575 30.7231 234.575 30.7231Z" fill="#00A398"/>
<path d="M234.314 51.117C233.165 48.585 228.729 48.842 228.729 48.842C226.218 48.842 224.183 50.421 224.183 52.367C224.183 54.313 226.218 55.892 228.729 55.892C229.326 55.892 229.894 55.8 230.415 55.639C230.415 55.639 231.926 58.99 225.731 61.895C219.536 64.799 215.857 58.797 215.857 58.797C215.857 58.797 213.63 62.572 215.857 64.799C215.857 64.799 209.662 68.671 203.079 64.799C196.496 60.927 201.336 53.569 201.336 53.569L201.76 53.589C201.71 54.529 201.934 55.561 202.49 56.523C203.746 58.697 206.13 59.671 207.817 58.698C209.503 57.724 209.852 55.173 208.596 52.998C207.82 51.652 206.611 50.768 205.402 50.519V50.518C205.402 50.518 194.172 47.761 196.302 61.894C196.302 61.894 188.171 59.958 179.458 60.926C176.941 60.926 172.682 60.152 172.682 56.086C172.682 56.086 168.81 60.152 172.682 64.024C172.682 64.024 163.872 66.444 158.549 71.769C153.224 77.094 147.319 80.675 141.511 78.159C141.511 78.159 140.156 81.45 143.835 82.806H133.767H129.314C129.314 82.806 126.41 81.257 127.378 73.706C128.346 66.156 137.64 70.802 135.316 73.125C134.273 74.168 133.093 74.138 132.111 73.789C132.111 73.789 134.387 78.004 138.027 75.836C142.754 73.021 137.059 61.508 128.153 67.898C128.153 67.898 130.863 61.703 126.217 55.12C121.57 61.703 124.281 67.898 124.281 67.898C115.375 61.508 109.68 73.021 114.407 75.836C118.047 78.004 120.323 73.789 120.323 73.789C119.34 74.138 118.16 74.168 117.118 73.125C114.794 70.801 124.089 66.154 125.056 73.706C126.024 81.256 123.12 82.806 123.12 82.806H101.239C101.239 82.806 108.596 87.259 107.241 98.875C105.886 110.492 99.439 113.746 96.399 109.524C92.914 104.684 99.884 103.134 99.884 103.134C99.884 103.134 91.753 100.81 91.753 107.974C91.753 115.138 100.563 117.364 105.5 112.427C110.437 107.49 113.245 100.23 108.985 86.677C108.985 86.677 139.77 86.677 144.803 86.677C149.836 86.677 153.515 83.386 153.515 83.386C153.515 83.386 153.127 87.258 154.677 90.55C154.677 90.55 159.711 87.646 160.776 84.451C160.776 84.451 161.841 91.518 168.23 93.841C168.23 93.841 165.713 82.999 170.554 78.158C170.554 78.158 170.554 84.16 180.428 85.708C180.428 85.708 174.426 75.446 185.268 71.38C196.11 67.314 205.113 76.317 205.113 76.317C205.113 76.317 198.433 77.575 199.788 86.868C199.788 86.868 207.533 79.704 211.405 91.902C215.277 104.099 205.21 106.23 205.21 106.23C205.21 106.23 204.629 102.164 201.725 101.002C201.725 101.002 202.306 109.908 192.819 109.908C183.332 109.908 183.332 101.777 183.332 98.098C183.332 94.419 187.591 90.548 192.238 91.515C192.238 91.515 188.849 94.516 192.238 97.905C195.627 101.294 201.338 95.775 199.209 91.903C197.08 88.031 190.497 86.675 184.881 89.386C179.267 92.096 177.91 101.583 181.009 107.005C181.009 107.005 163.833 103.355 165.714 95.969C165.714 95.969 161.261 95.388 162.423 101.197C162.423 101.197 146.74 89.58 132.8 91.129C118.86 92.678 114.601 100.81 116.731 107.586C118.861 114.362 129.316 118.428 137.061 110.684C141.127 106.618 137.061 101.778 132.802 102.939C128.543 104.1 131.64 109.522 131.64 109.522C131.64 109.522 127.091 113.685 122.928 109.522C118.765 105.359 120.992 97.905 126.219 96.356C131.447 94.807 145.387 93.839 158.359 102.746C158.359 102.746 150.324 104.876 150.324 110.781C150.324 110.781 158.746 106.232 165.716 107.973C172.686 109.714 205.6 124.042 216.443 103.133C227.285 82.223 213.152 71.381 213.152 71.381L220.316 69.832C220.316 69.832 219.154 74.479 223.995 74.479C223.995 74.479 222.64 70.994 226.512 67.122C230.378 63.25 237.452 59.757 234.314 51.117Z" fill="#00A398"/>
<path d="M238.579 73.3181C230.239 73.3181 223.485 82.4641 223.485 93.7481C223.485 105.023 230.238 114.171 238.579 114.171C246.92 114.171 253.673 105.025 253.673 93.7481C253.673 82.4641 246.92 73.3181 238.579 73.3181ZM238.579 77.3071C241.878 77.3071 244.867 79.0801 247.059 81.9771L238.579 90.4571L230.099 81.9771C232.291 79.0801 235.281 77.3071 238.579 77.3071ZM227.776 101.267C226.916 99.0131 226.428 96.4571 226.428 93.7471C226.428 91.0371 226.916 88.4811 227.776 86.2271L235.296 93.7471L227.776 101.267ZM238.579 110.181C235.28 110.181 232.291 108.399 230.099 105.511L238.579 97.0311L247.059 105.511C244.868 108.401 241.878 110.181 238.579 110.181ZM241.863 93.7481L249.383 86.2281C250.243 88.4821 250.731 91.0381 250.731 93.7481C250.731 96.4581 250.243 99.0141 249.383 101.268L241.863 93.7481Z" fill="#00A398"/>
<path d="M277.684 51.117C278.833 48.585 283.269 48.842 283.269 48.842C285.78 48.842 287.815 50.421 287.815 52.367C287.815 54.313 285.78 55.892 283.269 55.892C282.672 55.892 282.104 55.8 281.583 55.639C281.583 55.639 280.072 58.99 286.267 61.895C292.462 64.8 296.141 58.797 296.141 58.797C296.141 58.797 298.368 62.572 296.141 64.799C296.141 64.799 302.336 68.671 308.919 64.799C315.502 60.927 310.662 53.569 310.662 53.569L310.238 53.589C310.288 54.529 310.064 55.561 309.508 56.523C308.252 58.697 305.868 59.671 304.181 58.698C302.495 57.724 302.146 55.173 303.401 52.998C304.177 51.652 305.386 50.768 306.595 50.519V50.518C306.595 50.518 317.825 47.761 315.695 61.894C315.695 61.894 323.826 59.958 332.539 60.926C335.056 60.926 339.315 60.152 339.315 56.086C339.315 56.086 343.187 60.152 339.315 64.024C339.315 64.024 348.125 66.444 353.448 71.769C358.773 77.094 364.678 80.675 370.486 78.159C370.486 78.159 371.841 81.45 368.162 82.806H378.23H382.683C382.683 82.806 385.587 81.257 384.619 73.706C383.651 66.156 374.358 70.802 376.681 73.125C377.724 74.168 378.902 74.138 379.886 73.789C379.886 73.789 377.61 78.004 373.97 75.836C369.243 73.021 374.938 61.508 383.844 67.898C383.844 67.898 381.134 61.703 385.78 55.12C390.427 61.703 387.716 67.898 387.716 67.898C396.622 61.508 402.317 73.021 397.59 75.836C393.95 78.004 391.674 73.789 391.674 73.789C392.657 74.138 393.837 74.168 394.879 73.125C397.203 70.801 387.909 66.154 386.941 73.706C385.973 81.256 388.877 82.806 388.877 82.806H410.755C410.755 82.806 403.398 87.259 404.753 98.875C406.108 110.491 412.555 113.746 415.595 109.524C419.08 104.684 412.11 103.134 412.11 103.134C412.11 103.134 420.241 100.81 420.241 107.974C420.241 115.138 411.431 117.364 406.494 112.427C401.557 107.49 398.749 100.23 403.009 86.677C403.009 86.677 372.224 86.677 367.191 86.677C362.158 86.677 358.479 83.386 358.479 83.386C358.479 83.386 358.867 87.258 357.317 90.55C357.317 90.55 352.283 87.646 351.218 84.451C351.218 84.451 350.153 91.518 343.764 93.841C343.764 93.841 346.281 82.999 341.44 78.158C341.44 78.158 341.44 84.16 331.566 85.708C331.566 85.708 337.568 75.446 326.726 71.38C315.884 67.314 306.885 76.316 306.885 76.316C306.885 76.316 313.565 77.574 312.21 86.867C312.21 86.867 304.465 79.703 300.593 91.901C296.721 104.099 306.788 106.229 306.788 106.229C306.788 106.229 307.369 102.163 310.273 101.001C310.273 101.001 309.692 109.907 319.179 109.907C328.666 109.907 328.666 101.776 328.666 98.097C328.666 94.418 324.407 90.547 319.76 91.514C319.76 91.514 323.149 94.515 319.76 97.904C316.371 101.293 310.66 95.774 312.79 91.902C314.919 88.03 321.502 86.674 327.118 89.385C332.734 92.096 334.088 101.582 330.99 107.004C330.99 107.004 348.166 103.354 346.285 95.968C346.285 95.968 350.738 95.387 349.576 101.196C349.576 101.196 365.259 89.579 379.199 91.128C393.139 92.677 397.399 100.809 395.268 107.585C393.139 114.361 382.683 118.427 374.938 110.683C370.872 106.617 374.938 101.777 379.197 102.938C383.456 104.1 380.359 109.521 380.359 109.521C380.359 109.521 384.908 113.684 389.071 109.521C393.234 105.358 391.007 97.904 385.78 96.355C380.552 94.806 366.612 93.838 353.64 102.745C353.64 102.745 361.675 104.875 361.675 110.78C361.675 110.78 353.253 106.231 346.283 107.972C339.312 109.714 306.399 124.041 295.556 103.132C284.713 82.223 298.847 71.38 298.847 71.38L291.683 69.831C291.683 69.831 292.845 74.478 288.004 74.478C288.004 74.478 289.359 70.993 285.487 67.121C281.621 63.25 274.547 59.757 277.684 51.117Z" fill="#00A398"/>
<path d="M82.072 377.675C82.072 377.675 95.36 379.7 100.465 377.287C105.57 374.874 108.984 355.602 108.984 355.602L97.561 333.724L85.557 338.177L74.715 364.702L82.072 377.675Z" fill="#FFE75C"/>
<path d="M258.325 93.748C258.325 105.023 265.078 114.171 273.419 114.171C281.759 114.171 288.513 105.025 288.513 93.748C288.513 82.464 281.76 73.318 273.419 73.318C265.078 73.318 258.325 82.464 258.325 93.748ZM281.899 81.976L273.419 90.456L264.939 81.976C267.131 79.08 270.12 77.306 273.419 77.306C276.718 77.306 279.708 79.08 281.899 81.976ZM276.703 93.748L284.223 86.228C285.083 88.482 285.571 91.038 285.571 93.748C285.571 96.458 285.083 99.014 284.223 101.268L276.703 93.748ZM264.939 105.512L273.419 97.032L281.899 105.512C279.708 108.401 276.718 110.182 273.419 110.182C270.12 110.182 267.13 108.401 264.939 105.512ZM262.615 101.267C261.755 99.013 261.267 96.457 261.267 93.747C261.267 91.037 261.755 88.481 262.615 86.227L270.135 93.747L262.615 101.267Z" fill="#00A398"/>
<path d="M100.465 377.289C100.465 377.289 114.793 374.579 114.793 352.507C114.793 330.436 103.176 331.984 108.984 312.236C108.984 312.236 106.467 310.493 102.594 314.365C102.594 314.365 103.562 289.97 90.977 281.645C90.977 281.645 91.365 296.359 83.813 306.234C76.262 316.108 74.52 331.791 74.52 336.05C74.52 336.05 70.261 329.08 63.871 329.08C63.871 329.08 66.775 335.082 66.775 341.277C66.775 347.472 61.741 370.9 82.07 377.676C82.07 377.676 79.94 373.223 79.94 366.253C79.94 359.283 92.718 345.73 92.718 337.599C92.718 337.599 101.818 348.248 103.173 354.83C104.53 361.412 104.724 370.706 100.465 377.289Z" fill="#DE0029"/>
<path d="M107.048 369.544C107.048 369.544 110.727 361.799 110.727 352.506C110.727 343.213 100.659 331.209 98.723 322.302C96.787 313.396 95.432 304.683 93.689 301.198C93.689 301.198 90.398 312.428 86.525 319.591C82.653 326.755 77.038 340.695 77.038 348.052C77.038 348.052 76.845 344.373 71.81 342.824C71.81 342.824 67.647 362.282 76.457 371.092C76.457 371.092 75.102 362.961 77.812 356.571C80.522 350.181 82.652 346.31 85.557 338.178C88.462 330.046 88.241 323.876 92.721 319.398C92.721 319.398 93.011 329.175 97.561 333.726C102.111 338.275 110.919 353.474 107.048 369.544Z" fill="#FFE75C"/>
<path d="M94.656 377.289C94.656 377.289 101.239 373.223 100.27 361.994C99.302 350.764 93.299 348.828 93.299 348.828C93.299 348.828 94.17 352.217 89.62 356.766C85.071 361.315 81.972 371.384 88.652 378.063C88.652 378.063 87.006 371.383 90.007 368.382C93.008 365.381 93.008 360.832 93.008 360.832C93.008 360.832 97.948 370.318 94.656 377.289Z" fill="#D2001F"/>
<path d="M84.348 297.234V297.241C83.449 299.936 82.257 302.174 81.266 303.762C80.197 305.466 79.361 306.426 79.361 306.426C69.68 298.588 75.295 288.033 77.037 282.031C78.78 276.029 77.037 270.414 77.037 270.414C86.989 280.366 86.648 290.318 84.348 297.234Z" fill="#DE0029"/>
<path d="M84.348 297.234V297.241C83.449 299.936 82.257 302.174 81.266 303.762C78.71 301.299 79.748 287.452 79.748 287.452C79.748 287.452 84.348 290.38 84.348 297.234Z" fill="#FFE75C"/>
<path d="M106.467 382.516C106.467 382.516 94.27 377.095 77.038 382.516C77.038 382.516 84.588 384.84 86.525 390.454H99.691C99.69 390.454 99.884 384.258 106.467 382.516Z" fill="#00A398"/>
<path d="M103.659 399.36H97.948V393.746H86.525V399.36H81.2C78.901 399.36 77.037 401.224 77.037 403.523C77.037 405.822 78.901 407.686 81.2 407.686H86.525V415.817H97.948V407.686H103.659C105.958 407.686 107.822 405.822 107.822 403.523C107.822 401.224 105.958 399.36 103.659 399.36Z" fill="#00A398"/>
<path d="M169.189 439.082C169.94 440.221 170.699 441.336 171.459 442.443C176.803 450.195 182.294 457.18 187.854 463.19C189.07 464.507 190.285 465.776 191.509 466.992L192.771 467.712L151.361 471.226L138.677 456.152L160.214 444.157L169.189 439.082Z" fill="#00A398"/>
<path d="M171.457 442.441C164.571 447.101 155.888 453.047 145.366 460.371C143.882 461.405 142.357 462.471 140.8 463.558C140.392 463.84 139.985 464.122 139.577 464.415C138.835 464.937 138.093 465.429 137.351 465.899C136.546 466.421 135.731 466.913 134.916 467.383C130.329 470.058 125.648 472.064 120.967 473.527C119.379 472.545 117.791 471.531 116.223 470.507C114.112 469.128 112.023 467.717 109.954 466.275C102.744 461.27 95.817 455.889 89.181 450.194C90.999 448.23 91.94 446.986 91.94 446.986C81.648 441.155 75.159 432.89 71.241 426.099C69.705 423.455 68.577 421.031 67.761 419.067C66.497 416.026 66.006 414.072 66.006 414.072C88.012 429.923 128.491 409.736 146.787 399.036C147.299 400.102 147.811 401.168 148.323 402.223C149.128 403.874 149.932 405.514 150.768 407.134C157.247 420.007 164.216 431.929 171.457 442.441Z" fill="#00A398"/>
<path d="M150.765 407.136C144.779 411.086 135.013 416.902 123.287 421.533C111.19 426.311 99.744 428.697 89.212 428.697C82.869 428.697 76.859 427.837 71.237 426.103C69.704 423.454 68.573 421.03 67.76 419.064C98.002 432.183 134.679 411.258 148.326 402.22C149.123 403.875 149.936 405.509 150.765 407.136Z" fill="white"/>
<path d="M144.896 459.003C143.266 459.902 141.657 460.738 140.069 461.521C131.522 465.795 123.549 468.668 116.224 470.507C114.113 469.128 112.024 467.717 109.955 466.275C118.952 464.551 129.338 461.155 140.811 455.042C141.292 454.791 141.793 454.52 142.284 454.248L144.896 459.003Z" fill="white"/>
<path d="M429.922 377.675C429.922 377.675 416.634 379.7 411.529 377.287C406.424 374.874 403.01 355.602 403.01 355.602L414.433 333.724L426.437 338.177L437.279 364.702L429.922 377.675Z" fill="#FFE75C"/>
<path d="M411.529 377.289C411.529 377.289 397.201 374.579 397.201 352.507C397.201 330.436 408.818 331.984 403.01 312.236C403.01 312.236 405.527 310.493 409.4 314.365C409.4 314.365 408.432 289.97 421.017 281.645C421.017 281.645 420.629 296.359 428.181 306.234C435.732 316.108 437.474 331.791 437.474 336.05C437.474 336.05 441.733 329.08 448.123 329.08C448.123 329.08 445.219 335.082 445.219 341.277C445.219 347.472 450.253 370.9 429.924 377.676C429.924 377.676 432.053 373.223 432.053 366.253C432.053 359.283 419.275 345.73 419.275 337.599C419.275 337.599 410.175 348.248 408.82 354.83C407.463 361.412 407.27 370.706 411.529 377.289Z" fill="#DE0029"/>
<path d="M404.946 369.544C404.946 369.544 401.267 361.799 401.267 352.506C401.267 343.213 411.335 331.209 413.271 322.302C415.207 313.396 416.562 304.683 418.305 301.198C418.305 301.198 421.596 312.428 425.469 319.591C429.341 326.755 434.956 340.695 434.956 348.052C434.956 348.052 435.149 344.373 440.184 342.824C440.184 342.824 444.347 362.282 435.537 371.092C435.537 371.092 436.892 362.961 434.182 356.571C431.472 350.181 429.342 346.31 426.437 338.178C423.532 330.046 423.753 323.876 419.273 319.398C419.273 319.398 418.983 329.175 414.433 333.726C409.883 338.275 401.074 353.474 404.946 369.544Z" fill="#FFE75C"/>
<path d="M417.337 377.289C417.337 377.289 410.754 373.223 411.723 361.994C412.691 350.764 418.694 348.828 418.694 348.828C418.694 348.828 417.823 352.217 422.373 356.766C426.922 361.315 430.021 371.384 423.341 378.063C423.341 378.063 424.987 371.383 421.986 368.382C418.985 365.381 418.985 360.832 418.985 360.832C418.985 360.832 414.046 370.318 417.337 377.289Z" fill="#D2001F"/>
<path d="M427.645 297.234V297.241C428.544 299.936 429.736 302.174 430.727 303.762C431.796 305.466 432.632 306.426 432.632 306.426C442.313 298.588 436.698 288.033 434.956 282.031C433.213 276.029 434.956 270.414 434.956 270.414C425.004 280.366 425.346 290.318 427.645 297.234Z" fill="#DE0029"/>
<path d="M427.645 297.234V297.241C428.544 299.936 429.736 302.174 430.727 303.762C433.283 301.299 432.245 287.452 432.245 287.452C432.245 287.452 427.645 290.38 427.645 297.234Z" fill="#FFE75C"/>
<path d="M405.527 382.516C405.527 382.516 417.724 377.095 434.955 382.516C434.955 382.516 427.405 384.84 425.468 390.454H412.302C412.303 390.454 412.11 384.258 405.527 382.516Z" fill="#00A398"/>
<path d="M408.335 399.36H414.046V393.746H425.469V399.36H430.794C433.093 399.36 434.957 401.224 434.957 403.523C434.957 405.822 433.093 407.686 430.794 407.686H425.469V415.817H414.046V407.686H408.335C406.036 407.686 404.172 405.822 404.172 403.523C404.172 401.224 406.036 399.36 408.335 399.36Z" fill="#00A398"/>
<path d="M351.78 444.158L373.317 456.153L360.633 471.227L319.223 467.713L320.485 466.993C321.709 465.777 322.925 464.507 324.14 463.191C329.701 457.182 335.192 450.196 340.536 442.444C341.295 441.336 342.054 440.221 342.806 439.083L351.78 444.158Z" fill="#00A398"/>
<path d="M445.994 414.072C445.994 414.072 445.492 416.026 444.239 419.067C443.424 421.031 442.295 423.456 440.759 426.099C436.841 432.891 430.352 441.156 420.049 446.986C420.049 446.986 420.989 448.229 422.808 450.194C416.173 455.899 409.245 461.27 402.046 466.275C399.977 467.717 397.887 469.128 395.777 470.507C394.21 471.531 392.621 472.545 391.033 473.527C391.033 473.527 391.033 473.537 391.023 473.527C386.342 472.064 381.661 470.058 377.074 467.383C376.259 466.913 375.444 466.422 374.639 465.899C373.897 465.429 373.155 464.938 372.424 464.415C372.006 464.122 371.599 463.84 371.201 463.558C369.644 462.471 368.119 461.406 366.624 460.371C356.112 453.046 347.419 447.101 340.533 442.441C347.774 431.929 354.744 420.007 361.232 407.134C362.057 405.514 362.873 403.874 363.667 402.223C364.189 401.168 364.691 400.102 365.203 399.036C383.498 409.736 423.978 429.923 445.994 414.072Z" fill="#00A398"/>
<path d="M372.412 465.408C372.287 467.195 371.587 471.374 368.065 478.177C366.811 480.612 365.202 483.37 363.123 486.484C362.496 487.424 361.848 488.417 361.169 489.451C329.091 503.944 293.491 512 256 512C218.509 512 182.909 503.944 150.821 489.451C150.142 488.417 149.494 487.424 148.867 486.484C146.788 483.37 145.179 480.612 143.925 478.177C140.414 471.375 139.704 467.195 139.578 465.408C139.536 464.75 139.578 464.415 139.578 464.415L140.289 462.283L144.51 449.608C149.954 443.6 159.118 438.156 166.213 434.499C167.195 436.056 168.188 437.581 169.191 439.076C158.596 444.541 146.893 452.263 145.399 458.271C145.023 459.734 145.326 460.946 146.329 462.189C152.128 469.336 168.251 467.121 187.853 463.192C190.904 462.565 194.049 461.917 197.247 461.248C215.418 457.465 236.002 453.181 256.002 453.181C275.991 453.181 296.575 457.465 314.746 461.248C317.943 461.917 321.089 462.565 324.14 463.192C343.742 467.121 359.865 469.336 365.664 462.189C366.678 460.946 366.97 459.733 366.594 458.271C365.1 452.263 353.397 444.541 342.802 439.076C343.805 437.582 344.798 436.056 345.79 434.499C352.874 438.156 362.049 443.6 367.493 449.608L371.714 462.283L372.425 464.415C372.423 464.415 372.454 464.75 372.412 465.408Z" fill="#00A398"/>
<path d="M361.229 407.136C367.215 411.086 376.981 416.902 388.707 421.533C400.804 426.311 412.25 428.697 422.782 428.697C429.125 428.697 435.135 427.837 440.757 426.103C442.291 423.454 443.421 421.03 444.234 419.064C413.992 432.183 377.315 411.258 363.668 402.22C362.87 403.875 362.057 405.509 361.229 407.136Z" fill="white"/>
<path d="M371.854 456.956C371.234 454.47 369.654 451.992 367.486 449.606C362.042 443.604 352.872 438.159 345.786 434.504C344.794 436.053 343.804 437.578 342.805 439.081C353.399 444.541 365.101 452.262 366.596 458.272C366.968 459.736 366.673 460.944 365.667 462.19C359.867 469.338 343.742 467.116 324.141 463.189C321.09 462.569 317.946 461.919 314.747 461.253C296.578 457.466 275.994 453.183 255.998 453.183C236.002 453.183 215.417 457.466 197.249 461.253C194.051 461.919 190.906 462.57 187.855 463.189C168.254 467.116 152.13 469.338 146.329 462.19C145.322 460.943 145.028 459.734 145.4 458.272C146.894 452.263 158.597 444.541 169.191 439.081C168.192 437.578 167.2 436.053 166.21 434.504C159.124 438.159 149.955 443.604 144.51 449.606C142.342 451.991 140.762 454.469 140.142 456.956C139.677 458.792 139.731 460.588 140.289 462.284C140.661 463.446 141.272 464.561 142.117 465.607C146.074 470.478 152.487 472.283 160.765 472.283C169.57 472.276 180.482 470.247 192.773 467.714C194.601 467.342 196.467 466.955 198.357 466.56C216.262 462.835 236.561 458.606 255.999 458.606C275.437 458.606 295.735 462.835 313.641 466.56C315.53 466.955 317.397 467.343 319.225 467.714C331.515 470.247 342.427 472.275 351.233 472.283C359.512 472.283 365.924 470.478 369.881 465.607C370.725 464.561 371.337 463.446 371.709 462.284C372.265 460.588 372.319 458.792 371.854 456.956Z" fill="white"/>
<path d="M402.045 466.275C399.976 467.717 397.886 469.128 395.776 470.507C388.441 468.668 380.468 465.795 371.921 461.521C370.333 460.737 368.724 459.901 367.104 459.003L369.706 454.249C370.208 454.521 370.699 454.792 371.19 455.043C382.652 461.155 393.038 464.551 402.045 466.275Z" fill="white"/>
<path d="M372.032 465.328C371.909 465.855 368.764 478.246 348.133 476.426C339.607 475.683 330.909 473.507 320.834 470.997C304.23 466.854 283.568 461.704 255.997 461.704C228.426 461.704 207.765 466.854 191.16 470.997C181.085 473.506 172.387 475.682 163.861 476.426C143.229 478.246 140.085 465.855 139.962 465.328L139.583 465.414C139.707 467.196 140.412 471.377 143.928 478.176C147.529 480.305 152.686 482.025 159.936 482.025C161.323 482.025 162.794 481.963 164.335 481.832C173.288 481.042 182.179 478.827 192.478 476.256C209.639 471.973 229.094 467.126 255.998 467.126C282.902 467.126 302.357 471.974 319.518 476.256C329.819 478.828 338.709 481.042 347.661 481.832C349.202 481.964 350.673 482.025 352.06 482.025C359.308 482.025 364.467 480.306 368.068 478.176C371.584 471.376 372.289 467.194 372.413 465.414L372.032 465.328Z" fill="white"/>
<path d="M288.392 509.962C277.786 511.31 266.971 512 256 512C245.018 512 234.203 511.31 223.598 509.962C231.215 508.886 241.257 508.165 256 508.165C270.733 508.165 280.785 508.886 288.392 509.962Z" fill="white"/>
<path d="M268.584 344.439C268.584 344.439 276.522 335.855 282.717 331.338C288.912 326.82 302.336 316.108 303.24 299.586C303.24 299.586 307.427 302.784 304.402 311.59C301.377 320.396 289.43 329.789 283.233 334.307C277.038 338.824 268.584 344.439 268.584 344.439Z" fill="#CF000F"/>
<path d="M302.207 328.24C302.207 328.24 320.148 308.621 322.472 297.908C322.472 297.908 325.828 303.329 321.182 310.17C316.535 317.011 302.207 328.24 302.207 328.24Z" fill="#CF000F"/>
<path d="M287.235 342.696C287.235 342.696 288.429 344.535 286.461 348.375C286.461 348.375 315.761 334.305 322.053 313.008C322.053 313.01 301.175 335.855 287.235 342.696Z" fill="#CF000F"/>
<path d="M286.849 350.829C286.849 350.829 287.43 355.411 285.559 357.282C285.559 357.282 311.374 346.569 314.987 330.564C314.987 330.564 299.497 345.278 286.849 350.829Z" fill="#CF000F"/>
<path d="M285.557 359.347C285.557 359.347 286.041 363.896 283.233 365.8C283.233 365.8 303.521 359.792 308.919 346.31C308.92 346.311 296.658 355.475 285.557 359.347Z" fill="#CF000F"/>
<path d="M282.589 367.995C282.589 367.995 282.396 371.545 278.2 374.062C278.2 374.062 298.335 370.835 303.628 358.573C303.628 358.572 294.076 365.543 282.589 367.995Z" fill="#CF000F"/>
<path d="M281.814 375.998C281.814 375.998 288.525 377.288 292.14 376.644C292.14 376.644 296.141 372.514 296.657 370.191C296.658 370.19 287.191 375.345 281.814 375.998Z" fill="#CF000F"/>
<path d="M270.585 383.484C274.543 389.603 288.785 393.165 294.335 409.815C299.884 426.465 292.528 433.823 292.528 433.823C292.528 433.823 304.919 423.696 302.338 408.008C298.981 387.614 277.596 387.928 270.585 383.484Z" fill="#CF000F"/>
<path d="M243.091 404.007C243.091 404.007 242.961 414.204 239.864 418.593C239.864 418.593 245.414 417.947 246.447 415.366C246.447 415.366 239.994 436.276 232.507 443.762C232.507 443.762 228.522 445.295 226.989 443.762C225.456 442.229 219.632 442.246 219.632 444.859C219.632 444.859 213.501 443.729 214.743 449.748C214.743 449.748 216.631 446.344 221.278 447.376C221.278 447.376 216.898 450.525 221.278 453.185C221.278 453.185 221.085 449.022 226.699 449.022C232.313 449.022 245.286 447.086 246.834 451.83C246.834 451.83 249.544 450.475 248.641 447.377C247.738 444.279 237.153 445.312 237.153 445.312C237.153 445.312 247.608 431.242 249.803 427.758C251.997 424.273 253.804 418.077 253.804 418.077C253.804 418.077 254.192 419.755 259.096 420.659C259.096 420.659 255.482 413.818 255.482 407.235C255.483 407.233 246.706 406.072 243.091 404.007Z" fill="#DE0029"/>
<path d="M317.248 283.859C317.248 283.859 316.017 297.776 310.209 307.719C304.4 317.655 291.754 334.305 273.81 344.118C255.882 353.922 267.676 366.112 252.273 369.535C252.582 369.303 257.578 365.524 258.454 361.024C259.36 356.377 260.908 348.114 268.39 340.633C275.879 333.144 299.755 315.463 300.406 303.971C301.033 292.741 293.893 291.627 293.568 291.588C293.715 291.767 296.015 294.702 296.015 299.201C296.015 303.848 285.56 321.66 273.812 329.791C262.072 337.922 257.162 345.792 254.714 357.671C252.26 369.543 247.743 366.701 248.255 360.381C248.774 354.054 254.97 344.117 261.033 336.884C267.105 329.659 266.842 323.332 262.713 320.365C262.713 320.365 276.397 321.271 274.717 313.975C269.776 320.458 253.613 310.49 248.192 311.458C242.771 312.426 244.126 315.717 244.126 315.717C244.126 315.717 241.787 315.438 239.007 315.655C238.814 314.617 238.472 313.595 237.931 312.62L235.477 312.364C235.477 312.364 236.181 313.751 236.522 315.98C233.455 316.577 230.52 317.986 229.993 321.138C229.993 321.138 233.269 320.193 236.653 319.644C236.56 320.736 236.351 321.921 235.963 323.152C234.128 323.268 232.703 323.268 232.703 323.268C232.703 323.268 233.578 323.949 235.491 324.453C234.933 325.847 234.136 327.288 233.028 328.751C233.028 328.751 232.378 326.946 229.412 326.946C226.446 326.946 224.634 329.656 221.536 329.656C221.536 329.656 223.216 331.848 226.314 331.848C229.412 331.848 230.705 329.269 231.991 330.563C231.991 330.563 224.897 334.048 224.897 337.657C224.897 341.273 230.318 341.793 230.318 341.793C230.318 341.793 227.22 339.725 228.769 338.177C230.318 336.628 231.99 335.467 231.99 333.011C231.99 333.011 232.958 331.268 234.314 332.623C235.669 333.978 235.476 335.597 238.961 335.079C242.446 334.56 243.22 330.176 243.22 330.176C243.22 330.176 241.803 331.725 239.735 331.725C237.674 331.725 237.674 330.045 235.352 329.401C235.352 329.401 236.623 327.55 237.706 324.863C239.464 325.072 241.71 325.079 244.514 324.623C252.84 323.268 254.288 329.75 247.999 336.046C241.711 342.343 195.917 369.735 236.769 398.97C243.159 403.617 262.326 406.327 262.326 406.327C262.326 406.327 264.069 416.201 262.326 420.655L266.973 417.364C266.973 417.364 269.49 436.725 274.718 444.857C274.718 444.857 261.94 441.372 261.94 444.857C261.94 444.857 255.745 446.212 256.999 449.79C256.999 449.79 259.229 447.761 262.715 447.761C262.715 447.761 260.198 450.859 262.715 453.376C262.715 453.376 263.621 449.179 272.264 449.179C280.915 449.179 286.661 448.087 290.464 451.889C290.464 451.889 294.274 449.635 291.238 446.6C288.21 443.565 281.945 445.694 281.945 445.694C281.945 445.694 273.558 432.528 275.106 418.852C275.106 418.852 276.655 421.044 282.463 420.269C282.463 420.269 271.876 410.201 274.463 399.49C274.463 399.49 256.519 386.193 257.813 375.095C257.813 375.095 262.46 386.581 270.459 392.388C278.458 398.195 284.787 407.102 283.625 416.783C283.625 416.783 288.179 405.646 282.27 397.329C276.361 388.996 263.397 383.575 261.407 374.041C261.407 374.041 277.724 393.743 291.664 378.928C291.664 378.928 276.415 378.982 270.94 373.507C270.94 373.507 280.288 371.525 280.435 367.698H271.428C271.428 367.698 282.944 364.701 282.944 360.728L271.141 361.023C271.141 361.023 283.819 357.445 284.493 352.209L271.475 355.082C272.908 354.625 284.493 350.823 284.493 344.372L274.332 347.276C274.332 347.276 309.957 324.755 317.57 304.619C322.042 292.78 319.834 286.787 317.248 283.859ZM238.393 322.946C238.741 321.807 239.02 320.584 239.144 319.321C241.498 319.119 243.504 319.298 243.93 320.367C244.534 321.877 241.468 322.605 238.393 322.946ZM247.478 318.431V315.721C250.839 315.721 253.805 317.27 253.805 317.27C252.449 318.624 247.478 318.431 247.478 318.431ZM233.801 372.642C231.865 355.349 243.482 349.927 243.482 349.927C243.482 349.927 238.316 358.957 238.96 371.48C239.61 384.003 254.325 392.522 254.325 392.522C254.325 392.522 235.737 389.935 233.801 372.642Z" fill="#DE0029"/>
<path d="M213.608 500.893C210.348 501.583 207.088 502.335 203.849 503.15V496.149C205.594 495.71 207.339 495.282 209.084 494.885C210.056 494.666 210.505 493.621 210.495 492.827C210.505 491.887 209.983 491.124 209.084 491.333C207.339 491.73 205.594 492.158 203.849 492.597V485.628C207.088 484.803 210.348 484.05 213.608 483.371C214.507 483.183 215.029 482.138 215.029 481.051C215.029 480.111 214.58 479.191 213.608 479.39C209.502 480.257 205.416 481.229 201.351 482.305C200.348 482.566 199.397 483.319 199.397 484.259V505.721C201.205 506.129 203.023 506.515 204.841 506.891C207.756 506.16 210.672 505.48 213.608 504.864C214.58 504.665 215.029 503.568 215.029 502.628C215.03 501.541 214.507 500.705 213.608 500.893Z" fill="white"/>
<path d="M229.949 495.225C229.939 489.92 218.762 493.345 218.774 485.164C218.775 479.968 223.218 477.36 227.228 476.766C229.283 476.44 233.86 476.337 233.862 478.648C233.862 479.45 233.303 481.119 232.045 481.282C230.964 481.427 230.157 480.198 227.228 480.634C224.716 481.014 223.294 482.273 223.292 483.944C223.283 488.187 234.483 485.081 234.492 494.183C234.492 499.17 230.991 502.142 226.183 502.888C221.618 503.596 218.151 501.977 218.15 499.953C218.152 498.977 219.054 497.341 220.128 497.146C221.552 496.894 222.489 499.396 226.043 498.832C228.132 498.506 229.95 497.316 229.949 495.225Z" fill="white"/>
<path d="M253.957 474.414C254.939 474.376 255.397 475.409 255.398 476.384C255.398 477.464 254.87 478.457 253.957 478.492C252.247 478.559 250.537 478.643 248.829 478.746C248.829 485.402 248.829 492.058 248.829 498.714C248.829 499.655 247.671 500.212 246.547 500.291C245.386 500.371 244.266 499.972 244.266 499.032C244.266 492.376 244.266 485.72 244.266 479.064C242.547 479.2 240.828 479.354 239.112 479.527C238.202 479.619 237.679 478.735 237.677 477.62C237.676 476.644 238.133 475.55 239.112 475.45C244.052 474.952 249.002 474.606 253.957 474.414Z" fill="white"/>
<path d="M261.095 479.678C260.72 480.053 260.345 480.429 259.97 480.806C259.689 481.054 259.37 481.129 259.127 481.133C258.247 481.148 257.648 480.257 257.65 479.351C257.65 478.724 257.966 478.054 258.529 477.694C259.911 476.621 261.295 475.559 262.678 474.51C262.925 474.3 263.241 474.161 263.628 474.161C264.578 474.161 265.666 474.729 265.667 475.635C265.667 483.185 265.667 490.736 265.667 498.286C265.667 499.226 264.507 499.703 263.382 499.704C262.222 499.704 261.097 499.228 261.097 498.286C261.095 492.084 261.095 485.881 261.095 479.678Z" fill="white"/>
<path d="M286.211 481.476C286.211 484.404 284.842 486.013 282.845 486.548C285.369 487.659 287.016 489.884 287.016 493.472C287.016 493.611 287.016 493.751 287.016 493.89C287.017 499.086 283.441 500.701 278.809 500.405C274.174 500.108 270.552 498.037 270.553 492.841C270.553 492.702 270.553 492.562 270.553 492.423C270.553 488.835 272.239 486.822 274.735 486.031C272.733 485.24 271.359 483.458 271.361 480.53C271.362 476.108 274.488 474.448 278.81 474.722C283.094 474.996 286.212 477.053 286.211 481.476ZM282.46 492.267C282.459 489.62 281.091 488.32 278.81 488.173C276.493 488.027 275.123 489.153 275.121 491.8C275.121 492.032 275.121 492.265 275.121 492.497C275.121 495.253 276.528 496.567 278.81 496.711C281.128 496.859 282.46 495.684 282.46 492.964C282.46 492.732 282.46 492.5 282.46 492.267ZM275.789 481.275C275.79 483.437 276.878 484.36 278.81 484.481C280.705 484.602 281.828 483.823 281.829 481.661C281.829 479.501 280.704 478.539 278.81 478.418C276.877 478.294 275.79 479.114 275.789 481.275Z" fill="white"/>
<path d="M291.079 484.286C291.079 484.123 291.079 483.961 291.079 483.798C291.078 477.981 294.683 476.213 299.253 476.899C303.859 477.587 307.464 480.435 307.465 486.252C307.465 489.493 307.465 492.734 307.465 495.975C307.466 501.798 303.784 503.256 299.044 502.552C293.498 501.741 291.08 498.063 291.08 495.125C291.081 493.698 291.778 493.32 293.213 493.498C294.473 493.653 295.588 494.154 295.59 495.513C295.59 497.15 297.234 498.309 299.185 498.601C301.522 498.951 302.947 497.94 302.948 495.185C302.948 493.919 302.948 492.653 302.948 491.387C301.801 492.555 300.125 492.708 298.314 492.443C294.369 491.866 291.081 489.795 291.079 484.286ZM302.946 485.182C302.946 482.431 301.556 480.938 299.253 480.593C296.987 480.255 295.621 481.335 295.623 484.086C295.623 484.236 295.623 484.388 295.623 484.539C295.624 487.432 296.986 488.688 299.287 489.032C301.52 489.366 302.944 488.599 302.945 485.95C302.946 485.694 302.946 485.438 302.946 485.182Z" fill="white"/>
<path d="M327.293 489.879C327.293 485.459 323.605 481.781 319.603 480.841C315.779 479.921 312.184 481.635 312.184 485.606C312.184 487.487 313.041 488.218 314.222 488.469C315.706 488.793 316.573 488.156 316.573 487.32C316.573 485.157 317.952 484.561 319.635 484.959C321.913 485.502 322.832 487.425 322.843 488.846C322.853 493.684 311.746 494.112 311.736 499.765V503.15C311.736 504.017 312.906 504.811 313.7 504.989C314.055 505.062 314.411 505.135 314.766 505.219C317.504 504.582 320.22 503.892 322.927 503.161C320.754 502.607 318.58 502.085 316.396 501.604V500.768C316.406 497.068 327.314 497.33 327.293 489.879Z" fill="white"/>
<path d="M254.966 492.164C256.32 492.164 257.418 491.066 257.418 489.712C257.418 488.358 256.32 487.26 254.966 487.26C253.612 487.26 252.514 488.358 252.514 489.712C252.514 491.066 253.612 492.164 254.966 492.164Z" fill="white"/>
<path d="M383.207 254.376H128.794C125.55 224.993 125.913 201.83 126.431 190.546C144.498 197.872 162.605 201.574 180.356 201.574C219.729 201.574 246.548 183.646 255.996 176.187C265.452 183.644 292.263 201.574 331.636 201.574H331.643C349.394 201.574 367.5 197.865 385.568 190.546C386.089 201.829 386.452 224.994 383.207 254.376Z" fill="#DE0029"/>
<path d="M137.712 245.081C136.252 245.081 134.843 244.376 134.843 243.017V210.296C134.843 208.886 136.454 208.282 138.115 208.282C139.726 208.282 141.388 208.886 141.388 210.296V239.343H153.671C154.98 239.343 155.634 240.753 155.634 242.212C155.634 243.622 154.98 245.081 153.671 245.081H137.713H137.712Z" fill="white"/>
<path d="M161.724 210.296C161.724 208.886 163.335 208.282 164.996 208.282C166.607 208.282 168.269 208.886 168.269 210.296V243.018C168.269 244.377 166.608 245.082 164.996 245.082C163.336 245.082 161.724 244.377 161.724 243.018V210.296Z" fill="white"/>
<path d="M174.358 211.504C174.308 211.302 174.258 211.102 174.258 211C174.258 209.389 176.624 208.282 178.385 208.282C179.493 208.282 180.348 208.634 180.6 209.591L188.302 236.876L195.954 209.591C196.206 208.634 197.062 208.282 198.169 208.282C199.931 208.282 202.296 209.44 202.296 211C202.296 211.152 202.246 211.302 202.196 211.504L192.531 243.169C192.078 244.679 190.216 245.384 188.302 245.384C186.389 245.384 184.577 244.679 184.073 243.169L174.358 211.504Z" fill="white"/>
<path d="M214.831 224.089H222.483C223.792 224.089 224.547 225.347 224.547 226.706C224.547 227.864 223.893 229.223 222.483 229.223H214.831V239.342H229.077C230.386 239.342 231.141 240.701 231.141 242.261C231.141 243.62 230.487 245.08 229.077 245.08H211.156C209.696 245.08 208.287 244.375 208.287 243.016V210.345C208.287 208.986 209.697 208.281 211.156 208.281H229.077C230.487 208.281 231.141 209.741 231.141 211.1C231.141 212.66 230.387 214.019 229.077 214.019H214.831V224.089Z" fill="white"/>
<path d="M237.483 210.296C237.483 209.239 238.339 208.282 239.597 208.282H249.565C256.159 208.282 261.496 210.799 261.496 218.803C261.496 224.592 258.677 227.713 254.901 228.872L261.496 241.105C261.698 241.357 261.748 241.709 261.748 241.911C261.748 243.572 259.583 245.334 257.67 245.334C256.764 245.334 255.908 244.78 255.405 243.773L248.257 229.879H244.028V243.019C244.028 244.378 242.417 245.083 240.755 245.083C239.144 245.083 237.483 244.378 237.483 243.019V210.296ZM244.028 214.021V224.744H249.566C252.838 224.744 254.952 223.385 254.952 219.408C254.952 215.431 252.837 214.022 249.566 214.022H244.028V214.021Z" fill="white"/>
<path d="M268.693 210.296C268.693 209.239 269.649 208.282 271.159 208.282H281.278C287.672 208.282 292.706 211.353 292.706 219.609V219.911C292.706 228.167 287.521 231.339 280.876 231.339H275.238V243.018C275.238 244.377 273.577 245.082 271.965 245.082C270.305 245.082 268.693 244.377 268.693 243.018V210.296ZM275.238 214.021V226.203H280.876C284.148 226.203 286.162 224.341 286.162 220.414V219.81C286.162 215.883 284.148 214.021 280.876 214.021H275.238Z" fill="white"/>
<path d="M298.845 233.855V219.81C298.845 211.403 303.981 208.282 310.625 208.282C317.27 208.282 322.455 211.403 322.455 219.81V233.856C322.455 242.263 317.27 245.384 310.625 245.384C303.981 245.384 298.845 242.262 298.845 233.855ZM315.911 219.81C315.911 215.833 313.897 214.021 310.625 214.021C307.302 214.021 305.389 215.833 305.389 219.81V233.856C305.389 237.833 307.302 239.646 310.625 239.646C313.897 239.646 315.911 237.833 315.911 233.856V219.81Z" fill="white"/>
<path d="M330.156 233.855V219.81C330.156 211.403 335.292 208.282 341.936 208.282C348.58 208.282 353.766 211.403 353.766 219.81V233.856C353.766 242.263 348.581 245.384 341.936 245.384C335.291 245.384 330.156 242.262 330.156 233.855ZM347.222 219.81C347.222 215.833 345.208 214.021 341.936 214.021C338.613 214.021 336.7 215.833 336.7 219.81V233.856C336.7 237.833 338.613 239.646 341.936 239.646C345.208 239.646 347.222 237.833 347.222 233.856V219.81Z" fill="white"/>
<path d="M364.739 245.081C363.278 245.081 361.87 244.376 361.87 243.017V210.296C361.87 208.886 363.481 208.282 365.142 208.282C366.753 208.282 368.415 208.886 368.415 210.296V239.343H380.698C382.007 239.343 382.661 240.753 382.661 242.212C382.661 243.622 382.007 245.081 380.698 245.081H364.74H364.739Z" fill="white"/>
<path d="M144.236 261.692C144.236 260.752 145.212 260.264 146.222 260.264H158.384C159.36 260.264 159.779 261.274 159.779 262.216C159.779 263.296 159.29 264.237 158.384 264.237H148.766V271.208H154.098C155.004 271.208 155.492 272.079 155.492 273.02C155.492 273.821 155.074 274.763 154.098 274.763H148.766V284.311C148.766 285.251 147.616 285.739 146.501 285.739C145.351 285.739 144.236 285.251 144.236 284.311V261.693V261.692Z" fill="#DE0029"/>
<path d="M161.451 277.967V268.244C161.451 262.424 165.006 260.263 169.605 260.263C174.206 260.263 177.795 262.424 177.795 268.244V277.967C177.795 283.787 174.206 285.948 169.605 285.948C165.005 285.947 161.451 283.786 161.451 277.967ZM173.265 268.243C173.265 265.49 171.87 264.236 169.606 264.236C167.306 264.236 165.982 265.491 165.982 268.243V277.966C165.982 280.719 167.306 281.973 169.606 281.973C171.871 281.973 173.265 280.718 173.265 277.966V268.243Z" fill="#DE0029"/>
<path d="M181.455 277.967V268.244C181.455 262.424 185.01 260.263 189.609 260.263C194.21 260.263 197.799 262.424 197.799 268.244V277.967C197.799 283.787 194.21 285.948 189.609 285.948C185.01 285.947 181.455 283.786 181.455 277.967ZM193.27 268.243C193.27 265.49 191.875 264.236 189.611 264.236C187.311 264.236 185.987 265.491 185.987 268.243V277.966C185.987 280.719 187.311 281.973 189.611 281.973C191.876 281.973 193.27 280.718 193.27 277.966V268.243Z" fill="#DE0029"/>
<path d="M215.816 260.263C216.792 260.263 217.244 261.308 217.244 262.285C217.244 263.365 216.722 264.34 215.816 264.34H210.728V284.308C210.728 285.248 209.578 285.736 208.463 285.736C207.313 285.736 206.198 285.248 206.198 284.308V264.34H201.075C200.169 264.34 199.647 263.4 199.647 262.285C199.647 261.309 200.1 260.263 201.075 260.263H215.816Z" fill="#DE0029"/>
<path d="M219.79 261.692C219.79 260.752 220.766 260.264 221.776 260.264H228.502C232.126 260.264 235.507 261.449 235.507 266.398C235.507 269.256 234.391 271.138 232.545 271.939C234.671 272.776 236.134 274.134 236.134 277.619V278.351C236.134 283.788 233.103 285.738 229.165 285.738H221.777C220.558 285.738 219.791 285.077 219.791 284.344L219.79 261.692ZM224.285 270.16H228.189C230.071 270.16 230.977 268.941 230.977 267.163C230.977 265.351 229.931 264.235 228.154 264.235H224.286L224.285 270.16ZM228.223 281.765C230.348 281.765 231.603 280.616 231.603 277.967V277.41C231.603 274.691 230.348 273.715 228.223 273.715H224.285V281.765H228.223Z" fill="#DE0029"/>
<path d="M237.668 283.856C237.668 283.786 237.702 283.647 237.738 283.507L244.464 261.587C244.777 260.542 246.067 260.054 247.356 260.054C248.68 260.054 249.969 260.542 250.284 261.587L257.01 283.507C257.044 283.647 257.08 283.752 257.08 283.856C257.08 284.936 255.443 285.738 254.222 285.738C253.455 285.738 252.863 285.495 252.688 284.832L251.364 280.198H243.384L242.06 284.832C241.886 285.494 241.293 285.738 240.526 285.738C239.306 285.738 237.668 284.971 237.668 283.856ZM250.388 276.642L247.356 265.943L244.325 276.642H250.388Z" fill="#DE0029"/>
<path d="M261.54 285.738C260.53 285.738 259.554 285.25 259.554 284.31V261.659C259.554 260.683 260.669 260.265 261.819 260.265C262.934 260.265 264.084 260.683 264.084 261.659V281.767H272.587C273.493 281.767 273.946 282.743 273.946 283.753C273.946 284.729 273.493 285.739 272.587 285.739H261.54V285.738Z" fill="#DE0029"/>
<path d="M278.477 285.738C277.467 285.738 276.491 285.25 276.491 284.31V261.659C276.491 260.683 277.606 260.265 278.756 260.265C279.871 260.265 281.021 260.683 281.021 261.659V281.767H289.524C290.43 281.767 290.883 282.743 290.883 283.753C290.883 284.729 290.43 285.739 289.524 285.739H278.476V285.738H278.477Z" fill="#DE0029"/>
<path d="M308.413 264.236C306.078 264.236 304.754 265.525 304.754 268.243V277.966C304.754 280.684 306.078 281.973 308.483 281.973C311.654 281.973 311.932 279.708 312.038 278.244C312.108 277.164 313.083 276.816 314.268 276.816C315.835 276.816 316.568 277.269 316.568 279.046C316.568 283.263 313.118 285.947 308.239 285.947C303.848 285.947 300.224 283.786 300.224 277.966V268.243C300.224 262.423 303.883 260.262 308.274 260.262C313.118 260.262 316.568 262.841 316.568 266.884C316.568 268.696 315.836 269.114 314.303 269.114C313.014 269.114 312.073 268.731 312.038 267.686C311.967 266.606 311.723 264.236 308.413 264.236Z" fill="#DE0029"/>
<path d="M321.691 285.738C320.681 285.738 319.705 285.25 319.705 284.31V261.659C319.705 260.683 320.82 260.265 321.97 260.265C323.085 260.265 324.235 260.683 324.235 261.659V281.767H332.738C333.644 281.767 334.097 282.743 334.097 283.753C334.097 284.729 333.644 285.739 332.738 285.739H321.69V285.738H321.691Z" fill="#DE0029"/>
<path d="M348.246 261.657C348.246 260.681 349.361 260.263 350.511 260.263C351.626 260.263 352.776 260.681 352.776 261.657V277.967C352.776 283.787 349.082 285.948 344.413 285.948C339.709 285.948 336.049 283.787 336.049 277.967V261.657C336.049 260.681 337.165 260.263 338.315 260.263C339.43 260.263 340.58 260.681 340.58 261.657V277.967C340.58 280.685 342.008 281.974 344.413 281.974C346.818 281.974 348.247 280.685 348.247 277.967V261.657H348.246Z" fill="#DE0029"/>
<path d="M356.924 261.692C356.924 260.752 357.9 260.264 358.91 260.264H365.636C369.26 260.264 372.641 261.449 372.641 266.398C372.641 269.256 371.525 271.138 369.679 271.939C371.805 272.776 373.268 274.134 373.268 277.619V278.351C373.268 283.788 370.237 285.738 366.299 285.738H358.911C357.692 285.738 356.925 285.077 356.925 284.344V261.692H356.924ZM361.42 270.16H365.324C367.206 270.16 368.112 268.941 368.112 267.163C368.112 265.351 367.066 264.235 365.289 264.235H361.421V270.16H361.42ZM365.358 281.765C367.483 281.765 368.738 280.616 368.738 277.967V277.41C368.738 274.691 367.483 273.715 365.358 273.715H361.42V281.765H365.358Z" fill="#DE0029"/>
<path d="M99.272 139.46C99.272 139.33 99.24 139.232 99.175 139.135L92.441 126.577C92.344 126.349 92.311 126.154 92.311 126.024C92.311 125.341 93.255 124.885 93.938 124.885C94.394 124.885 94.654 125.113 94.914 125.601L100.639 136.759L106.333 125.601C106.593 125.113 106.886 124.885 107.309 124.885C108.025 124.885 108.936 125.341 108.936 126.024C108.936 126.155 108.904 126.349 108.806 126.577L102.072 139.135C102.007 139.232 102.007 139.33 102.007 139.46V147.691C102.007 148.341 101.324 148.667 100.64 148.667C99.957 148.667 99.274 148.341 99.274 147.691V139.46H99.272Z" fill="white"/>
<path d="M109.776 141.771V131.978C109.776 126.806 112.833 124.886 116.771 124.886C120.707 124.886 123.799 126.805 123.799 131.978V141.771C123.799 146.943 120.708 148.863 116.771 148.863C112.834 148.862 109.776 146.943 109.776 141.771ZM121.065 131.978C121.065 128.822 119.439 127.359 116.77 127.359C114.102 127.359 112.508 128.823 112.508 131.978V141.771C112.508 144.927 114.103 146.39 116.77 146.39C119.439 146.39 121.065 144.926 121.065 141.771V131.978Z" fill="white"/>
<path d="M138.174 125.83C138.174 125.179 138.824 124.886 139.54 124.886C140.191 124.886 140.907 125.179 140.907 125.83V141.771C140.907 146.943 137.784 148.863 133.782 148.863C129.781 148.863 126.69 146.944 126.69 141.771V125.83C126.69 125.179 127.373 124.886 128.057 124.886C128.74 124.886 129.423 125.179 129.423 125.83V141.771C129.423 144.927 131.05 146.39 133.782 146.39C136.515 146.39 138.175 144.926 138.175 141.771V125.83H138.174Z" fill="white"/>
<path d="M146.206 126.252C146.206 126.708 145.816 127.813 144.742 130.222C144.612 130.515 144.319 130.645 144.092 130.645C143.636 130.645 143.116 130.352 143.116 129.864C143.116 129.767 143.116 129.636 143.181 129.539L143.864 127.847C143.246 127.587 142.823 126.968 142.823 126.252C142.823 125.341 143.539 124.56 144.514 124.56C145.426 124.56 146.206 125.342 146.206 126.252Z" fill="white"/>
<path d="M149.231 148.667C148.612 148.667 147.995 148.341 147.995 147.691V125.829C147.995 125.178 148.678 124.885 149.362 124.885C150.046 124.885 150.728 125.178 150.728 125.829V146.194H159.61C160.195 146.194 160.488 146.813 160.488 147.43C160.488 148.047 160.195 148.666 159.61 148.666H149.232V148.667H149.231Z" fill="white"/>
<path d="M163.055 148.667C162.436 148.667 161.819 148.341 161.819 147.691V125.829C161.819 125.178 162.502 124.885 163.186 124.885C163.869 124.885 164.552 125.178 164.552 125.829V146.194H173.434C174.019 146.194 174.312 146.813 174.312 147.43C174.312 148.047 174.019 148.666 173.434 148.666H163.056V148.667H163.055Z" fill="white"/>
<path d="M191.939 147.431L183.481 131.067V147.691C183.481 148.341 182.798 148.667 182.115 148.667C181.432 148.667 180.748 148.341 180.748 147.691V125.829C180.748 125.146 181.398 124.885 182.115 124.885C183.091 124.885 183.611 125.47 184.197 126.609L192.298 142.453V125.829C192.298 125.178 192.981 124.885 193.664 124.885C194.347 124.885 195.031 125.178 195.031 125.829V147.691C195.031 148.341 194.348 148.667 193.664 148.667C192.915 148.667 192.33 148.147 191.939 147.431Z" fill="white"/>
<path d="M200.98 135.621H206.055C206.64 135.621 206.999 136.174 206.999 136.792C206.999 137.312 206.706 137.899 206.055 137.899H200.98V146.194H211.065C211.651 146.194 212.009 146.78 212.009 147.464C212.009 148.049 211.716 148.668 211.065 148.668H199.483C198.864 148.668 198.247 148.342 198.247 147.692V125.862C198.247 125.211 198.865 124.886 199.483 124.886H211.065C211.716 124.886 212.009 125.505 212.009 126.09C212.009 126.773 211.652 127.359 211.065 127.359H200.98V135.621Z" fill="white"/>
<path d="M211.875 126.285C211.843 126.188 211.81 126.122 211.81 126.025C211.81 125.342 212.754 124.886 213.469 124.886C213.957 124.886 214.347 125.081 214.478 125.505L220.203 144.829L225.897 125.505C226.06 125.082 226.417 124.886 226.873 124.886C227.654 124.886 228.564 125.406 228.564 126.057C228.564 126.122 228.532 126.187 228.532 126.285L221.928 147.92C221.7 148.539 220.984 148.864 220.204 148.864C219.456 148.864 218.74 148.571 218.546 147.92L211.875 126.285Z" fill="white"/>
<path d="M232.758 135.621H237.833C238.418 135.621 238.777 136.174 238.777 136.792C238.777 137.312 238.484 137.899 237.833 137.899H232.758V146.194H242.843C243.429 146.194 243.787 146.78 243.787 147.464C243.787 148.049 243.494 148.668 242.843 148.668H231.261C230.642 148.668 230.025 148.342 230.025 147.692V125.862C230.025 125.211 230.643 124.886 231.261 124.886H242.843C243.494 124.886 243.787 125.505 243.787 126.09C243.787 126.773 243.43 127.359 242.843 127.359H232.758V135.621Z" fill="white"/>
<path d="M245.345 125.83C245.345 125.342 245.735 124.919 246.321 124.886H252.274C256.21 124.886 259.496 126.447 259.496 131.393C259.496 135.363 257.381 137.184 254.649 137.737L259.464 146.879C259.561 147.042 259.594 147.204 259.594 147.335C259.594 148.051 258.749 148.734 257.967 148.734C257.414 148.734 257.023 148.214 256.731 147.661L251.818 138.129H248.076V147.694C248.076 148.344 247.393 148.67 246.71 148.67C246.027 148.67 245.343 148.344 245.343 147.694V125.83H245.345ZM248.078 127.358V135.849H252.274C254.975 135.849 256.764 134.678 256.764 131.587C256.764 128.529 254.974 127.358 252.274 127.358H248.078Z" fill="white"/>
<path d="M283.827 147.919C283.632 148.538 282.883 148.863 282.136 148.863C281.387 148.863 280.606 148.57 280.444 147.919L277.646 137.184L274.816 147.919C274.653 148.538 273.906 148.863 273.157 148.863C272.376 148.863 271.661 148.57 271.465 147.919L265.023 126.284C264.991 126.187 264.958 126.121 264.958 125.991C264.958 125.34 265.869 124.884 266.617 124.884C267.073 124.884 267.495 125.079 267.626 125.503L273.123 144.827L276.214 132.92C276.377 132.301 276.995 132.074 277.644 132.074C278.263 132.074 278.848 132.302 279.011 132.92L282.134 144.827L287.599 125.503C287.729 125.08 288.152 124.884 288.641 124.884C289.389 124.884 290.267 125.34 290.267 125.991C290.267 126.122 290.267 126.186 290.235 126.284L283.827 147.919Z" fill="white"/>
<path d="M288.8 147.529C288.8 147.432 288.832 147.366 288.865 147.269L295.501 125.635C295.696 124.984 296.445 124.691 297.193 124.691C297.942 124.691 298.689 125.016 298.885 125.635L305.521 147.269C305.521 147.367 305.553 147.432 305.553 147.497C305.553 148.147 304.643 148.668 303.861 148.668C303.405 148.668 303.016 148.473 302.885 148.049L301.454 143.202H292.898L291.468 148.049C291.337 148.472 290.947 148.668 290.459 148.668C289.744 148.667 288.8 148.211 288.8 147.529ZM300.805 140.957L297.194 128.724L293.518 140.957H300.805Z" fill="white"/>
<path d="M308.285 148.667C307.666 148.667 307.049 148.341 307.049 147.691V125.829C307.049 125.178 307.732 124.885 308.416 124.885C309.099 124.885 309.782 125.178 309.782 125.829V146.194H318.664C319.249 146.194 319.542 146.813 319.542 147.43C319.542 148.047 319.249 148.666 318.664 148.666H308.286V148.667H308.285Z" fill="white"/>
<path d="M320.872 125.83C320.872 125.179 321.555 124.886 322.239 124.886C322.922 124.886 323.605 125.179 323.605 125.83V136.599L332.325 125.278C332.52 125.018 332.845 124.887 333.138 124.887C333.821 124.887 334.7 125.603 334.7 126.286C334.7 126.449 334.635 126.677 334.472 126.871L327.835 135.167L335.578 146.878C335.675 147.041 335.741 147.203 335.741 147.366C335.741 148.082 334.928 148.733 334.146 148.733C333.756 148.733 333.398 148.57 333.138 148.18L326.014 137.477L323.606 140.503V147.693C323.606 148.343 322.923 148.669 322.24 148.669C321.557 148.669 320.873 148.343 320.873 147.693L320.872 125.83Z" fill="white"/>
<path d="M340.029 147.529C340.029 147.432 340.061 147.366 340.094 147.269L346.73 125.635C346.925 124.984 347.674 124.691 348.422 124.691C349.171 124.691 349.918 125.016 350.114 125.635L356.75 147.269C356.75 147.367 356.782 147.432 356.782 147.497C356.782 148.147 355.872 148.668 355.09 148.668C354.634 148.668 354.245 148.473 354.114 148.049L352.683 143.202H344.127L342.697 148.049C342.566 148.472 342.176 148.668 341.688 148.668C340.973 148.667 340.029 148.211 340.029 147.529ZM352.033 140.957L348.422 128.724L344.746 140.957H352.033Z" fill="white"/>
<path d="M359.514 148.667C358.895 148.667 358.278 148.341 358.278 147.691V125.829C358.278 125.178 358.961 124.885 359.645 124.885C360.329 124.885 361.011 125.178 361.011 125.829V146.194H369.893C370.478 146.194 370.771 146.813 370.771 147.43C370.771 148.047 370.478 148.666 369.893 148.666H359.515V148.667H359.514Z" fill="white"/>
<path d="M371.417 141.771V131.978C371.417 126.806 374.474 124.886 378.412 124.886C382.349 124.886 385.44 126.805 385.44 131.978V141.771C385.44 146.943 382.349 148.863 378.412 148.863C374.475 148.862 371.417 146.943 371.417 141.771ZM382.706 131.978C382.706 128.822 381.08 127.359 378.411 127.359C375.743 127.359 374.149 128.823 374.149 131.978V141.771C374.149 144.927 375.744 146.39 378.411 146.39C381.08 146.39 382.706 144.926 382.706 141.771V131.978Z" fill="white"/>
<path d="M399.62 147.431L391.162 131.067V147.691C391.162 148.341 390.479 148.667 389.796 148.667C389.113 148.667 388.429 148.341 388.429 147.691V125.829C388.429 125.146 389.079 124.885 389.796 124.885C390.772 124.885 391.292 125.47 391.878 126.609L399.979 142.453V125.829C399.979 125.178 400.662 124.885 401.345 124.885C402.028 124.885 402.712 125.178 402.712 125.829V147.691C402.712 148.341 402.029 148.667 401.345 148.667C400.596 148.667 400.011 148.147 399.62 147.431Z" fill="white"/>
<path d="M408.661 135.621H413.736C414.321 135.621 414.68 136.174 414.68 136.792C414.68 137.312 414.387 137.899 413.736 137.899H408.661V146.194H418.746C419.332 146.194 419.69 146.78 419.69 147.464C419.69 148.049 419.397 148.668 418.746 148.668H407.164C406.545 148.668 405.928 148.342 405.928 147.692V125.862C405.928 125.211 406.546 124.886 407.164 124.886H418.746C419.397 124.886 419.69 125.505 419.69 126.09C419.69 126.773 419.333 127.359 418.746 127.359H408.661V135.621Z" fill="white"/>
</svg>
