<svg width="47" height="114" viewBox="0 0 47 114" fill="none" xmlns="http://www.w3.org/2000/svg">
<path d="M46.169 109.211C43.9496 108.721 41.7422 108.006 39.4195 107.027C39.3917 107.014 39.3228 106.936 39.3012 106.866C39.0697 106.077 38.9922 105.282 39.0635 104.436C39.5183 99.0313 36.3001 93.3368 31.4123 90.8955C31.3084 90.8427 31.2 90.7971 31.0752 90.7459L30.9593 90.6979C30.8492 90.6509 30.7151 90.6705 30.6262 90.7418C30.5302 90.8159 30.4825 90.9366 30.5021 91.0577L30.6358 91.8864C30.7545 92.6196 30.8708 93.3372 30.9823 94.0553L31.0104 94.2433C31.3242 96.2844 31.6487 98.3951 32.2808 100.423C32.8511 102.252 33.7312 103.696 34.9553 104.802C32.3693 103.277 29.9595 101.444 27.771 99.3369C27.725 99.2926 27.6705 99.1753 27.6626 99.0786L27.6039 97.6323C27.6036 97.5808 27.6029 97.4443 27.632 97.3767C28.71 94.8655 28.9861 92.0386 28.4768 88.7354C27.9857 85.5495 26.6254 82.6198 24.4334 80.0272C24.1769 79.7237 23.9505 79.57 23.7605 79.57C23.7142 79.57 23.6724 79.5793 23.6394 79.5964C23.5386 79.6465 23.4703 79.7436 23.457 79.8557L23.3983 80.3602C23.3531 80.7348 23.3095 81.1024 23.2704 81.4708C23.2028 82.1197 23.1287 82.7676 23.0543 83.4158L23.0437 83.5095C22.8585 85.128 22.6664 86.8017 22.5649 88.4775C22.4469 90.4325 22.4819 92.7157 23.6374 94.8277C23.6436 94.8384 23.649 94.8497 23.6552 94.8603C22.049 92.8518 20.5828 90.6904 19.2747 88.4C19.1591 88.1962 19.1492 88.0176 19.1708 87.7583C19.2637 86.6618 19.7734 85.7707 20.3101 84.9716C21.347 83.424 21.9746 81.5949 22.3454 79.0404C22.8636 75.468 22.3402 71.8842 20.7907 68.3879C20.7481 68.2915 20.6984 68.1986 20.6452 68.0988L20.5242 67.8703C20.4662 67.7589 20.3424 67.6855 20.2117 67.6913C20.0814 67.6982 19.9665 67.7808 19.9192 67.9009C19.5432 68.8489 19.1797 69.7622 18.8185 70.6687L18.5877 71.248C17.8174 73.1827 16.9534 75.4416 16.4513 77.7721C16.0973 79.4167 16.0757 81.004 16.3861 82.5152C15.1816 79.6482 14.1914 76.6187 13.4331 73.4773C13.4245 73.4424 13.4218 73.3518 13.4969 73.1429C13.8515 72.1723 14.4974 71.2922 15.3157 70.6649C17.1071 69.291 18.1233 67.3813 18.881 65.6945C20.4322 62.2448 20.8531 58.5801 20.1671 54.4901C20.1599 54.4472 20.1469 54.4047 20.1315 54.3584L20.1191 54.3213C20.0893 54.2298 20.0214 54.1557 19.9315 54.1169C19.8437 54.0802 19.7333 54.0871 19.665 54.1207C19.5964 54.1457 19.4925 54.1838 19.4249 54.2829C19.0367 54.8015 18.6426 55.3249 18.2482 55.8479L18.182 55.9361C17.1873 57.2569 16.1587 58.6219 15.1703 59.9818C14.0251 61.553 13.2163 63.0803 12.6974 64.6511C12.447 65.4098 12.2834 66.14 12.2063 66.8493C11.8767 64.3006 11.6897 61.6984 11.6489 59.0747C11.6393 58.4484 11.7189 57.9507 12.1466 57.4057C12.5993 56.8247 13.0222 56.5003 13.6053 56.2863C16.001 55.411 17.5379 53.5613 18.609 52.0477C20.3393 49.5992 21.3542 46.7501 21.7116 43.3375C21.7496 42.9862 21.7712 42.6309 21.7935 42.255L21.799 42.1696C21.8096 41.9868 21.821 41.7965 21.8354 41.5948C21.8443 41.461 21.7726 41.3355 21.6529 41.2748C21.537 41.2165 21.3885 41.2336 21.2876 41.319L21.0033 41.5625C20.8963 41.6538 20.8047 41.732 20.7097 41.8081C20.2532 42.1748 19.795 42.5376 19.3357 42.9015L19.2877 42.9393C18.2797 43.7377 17.2371 44.5633 16.2414 45.4159C14.3094 47.0636 13.0654 48.7037 12.3263 50.5781C12.2042 50.8871 12.0972 51.1927 12.0053 51.4952C12.3092 48.5168 12.8027 45.5836 13.4804 42.7379C13.5627 42.3898 13.6087 42.2876 13.7778 42.232C13.8841 42.196 13.9832 42.1267 14.0556 42.041C14.5471 41.4823 15.1943 41.3938 15.8212 41.3811C17.9134 41.3321 19.5727 40.2884 20.9196 39.2739C24.2222 36.7866 26.4961 30.4758 26.4961 30.2618C26.4961 30.1503 26.4405 30.0464 26.3462 29.9836C26.2533 29.9222 26.1277 29.9136 26.0331 29.9558C25.3451 30.2477 24.6571 30.532 23.9447 30.8266C22.3773 31.4766 20.7567 32.1481 19.2003 32.8825C17.6339 33.6236 16.3961 34.6148 15.5112 35.8345C16.3546 33.4381 17.3324 31.0887 18.4272 28.8309C18.5531 28.5873 19.1444 28.3287 19.9922 28.3287C20.268 28.3287 20.5351 28.3582 20.766 28.4138C22.758 28.8912 24.7332 28.6017 26.9193 27.5094C29.1559 26.3913 31.0114 24.5632 32.5919 21.9192C32.622 21.8681 32.6814 21.712 32.7133 21.6245C32.7534 21.5175 32.7373 21.3996 32.6707 21.31C32.609 21.225 32.5102 21.1742 32.3843 21.1742C32.3833 21.1742 32.3826 21.1742 32.3816 21.1742L31.5921 21.2239C31.1081 21.2545 30.6382 21.2843 30.1684 21.3083L29.6666 21.3337C28.1685 21.4092 26.6189 21.4867 25.1029 21.8478C23.374 22.2635 22.1046 22.9018 21.1312 23.8484C22.2833 21.9308 23.517 20.1062 24.8165 18.3971C24.8515 18.3518 25.0192 18.2826 25.1568 18.2596C25.2254 18.2435 25.4751 18.191 25.8071 18.191C26.2474 18.191 26.6329 18.2805 26.9598 18.4602C29.0365 19.4758 31.3688 19.5512 33.901 18.6814C35.9781 17.9718 37.7372 16.6538 39.2792 14.6532C39.3293 14.5887 39.3746 14.5184 39.4157 14.4443C39.4627 14.3589 39.4658 14.2649 39.4247 14.1792C39.3053 13.9288 38.7888 13.8112 38.5713 13.7721C38.0377 13.6788 37.433 13.5724 36.8335 13.4912C36.5587 13.4527 36.2837 13.4126 36.0079 13.3718L35.9726 13.3663C35.0383 13.2284 34.0725 13.0858 33.0995 13.0367C31.3215 12.9458 29.7427 13.3087 28.4507 14.112C29.3195 13.1873 30.2071 12.3099 31.1085 11.4858C31.3935 11.2258 31.7159 10.9638 32.1552 10.6348C32.1892 10.6088 32.2756 10.5782 32.3816 10.5721C35.4955 10.4503 38.0867 9.07566 40.3023 6.37025C41.5093 4.8975 42.4346 3.03993 43.1319 0.691219L43.1559 0.610619C43.2303 0.363675 43.2715 0.227855 43.1004 0.0687132C42.9683 -0.0540729 42.7358 -0.0177162 42.1314 0.221682C41.5827 0.432614 41.0305 0.637372 40.4635 0.847618C39.3245 1.26982 38.1464 1.70643 37.0094 2.19964C35.1093 3.02553 33.592 4.2774 32.5003 5.91992C31.6689 7.16973 31.3403 8.42537 31.495 9.75201C31.494 9.76676 31.4809 9.80209 31.4789 9.8062C29.4954 11.5187 27.5995 13.4466 25.6527 15.7411C26.9509 13.7563 27.797 11.471 28.2216 8.82186C28.6497 6.15109 28.6768 3.77391 28.305 1.55484C28.2813 1.41593 28.2494 1.27703 28.2086 1.10314L28.1479 0.835269C28.1204 0.720372 28.034 0.627425 27.9205 0.591755C27.807 0.558143 27.6797 0.587982 27.595 0.668582C27.4592 0.796513 27.3261 0.917242 27.1961 1.03454L27.1045 1.1172C26.7719 1.41696 26.4577 1.69992 26.1734 2.01992C23.4107 5.13656 21.7994 8.42846 21.2475 12.0839C20.9961 13.736 21.1004 15.1426 21.5665 16.3828C21.7208 16.7937 21.9616 17.1607 22.2013 17.5249C22.3111 17.6913 22.4208 17.8583 22.5213 18.0298C22.5954 18.1529 22.6016 18.1848 22.6012 18.179C22.5556 18.6677 22.4901 19.2124 22.4016 19.8661C22.3979 19.8743 22.3855 19.8935 22.3461 19.9457L22.3142 19.9899C20.8033 22.09 19.4095 24.3039 18.1552 26.5953C18.6484 24.8839 19.0411 22.7176 19.0133 20.2005C18.9797 17.1813 18.2845 14.4885 16.8872 11.9673C16.832 11.8692 16.7319 11.8054 16.5916 11.7958C16.4897 11.7958 16.3916 11.8462 16.3275 11.9323C16.2856 11.9906 16.2431 12.0455 16.2026 12.0976C16.1124 12.2143 16.0281 12.3247 15.9526 12.4427C14.84 14.1874 14.2432 16.1112 13.8471 17.5925C13.123 20.3092 12.7904 22.5777 12.8 24.7319C12.8054 26.5631 13.1392 27.9707 13.8505 29.1618C14.0717 29.5326 14.3502 29.857 14.6301 30.1836C14.7786 30.3568 14.9312 30.5348 15.0694 30.7172C15.1662 30.8441 15.2128 30.9734 15.2155 31.0455C15.2337 31.4797 15.2241 31.9211 15.2149 32.3478L15.2083 32.6427C15.2073 32.6935 15.1957 32.7518 15.1782 32.7964C14.285 34.9602 13.5 37.2091 12.8305 39.5187C12.9289 38.7323 12.9845 37.9709 12.9985 37.228C13.0795 33.0114 11.7861 29.2459 9.15341 26.0346L8.60464 25.3661C8.54119 25.2875 8.44722 25.243 8.34707 25.243L8.29219 25.2478C8.17489 25.2673 8.07612 25.3486 8.0353 25.4594C7.98523 25.5928 7.93618 25.7187 7.88851 25.8404C7.79659 26.0757 7.70981 26.2987 7.63642 26.5254C7.07153 28.2948 6.79441 30.2278 6.73816 32.7919L6.73713 32.842C6.69494 34.7074 6.63698 37.263 7.40319 39.7084C8.1574 42.1158 9.48747 43.3323 9.74539 43.5508L9.77283 43.5755C10.4749 44.2021 10.9321 44.7752 11.0268 45.1474C11.0648 45.2976 11.1036 45.4481 11.1489 45.597C11.3492 46.2593 11.224 46.8904 11.0888 47.5719C11.0216 47.9159 10.9516 48.2712 10.9273 48.6358C10.8306 50.0948 10.7119 51.5785 10.597 53.0132L10.5867 53.1459C10.5572 53.5119 10.5277 53.8779 10.4986 54.2438C10.2057 50.9608 9.11843 47.9766 7.24782 45.3374C6.10228 43.7226 4.73654 42.3411 3.18765 41.2302C3.12077 41.1822 3.05046 41.1393 2.95648 41.0834C2.91087 41.057 2.85805 41.0254 2.79391 40.9853C2.69719 40.9274 2.57303 40.9222 2.47322 40.9709C2.37102 41.0206 2.30071 41.1218 2.28905 41.2364C2.26812 41.4439 2.24377 41.6449 2.21805 41.8534C2.16626 42.2804 2.11721 42.6837 2.11516 43.0981C2.09218 47.3928 3.00073 51.4173 4.81645 55.0584C5.32234 56.0743 5.99081 56.953 6.80401 57.6712C7.61035 58.3794 8.48049 58.7972 9.46243 58.9474C9.48404 58.9512 9.53549 58.9824 9.54338 58.9886C9.59654 59.0952 9.65176 59.2023 9.70698 59.3096C9.90316 59.6886 10.1059 60.0806 10.2067 60.4737C10.2907 60.806 10.2907 61.1692 10.2907 61.5541C10.2907 61.695 10.2907 61.837 10.2952 61.9763C10.3895 65.3031 10.5133 66.4617 11.0456 69.4343C10.7208 68.5505 10.313 67.6642 9.78655 66.8116C7.6546 63.3609 4.9461 61.0187 1.50637 59.6519C1.28755 59.5638 1.06804 59.5003 0.813553 59.4262L0.762793 59.4111C0.659556 59.3809 0.550146 59.3487 0.433191 59.313C0.327553 59.2784 0.207168 59.3021 0.121081 59.3734C0.035336 59.4444 -0.00959413 59.5531 0.00172415 59.6663C0.0271045 59.9023 0.0445964 60.1317 0.0607164 60.3557C0.0960431 60.8468 0.129312 61.3105 0.248325 61.7694C1.3582 66.0563 3.19519 69.4707 5.86391 72.208C7.00499 73.3782 8.20748 74.0491 9.53995 74.2593C9.87607 74.3118 10.287 74.3183 10.9825 74.2751L11.1828 74.2631C11.2133 74.2614 11.2401 74.2597 11.2644 74.2597C11.3193 74.2597 11.3238 74.2597 11.3618 74.3159L12.2937 75.5956C12.3057 75.6124 12.3232 75.6731 12.3352 75.7149L12.3489 75.7609C13.3161 79.0398 14.5162 82.1979 15.9313 85.1952C15.2944 84.3161 14.5965 83.5136 13.8186 82.7587C10.2413 79.2877 4.12535 79.1872 3.43974 79.1872L3.35434 79.1879L3.30049 79.1979C3.13243 79.2576 3.04154 79.4373 3.09333 79.6064C3.141 79.7658 3.18559 79.927 3.23669 80.1164C3.33444 80.472 3.43596 80.8394 3.5783 81.1947C4.25603 82.8883 5.35458 84.5175 7.03621 86.3236C8.1917 87.5617 9.49433 88.8174 11.1883 89.6114C13.0435 90.4825 14.7186 90.6952 16.3844 90.2685C16.6677 90.1941 16.9935 90.0998 17.2738 89.918C17.4734 89.7901 17.5279 89.7942 17.7241 89.9403C17.9566 90.1132 18.2039 90.2582 18.444 90.3988C18.5767 90.4767 18.7105 90.5553 18.8353 90.6341C18.8552 90.6509 18.8978 90.7206 18.9135 90.7463C20.4082 93.1842 22.0549 95.4499 23.8329 97.5167C22.8712 96.817 21.8837 96.3108 20.8349 95.9736C17.6298 94.9409 14.2703 95.0723 10.9431 96.3588C10.4464 96.5512 9.90213 96.8427 9.86578 96.8633C9.78963 96.9134 9.73716 96.9943 9.7207 97.0873C9.70629 97.1785 9.72996 97.2718 9.78552 97.3431C9.88944 97.4783 9.98993 97.6141 10.0894 97.7489L10.1113 97.7784C10.336 98.0843 10.5905 98.4304 10.8758 98.737C12.161 100.115 13.7459 101.038 15.2673 101.831C17.3595 102.917 19.499 103.502 21.6268 103.57C21.727 103.574 21.8271 103.576 21.9269 103.576C23.8843 103.576 25.4123 102.931 26.5901 101.611C26.6045 101.601 26.6556 101.581 26.6837 101.581C27.1337 101.613 27.5614 101.679 27.881 101.732C27.9315 101.741 27.9935 101.771 28.0323 101.806C30 103.548 32.0839 105.077 34.2608 106.378C33.9308 106.28 33.5909 106.195 33.2432 106.127C30.9167 105.68 28.5427 105.96 25.9357 106.996C24.1769 107.697 22.5412 108.727 20.9351 110.145C20.8027 110.261 20.7841 110.461 20.8932 110.6C21.4615 111.323 22.201 111.728 22.8496 112.028C24.4314 112.763 26.2169 113.234 28.3101 113.468C28.3163 113.468 28.9889 113.527 29.9321 113.527C30.6129 113.527 31.2463 113.496 31.814 113.436C32.3566 113.379 32.8978 113.286 33.4229 113.16C35.8347 112.573 37.469 111.365 38.4053 109.491C38.4221 109.475 38.4942 109.433 38.5854 109.411C39.0206 109.303 39.4123 109.227 39.7848 109.177C39.8726 109.163 39.982 109.187 40.1199 109.242C41.7854 109.884 43.5479 110.418 45.3551 110.831C45.3805 110.837 45.4069 110.84 45.4333 110.84C45.5547 110.84 45.6665 110.773 45.7255 110.664C45.898 110.343 46.1083 110.035 46.3501 109.749C46.4259 109.658 46.4485 109.538 46.4111 109.427C46.3755 109.32 46.2849 109.238 46.169 109.211Z" fill="#FFB408"/>
</svg>
