<svg width="17" height="17" viewBox="0 0 17 17" fill="none" xmlns="http://www.w3.org/2000/svg">
<path d="M11.1875 5.8125C11.0312 5.65625 10.75 5.40625 10.5625 5.28125C10.3438 5.125 10.0938 5.15625 9.90625 5.3125L9.25 5.96875C9 6.25 8.875 6.59375 8.875 6.90625C8.875 7.0625 9 7.21875 9.09375 7.3125C9.1875 7.375 9.3125 7.46875 9.4375 7.5625C10.3125 8.46875 10.3125 9.875 9.4375 10.75L7.3125 12.8438C6.4375 13.75 5 13.75 4.125 12.8438C3.25 11.9688 3.28125 10.5312 4.15625 9.65625L4.5625 9.25C4.71875 9.125 4.75 8.90625 4.6875 8.71875C4.5 8.1875 4.40625 7.625 4.375 7.09375C4.375 6.65625 3.84375 6.4375 3.53125 6.75L2.375 7.90625C0.53125 9.75 0.53125 12.7812 2.375 14.625C4.21875 16.4688 7.25 16.4688 9.09375 14.625L11.1875 12.5312C11.1875 12.5312 11.1875 12.5312 11.1875 12.5C13.0312 10.6875 13.0625 7.6875 11.1875 5.8125ZM15.5938 1.40625C13.75 -0.4375 10.7188 -0.4375 8.875 1.40625L6.78125 3.5C6.78125 3.5 6.78125 3.5 6.78125 3.53125C4.9375 5.34375 4.90625 8.34375 6.78125 10.2188C6.9375 10.375 7.21875 10.625 7.40625 10.75C7.625 10.9062 7.875 10.875 8.0625 10.7188L8.71875 10.0625C8.96875 9.78125 9.09375 9.4375 9.09375 9.125C9.09375 8.96875 8.96875 8.8125 8.875 8.71875C8.78125 8.65625 8.65625 8.5625 8.53125 8.46875C7.65625 7.5625 7.65625 6.15625 8.53125 5.28125L10.6562 3.1875C11.5312 2.28125 12.9688 2.28125 13.8438 3.1875C14.7188 4.0625 14.6875 5.5 13.8125 6.375L13.4062 6.78125C13.25 6.90625 13.2188 7.125 13.2812 7.3125C13.4688 7.84375 13.5625 8.40625 13.5938 8.9375C13.5938 9.375 14.125 9.59375 14.4375 9.28125L15.5938 8.125C17.4375 6.28125 17.4375 3.25 15.5938 1.40625Z" fill="#9EA6C9"/>
</svg>
