<svg width="115" height="116" viewBox="0 0 115 116" fill="none" xmlns="http://www.w3.org/2000/svg">
    <ellipse cx="57.0029" cy="58" rx="57.0029" ry="58" fill="url(#paint0_linear)"
        fill-opacity="0.1" />
    <path d="M80.5903 31H74.6934V24L80.5903 31Z" fill="#F5F7FA" />
    <rect x="39.3123" y="31" width="41.2779" height="53" fill="white" />
    <g filter="url(#filter0_d)">
        <rect x="33.4155" y="24" width="41.2779" height="59" fill="white" />
    </g>
    <path d="M87.0906 54.7079L80.6624 59.3892V50.0376L87.0906 54.7079Z" fill="#3E108D" />
    <path d="M33.365 50.0266V59.399L26.9153 54.7188L33.365 50.0266Z" fill="#3E108D" />
    <path
        d="M80.6624 59.389L87.0906 54.7078L87.1014 54.7187V91.8953H87.0906L61.3134 73.4546L80.6624 59.389Z"
        fill="#541BB7" />
    <path
        d="M87.0906 91.8952H26.9044L52.7138 73.4655L57.0029 76.5827L61.3134 73.4546L87.0906 91.8952Z"
        fill="#8254D3" />
    <path
        d="M26.9151 54.7187L33.3648 59.3989V59.4109L52.7138 73.4656L26.9044 91.8953V54.7078L26.9151 54.7187Z"
        fill="#541BB7" />
    <path
        d="M70.9772 57.9978H43.0286C42.4341 57.9978 41.9536 57.5089 41.9536 56.9041C41.9536 56.2992 42.4341 55.8103 43.0286 55.8103H70.9772C71.5716 55.8103 72.0521 56.2992 72.0521 56.9041C72.0521 57.5089 71.5716 57.9978 70.9772 57.9978Z"
        fill="#E2E6ED" />
    <path
        d="M70.9772 61.2791H43.0286C42.4341 61.2791 41.9536 60.7901 41.9536 60.1853C41.9536 59.5805 42.4341 59.0916 43.0286 59.0916H70.9772C71.5716 59.0916 72.0521 59.5805 72.0521 60.1853C72.0521 60.7901 71.5716 61.2791 70.9772 61.2791Z"
        fill="#E2E6ED" />
    <path
        d="M62.3776 64.5603H51.6281C51.0337 64.5603 50.5532 64.0714 50.5532 63.4666C50.5532 62.8617 51.0337 62.3728 51.6281 62.3728H62.3776C62.9721 62.3728 63.4526 62.8617 63.4526 63.4666C63.4526 64.0714 62.9721 64.5603 62.3776 64.5603Z"
        fill="#E2E6ED" />
    <path
        d="M62.3727 44.0999C60.3437 44.0999 58.6931 45.7794 58.6931 47.8439C58.6931 49.9083 60.3437 51.588 62.3727 51.588C64.4017 51.588 66.0523 49.9084 66.0523 47.8439C66.0523 45.7794 64.4015 44.0999 62.3727 44.0999ZM63.4341 48.348H62.8682V48.9238C62.8682 49.2023 62.6464 49.4279 62.3727 49.4279C62.099 49.4279 61.8772 49.2023 61.8772 48.9238V48.348H61.3113C61.0376 48.348 60.8158 48.1223 60.8158 47.8439C60.8158 47.5655 61.0376 47.3397 61.3113 47.3397H61.8772V46.7639C61.8772 46.4856 62.099 46.2598 62.3727 46.2598C62.6464 46.2598 62.8682 46.4856 62.8682 46.7639V47.3397H63.4341C63.7078 47.3397 63.9296 47.5655 63.9296 47.8439C63.9296 48.1223 63.7078 48.348 63.4341 48.348Z"
        fill="#E2E6ED" />
    <path
        d="M54.4122 43.4881C56.4412 43.4881 58.0919 41.8085 58.0919 39.744C58.0919 37.6795 56.4411 36 54.4122 36C52.3833 36 50.7325 37.6795 50.7325 39.744C50.7325 41.8086 52.3833 43.4881 54.4122 43.4881Z"
        fill="#E2E6ED" />
    <path
        d="M58.7675 44.8259C58.3952 44.2715 57.9236 43.791 57.3787 43.4121C56.5715 44.0893 55.5378 44.4965 54.4122 44.4965C53.2867 44.4965 52.253 44.0893 51.4456 43.4121C50.0551 44.3789 49.1404 46.0047 49.1404 47.8439V49.7339C49.1404 50.7564 49.9578 51.588 50.9625 51.588H57.8617C58.305 51.588 58.7117 51.426 59.028 51.1573C58.2081 50.3005 57.7021 49.1313 57.7021 47.8439C57.7021 46.699 58.1022 45.6472 58.7675 44.8259Z"
        fill="#E2E6ED" />
    <defs>
        <filter id="filter0_d" x="31.4155" y="24" width="45.2779" height="73"
            filterUnits="userSpaceOnUse" color-interpolation-filters="sRGB">
            <feFlood flood-opacity="0" result="BackgroundImageFix" />
            <feColorMatrix in="SourceAlpha" type="matrix"
                values="0 0 0 0 0 0 0 0 0 0 0 0 0 0 0 0 0 0 127 0" />
            <feOffset dy="12" />
            <feGaussianBlur stdDeviation="1" />
            <feColorMatrix type="matrix" values="0 0 0 0 0 0 0 0 0 0 0 0 0 0 0 0 0 0 0.05 0" />
            <feBlend mode="normal" in2="BackgroundImageFix" result="effect1_dropShadow" />
            <feBlend mode="normal" in="SourceGraphic" in2="effect1_dropShadow" result="shape" />
        </filter>
        <linearGradient id="paint0_linear" x1="57.0029" y1="0" x2="57.0029" y2="116"
            gradientUnits="userSpaceOnUse">
            <stop stop-color="#C4C4C4" />
            <stop offset="1" stop-color="#C4C4C4" stop-opacity="0" />
        </linearGradient>
    </defs>
</svg>
