<svg width="30" height="30" viewBox="0 0 30 30" fill="none" xmlns="http://www.w3.org/2000/svg">
<g clip-path="url(#clip0)">
<path d="M19.3946 11.5135H10.6055C10.1201 11.5135 9.72656 11.12 9.72656 10.6346V6.26918C9.72656 5.78379 10.1201 5.39027 10.6055 5.39027H19.3946C19.88 5.39027 20.2735 5.78379 20.2735 6.26918V10.6346C20.2735 11.12 19.88 11.5135 19.3946 11.5135ZM11.4844 9.75571H18.5157V7.14809H11.4844V9.75571Z" fill="#FFDE46"/>
<path d="M19.3945 5.39031H15V7.14812H18.5156V9.75572H15V11.5135H19.3945C19.8799 11.5135 20.2734 11.12 20.2734 10.6346V6.26921C20.2734 5.78377 19.8799 5.39031 19.3945 5.39031Z" fill="#FFCD00"/>
<path d="M21.8321 26.2879C25.6071 22.5129 25.6071 16.3923 21.8321 12.6173C18.057 8.84225 11.9365 8.84225 8.16147 12.6173C4.38644 16.3923 4.38644 22.5129 8.16147 26.2879C11.9365 30.0629 18.057 30.0629 21.8321 26.2879Z" fill="#FFDE46"/>
<path fill-rule="evenodd" clip-rule="evenodd" d="M15 9.78504V29.1211C20.325 29.1211 24.668 24.7781 24.668 19.4531C24.668 14.1281 20.325 9.78504 15 9.78504Z" fill="#FFCD00"/>
<path d="M15.0001 30C9.18448 30 4.45312 25.2686 4.45312 19.453C4.45312 13.6374 9.18448 8.90608 15.0001 8.90608C20.8156 8.90608 25.547 13.6374 25.547 19.453C25.547 25.2686 20.8156 30 15.0001 30ZM15.0001 10.6639C10.1537 10.6639 6.21095 14.6067 6.21095 19.453C6.21095 24.2994 10.1537 28.2422 15.0001 28.2422C19.8464 28.2422 23.7892 24.2994 23.7892 19.453C23.7892 14.6067 19.8464 10.6639 15.0001 10.6639Z" fill="#FFEF00"/>
<path d="M18.5166 7.14856H11.4854V0.878907C11.4854 0.393516 11.8789 0 12.3643 0H17.6377C18.1231 0 18.5166 0.393516 18.5166 0.878907V7.14856Z" fill="#FF7B4A"/>
<path d="M15.9199 22.4413H15.8789V16.4648H15.9199C16.4053 16.4648 16.7988 16.0713 16.7988 15.5859C16.7988 15.1005 16.4053 14.707 15.9199 14.707H14.0801C13.5947 14.707 13.2012 15.1005 13.2012 15.5859C13.2012 16.0713 13.5947 16.4648 14.0801 16.4648H14.1211V22.4413H14.0801C13.5947 22.4413 13.2012 22.8348 13.2012 23.3202C13.2012 23.8056 13.5947 24.1991 14.0801 24.1991H15.9199C16.4053 24.1991 16.7988 23.8056 16.7988 23.3202C16.7988 22.8348 16.4053 22.4413 15.9199 22.4413Z" fill="#FA9806"/>
<path d="M17.6367 0H15V7.14856H18.5156V0.878907C18.5156 0.393516 18.1221 0 17.6367 0Z" fill="#FD5B00"/>
<path d="M15.9199 22.4413H15.8789V16.4648H15.9199C16.4053 16.4648 16.7988 16.0713 16.7988 15.5859C16.7988 15.1005 16.4053 14.707 15.9199 14.707H15V24.1991H15.9199C16.4053 24.1991 16.7988 23.8056 16.7988 23.3202C16.7988 22.8348 16.4053 22.4413 15.9199 22.4413Z" fill="#BA9209"/>
<path d="M15 8.90613V10.6639C19.8463 10.6639 23.7891 14.6067 23.7891 19.4531C23.7891 24.2994 19.8463 28.2422 15 28.2422V30C20.8156 30 25.547 25.2686 25.547 19.4531C25.547 13.6375 20.8156 8.90613 15 8.90613Z" fill="#FEE300"/>
</g>
<defs>
<clipPath id="clip0">
<rect width="30" height="30" fill="white"/>
</clipPath>
</defs>
</svg>
