<svg width="512" height="512" viewBox="0 0 512 512" fill="none" xmlns="http://www.w3.org/2000/svg">
<g clip-path="url(#clip0)">
<path d="M512 256C512 295.299 503.15 332.528 487.32 365.808C475.837 389.956 460.686 412.013 442.588 431.271C414.48 461.186 379.267 484.331 339.634 498.03C313.428 507.079 285.288 512 256 512C226.712 512 198.572 507.079 172.366 498.03C132.712 484.331 97.478 461.156 69.36 431.219C51.252 411.941 36.101 389.862 24.628 365.693C8.84 332.445 0 295.257 0 256C0 114.615 114.615 0 256 0C397.385 0 512 114.615 512 256Z" fill="#1B3466"/>
<path d="M499.702 288.925C499.702 315.789 495.355 341.64 487.32 365.809C475.837 389.957 460.686 412.014 442.588 431.272C414.48 461.187 379.267 484.332 339.634 498.031C313.428 507.079 285.288 512 256 512C226.712 512 198.572 507.079 172.366 498.03C132.712 484.331 97.478 461.156 69.36 431.219C51.252 411.941 36.101 389.862 24.628 365.693C16.624 341.556 12.288 315.747 12.288 288.924C12.288 154.321 121.396 45.213 256 45.213C390.593 45.213 499.702 154.321 499.702 288.925Z" fill="#03306C"/>
<path d="M490.674 288.925C490.674 342.455 472.754 391.795 442.588 431.271C414.48 461.186 379.267 484.331 339.634 498.03C313.428 507.079 285.288 512 256 512C226.712 512 198.572 507.079 172.366 498.03C132.712 484.331 97.478 461.156 69.36 431.219C39.225 391.743 21.316 342.424 21.316 288.925C21.316 159.305 126.38 54.241 256 54.241C385.609 54.241 490.674 159.305 490.674 288.925Z" fill="#75C5F2"/>
<path d="M481.155 288.925C481.155 383.718 422.568 464.834 339.634 498.03C313.428 507.079 285.288 512 256 512C226.712 512 198.572 507.079 172.366 498.03C89.422 464.833 30.845 383.718 30.845 288.925C30.845 164.571 131.647 63.77 256 63.77C380.343 63.77 481.155 164.571 481.155 288.925Z" fill="#1B3466"/>
<path d="M256 507.256C376.581 507.256 474.331 409.506 474.331 288.925C474.331 168.344 376.581 70.594 256 70.594C135.419 70.594 37.669 168.344 37.669 288.925C37.669 409.506 135.419 507.256 256 507.256Z" fill="#FFFEFF"/>
<path d="M256 439.432C339.123 439.432 406.507 372.048 406.507 288.925C406.507 205.802 339.123 138.418 256 138.418C172.877 138.418 105.493 205.802 105.493 288.925C105.493 372.048 172.877 439.432 256 439.432Z" fill="#1B3466"/>
<path d="M256 432.881C335.505 432.881 399.956 368.43 399.956 288.925C399.956 209.42 335.505 144.969 256 144.969C176.495 144.969 112.044 209.42 112.044 288.925C112.044 368.43 176.495 432.881 256 432.881Z" fill="white"/>
<path d="M256 424.323C330.778 424.323 391.398 363.703 391.398 288.925C391.398 214.147 330.778 153.527 256 153.527C181.222 153.527 120.602 214.147 120.602 288.925C120.602 363.703 181.222 424.323 256 424.323Z" fill="#75C5F2"/>
<path d="M252.532 444.997C212.873 431.632 182.314 410.83 161.703 383.169C108.545 311.823 143.217 186.514 144.718 181.214L146.491 174.958L160.449 172.932C191.897 168.369 223.956 166.056 255.734 166.056C287.512 166.056 319.57 168.369 351.018 172.932L364.977 174.958L366.75 181.214C368.252 186.514 402.924 311.824 349.765 383.169C329.154 410.83 298.596 431.631 258.936 444.997L255.732 446.076L252.532 444.997Z" fill="#1B3466"/>
<path d="M161.891 182.857L154.368 183.949C154.368 183.949 118.931 308.978 169.746 377.177C192.645 407.91 225.999 425.472 255.735 435.493C285.471 425.472 318.825 407.91 341.724 377.177C392.538 308.979 357.102 183.949 357.102 183.949L349.579 182.857C287.343 173.826 224.127 173.826 161.891 182.857Z" fill="#FCBD00"/>
<path d="M360.59 303.152C359.487 313.242 357.691 323.29 355.004 332.979C352.226 342.918 348.515 352.476 343.621 361.301C341.364 365.353 338.867 369.264 336.099 372.985C332.919 377.247 329.469 381.339 325.728 385.241C320.112 391.148 313.874 396.633 307.014 401.719H307.004C299.392 407.355 291.038 412.461 281.952 417.033C274.25 420.924 266.016 424.425 257.27 427.533C256.758 427.714 256.247 427.895 255.735 428.074C220.523 415.818 193.495 397.294 175.372 372.984C160.71 353.297 153.629 328.354 150.881 303.151H360.591V303.152H360.59Z" fill="#A5D6F2"/>
<path d="M361.429 293.601C364.509 248.198 354.86 203.986 351.473 190.226L348.571 189.804C317.93 185.358 286.696 183.103 255.735 183.103C224.774 183.103 193.54 185.358 162.899 189.804L159.997 190.226C156.61 203.986 146.961 248.198 150.041 293.601H361.429Z" fill="white"/>
<path d="M343.621 361.301C341.364 365.353 338.867 369.264 336.099 372.985C332.919 377.247 329.469 381.339 325.728 385.241L257.499 303.153H295.289L343.621 361.301Z" fill="#75C5F2"/>
<path d="M360.59 303.152C359.487 313.242 357.691 323.29 355.004 332.979L330.212 303.152H360.59Z" fill="#75C5F2"/>
<path d="M307.005 401.718C299.393 407.354 291.039 412.46 281.953 417.032L187.298 303.151H225.088L307.005 401.718Z" fill="#75C5F2"/>
<path d="M257.271 427.534C256.759 427.715 256.248 427.896 255.736 428.075C220.524 415.819 193.496 397.295 175.373 372.985C160.711 353.298 153.63 328.355 150.882 303.152H153.881L257.271 427.534Z" fill="#75C5F2"/>
<path d="M245.794 329.038C243.356 336.156 236.716 340.98 229.194 341.099C223.127 341.195 221.848 349.703 227.619 351.577L256.247 360.879V330.778C256.248 324.71 247.761 323.298 245.794 329.038Z" fill="#DD1505"/>
<path d="M283.301 341.099C275.778 340.98 269.138 336.156 266.701 329.038C264.736 323.297 256.249 324.71 256.249 330.778V360.879L284.877 351.577C290.647 349.702 289.368 341.195 283.301 341.099Z" fill="#DD1505"/>
<path d="M283.42 380.496C281.208 373.305 283.745 365.499 289.76 360.98C294.613 357.336 290.646 349.701 284.875 351.577L256.247 360.879L273.94 385.231C277.507 390.141 285.204 386.296 283.42 380.496Z" fill="#DD1505"/>
<path d="M245.988 392.784C252.144 388.458 260.351 388.458 266.508 392.784C271.472 396.273 277.508 390.141 273.941 385.233L256.248 360.881L238.555 385.233C234.988 390.141 241.022 396.272 245.988 392.784Z" fill="#DD1505"/>
<path d="M222.734 360.981C228.751 365.499 231.286 373.305 229.074 380.497C227.29 386.296 234.987 390.141 238.553 385.233L256.246 360.881L227.618 351.579C221.849 349.702 217.882 357.337 222.734 360.981Z" fill="#DD1505"/>
<path d="M256.805 328.328V328.318C256.659 327.931 256.471 327.566 256.251 327.231C255.227 325.685 253.576 324.765 251.925 324.493C251.559 324.43 251.194 324.399 250.807 324.399C248.759 324.399 246.586 325.339 245.363 327.544C245.164 327.899 244.987 328.286 244.841 328.714C242.553 335.412 236.252 339.988 229.178 340.093C225.448 340.156 223.379 342.862 222.971 345.526C222.95 345.683 222.929 345.839 222.919 346.007C222.919 346.007 222.919 346.007 222.919 346.017C222.804 347.543 223.212 349.183 224.267 350.489C224.507 350.792 224.789 351.085 225.113 351.346C225.709 351.837 226.44 352.245 227.307 352.527L228.718 352.987L230.359 353.52L234.1 354.732L234.142 354.753L241.216 357.052L249.095 359.602L250.067 359.915V359.925L251.028 360.238L254.633 361.398L255.249 361.607L255.615 361.722L255.625 361.732H255.635L256.252 361.931L256.639 362.056L257.255 362.255V330.772C257.254 329.853 257.097 329.049 256.805 328.328ZM255.248 359.497L251.643 358.327L250.671 358.014L249.72 357.701L234.82 352.863L230.975 351.609L227.934 350.627C225.332 349.781 224.705 347.513 224.956 345.82C225.217 344.138 226.482 342.142 229.209 342.1C237.129 341.975 244.172 336.855 246.742 329.363C246.752 329.332 246.763 329.29 246.784 329.258C247.693 326.761 249.929 326.186 251.591 326.468C253.273 326.75 255.248 328.046 255.248 330.773V359.497Z" fill="#1B3466"/>
<path d="M289.52 345.527C289.123 342.863 287.044 340.156 283.313 340.094C276.239 339.99 269.938 335.413 267.65 328.715C266.438 325.183 263.22 324.055 260.576 324.494C258.925 324.766 257.274 325.685 256.25 327.232C256.031 327.566 255.842 327.932 255.696 328.319V328.329C255.403 329.05 255.247 329.855 255.247 330.774V362.257L255.853 362.058L256.25 361.933L256.866 361.734V361.724L257.253 361.609L257.869 361.41V361.4L261.474 360.23L262.435 359.927V359.917L263.407 359.604L270.167 357.41H270.177L278.432 354.725C278.442 354.725 278.453 354.725 278.463 354.715L282.141 353.524L285.182 352.531C286.049 352.249 286.781 351.841 287.376 351.35C287.7 351.089 287.982 350.796 288.222 350.493C289.405 349.038 289.771 347.178 289.52 345.527ZM284.568 350.626L281.527 351.619L277.734 352.842C277.703 352.852 277.671 352.863 277.64 352.873L268.8 355.746L262.781 357.7L261.83 358.013L260.858 358.326L257.253 359.496V330.772C257.253 328.045 259.217 326.749 260.9 326.467C261.151 326.425 261.412 326.404 261.673 326.404C263.23 326.404 264.996 327.156 265.748 329.361C268.318 336.853 275.361 341.973 283.281 342.098C286.019 342.14 287.283 344.136 287.534 345.818C287.786 347.512 287.159 349.78 284.568 350.626Z" fill="#1B3466"/>
<path d="M261.475 360.229V360.239L262.436 359.926L261.475 360.229ZM257.87 361.409L261.475 360.239L257.87 361.399V361.409ZM292.195 353.75C291.422 352.266 290.022 350.971 288.224 350.49C287.848 350.385 287.451 350.312 287.043 350.302C286.27 350.239 285.434 350.344 284.567 350.626L281.526 351.619L277.733 352.842C277.702 352.852 277.67 352.863 277.639 352.873L268.799 355.746L262.78 357.7L261.829 358.013L260.857 358.326L257.252 359.496L256.636 359.695L256.249 359.82H256.239L255.633 360.029L255.246 360.144V360.154L254.64 360.353H254.619L255.006 360.886L255.246 361.22L255.612 361.722L255.622 361.732L255.852 362.056L256.239 362.589H256.249L258.464 365.64L259.07 366.476L259.666 367.291L268.872 379.966L269.008 380.165L271.244 383.227V383.237L273.125 385.818C273.668 386.56 274.285 387.135 274.943 387.553C275.288 387.772 275.643 387.95 276.009 388.086C276.72 388.358 277.451 388.483 278.172 388.483C279.217 388.483 280.241 388.222 281.139 387.772C283.072 386.811 284.692 384.815 284.692 382.213C284.692 381.576 284.598 380.907 284.379 380.196C283.721 378.054 283.512 375.849 283.721 373.707C284.149 369.068 286.5 364.69 290.367 361.785C293.345 359.539 293.428 356.133 292.195 353.75ZM281.997 371.628C281.757 372.83 281.631 374.052 281.631 375.285C281.631 377.124 281.903 378.973 282.456 380.792C283.261 383.404 281.766 385.222 280.241 385.985C278.716 386.748 276.354 386.852 274.755 384.637L272.874 382.056L270.533 378.838L270.47 378.754L261.285 366.111L260.689 365.296V365.286L260.093 364.461H260.083L257.868 361.41L261.473 360.24L262.434 359.927L263.406 359.614C263.406 359.604 263.406 359.604 263.406 359.604L265.757 358.852L270.166 357.41H270.176L278.431 354.725C278.441 354.725 278.452 354.725 278.462 354.715L282.14 353.524L285.181 352.531C287.783 351.685 289.622 353.158 290.405 354.673C291.199 356.188 291.335 358.539 289.151 360.18C285.351 363.039 282.875 367.156 281.997 371.628ZM257.87 361.399V361.409L261.475 360.239L257.87 361.399ZM261.475 360.229V360.239L262.436 359.926L261.475 360.229Z" fill="#1B3466"/>
<path d="M263.408 359.602C263.408 359.602 263.408 359.602 263.408 359.612L265.759 358.849L263.408 359.602ZM261.475 360.239L262.436 359.926L261.475 360.229V360.239ZM257.87 361.409L261.475 360.239L257.87 361.399V361.409ZM283.721 355.359C283.355 354.659 282.822 354.011 282.143 353.52C281.767 353.248 281.359 353.018 280.91 352.862C279.98 352.538 278.914 352.486 277.734 352.841C277.703 352.851 277.671 352.862 277.64 352.872L268.8 355.745L262.781 357.699L261.83 358.012L260.858 358.325L257.253 359.495L256.637 359.694L256.25 359.819H256.24L255.634 360.028L255.247 360.143V360.153L254.641 360.352H254.62L255.007 360.885L255.247 361.219L255.613 361.721L255.623 361.731L255.853 362.055L256.24 362.588H256.25L258.465 365.639L259.071 366.475L259.667 367.29L268.873 379.965C269.615 380.968 270.524 381.574 271.475 381.846H271.485C271.945 381.992 272.405 382.055 272.864 382.055H272.874C273.71 382.055 274.515 381.846 275.225 381.491C276.761 380.718 278.057 379.13 278.057 377.061C278.057 376.559 277.984 376.027 277.806 375.462C276.939 372.641 277.116 369.673 278.193 367.051C279.019 364.993 280.408 363.143 282.258 361.753C284.641 359.978 284.703 357.261 283.721 355.359ZM281.057 360.155C279.197 361.545 277.755 363.342 276.763 365.338C275.781 367.334 275.258 369.549 275.258 371.795C275.258 373.216 275.467 374.648 275.895 376.048C276.459 377.887 275.404 379.162 274.328 379.695C273.283 380.228 271.664 380.311 270.535 378.838L270.472 378.754L261.287 366.111L260.691 365.296V365.286L260.095 364.461H260.085L257.87 361.41L261.475 360.24L262.436 359.927L263.408 359.614L265.759 358.851L270.168 357.409H270.178L278.265 354.786C280.083 354.19 281.379 355.225 281.933 356.291C282.488 357.345 282.593 359.006 281.057 360.155ZM257.87 361.399V361.409L261.475 360.239L257.87 361.399ZM261.475 360.229V360.239L262.436 359.926L261.475 360.229ZM263.408 359.602C263.408 359.602 263.408 359.602 263.408 359.612L265.759 358.849L263.408 359.602Z" fill="#1B3466"/>
<path d="M256.24 362.59L254.035 365.641L256.25 362.59H256.24ZM270.535 378.838L270.472 378.754L261.287 366.111L260.691 365.296V365.286L260.095 364.461H260.085L257.87 361.41V361.4L257.494 360.878L257.254 360.554L256.878 360.032L256.638 359.698L256.251 359.176L255.864 359.709L255.634 360.033L255.247 360.555L255.007 360.889L254.631 361.401L254.621 361.411L252.406 364.462L251.81 365.287H251.8L251.215 366.112C251.205 366.112 251.205 366.112 251.205 366.112L245.813 373.541H245.803L242 378.786C241.269 379.8 240.986 380.844 241.018 381.837V381.847C241.018 382.328 241.102 382.787 241.248 383.226V383.236C241.509 384.02 241.959 384.73 242.512 385.294C243.421 386.213 244.717 386.861 246.138 386.861C247.078 386.861 248.071 386.568 249.043 385.889C250.642 384.761 252.449 384.05 254.309 383.768C257.454 383.277 260.746 383.987 263.452 385.889C264.424 386.568 265.427 386.861 266.367 386.861C267.788 386.861 269.084 386.213 269.993 385.294C270.547 384.73 270.986 384.019 271.247 383.236V383.226C271.393 382.787 271.477 382.327 271.477 381.847V381.837C271.506 380.865 271.235 379.841 270.535 378.838ZM268.56 383.895C267.714 384.752 266.178 385.358 264.6 384.25C262.103 382.495 259.177 381.617 256.251 381.617C255.112 381.617 253.973 381.753 252.855 382.014C251.11 382.432 249.417 383.174 247.892 384.25C246.325 385.358 244.778 384.752 243.942 383.895C243.137 383.08 242.573 381.638 243.482 380.165L243.618 379.966L247.129 375.139V375.129L252.824 367.292C252.834 367.292 252.834 367.292 252.834 367.292L253.43 366.477V366.467L254.026 365.642H254.036L256.251 362.591L258.466 365.642L259.072 366.478L259.668 367.293L268.874 379.968L269.01 380.167C269.918 381.649 269.354 383.08 268.56 383.895ZM256.24 362.59L254.035 365.641L256.25 362.59H256.24Z" fill="#1B3466"/>
<path d="M257.86 360.354L257.254 360.155L256.878 360.03L256.251 359.831V359.821H256.241L255.865 359.706L255.249 359.497L251.644 358.327L250.672 358.014L249.721 357.701L234.821 352.863C233.619 352.476 232.512 352.529 231.582 352.863C231.133 353.03 230.725 353.25 230.359 353.521C230.108 353.699 229.878 353.908 229.669 354.127C229.303 354.493 229.011 354.921 228.781 355.36C228.405 356.081 228.175 356.927 228.175 357.795C228.175 359.195 228.771 360.658 230.233 361.755C234.444 364.921 236.231 370.428 234.684 375.464C233.817 378.296 235.353 380.532 237.265 381.493C237.976 381.848 238.78 382.057 239.616 382.057H239.626C240.086 382.057 240.556 381.994 241.005 381.848H241.015C241.966 381.576 242.875 380.97 243.617 379.967L247.128 375.14V375.13L252.823 367.293C252.833 367.293 252.833 367.293 252.833 367.293L253.429 366.478V366.468L254.025 365.643H254.035L256.24 362.592H256.25L256.637 362.059L256.867 361.735V361.725L257.254 361.203L257.494 360.879L257.87 360.357L257.86 360.354ZM238.164 379.695C237.088 379.162 236.043 377.887 236.607 376.048C237.035 374.648 237.244 373.216 237.244 371.806C237.244 367.302 235.154 362.945 231.434 360.155C229.898 359.006 230.002 357.344 230.556 356.289C230.66 356.08 230.796 355.881 230.964 355.683C231.466 355.077 232.218 354.607 233.19 354.607C233.483 354.607 233.796 354.649 234.141 354.753L241.215 357.052L249.094 359.612L250.055 359.925H250.065L251.026 360.238L254.62 361.408L252.405 364.459L251.809 365.284H251.799L251.203 366.109L245.811 373.538H245.801L241.998 378.783C240.87 380.311 239.229 380.238 238.164 379.695Z" fill="#1B3466"/>
<path d="M256.251 334.952C255.969 334.576 255.624 334.252 255.248 333.98C254.569 333.489 253.796 333.186 253.012 333.05C252.73 332.998 252.427 332.977 252.134 332.977C251.486 332.977 250.817 333.092 250.19 333.353C248.978 333.834 247.923 334.826 247.369 336.415C245.666 341.389 240.985 344.795 235.718 344.879C232.75 344.921 231.1 347.084 230.776 349.194C230.661 349.978 230.713 350.814 230.975 351.608C231.111 352.047 231.309 352.465 231.581 352.862C232.124 353.667 232.95 354.335 234.099 354.732L234.141 354.753L241.215 357.052L249.094 359.602C249.094 359.602 249.094 359.602 249.094 359.612L250.055 359.925H250.065L251.026 360.238L254.631 361.398L255.247 361.607L255.613 361.722L255.623 361.732H255.633L256.25 361.931L256.637 362.056L257.253 362.255V338.055C257.254 336.792 256.867 335.747 256.251 334.952ZM232.761 349.497C232.939 348.306 233.827 346.916 235.749 346.885C241.862 346.791 247.295 342.841 249.27 337.063C249.709 335.778 250.649 335.193 251.579 335.036C251.955 334.963 252.331 334.973 252.676 335.026C253.857 335.225 255.246 336.134 255.246 338.056V359.497L251.641 358.327L250.669 358.014L249.718 357.701L234.818 352.863C233.012 352.256 232.584 350.678 232.761 349.497Z" fill="#1B3466"/>
<path d="M281.715 349.194C281.402 347.083 279.751 344.92 276.773 344.879C271.507 344.795 266.826 341.389 265.122 336.415C264.161 333.604 261.601 332.695 259.49 333.05C258.706 333.186 257.933 333.489 257.254 333.98C256.878 334.252 256.533 334.576 256.251 334.952C255.635 335.746 255.248 336.791 255.248 338.055V362.255L255.854 362.056L256.251 361.931L256.867 361.732L257.254 361.607L257.87 361.408V361.398L261.475 360.238V360.228L262.436 359.925L263.408 359.612C263.408 359.602 263.408 359.602 263.408 359.602L265.759 358.85L270.168 357.408H270.178L278.265 354.785C278.328 354.764 278.38 354.743 278.432 354.722C278.442 354.722 278.453 354.722 278.463 354.712C279.571 354.315 280.375 353.646 280.908 352.863C281.18 352.476 281.378 352.058 281.524 351.62C281.778 350.824 281.83 349.978 281.715 349.194ZM277.64 352.872L268.8 355.745L262.781 357.699L261.83 358.012L260.858 358.325L257.253 359.495V338.054C257.253 336.131 258.632 335.222 259.813 335.024C259.991 334.993 260.168 334.982 260.356 334.982C261.453 334.982 262.697 335.504 263.219 337.061C264.212 339.955 266.072 342.38 268.433 344.104C270.805 345.828 273.689 346.831 276.74 346.883C278.663 346.914 279.551 348.304 279.728 349.495C279.906 350.665 279.477 352.222 277.732 352.839C277.703 352.852 277.671 352.862 277.64 352.872Z" fill="#1B3466"/>
<path d="M256.24 362.59L254.035 365.641L256.25 362.59H256.24ZM247.129 375.129L252.834 367.292C252.834 367.292 252.834 367.292 252.824 367.292L247.129 375.129ZM275.832 386.905V386.895C275.644 386.143 275.299 385.38 274.756 384.638L272.875 382.057L270.534 378.839L270.471 378.755L261.286 366.112L260.69 365.297V365.287L260.094 364.462H260.084L257.869 361.411V361.401L257.493 360.879L257.253 360.555L256.877 360.033L256.637 359.699L256.25 359.177L255.863 359.71L255.633 360.034L255.246 360.556L255.006 360.89L254.63 361.402L254.62 361.412L252.405 364.463L251.809 365.288V365.298L251.213 366.113C251.203 366.113 251.203 366.113 251.203 366.113L245.811 373.542H245.801L241.998 378.787L239.626 382.058H239.616L237.746 384.639C237.203 385.381 236.858 386.144 236.67 386.896C236.67 386.896 236.67 386.896 236.66 386.896V386.906C236.556 387.303 236.493 387.7 236.482 388.097C236.388 389.957 237.193 391.671 238.363 392.862C239.491 394.011 241.122 394.816 242.908 394.816C244.089 394.816 245.343 394.461 246.565 393.604C250.64 390.741 255.708 389.895 260.368 391.065C262.322 391.556 264.213 392.402 265.927 393.604C267.15 394.461 268.403 394.827 269.595 394.827C271.371 394.827 273.012 394.012 274.14 392.863C275.31 391.672 276.115 389.948 276.01 388.088C275.999 387.699 275.937 387.302 275.832 386.905ZM267.086 391.962C264.453 390.113 261.454 389.015 258.382 388.66C258.382 388.66 258.382 388.66 258.372 388.66C257.672 388.587 256.961 388.545 256.251 388.545C252.448 388.545 248.655 389.684 245.415 391.962C243.179 393.529 240.985 392.673 239.783 391.45C238.592 390.238 237.756 388.033 239.365 385.818L241.246 383.237V383.227L243.482 380.165L243.618 379.966L247.129 375.139V375.129L252.834 367.292L253.43 366.477V366.467L254.026 365.642H254.036L256.251 362.591L258.466 365.642L259.072 366.478L259.668 367.293L268.874 379.968L269.01 380.167L271.246 383.229V383.239L273.127 385.82C274.736 388.035 273.911 390.24 272.709 391.452C271.506 392.673 269.322 393.529 267.086 391.962ZM252.824 367.292L247.129 375.129L252.834 367.292C252.834 367.292 252.834 367.292 252.824 367.292ZM256.24 362.59L254.035 365.641L256.25 362.59H256.24Z" fill="#1B3466"/>
<path d="M257.86 360.354L257.254 360.155L256.878 360.03L256.251 359.831V359.821H256.241L255.865 359.706L255.249 359.497L251.644 358.327L250.672 358.014L249.721 357.701L234.821 352.863L230.976 351.609L227.935 350.627C227.444 350.47 226.963 350.366 226.503 350.324C226.137 350.282 225.792 350.272 225.458 350.303C225.04 350.313 224.643 350.387 224.267 350.491C222.47 350.972 221.08 352.267 220.307 353.751C219.837 354.66 219.555 355.715 219.555 356.802C219.555 358.568 220.286 360.396 222.136 361.786C227.789 366.039 230.203 373.437 228.113 380.197C227.026 383.771 228.959 386.571 231.363 387.773C232.251 388.222 233.275 388.484 234.33 388.484C235.051 388.484 235.772 388.359 236.482 388.097C236.837 387.951 237.203 387.773 237.548 387.564C238.206 387.146 238.823 386.571 239.366 385.819L241.247 383.238V383.228L243.483 380.166L243.619 379.967L247.13 375.14V375.13L252.825 367.293C252.835 367.293 252.835 367.293 252.835 367.293L253.431 366.478V366.468L254.027 365.643H254.037L256.242 362.592H256.252L256.639 362.059L256.869 361.735V361.725L257.256 361.203L257.496 360.879L257.872 360.357L257.86 360.354ZM251.81 365.286H251.8L251.204 366.111L245.812 373.54H245.802L241.999 378.785L239.627 382.056H239.617L237.747 384.637C236.138 386.852 233.787 386.748 232.261 385.985C230.725 385.222 229.231 383.404 230.035 380.792C232.365 373.216 229.669 364.941 223.337 360.176C221.153 358.535 221.299 356.184 222.083 354.669C222.867 353.154 224.706 351.691 227.307 352.527L228.718 352.987L230.359 353.52L234.1 354.732L234.142 354.753L241.216 357.052L249.095 359.612L250.056 359.925H250.066L251.027 360.238L254.621 361.408L252.406 364.459L251.81 365.286Z" fill="#1B3466"/>
<path d="M297.357 353.134C296.761 351.326 295.748 349.738 294.452 348.474C294.494 348.223 294.525 347.972 294.546 347.722C294.65 346.771 294.63 345.778 294.473 344.775C293.668 339.383 289.426 335.486 284.066 335.11H284.056C283.837 335.089 283.617 335.079 283.398 335.079C278.424 335.006 274.004 331.788 272.395 327.086C270.786 322.415 266.585 319.385 261.685 319.385C259.762 319.385 257.902 319.845 256.252 320.712C254.643 319.866 252.793 319.385 250.819 319.385C247.287 319.385 244.121 320.942 242.052 323.565C241.216 324.589 240.558 325.77 240.108 327.086C238.488 331.788 234.068 335.006 229.095 335.079C224.654 335.152 220.893 337.618 219.074 341.38C218.562 342.414 218.207 343.553 218.019 344.776C217.831 346.051 217.841 347.294 218.04 348.475C216.755 349.739 215.741 351.328 215.135 353.135C213.568 357.827 215.135 362.8 219.127 365.799C223.098 368.777 224.79 373.981 223.328 378.724C222.325 381.995 222.764 385.38 224.54 388.149C224.54 388.149 224.54 388.159 224.55 388.159C224.665 388.378 224.811 388.577 224.968 388.786C225.386 389.35 225.856 389.883 226.368 390.353L226.378 390.363C228.113 391.972 230.286 393.038 232.637 393.372C232.658 393.414 232.679 393.445 232.7 393.487C234.664 397.332 238.666 399.83 242.888 399.83C245.208 399.83 247.475 399.099 249.45 397.709C251.446 396.298 253.807 395.557 256.252 395.557C258.697 395.557 261.048 396.299 263.044 397.709C264.413 398.67 265.907 399.318 267.474 399.611H267.484C268.174 399.757 268.884 399.83 269.605 399.83C273.837 399.83 277.839 397.333 279.803 393.487C279.824 393.445 279.834 393.414 279.855 393.372C282.896 392.933 285.686 391.282 287.525 388.785C289.239 386.476 289.96 383.655 289.615 380.802V380.792C289.531 380.102 289.385 379.413 289.176 378.723C287.713 373.979 289.395 368.776 293.376 365.798C297.367 362.799 298.924 357.825 297.357 353.134ZM290.743 360.051C290.597 360.229 290.44 360.396 290.262 360.563C290.105 360.709 289.938 360.845 289.76 360.981C289.248 361.368 288.767 361.775 288.308 362.193C288.183 362.318 288.057 362.444 287.932 362.559C287.807 362.684 287.681 362.81 287.566 362.935C286.741 363.792 286.02 364.722 285.393 365.714C285.247 365.933 285.111 366.163 284.996 366.383C284.965 366.425 284.944 366.467 284.923 366.508C284.766 366.78 284.62 367.051 284.484 367.334C284.327 367.637 284.181 367.95 284.056 368.264C283.92 368.567 283.805 368.87 283.69 369.173C283.659 369.277 283.617 369.392 283.586 369.507C283.419 369.977 283.273 370.458 283.158 370.949C283.106 371.158 283.054 371.367 283.012 371.586C282.939 371.931 282.876 372.276 282.824 372.631C282.814 372.683 282.814 372.725 282.803 372.777C282.761 373.111 282.719 373.446 282.688 373.78C282.678 373.958 282.667 374.135 282.657 374.313C282.636 374.626 282.626 374.94 282.626 375.253C282.626 377.008 282.887 378.774 283.42 380.498C283.598 381.083 283.681 381.658 283.681 382.191C283.681 382.578 283.639 382.954 283.556 383.309C283.525 383.487 283.472 383.664 283.41 383.831C283.316 384.113 283.201 384.374 283.055 384.625C282.783 385.147 282.407 385.597 281.979 385.994C281.728 386.224 281.446 386.433 281.154 386.621C281.008 386.705 280.851 386.799 280.705 386.872C280.392 387.029 280.068 387.154 279.733 387.259C279.566 387.311 279.399 387.353 279.231 387.374C279.085 387.405 278.938 387.437 278.782 387.447C278.594 387.468 278.395 387.478 278.197 387.478C277.81 387.478 277.424 387.436 277.037 387.353C276.849 387.301 276.661 387.249 276.473 387.186C276.285 387.113 276.097 387.029 275.919 386.946C275.888 386.936 275.867 386.915 275.835 386.904V386.894C275.751 386.852 275.678 386.81 275.605 386.769C275.532 386.728 275.459 386.685 275.386 386.633C275.208 386.518 275.041 386.382 274.874 386.246C274.707 386.1 274.55 385.943 274.393 385.776C274.236 385.609 274.09 385.431 273.944 385.233C274.038 385.358 274.122 385.494 274.205 385.62C274.289 385.756 274.362 385.881 274.424 386.017C274.487 386.132 274.549 386.257 274.602 386.383C274.644 386.487 274.686 386.592 274.727 386.696C274.758 386.79 274.79 386.874 274.811 386.957C274.832 387.041 274.863 387.124 274.874 387.208C274.905 387.323 274.926 387.438 274.947 387.553C274.947 387.574 274.957 387.584 274.957 387.605C274.999 387.866 275.02 388.127 275.02 388.389C275.02 391.273 272.512 393.812 269.607 393.812C268.593 393.812 267.528 393.499 266.514 392.788C266.127 392.516 265.73 392.266 265.333 392.025C264.936 391.785 264.528 391.565 264.11 391.367C263.849 391.242 263.588 391.127 263.326 391.012C262.542 390.667 261.738 390.385 260.923 390.166C260.557 390.072 260.202 389.988 259.847 389.915C259.743 389.894 259.648 389.873 259.554 389.852C259.481 389.831 259.397 389.81 259.324 389.8C259.199 389.779 259.063 389.758 258.937 389.748C258.446 389.675 257.955 389.623 257.464 389.591C257.391 389.591 257.307 389.591 257.234 389.581C257.119 389.571 257.015 389.571 256.9 389.56C256.691 389.55 256.472 389.539 256.252 389.539C256.032 389.539 255.803 389.549 255.583 389.56H255.52C255.478 389.56 255.436 389.57 255.395 389.57C255.186 389.58 254.977 389.591 254.779 389.612C254.622 389.622 254.455 389.643 254.298 389.654C254.058 389.685 253.828 389.706 253.598 389.748C253.514 389.758 253.431 389.779 253.347 389.79C253.086 389.832 252.825 389.884 252.563 389.936C252.239 389.999 251.905 390.082 251.581 390.166C250.756 390.385 249.951 390.668 249.167 391.012C248.906 391.127 248.645 391.242 248.383 391.367C247.965 391.566 247.568 391.785 247.16 392.025C246.763 392.265 246.376 392.516 245.99 392.788C244.966 393.499 243.911 393.812 242.887 393.812C239.982 393.812 237.474 391.283 237.474 388.389C237.474 388.128 237.495 387.867 237.537 387.605C237.547 387.595 237.547 387.574 237.547 387.563C237.547 387.542 237.557 387.532 237.557 387.511C237.567 387.407 237.588 387.312 237.62 387.208C237.683 386.936 237.777 386.654 237.902 386.383C237.944 386.258 238.006 386.143 238.069 386.017C238.121 385.902 238.194 385.777 238.268 385.662C238.352 385.516 238.446 385.38 238.55 385.234C238.446 385.391 238.331 385.527 238.216 385.662L238.101 385.777C237.944 385.944 237.788 386.101 237.62 386.247C237.453 386.383 237.286 386.519 237.108 386.634C236.972 386.728 236.826 386.812 236.669 386.895C236.669 386.895 236.669 386.895 236.659 386.895C236.555 386.958 236.45 386.999 236.346 387.052C236.242 387.104 236.127 387.146 236.022 387.188C235.834 387.251 235.646 387.303 235.458 387.355C235.082 387.439 234.695 387.48 234.309 387.48C234.1 387.48 233.901 387.47 233.693 387.449C233.547 387.428 233.411 387.407 233.265 387.376C233.098 387.355 232.931 387.313 232.763 387.261C232.429 387.157 232.105 387.031 231.802 386.874C231.645 386.801 231.489 386.717 231.342 386.623C231.049 386.435 230.767 386.226 230.517 385.996C229.127 384.732 228.375 382.767 229.075 380.5C231.29 373.301 228.751 365.495 222.732 360.981C220.966 359.654 220.371 357.804 220.611 356.07C220.621 355.955 220.642 355.851 220.663 355.746C220.694 355.568 220.736 355.401 220.788 355.234C220.83 355.077 220.882 354.91 220.955 354.753C220.955 354.743 220.955 354.732 220.965 354.722C221.017 354.586 221.08 354.44 221.153 354.304C221.163 354.283 221.174 354.252 221.184 354.231C221.257 354.085 221.341 353.949 221.424 353.813C221.497 353.698 221.57 353.583 221.654 353.479C221.706 353.395 221.769 353.322 221.832 353.249C221.905 353.144 221.989 353.05 222.083 352.956C222.156 352.872 222.24 352.789 222.323 352.726C222.835 352.224 223.451 351.827 224.141 351.587C224.287 351.535 224.434 351.483 224.59 351.451C224.6 351.451 224.611 351.441 224.632 351.441C224.789 351.399 224.945 351.368 225.113 351.347C225.228 351.326 225.343 351.305 225.468 351.305C225.593 351.284 225.719 351.284 225.844 351.284C226.377 351.284 226.941 351.368 227.526 351.556C227.557 351.556 227.589 351.566 227.62 351.577C227.589 351.567 227.547 351.556 227.516 351.535C227.307 351.462 227.108 351.389 226.92 351.295C226.774 351.232 226.627 351.159 226.492 351.076C226.241 350.94 226.011 350.773 225.802 350.606C225.698 350.522 225.603 350.439 225.509 350.345C225.488 350.335 225.478 350.324 225.457 350.303C224.59 349.457 224.099 348.38 223.952 347.262V347.252C223.576 344.337 225.488 341.15 229.197 341.098C236.72 340.983 243.355 336.156 245.79 329.04C245.863 328.81 245.957 328.601 246.062 328.392C246.156 328.173 246.271 327.974 246.396 327.776C246.48 327.64 246.574 327.504 246.678 327.379C246.751 327.285 246.824 327.191 246.918 327.097C247.002 326.993 247.096 326.888 247.2 326.794C247.608 326.418 248.057 326.115 248.527 325.895C248.537 325.895 248.537 325.895 248.537 325.895C248.652 325.843 248.767 325.791 248.892 325.749C249.017 325.697 249.143 325.655 249.268 325.624C249.77 325.478 250.292 325.405 250.814 325.405C251.002 325.405 251.19 325.415 251.389 325.436C251.629 325.457 251.859 325.499 252.1 325.551C252.215 325.572 252.319 325.603 252.434 325.635C252.497 325.656 252.57 325.677 252.633 325.698C252.748 325.74 252.863 325.782 252.978 325.834C253.02 325.844 253.062 325.855 253.093 325.876C253.229 325.928 253.354 325.991 253.48 326.064C253.522 326.085 253.564 326.106 253.616 326.137C253.741 326.21 253.867 326.283 253.982 326.367C254.013 326.388 254.045 326.398 254.066 326.43C254.212 326.524 254.359 326.639 254.494 326.764C254.64 326.889 254.787 327.025 254.912 327.172C255.027 327.287 255.142 327.423 255.246 327.569C255.34 327.705 255.445 327.851 255.528 327.997C255.591 328.101 255.643 328.206 255.695 328.321V328.331C255.747 328.415 255.779 328.498 255.81 328.592C255.883 328.717 255.935 328.864 255.977 329C255.977 329.021 255.987 329.031 255.987 329.052C256.039 329.209 256.081 329.365 256.112 329.522C256.154 329.71 256.185 329.898 256.206 330.097C256.237 330.306 256.248 330.515 256.248 330.734C256.248 330.515 256.258 330.306 256.29 330.097C256.311 329.898 256.342 329.71 256.384 329.522C256.415 329.365 256.457 329.209 256.509 329.052C256.509 329.031 256.519 329.021 256.519 329C256.561 328.864 256.613 328.718 256.686 328.592C256.717 328.498 256.749 328.414 256.801 328.331V328.321C256.853 328.206 256.906 328.102 256.968 327.997C257.052 327.851 257.156 327.704 257.25 327.569C257.354 327.423 257.469 327.287 257.584 327.172C257.709 327.026 257.856 326.89 258.002 326.764C258.138 326.639 258.284 326.524 258.43 326.43C258.451 326.399 258.482 326.388 258.514 326.367C258.629 326.283 258.754 326.21 258.88 326.137C258.932 326.106 258.974 326.085 259.016 326.064C259.141 325.991 259.267 325.928 259.403 325.876C259.434 325.855 259.476 325.845 259.518 325.834C259.633 325.782 259.748 325.74 259.863 325.698C259.926 325.677 259.999 325.656 260.062 325.635C260.177 325.604 260.281 325.572 260.396 325.551C260.636 325.499 260.866 325.457 261.107 325.436C261.306 325.415 261.494 325.405 261.682 325.405C262.204 325.405 262.727 325.478 263.228 325.624C263.479 325.697 263.719 325.781 263.959 325.896C264.429 326.115 264.878 326.418 265.286 326.795C265.485 326.983 265.673 327.192 265.84 327.422C266.018 327.652 266.174 327.903 266.321 328.174C266.467 328.435 266.593 328.728 266.697 329.041C269.132 336.157 275.777 340.984 283.3 341.099C286.696 341.151 288.587 343.837 288.587 346.533C288.587 346.7 288.577 346.857 288.566 347.024C288.566 347.045 288.556 347.066 288.556 347.087C288.546 347.233 288.525 347.38 288.504 347.526C288.462 347.714 288.42 347.913 288.368 348.101C288.274 348.414 288.149 348.728 287.992 349.021C287.919 349.167 287.835 349.303 287.741 349.439C287.553 349.752 287.313 350.035 287.041 350.306C287.031 350.316 287.01 350.327 286.999 350.337C286.874 350.462 286.738 350.577 286.591 350.692C286.476 350.776 286.361 350.859 286.236 350.932C286.215 350.953 286.184 350.974 286.152 350.984C286.079 351.036 286.006 351.078 285.933 351.109C285.797 351.193 285.651 351.266 285.505 351.328C285.296 351.422 285.087 351.506 284.868 351.579C285.484 351.38 286.08 351.286 286.644 351.286C286.769 351.286 286.895 351.286 287.02 351.307C287.135 351.307 287.26 351.328 287.375 351.349C287.532 351.37 287.678 351.401 287.824 351.433C288.179 351.517 288.514 351.632 288.838 351.799C288.942 351.841 289.047 351.893 289.151 351.956C289.485 352.144 289.788 352.364 290.071 352.625C290.196 352.74 290.322 352.865 290.437 352.991C290.792 353.378 291.095 353.806 291.325 354.276C291.806 355.216 292.025 356.293 291.9 357.348C291.89 357.526 291.858 357.714 291.806 357.891C291.816 357.912 291.806 357.933 291.796 357.943C291.765 358.121 291.712 358.298 291.65 358.476C291.598 358.633 291.525 358.8 291.451 358.957C291.357 359.166 291.242 359.365 291.106 359.563C291.004 359.727 290.879 359.894 290.743 360.051Z" fill="#1B3466"/>
<path d="M256.251 367.144C259.713 367.144 262.519 364.338 262.519 360.876C262.519 357.414 259.713 354.608 256.251 354.608C252.789 354.608 249.983 357.414 249.983 360.876C249.983 364.338 252.789 367.144 256.251 367.144Z" fill="#FCBD00"/>
<path d="M263.408 359.612C263.408 359.602 263.408 359.602 263.408 359.602C263.356 359.268 263.272 358.944 263.168 358.63C263.064 358.306 262.938 358.003 262.781 357.7C261.747 355.568 259.688 354.012 257.254 353.688C256.93 353.625 256.596 353.604 256.251 353.604C255.906 353.604 255.572 353.625 255.248 353.688C252.803 354.012 250.744 355.569 249.72 357.7C249.563 358.003 249.438 358.306 249.333 358.63C249.228 358.943 249.145 359.267 249.093 359.602C249.093 359.602 249.093 359.602 249.093 359.612C249.02 360.02 248.978 360.448 248.978 360.876C248.978 362.924 249.835 364.784 251.204 366.111C251.204 366.111 251.204 366.111 251.214 366.111C251.454 366.351 251.705 366.56 251.977 366.748C252.249 366.957 252.531 367.135 252.823 367.291C252.833 367.291 252.833 367.291 252.833 367.291C253.857 367.845 255.017 368.148 256.25 368.148C257.483 368.148 258.643 367.845 259.667 367.291C259.97 367.134 260.252 366.957 260.524 366.758C260.796 366.559 261.046 366.35 261.287 366.11C262.666 364.793 263.523 362.934 263.523 360.875C263.523 360.448 263.481 360.02 263.408 359.612ZM260.086 364.46C259.867 364.711 259.616 364.941 259.344 365.129C259.072 365.338 258.78 365.505 258.466 365.641C257.797 365.965 257.045 366.143 256.251 366.143C255.457 366.143 254.705 365.965 254.036 365.641H254.026C253.713 365.505 253.43 365.338 253.159 365.129C252.887 364.941 252.637 364.711 252.407 364.46C251.519 363.53 250.986 362.266 250.986 360.876C250.986 360.657 250.996 360.448 251.028 360.239C251.07 359.894 251.143 359.57 251.247 359.246C251.352 358.922 251.477 358.619 251.644 358.327C252.386 356.99 253.702 356.007 255.249 355.704C255.573 355.641 255.907 355.61 256.252 355.61C256.597 355.61 256.931 355.641 257.255 355.704C258.801 356.007 260.118 356.989 260.86 358.327C261.027 358.62 261.153 358.923 261.257 359.246C261.361 359.559 261.435 359.894 261.476 360.228V360.238C261.507 360.447 261.518 360.656 261.518 360.875C261.518 362.265 260.985 363.529 260.097 364.459H260.086V364.46Z" fill="#1B3466"/>
<path d="M202.509 235.432C179.776 249.472 173.424 267.525 173.424 267.525L196.157 270.2C192.144 253.484 202.509 235.432 202.509 235.432Z" fill="#FCBD00"/>
<path d="M291.934 273.575L321.191 263.513C308.819 251.141 315.977 228.352 316.165 227.757C315.611 227.956 297.994 234.392 291.934 236.053V211.028H288.925V212.292C284.589 213.692 279.97 217.652 277.368 218.467C277.368 218.467 281.13 219.888 283.721 217.297C285.1 215.918 287.232 215.73 288.925 215.845V272.698C285.498 268.08 275.916 253.681 280.064 241.779C280.064 241.779 269.155 243.796 258.821 246.45V241.393C268.58 238.979 279.061 238.175 279.061 238.175C270.639 233.045 273.565 219.116 273.565 219.116L258.821 223.651V219.618C267.243 217.706 275.717 217.048 275.717 217.048C268.027 212.367 270.702 199.661 270.702 199.661L258.822 203.318V194.311H255.813V195.596C251.121 196.526 245.834 201.207 242.971 202.106C242.971 202.106 246.733 203.527 249.324 200.936C251.09 199.17 254.078 199.348 255.813 199.64V204.248L245.207 207.519C237.527 215.199 242.866 227.236 242.866 227.236C244.674 224.143 249.982 221.917 255.812 220.361V224.582L245.614 227.717C237.192 236.149 243.054 249.346 243.054 249.346C244.883 246.201 249.992 243.892 255.812 242.199V247.246C249.762 248.907 244.318 250.746 241.957 252.481C241.957 252.481 236.482 258.991 240.39 268.489C237.308 263.442 232.428 253.871 235.27 247.466C235.27 247.466 228.729 248.156 221.561 249.942V245.877C228.499 244.634 234.936 244.456 234.936 244.456C227.246 239.775 229.92 227.079 229.92 227.079L221.561 229.482V215.877H218.552V217.392C213.986 218.52 208.928 222.951 206.16 223.818C206.16 223.818 209.922 225.239 212.513 222.648C214.133 221.028 216.787 221.049 218.553 221.279V230.349L207.864 233.431C200.174 241.111 205.523 253.148 205.523 253.148C207.467 249.815 212.89 247.746 218.553 246.471V250.755C213.402 252.249 208.344 254.329 205.523 257.16C205.523 257.16 199.839 266.188 208.532 274.881C208.532 274.881 211.573 272.467 218.553 271.161V279.572C203.799 278.214 187.864 275.539 173.424 270.534L192.817 280.231L202.514 293.606C202.514 293.606 203.517 288.59 208.867 288.59C214.206 288.59 220.559 290.931 229.922 290.931C239.284 290.931 234.269 285.916 234.269 285.916C234.269 285.916 250.319 288.925 255.334 291.266C260.35 293.607 274.048 291.6 276.389 286.585C276.389 286.585 290.767 293.607 299.795 293.607C308.823 293.607 311.163 293.607 311.163 293.607L308.488 285.582C308.488 285.582 317.182 280.566 317.182 273.21C317.182 273.21 305.207 276.334 291.937 277.264L291.934 273.575ZM255.812 280.722C246.857 280.962 234.768 280.91 221.56 279.844V270.712C226.68 270.116 233.44 270.169 242.061 271.767C243.263 273.721 244.851 275.769 246.972 277.89C246.972 277.89 247.923 274.003 255.812 272.122V280.722ZM288.925 277.441C285.268 277.587 281.579 277.556 278.058 277.222L271.371 279.897C271.371 279.897 266.617 280.357 258.822 280.628V271.558C265.06 270.68 274.558 270.952 288.926 273.972L288.925 277.441Z" fill="#FCBD00"/>
<path d="M220.891 477.874C218.947 477.874 217.349 478.449 217.234 480.225C217.056 482.618 216.597 486.338 211.403 486.338C207.453 486.338 205.28 484.217 205.28 479.766V463.81C205.28 459.348 207.453 457.238 211.288 457.238C216.711 457.238 217.119 461.125 217.233 462.901C217.285 464.615 218.832 465.242 220.942 465.242C223.46 465.242 224.662 464.552 224.662 461.585C224.662 454.95 218.999 450.718 211.057 450.718C203.847 450.718 197.849 454.26 197.849 463.811V479.767C197.849 489.307 203.794 492.86 210.994 492.86C218.998 492.86 224.661 488.451 224.661 481.533C224.663 478.615 223.462 477.874 220.891 477.874Z" fill="#002F63"/>
<path d="M240.264 450.717C238.383 450.717 236.555 451.407 236.555 453.005V490.172C236.555 491.708 238.384 492.513 240.264 492.513C242.093 492.513 243.984 491.708 243.984 490.172V453.005C243.984 451.406 242.092 450.717 240.264 450.717Z" fill="#002F63"/>
<path d="M281.485 450.717H257.306C255.697 450.717 254.955 452.431 254.955 454.029C254.955 455.868 255.812 457.404 257.306 457.404H265.707V490.172C265.707 491.708 267.536 492.513 269.427 492.513C271.256 492.513 273.136 491.708 273.136 490.172V457.404H281.485C282.969 457.404 283.826 455.805 283.826 454.029C283.826 452.43 283.084 450.717 281.485 450.717Z" fill="#002F63"/>
<path d="M318.704 450.717C317.502 450.717 316.98 451.229 316.468 452.201L307.722 468.731L299.028 452.201C298.516 451.177 297.941 450.717 296.75 450.717C294.744 450.717 291.829 451.971 291.829 453.81C291.829 453.977 291.881 454.259 291.996 454.552L303.835 475.022C303.95 475.189 304.002 475.471 304.002 475.764V490.173C304.002 491.709 305.893 492.514 307.722 492.514C309.613 492.514 311.442 491.709 311.442 490.173V475.764C311.442 475.471 311.557 475.189 311.672 475.022L323.448 454.552C323.615 454.259 323.615 453.977 323.615 453.81C323.615 451.971 320.7 450.717 318.704 450.717Z" fill="#002F63"/>
<path d="M61.001 278.037C60.583 278.037 60.238 278.194 59.977 278.424L55.473 281.851C54.867 282.227 54.522 282.959 54.522 283.638C54.522 284.631 55.17 285.623 56.121 285.623C56.393 285.623 56.737 285.55 57.041 285.278L58.264 284.055V304.41C58.264 305.434 59.476 305.967 60.74 305.967C61.952 305.967 63.216 305.434 63.216 304.41V279.635C63.216 278.643 62.036 278.037 61.001 278.037Z" fill="#75C5F2"/>
<path d="M84.511 290.732C86.684 289.969 88.179 288.057 88.179 284.86C88.179 280.022 84.783 278.11 80.133 278.11C75.452 278.11 72.056 280.022 72.056 284.86C72.056 288.057 73.54 289.97 75.713 290.732C73.007 291.714 71.178 293.971 71.178 297.89V298.35C71.178 304.024 75.107 306.197 80.133 306.197C85.159 306.197 89.046 304.024 89.046 298.35V297.89C89.046 293.972 87.259 291.715 84.511 290.732ZM80.133 282.154C82.191 282.154 83.414 283.105 83.414 285.466C83.414 287.827 82.191 288.789 80.133 288.789C78.043 288.789 76.852 287.828 76.852 285.466C76.852 283.104 78.043 282.154 80.133 282.154ZM84.093 297.775C84.093 300.753 82.651 302.164 80.133 302.164C77.657 302.164 76.131 300.785 76.131 297.775V297.012C76.131 294.118 77.615 292.822 80.133 292.822C82.609 292.822 84.093 294.118 84.093 297.012V297.775Z" fill="#75C5F2"/>
<path d="M428.68 278.11C423.685 278.11 419.767 280.482 419.767 286.845V287.378C419.767 293.397 423.351 295.267 427.656 295.267C429.631 295.267 431.459 294.807 432.724 293.323V297.471C432.724 300.48 431.157 301.849 428.607 301.849C426.475 301.849 424.678 300.825 424.678 299.038C424.678 297.544 423.455 297.168 422.087 297.168C420.53 297.168 419.767 297.659 419.767 299.226C419.767 302.423 422.39 306.195 428.45 306.195C433.633 306.195 437.676 303.834 437.676 297.47V286.843C437.676 280.482 433.706 278.11 428.68 278.11ZM432.724 287.378C432.724 290.272 431.157 291.38 428.722 291.38C426.204 291.38 424.72 290.199 424.72 287.033V286.531C424.72 283.522 426.204 282.153 428.68 282.153C431.198 282.153 432.724 283.522 432.724 286.531V287.378Z" fill="#75C5F2"/>
<path d="M461.531 295.299H459.744V291.297C459.744 290.2 458.521 289.74 457.257 289.74C456.045 289.74 454.781 290.2 454.781 291.297V295.299H450.33L457.644 280.67C457.759 280.44 457.832 280.21 457.832 280.022C457.832 278.873 456.233 278.11 455.356 278.11C454.562 278.11 453.715 278.455 453.266 279.406L444.228 297.169C444.04 297.514 443.967 297.848 443.967 298.162C443.967 299.259 444.688 299.907 445.639 299.907H454.782V304.411C454.782 305.435 456.046 305.968 457.258 305.968C458.522 305.968 459.745 305.435 459.745 304.411V299.907H461.532C462.337 299.907 463.089 298.768 463.089 297.629C463.088 296.448 462.555 295.299 461.531 295.299Z" fill="#75C5F2"/>
<path d="M117.551 201.822L84.229 185.72C81.084 184.205 78.921 185.741 77.855 187.946C76.361 191.028 76.058 192.512 78.931 196.681L86.109 207.14L73.445 208.028C68.388 208.373 67.426 209.533 65.932 212.615C64.898 214.767 65.012 217.474 68.158 218.989L101.48 235.091C103.246 235.937 105.158 234.224 106.203 232.071C107.237 229.919 107.394 227.348 105.628 226.491L84.427 216.251L96.537 215.645C98.125 215.603 98.961 214.715 99.442 213.722C99.944 212.677 100.09 211.381 99.223 210.086L92.745 200.431L113.403 210.41C115.169 211.267 117.081 209.543 118.126 207.39C119.16 205.249 119.317 202.668 117.551 201.822Z" fill="#1B3466"/>
<path d="M145.45 167.236C145.314 167.121 145.095 167.006 144.865 166.881L109.37 150.643C107.322 149.723 104.72 151.092 102.85 153.193C100.98 155.293 99.924 158.041 101.084 159.974L121.418 193.275C121.554 193.484 121.7 193.683 121.836 193.808C123.529 195.313 127.081 193.808 128.826 191.833C129.84 190.694 130.289 189.451 129.578 188.322L125.242 181.687L133.821 172.043L140.916 175.564C142.118 176.149 143.298 175.554 144.312 174.415C146.066 172.45 147.143 168.741 145.45 167.236ZM121.051 175.344L111.762 161.112L126.986 168.677L121.051 175.344Z" fill="#1B3466"/>
<path d="M179.242 144.959L157.769 112.515C156.651 110.833 154.185 111.428 152.2 112.745C150.204 114.062 148.689 116.099 149.807 117.781L161.29 135.126L142.586 124.834C138.187 122.389 136.944 122.849 134.091 124.74C132.095 126.057 130.622 128.136 131.73 129.818L153.182 162.21C154.258 163.84 156.787 163.338 158.772 162.022C160.768 160.705 162.22 158.574 161.133 156.944L149.65 139.599L171.029 150.832C173.181 151.981 175.052 151.25 176.88 150.038C178.876 148.72 180.328 146.589 179.242 144.959Z" fill="#1B3466"/>
<path d="M214.998 121.219C213.796 117.75 212.072 117.436 208.948 118.523C206.639 119.317 204.873 120.571 205.437 122.776C206.033 125.085 206.963 128.711 202.334 130.31C198.98 131.47 196.441 130.279 195.082 126.339L189.795 111.021C188.437 107.082 189.711 104.574 193.003 103.435C197.924 101.742 199.366 105.389 199.952 106.873C200.777 108.911 202.972 108.869 205.396 108.033C208.458 106.978 209.628 105.661 208.426 102.192C205.897 94.8461 198.217 92.8401 189.942 95.6931C182.366 98.3051 177.341 104.188 180.778 114.135L186.055 129.453C189.493 139.4 197.068 140.926 204.644 138.314C212.919 135.461 217.642 128.909 214.998 121.219Z" fill="#1B3466"/>
<path d="M256.303 86.852C256.146 84.835 253.701 84.1671 251.329 84.3551C248.947 84.5431 246.637 85.578 246.794 87.594L247.964 102.536L235.822 103.487L234.652 88.545C234.495 86.528 232.05 85.87 229.678 86.048C227.296 86.236 224.986 87.2811 225.143 89.2871L228.184 128.084C228.33 130.028 230.786 130.822 233.168 130.634C235.55 130.446 237.849 129.286 237.692 127.332L236.396 110.812L248.538 109.851L249.834 126.381C249.991 128.335 252.446 129.129 254.818 128.941C257.2 128.753 259.499 127.593 259.342 125.639L256.303 86.852Z" fill="#1B3466"/>
<path d="M304.159 89.83L282.707 86.079C280.649 85.713 278.433 86.319 278.099 88.252L271.401 126.516C271.067 128.449 272.947 129.766 274.995 130.131L296.447 133.882C298.432 134.227 299.655 132.262 299.989 130.34C300.376 128.114 299.686 126.004 297.878 125.69L281.734 122.858L283.521 112.618L292.559 114.196C294.555 114.541 295.736 112.764 296.018 111.134C296.352 109.211 295.631 107.278 293.824 106.965L284.786 105.387L286.573 95.199L302.727 98.02C304.535 98.344 305.893 96.588 306.28 94.363C306.625 92.432 306.145 90.175 304.159 89.83Z" fill="#1B3466"/>
<path d="M339.111 101.627C332.079 98.6071 323.343 98.6391 319.718 107.071C314.065 120.226 332.393 126.705 329.467 133.507C328.307 136.203 325.005 135.983 322.424 134.876C317.189 132.629 317.294 127.739 314.65 126.611C312.518 125.691 309.624 127.771 308.799 129.683C307.211 133.392 311.85 139.651 319.206 142.817C327.356 146.317 335.141 144.468 338.62 136.38C344.712 122.211 326.436 115.618 328.85 109.996C329.602 108.261 331.932 107.332 335.924 109.045C340.532 111.02 340.678 113.622 342.705 114.489C345.171 115.555 347.512 112.89 348.17 111.375C350.051 106.998 342.089 102.902 339.111 101.627Z" fill="#1B3466"/>
<path d="M389.695 133.235L368.515 117.426C366.895 116.214 364.889 117.468 363.677 119.087C362.287 120.947 361.922 123.193 363.384 124.291L370.155 129.338L350.281 155.962C349.111 157.54 350.438 159.745 352.35 161.176C354.273 162.597 356.77 163.245 357.94 161.678L377.804 135.044L384.575 140.101C386.038 141.198 388.086 140.195 389.476 138.335C390.677 136.714 391.314 134.437 389.695 133.235Z" fill="#1B3466"/>
<path d="M422.275 168.438L408.378 151.678C407.051 150.079 404.961 149.097 403.457 150.351L373.562 175.146C372.057 176.4 372.632 178.626 373.959 180.224L387.867 196.984C389.152 198.541 391.346 197.83 392.851 196.576C394.596 195.134 395.432 193.086 394.262 191.675L383.803 179.053L391.807 172.418L397.658 179.482C398.954 181.028 401.002 180.443 402.276 179.388C403.781 178.134 404.481 176.201 403.31 174.79L397.448 167.726L405.41 161.133L415.88 173.745C417.05 175.156 419.213 174.706 420.958 173.264C422.463 172.011 423.57 169.984 422.275 168.438Z" fill="#1B3466"/>
<path d="M441.501 201.456L435.994 190.056C435.221 188.457 433.507 187.998 432.128 188.656L397.093 205.573C395.327 206.419 395.484 208.99 396.518 211.142C397.552 213.294 399.475 215.008 401.241 214.162L414.511 207.757L416.266 211.393L405.253 226.011C404.396 227.171 404.459 228.435 404.992 229.532C406.215 232.071 409.903 233.816 412.056 232.782C412.328 232.646 412.693 232.406 412.913 232.03L421.847 219.429C425.201 222.574 430.081 223.682 436.246 220.704C445.231 216.367 445.137 209.011 441.501 201.456ZM431.271 212.511C427.415 214.371 425.242 213.107 423.758 210.024L421.125 204.57L431.375 199.617L434.008 205.071C435.493 208.165 435.127 210.641 431.271 212.511Z" fill="#1B3466"/>
</g>
<defs>
<clipPath id="clip0">
<rect width="512" height="512" fill="white"/>
</clipPath>
</defs>
</svg>
