<svg width="512" height="512" viewBox="0 0 512 512" fill="none" xmlns="http://www.w3.org/2000/svg">
<path d="M512 256C512 310.69 494.853 361.368 465.638 402.965C463.527 405.964 461.354 408.921 459.128 411.815C456.265 415.535 453.318 419.161 450.267 422.713C449.368 423.768 448.449 424.813 447.529 425.848C446.745 426.736 445.962 427.614 445.168 428.481C439.975 434.176 434.531 439.63 428.847 444.834C383.31 486.546 322.633 512 256 512C189.367 512 128.679 486.546 83.132 444.813C77.448 439.609 71.993 434.145 66.8 428.45C65.995 427.572 65.201 426.684 64.418 425.796C63.498 424.762 62.589 423.717 61.691 422.672C58.65 419.119 55.693 415.494 52.851 411.784C50.615 408.879 48.442 405.933 46.341 402.934C17.136 361.347 0 310.669 0 256C0 114.615 114.615 0 256 0C397.385 0 512 114.615 512 256Z" fill="#EBEBED"/>
<path d="M26.867 157.618C36.066 148.419 52.464 130.313 53.483 129.191L53.491 129.183C55.035 126.628 57.806 124.825 61.387 124.825C72.175 124.825 76.922 140.791 71.484 153.011L64.983 192.94L39.277 190.751C39.277 190.751 40.037 180.93 39.277 174.527C38.155 175.467 37.034 176.314 35.928 177.038C27.153 182.791 15.433 169.052 26.867 157.618Z" fill="#FFE600"/>
<path d="M485.125 157.618C475.926 148.419 459.528 130.313 458.509 129.191L458.501 129.183C456.957 126.628 454.186 124.825 450.605 124.825C439.817 124.825 435.071 140.791 440.508 153.011L447.009 192.94L472.715 190.751C472.715 190.751 471.955 180.93 472.715 174.527C473.837 175.467 474.958 176.314 476.064 177.038C484.841 182.791 496.561 169.052 485.125 157.618Z" fill="#FFE600"/>
<path d="M468.292 382.579C468.292 390.04 464.969 400.457 459.128 411.815C456.265 415.535 453.318 419.161 450.267 422.713C449.368 423.768 448.449 424.813 447.529 425.848C446.745 426.736 445.962 427.614 445.168 428.481C439.975 434.176 434.531 439.63 428.847 444.834C383.31 486.546 322.633 512 256 512C189.367 512 128.679 486.546 83.132 444.813C77.448 439.609 71.993 434.145 66.8 428.45C65.995 427.572 65.201 426.684 64.418 425.796C63.498 424.762 62.589 423.717 61.691 422.672C58.65 419.119 55.693 415.494 52.851 411.784C47.01 400.436 43.698 390.029 43.698 382.579C43.698 361.284 76.205 326.478 106.987 357.261C149.661 399.935 203.64 434.354 256 434.354C308.349 434.354 362.339 399.935 405.013 357.261C435.785 326.478 468.292 361.284 468.292 382.579Z" fill="#FEE300"/>
<path d="M443.507 345.537C429.902 339.905 415.692 343.52 403.487 355.735C336.959 422.264 282.52 432.201 256 432.201C229.47 432.201 175.041 422.264 108.513 355.735C96.298 343.52 82.088 339.905 68.483 345.537C52.371 352.214 41.535 370.082 41.535 382.579C41.535 388.221 43.238 395.233 46.342 402.934C51.138 409.768 56.269 416.35 61.692 422.672C51.703 406.967 45.851 391.868 45.851 382.579C45.851 368.818 58.411 354.388 70.134 349.529C73.269 348.223 77.03 347.241 81.252 347.241C88.336 347.241 96.706 350.031 105.462 358.787C128.272 381.597 152.942 400.583 176.818 413.696C204.372 428.837 231.017 436.517 256 436.517C280.983 436.517 307.618 428.837 335.172 413.696C359.048 400.583 383.728 381.597 406.539 358.787C420.499 344.827 433.456 346.039 441.857 349.529C453.581 354.388 466.14 368.818 466.14 382.579C466.14 391.868 460.278 406.988 450.268 422.714C455.701 416.392 460.832 409.799 465.638 402.965C468.741 395.254 470.455 388.232 470.455 382.579C470.455 370.082 459.63 352.214 443.507 345.537Z" fill="#1D2123"/>
<path d="M461.396 382.579C461.396 391.743 454.792 407.573 444.573 422.902C439.777 430.091 434.479 437.687 428.847 444.834C383.31 486.546 322.633 512 256 512C189.367 512 128.679 486.546 83.132 444.813C77.5 437.676 72.202 430.09 67.417 422.902C57.198 407.573 50.605 391.743 50.605 382.579C50.605 370.782 64.617 351.995 81.221 351.995C88.347 351.995 95.369 355.412 102.098 362.141C131.648 391.691 190.935 441.261 256.001 441.261C283.921 441.261 341.056 430.979 409.894 362.141C416.623 355.412 423.655 351.995 430.771 351.995C447.383 351.995 461.396 370.782 461.396 382.579Z" fill="#DD1505"/>
<path d="M172.18 432.127C173.139 430.219 175.743 430.514 178.057 431.678C180.254 432.782 182.159 434.756 181.2 436.664L167.997 462.915C162.995 472.86 154.715 473.334 146.563 469.232C138.352 465.103 133.853 458.202 138.855 448.258L152.058 422.006C153.018 420.098 155.622 420.394 157.936 421.557C160.133 422.663 162.038 424.635 161.079 426.543L147.876 452.794C145.899 456.726 147.051 459.623 150.519 461.368C153.988 463.113 157.001 462.309 158.978 458.377L172.18 432.127Z" fill="#FEE300"/>
<path d="M205.562 487.341L199.212 462.595L193.746 483.911C193.231 485.917 190.529 486.293 188.084 485.666C185.639 485.039 183.45 483.409 183.965 481.403L194.175 441.592C194.706 439.523 197.392 439.21 199.837 439.837C203.348 440.738 204.584 441.388 205.793 446.577L210.981 468.554L216.447 447.238C216.978 445.169 219.649 444.918 222.094 445.545C224.539 446.172 226.758 447.677 226.228 449.746L216.003 489.619C215.489 491.625 212.786 492 210.341 491.374C208.084 490.795 206.19 489.842 205.562 487.341Z" fill="#FEE300"/>
<path d="M240.911 451.24C241.087 449.112 243.676 448.415 246.192 448.623C248.708 448.829 251.149 449.94 250.973 452.067L247.602 493.093C247.433 495.158 244.832 495.982 242.316 495.776C239.8 495.57 237.369 494.331 237.539 492.266L240.911 451.24Z" fill="#FEE300"/>
<path d="M293.565 447.602C295.695 447.436 296.779 449.689 296.945 451.818C297.135 454.27 296.204 456.486 294.268 456.636L285.362 457.33L288.092 492.372C288.253 494.438 285.816 495.667 283.299 495.862C280.783 496.058 278.185 495.221 278.024 493.157L275.293 458.115L266.387 458.809C264.451 458.959 263.189 456.916 262.997 454.463C262.831 452.333 263.553 449.94 265.683 449.775L293.565 447.602Z" fill="#FEE300"/>
<path d="M322.195 461.433L331.538 458.795C333.406 458.267 334.976 459.774 335.539 461.767C336.013 463.448 335.704 465.688 333.65 466.268L324.307 468.906L327.298 479.494L343.99 474.779C345.858 474.251 347.48 475.945 348.132 478.25C348.694 480.243 348.438 482.669 346.383 483.25L324.209 489.513C322.092 490.111 319.693 489.713 319.13 487.719L307.959 448.17C307.396 446.176 309.233 444.582 311.351 443.983L333.524 437.721C335.579 437.14 337.067 439.074 337.63 441.067C338.281 443.372 337.785 445.663 335.916 446.191L319.224 450.906L322.195 461.433Z" fill="#FEE300"/>
<path d="M360.776 425.435C368.707 421.326 376.819 421.788 381.94 431.674L389.652 446.559C394.773 456.445 390.471 463.338 382.54 467.446L372.368 472.715C370.012 473.935 367.804 473.476 367.06 472.039L348.094 435.431C347.35 433.994 348.247 431.925 350.603 430.705L360.776 425.435ZM359.711 435.901L373.377 462.279L378.492 459.629C381.71 457.962 382.711 455.111 380.686 451.203L372.975 436.318C370.951 432.41 368.044 431.584 364.825 433.251L359.711 435.901Z" fill="#FEE300"/>
<path d="M337.444 68.928C337.444 68.928 333.956 41.399 314.969 39.673C295.983 37.947 288.829 52.987 277.572 54.632C277.572 54.632 268.079 32.77 255.997 32.77C243.915 32.77 234.422 54.632 234.422 54.632C223.165 52.987 216.011 37.947 197.025 39.673C178.039 41.399 174.55 68.928 174.55 68.928H337.444Z" fill="#FEE300"/>
<path d="M350.352 381.424L255.997 443.561L159.34 381.424V169.699H350.352V381.424Z" fill="#FEE300"/>
<path d="M255.997 445.719C255.592 445.719 255.186 445.605 254.83 445.376L158.173 383.239C157.555 382.842 157.182 382.159 157.182 381.424V169.699C157.182 168.508 158.147 167.541 159.34 167.541H350.353C351.544 167.541 352.511 168.506 352.511 169.699V381.425C352.511 382.15 352.146 382.828 351.54 383.226L257.185 445.363C256.823 445.6 256.41 445.719 255.997 445.719ZM161.497 380.247L255.982 440.988L348.194 380.263V171.857H161.497V380.247Z" fill="#1D2123"/>
<path d="M166.174 176.603V224.932H193.696L189.26 211.124L206.805 216.587H230.391V211.408H220.329V188.4H229.356L232.843 182.359L236.33 188.4H245.357V211.408H235.285V216.587H260.597V211.408H250.535V188.4H259.562L263.049 182.359L266.536 188.4H275.563V211.408H265.49V216.587H289.654V211.408H279.582V188.4H288.609L292.096 182.359L295.583 188.4H304.61V211.408H294.548V216.587H307.493V224.933H343.523V176.604H166.174V176.603ZM209.972 213.997L197.027 209.397L218.024 189.548L209.972 213.997Z" fill="#DD1505"/>
<path d="M343.521 230.975H166.17V243.489H343.521V230.975Z" fill="#DD1505"/>
<path d="M312.377 255.388L305.922 269.179L308.641 271.173V283.618H301.021V271.173L303.73 269.179L297.275 255.388L290.82 269.179L293.539 271.173V283.618H285.919V271.173L288.628 269.179L282.173 255.388L275.718 269.179L278.437 271.173V294.837H292.53V302.889C292.53 302.889 283.331 300.016 278.437 304.909C273.544 309.794 269.522 308.931 269.522 305.772C269.522 302.605 278.721 298.289 278.721 298.289L267.217 290.522C267.217 290.522 265.491 266.072 277.289 258.875H268.08L261.176 245.36L254.272 258.59L246.789 258.875L239.6 245.067L233.274 258.59H223.487C223.487 258.59 233.109 271.975 239.159 285.015C240.644 288.225 239.702 292.1 236.76 294.076C233.696 296.139 230.391 299.755 230.391 305.769C230.391 313.536 238.589 321.735 238.589 321.735C238.589 321.735 234.136 336.838 226.938 336.838C219.749 336.838 223.486 304.907 223.486 304.907L231.832 289.372C231.832 289.372 215.434 281.605 215.434 260.6L210.834 266.071C210.834 266.071 204.068 259.599 201.341 262.325C198.605 265.061 197.595 273.544 193.281 277.859C188.967 282.174 181.777 274.122 181.777 274.122C181.777 274.122 188.396 289.371 186.377 296.275C186.377 296.275 205.225 280.594 210.256 285.625C215.287 290.665 203.352 298.001 203.352 298.001C203.352 298.001 208.53 299.149 210.403 305.044C212.267 310.947 212.267 346.899 212.267 352.941V355.824C212.267 361.856 217.16 366.749 223.201 366.749H231.547C231.547 366.749 231.253 379.988 228.38 389.481C225.507 398.974 236.147 404.722 237.589 411.056C239.022 417.382 234.137 425.434 239.022 427.738C243.915 430.042 264.049 424.865 262.901 416.804C261.754 408.752 251.104 404.152 251.104 395.807C251.104 395.807 261.176 394.081 261.176 386.598C261.176 379.124 248.81 372.505 250.82 361.286L281.31 393.217C283.018 395.004 285.996 393.606 285.746 391.146C285.444 388.212 285.375 384.794 285.918 381.42C287.351 372.505 289.655 357.256 283.329 357.256C276.995 357.256 277.573 351.793 279.299 345.174C281.025 338.563 272.68 346.615 265.776 346.615L274.406 332.522C274.406 332.522 292.529 337.122 292.529 342.878V395.228C292.529 398.395 294.833 398.395 297.137 398.395C299.433 398.395 301.737 398.973 301.737 394.08C301.737 389.187 301.737 341.152 301.737 341.152C301.737 341.152 311.23 334.818 305.474 325.617C305.474 325.617 311.515 318.42 302.022 305.189V294.833H316.124V271.168L318.833 269.174L312.377 255.388ZM244.726 274.702C243.846 274.702 243.147 273.952 243.207 273.071L243.673 266.072L248.221 272.277C248.963 273.278 248.239 274.702 246.995 274.702H244.726ZM252.83 298.288L247.945 287.647H257.723L252.83 298.288ZM259.837 274.702H257.567C256.315 274.702 255.599 273.278 256.333 272.277L260.89 266.072L261.356 273.071C261.417 273.95 260.718 274.702 259.837 274.702ZM292.528 325.041C292.528 325.041 278.219 324.178 278.219 316.843C278.219 314.47 288.575 312.675 292.528 316.628V325.041Z" fill="#DD1505"/>
<path d="M50.636 344.659C71.5494 344.659 88.503 327.705 88.503 306.792C88.503 285.879 71.5494 268.925 50.636 268.925C29.7227 268.925 12.769 285.879 12.769 306.792C12.769 327.705 29.7227 344.659 50.636 344.659Z" fill="#F39400"/>
<path d="M50.636 351.251C75.19 351.251 95.095 331.346 95.095 306.792C95.095 282.238 75.19 262.333 50.636 262.333C26.082 262.333 6.177 282.238 6.177 306.792C6.177 331.346 26.082 351.251 50.636 351.251Z" fill="#FEE300"/>
<path d="M255.997 139.781C383.722 139.781 384.298 282.465 455.639 262.329C492.766 251.85 487.283 199.617 487.283 199.617C449.886 190.987 407.886 53.481 255.997 53.481C104.108 53.481 62.108 190.986 24.71 199.617C24.71 199.617 19.226 251.849 56.354 262.329C127.696 282.466 128.272 139.781 255.997 139.781Z" fill="#FFE600"/>
<path d="M69.596 257.372C66.017 257.371 62.193 256.804 58.229 255.684C32.835 248.516 31.122 216.328 31.365 204.608C43.266 199.268 54.461 185.278 69.254 166.795C86.446 145.314 107.842 118.581 137.638 97.316C172.46 72.465 211.176 60.384 255.997 60.384C300.818 60.384 339.533 72.465 374.355 97.317C404.152 118.583 425.548 145.315 442.739 166.796C457.532 185.278 468.727 199.268 480.629 204.609C480.871 216.318 479.162 248.516 453.764 255.685C449.797 256.805 445.973 257.373 442.399 257.373C421.665 257.373 407.552 238.29 389.684 214.13C362.912 177.93 329.592 132.878 255.998 132.878C182.403 132.878 149.087 177.93 122.318 214.13C104.453 238.288 90.339 257.371 69.607 257.373C69.602 257.372 69.601 257.372 69.596 257.372Z" fill="#DD1505"/>
<path d="M94.205 204.659C94.788 206.016 94.418 207.123 93.781 207.94C93.145 208.757 92.201 209.334 90.742 209.1L75.141 206.374L97.497 223.804C98.875 224.878 98.276 227.119 97.003 228.754C95.69 230.438 93.701 231.515 92.324 230.44L60.423 205.568C57.973 203.658 58.379 201.349 59.692 199.664C61.562 197.265 62.908 196.591 67.233 197.254L83.5609 199.89L77.023 184.697C75.325 180.665 75.6899 179.144 77.5599 176.745C78.8729 175.061 81.0139 174.105 83.4639 176.015L115.365 200.887C116.743 201.961 116.144 204.202 114.871 205.837C113.558 207.521 111.57 208.598 110.192 207.523L88.244 190.411L94.205 204.659Z" fill="#FFE600"/>
<path d="M121.229 190.174C121.131 190.089 120.978 189.871 120.825 189.653L98.2559 153.537C97.1709 151.824 98.0549 149.422 99.6249 147.612C101.237 145.754 103.491 144.539 105.34 145.372L144.281 162.615C144.519 162.736 144.708 162.815 144.855 162.942C146.371 164.256 145.502 167.53 144.017 169.242C143.084 170.318 142.02 170.852 140.879 170.29L132.764 166.506L123.051 177.703L127.942 185.202C128.659 186.252 128.279 187.381 127.347 188.456C125.863 190.166 122.793 191.531 121.229 190.174ZM126.589 163.547L107.888 154.779L119.208 172.054L126.589 163.547Z" fill="#FFE600"/>
<path d="M171.045 143.251L144.494 130.382L159.787 151.429C160.814 152.843 159.619 154.831 157.944 156.048C156.217 157.303 154.008 157.788 152.981 156.374L128.291 122.394C127.225 120.928 128.407 119.029 130.134 117.775C132.595 115.987 133.97 115.788 137.837 117.698L162.132 129.885L146.839 108.838C145.774 107.372 146.993 105.527 148.721 104.271C150.396 103.054 152.581 102.427 153.647 103.893L178.376 137.925C179.403 139.339 178.208 141.327 176.533 142.544C174.908 143.725 173.115 144.228 171.045 143.251Z" fill="#FFE600"/>
<path d="M191.792 91.9489C187.695 93.3709 186.158 96.4399 187.813 101.209L193.735 118.267C195.391 123.036 198.5 124.491 202.718 123.027C208.282 121.095 207.391 116.951 206.682 114.32C206.146 112.382 207.646 111.177 209.725 110.455C212.476 109.5 214.036 109.849 215.119 112.967C217.687 120.365 213.27 127.174 204.71 130.146C197.006 132.821 189.331 131.238 185.786 121.027L179.864 103.969C176.319 93.7579 181.423 87.739 189.127 85.064C197.625 82.113 205.25 84.5359 207.712 91.6289C208.816 94.8079 207.786 95.9869 205.097 96.9209C202.835 97.7069 200.951 97.6069 200.253 95.7939C199.472 93.9419 197.601 89.9319 191.792 91.9489Z" fill="#FFE600"/>
<path d="M251.226 100.35L236.687 101.212L237.786 119.758C237.889 121.503 235.811 122.533 233.743 122.657C231.61 122.783 229.489 122.002 229.386 120.257L226.895 78.2549C226.787 76.4449 228.809 75.5479 230.942 75.4209C233.01 75.2989 235.188 75.9479 235.296 77.7559L236.296 94.621L250.835 93.759L249.835 76.8939C249.727 75.0839 251.749 74.1869 253.882 74.0599C255.95 73.9379 258.128 74.5869 258.236 76.3949L260.727 118.397C260.83 120.142 258.751 121.172 256.683 121.296C254.55 121.422 252.429 120.64 252.326 118.896L251.226 100.35Z" fill="#FFE600"/>
<path d="M286.889 96.9539L296.563 98.7449C298.217 99.0509 298.877 100.819 298.56 102.538C298.288 104.002 297.143 105.567 295.362 105.237L285.688 103.446L283.319 116.239L301.33 119.574C302.985 119.88 303.621 121.776 303.256 123.748C302.938 125.467 301.769 127.159 299.987 126.828L277.33 122.632C275.485 122.29 273.867 121.07 274.186 119.351L281.835 78.0459C282.153 76.3269 284.1 75.7659 285.946 76.1079L308.603 80.3039C310.385 80.6339 310.87 82.6329 310.553 84.3519C310.187 86.3249 308.915 87.8659 307.259 87.5599L289.248 84.2249L286.889 96.9539Z" fill="#FFE600"/>
<path d="M334.888 127.974C339.156 119.253 319.185 112.793 325.929 99.014C330.169 90.352 339.062 91.029 345.749 94.302C349.179 95.981 356.398 100.523 354.519 104.36C353.864 105.697 351.625 107.916 349.533 106.892C347.731 106.01 347.475 103.146 342.591 100.755C338.405 98.706 335.196 99.225 333.831 102.016C330.302 109.226 350.189 115.861 342.818 130.918C338.748 139.232 330.829 140.689 322.806 136.761C315.19 133.034 311.255 126.351 312.905 122.978C313.702 121.35 316.409 119.648 318.211 120.531C320.594 121.698 319.974 126.942 325.904 129.845C329.388 131.553 333.18 131.462 334.888 127.974Z" fill="#FFE600"/>
<path d="M396.916 131.106C398.286 132.293 397.651 134.312 396.465 135.682C395.152 137.199 393.231 137.934 391.958 136.831L384.814 130.644L360.533 158.684C359.389 160.005 357.181 159.292 355.615 157.936C354.001 156.538 353.028 154.496 354.172 153.175L378.453 125.136L371.26 118.906C369.987 117.804 370.398 115.848 371.754 114.281C372.941 112.911 374.848 111.994 376.218 113.18L396.916 131.106Z" fill="#FFE600"/>
<path d="M400.935 166.115L407.118 173.767C408.175 175.076 407.528 176.847 406.168 177.947C405.01 178.882 403.122 179.326 401.983 177.917L395.8 170.265L385.681 178.441L397.193 192.688C398.25 193.997 397.501 195.851 395.94 197.111C394.581 198.209 392.592 198.735 391.453 197.325L376.972 179.403C375.792 177.943 375.358 175.964 376.717 174.865L409.39 148.466C410.749 147.368 412.593 148.208 413.773 149.668L428.254 167.59C429.393 169 428.462 170.833 427.103 171.932C425.543 173.193 423.573 173.536 422.515 172.228L411.003 157.981L400.935 166.115Z" fill="#FFE600"/>
<path d="M435.279 182.429C436.34 181.579 437.987 181.67 438.999 182.933L447.009 192.938C452.309 199.557 454.07 206.935 446.036 213.368C440.225 218.02 434.827 217.699 430.631 214.839L423.652 231.289C423.561 231.693 423.248 232.027 423.046 232.189C421.378 233.524 417.871 232.767 416.334 230.847C415.606 229.937 415.474 228.634 416.08 227.319L424.281 208.979L420.883 204.735L407.695 215.294C406.331 216.386 404.329 215.336 402.994 213.668C401.699 212.052 401.072 209.818 402.436 208.725L435.279 182.429ZM436.8 191.991L426.038 200.607L430.488 206.165C433.118 209.449 436.181 210.479 440.172 207.283C444.163 204.087 443.879 200.833 441.25 197.548L436.8 191.991Z" fill="#FFE600"/>
<path d="M50.632 268.921C29.752 268.921 12.765 285.908 12.765 306.788C12.765 327.668 29.752 344.655 50.632 344.655C71.512 344.655 88.499 327.668 88.499 306.788C88.499 285.908 71.512 268.921 50.632 268.921ZM74.719 282.242C78.816 286.263 79.95 292.428 77.424 297.583C76.166 300.151 74.408 302.837 72.131 305.212C68.448 309.053 62.153 313.377 52.773 312.871C53.058 297.076 57.538 290.473 59.469 288.355C63.661 287.816 66.785 286.298 68.305 283.887C69.171 282.513 69.758 280.461 68.902 277.645C71.004 278.967 72.954 280.51 74.719 282.242ZM60.639 273.864C62.933 274.564 64.855 276.269 65.583 278.553C65.981 279.802 66.023 281.03 65.383 282.046C63.504 285.027 56.409 285.952 48.134 284.298C39.832 282.638 37.953 280.273 37.57 279.012C37.324 278.201 37.528 277.332 37.957 276.495C38.714 275.015 40.136 273.98 41.741 273.548C44.578 272.785 47.557 272.375 50.632 272.375C54.112 272.374 57.471 272.896 60.639 273.864ZM34.266 276.52C33.879 277.922 33.991 279.103 34.266 280.012C34.508 280.811 34.918 281.553 35.479 282.246C31.557 287.059 28.929 292.744 27.351 298.678C27.294 298.645 27.236 298.611 27.179 298.578C22.013 295.522 20.929 288.419 24.92 283.936C27.573 280.955 30.734 278.437 34.266 276.52ZM16.216 306.788C16.216 302.236 17.113 297.892 18.725 293.912C19.701 296.432 21.847 299.78 26.551 302.168C24.291 313.651 25.654 325.552 28.857 333.418C21.147 327.101 16.216 317.511 16.216 306.788ZM35.281 337.577C28.671 330.533 23.943 301.878 38.12 284.469C40.325 285.809 43.421 286.874 47.457 287.681C50.148 288.219 52.676 288.498 55.007 288.555C52.398 292.65 49.306 300.457 49.306 314.468C49.306 331.386 52.358 338.02 58.388 340.31C55.893 340.887 53.299 341.202 50.632 341.202C45.117 341.204 39.906 339.893 35.281 337.577ZM60.592 337.522C56.224 336.405 53.005 332.196 52.774 316.333C53.292 316.358 53.804 316.375 54.307 316.375C64.038 316.375 70.658 311.738 74.624 307.601C78.613 303.44 81.304 298.268 82.534 293.898C84.149 297.882 85.048 302.231 85.048 306.788C85.048 319.253 78.385 330.186 68.435 336.225C66.088 337.649 63.251 338.202 60.592 337.522Z" fill="#DD1505"/>
<path d="M461.364 344.659C482.277 344.659 499.231 327.705 499.231 306.792C499.231 285.879 482.277 268.925 461.364 268.925C440.451 268.925 423.497 285.879 423.497 306.792C423.497 327.705 440.451 344.659 461.364 344.659Z" fill="#F39400"/>
<path d="M461.364 351.251C485.918 351.251 505.823 331.346 505.823 306.792C505.823 282.238 485.918 262.333 461.364 262.333C436.81 262.333 416.905 282.238 416.905 306.792C416.905 331.346 436.81 351.251 461.364 351.251Z" fill="#FEE300"/>
<path d="M423.495 306.788C423.495 327.668 440.482 344.655 461.362 344.655C482.242 344.655 499.229 327.668 499.229 306.788C499.229 285.908 482.242 268.921 461.362 268.921C440.482 268.921 423.495 285.908 423.495 306.788ZM443.092 277.643C442.235 280.46 442.822 282.512 443.689 283.885C445.208 286.296 448.333 287.814 452.525 288.353C454.456 290.471 458.934 297.075 459.221 312.869C449.841 313.375 443.547 309.051 439.863 305.21C437.585 302.834 435.828 300.15 434.57 297.581C432.046 292.425 433.178 286.261 437.275 282.24C439.039 280.51 440.99 278.967 443.092 277.643ZM461.362 272.374C464.437 272.374 467.416 272.786 470.253 273.547C471.858 273.979 473.28 275.014 474.037 276.494C474.465 277.332 474.669 278.201 474.424 279.011C474.043 280.272 472.162 282.636 463.86 284.297C455.583 285.951 448.49 285.026 446.611 282.045C445.972 281.029 446.012 279.802 446.411 278.552C447.139 276.268 449.063 274.563 451.355 273.862C454.522 272.896 457.882 272.374 461.362 272.374ZM487.073 283.936C491.063 288.421 489.98 295.522 484.814 298.578C484.758 298.611 484.7 298.645 484.642 298.678C483.064 292.744 480.434 287.059 476.514 282.246C477.075 281.553 477.486 280.811 477.727 280.012C478.002 279.103 478.114 277.922 477.727 276.52C481.259 278.437 484.421 280.955 487.073 283.936ZM483.136 333.418C486.34 325.552 487.703 313.652 485.442 302.168C490.146 299.779 492.292 296.433 493.268 293.912C494.88 297.892 495.777 302.237 495.777 306.788C495.777 317.511 490.847 327.101 483.136 333.418ZM461.362 341.204C458.694 341.204 456.1 340.888 453.606 340.312C459.636 338.022 462.688 331.388 462.688 314.47C462.688 300.458 459.595 292.651 456.987 288.557C459.318 288.501 461.846 288.223 464.537 287.683C468.573 286.876 471.669 285.809 473.874 284.471C488.051 301.88 483.323 330.535 476.713 337.579C472.088 339.893 466.876 341.204 461.362 341.204ZM443.559 336.225C433.609 330.187 426.946 319.253 426.946 306.788C426.946 302.231 427.845 297.882 429.46 293.898C430.69 298.268 433.381 303.44 437.37 307.601C441.336 311.738 447.955 316.374 457.687 316.375C458.189 316.375 458.702 316.358 459.22 316.333C458.989 332.197 455.769 336.407 451.402 337.522C448.743 338.202 445.906 337.649 443.559 336.225Z" fill="#DD1505"/>
<path d="M465.725 260.382C476.522 254.116 483.976 242.953 487.488 227.521C490.799 212.972 489.487 199.939 489.429 199.39C489.333 198.475 488.666 197.72 487.769 197.513C483.649 196.562 479.366 193.81 474.807 189.727C474.686 187.834 474.428 183.049 474.582 178.632C474.681 178.699 474.781 178.772 474.881 178.838C476.639 179.991 478.569 180.55 480.493 180.55C483.637 180.55 486.761 179.056 489.073 176.214C493.025 171.355 493.81 163.249 486.651 156.091C477.805 147.245 462.033 129.871 460.227 127.878C458.21 124.695 454.671 122.665 450.606 122.665C446.191 122.665 442.292 124.925 439.626 129.031C436.945 133.159 435.784 138.758 436.198 144.365C413.381 116.978 383.308 85.794 339.385 67.379C338.97 64.996 337.835 59.62 335.29 54.051C330.704 44.019 323.745 38.304 315.166 37.525C302.836 36.406 294.973 42.039 288.652 46.565C285.173 49.057 282.104 51.254 278.808 52.168C276.244 46.885 267.42 30.611 255.999 30.611C244.578 30.611 235.753 46.885 233.19 52.168C229.894 51.254 226.826 49.056 223.346 46.565C217.024 42.038 209.16 36.402 196.832 37.525C188.253 38.304 181.294 44.019 176.708 54.051C174.163 59.619 173.027 64.995 172.612 67.379C128.689 85.794 98.617 116.978 75.799 144.365C76.213 138.759 75.052 133.16 72.371 129.031C69.704 124.927 65.805 122.665 61.391 122.665C57.325 122.665 53.786 124.695 51.77 127.878C49.963 129.872 34.192 147.245 25.346 156.091C18.187 163.249 18.972 171.355 22.924 176.214C25.235 179.056 28.36 180.55 31.504 180.55C33.428 180.55 35.359 179.99 37.116 178.838C37.215 178.773 37.315 178.699 37.415 178.632C37.57 183.05 37.313 187.834 37.19 189.727C32.632 193.809 28.348 196.562 24.228 197.513C23.33 197.72 22.664 198.474 22.568 199.39C22.511 199.938 21.198 212.971 24.509 227.521C28.021 242.953 35.475 254.115 46.272 260.382C22.606 262.59 4.01697 282.555 4.01697 306.788C4.01697 332.492 24.93 353.405 50.634 353.405C76.338 353.405 97.251 332.492 97.251 306.788C97.251 289.428 87.706 274.266 73.595 266.243C96.645 264.064 112.162 243.094 129.599 219.517C142.458 202.13 157.032 182.424 176.777 167.43C199.366 150.277 225.279 141.939 255.999 141.939C286.719 141.939 312.634 150.277 335.221 167.43C354.966 182.424 369.541 202.131 382.399 219.517C399.837 243.096 415.356 264.062 438.409 266.24C424.296 274.262 414.747 289.426 414.747 306.788C414.747 332.492 435.66 353.405 461.364 353.405C487.068 353.405 507.981 332.492 507.981 306.788C507.979 282.556 489.39 262.59 465.725 260.382ZM461.832 136.045C467.669 142.418 477.339 152.882 483.6 159.142C487.387 162.93 489.513 168.834 485.725 173.491C483.797 175.861 480.427 177.316 477.247 175.23C467.4 168.774 456.465 152.408 452.606 146.324C458.509 144.037 461.172 139.932 461.832 136.045ZM443.244 131.381C444.548 129.374 446.883 126.981 450.605 126.981C454.91 126.981 457.265 130.187 457.632 133.165C458.073 136.746 455.98 141.213 448.787 143.011C448.126 143.176 447.58 143.645 447.319 144.274C447.057 144.904 447.108 145.62 447.457 146.206C447.974 147.076 458.93 165.358 470.453 175.426C470.168 178.629 470.184 182.349 470.277 185.35C464.072 178.95 457.335 170.533 449.813 161.133C447.425 158.15 444.95 155.059 442.385 151.896C439.451 145.098 439.79 136.699 443.244 131.381ZM291.163 50.073C297.496 45.537 304.05 40.847 314.774 41.821C327.782 43.004 332.875 58.206 334.57 65.43C320.088 59.799 304.139 55.562 286.509 53.265C288.065 52.289 289.598 51.194 291.163 50.073ZM255.997 34.926C263.276 34.926 270.302 45.235 273.883 51.982C268.092 51.555 262.138 51.324 255.997 51.324C249.856 51.324 243.902 51.555 238.111 51.982C241.692 45.235 248.718 34.926 255.997 34.926ZM197.219 41.821C207.947 40.845 214.496 45.537 220.83 50.073C222.394 51.194 223.928 52.288 225.484 53.266C207.851 55.563 191.902 59.801 177.418 65.433C179.104 58.211 184.18 43.007 197.219 41.821ZM54.361 133.165C54.728 130.186 57.083 126.981 61.388 126.981C65.11 126.981 67.445 129.374 68.749 131.381C72.203 136.698 72.543 145.097 69.608 151.898C67.042 155.062 64.567 158.152 62.18 161.135C54.658 170.535 47.92 178.951 41.716 185.352C41.809 182.352 41.826 178.63 41.54 175.428C53.063 165.36 64.019 147.078 64.536 146.208C64.885 145.622 64.936 144.905 64.674 144.276C64.412 143.646 63.867 143.178 63.206 143.013C56.013 141.212 53.92 136.745 54.361 133.165ZM34.746 175.23C31.565 177.318 28.196 175.86 26.268 173.491C22.48 168.835 24.607 162.93 28.393 159.142C34.654 152.882 44.325 142.417 50.161 136.045C50.82 139.932 53.485 144.037 59.386 146.324C55.531 152.408 44.601 168.769 34.746 175.23ZM92.933 306.788C92.933 330.113 73.957 349.091 50.631 349.091C27.305 349.091 8.32997 330.115 8.32997 306.788C8.32997 283.463 27.306 264.486 50.632 264.486C73.957 264.487 92.933 283.463 92.933 306.788ZM385.866 216.951C359.728 181.608 327.198 137.623 255.997 137.623C184.796 137.623 152.265 181.608 126.128 216.951C104.65 245.992 87.686 268.928 56.941 260.253C25.387 251.346 26.249 209.642 26.749 201.295C38.546 197.573 50.536 182.59 65.549 163.831C97.472 123.945 144.51 65.19 233.72 56.687C233.852 56.709 233.977 56.747 234.11 56.766C234.578 56.836 235.04 56.745 235.437 56.532C242.059 55.952 248.903 55.639 255.997 55.639C263.091 55.639 269.935 55.952 276.556 56.532C276.953 56.745 277.416 56.836 277.884 56.766C278.017 56.746 278.142 56.71 278.274 56.687C367.485 65.19 414.522 123.945 446.445 163.831C461.459 182.591 473.449 197.574 485.246 201.295C485.753 209.641 486.647 251.335 455.053 260.252C424.309 268.931 407.344 245.992 385.866 216.951ZM461.362 349.091C438.037 349.091 419.06 330.115 419.06 306.788C419.06 283.463 438.036 264.486 461.362 264.486C484.688 264.486 503.665 283.462 503.665 306.788C503.664 330.114 484.687 349.091 461.362 349.091Z" fill="#1D2123"/>
</svg>
