<svg width="30" height="30" viewBox="0 0 30 30" fill="none" xmlns="http://www.w3.org/2000/svg">
<g clip-path="url(#clip0)">
<path d="M19.3946 11.5135H10.6055C10.1201 11.5135 9.72656 11.12 9.72656 10.6346V6.26918C9.72656 5.78378 10.1201 5.39027 10.6055 5.39027H19.3946C19.88 5.39027 20.2735 5.78378 20.2735 6.26918V10.6346C20.2735 11.12 19.88 11.5135 19.3946 11.5135ZM11.4844 9.7557H18.5157V7.14809H11.4844V9.7557Z" fill="#C9B557"/>
<path d="M19.3945 5.3903H15V7.14812H18.5156V9.75571H15V11.5135H19.3945C19.8799 11.5135 20.2734 11.12 20.2734 10.6346V6.26921C20.2734 5.78376 19.8799 5.3903 19.3945 5.3903Z" fill="#A0904A"/>
<path d="M21.8321 26.2879C25.6071 22.5129 25.6071 16.3923 21.8321 12.6173C18.057 8.84225 11.9365 8.84225 8.16147 12.6173C4.38644 16.3923 4.38644 22.5129 8.16147 26.2879C11.9365 30.0629 18.057 30.0629 21.8321 26.2879Z" fill="#C9A85C"/>
<path fill-rule="evenodd" clip-rule="evenodd" d="M15 9.78504V29.1211C20.325 29.1211 24.668 24.7781 24.668 19.4531C24.668 14.1281 20.325 9.78504 15 9.78504Z" fill="#B28A30"/>
<path d="M15.0001 30C9.18448 30 4.45312 25.2686 4.45312 19.453C4.45312 13.6374 9.18448 8.90608 15.0001 8.90608C20.8156 8.90608 25.547 13.6374 25.547 19.453C25.547 25.2686 20.8156 30 15.0001 30ZM15.0001 10.6639C10.1537 10.6639 6.21095 14.6067 6.21095 19.453C6.21095 24.2994 10.1537 28.2422 15.0001 28.2422C19.8464 28.2422 23.7892 24.2994 23.7892 19.453C23.7892 14.6067 19.8464 10.6639 15.0001 10.6639Z" fill="#B28A30"/>
<path d="M18.5166 7.14856H11.4854V0.878907C11.4854 0.393516 11.8789 0 12.3643 0H17.6377C18.1231 0 18.5166 0.393516 18.5166 0.878907V7.14856Z" fill="#6979B7"/>
<path d="M17.6367 0H15V7.14856H18.5156V0.878907C18.5156 0.393516 18.1221 0 17.6367 0Z" fill="#234EA8"/>
<path d="M15 8.90613V10.6639C19.8463 10.6639 23.7891 14.6067 23.7891 19.4531C23.7891 24.2994 19.8463 28.2422 15 28.2422V30C20.8156 30 25.547 25.2686 25.547 19.4531C25.547 13.6375 20.8156 8.90613 15 8.90613Z" fill="#D1A031"/>
<path d="M20.2549 22.7343H20.1377V16.7578H20.2549C20.7403 16.7578 21.1338 16.3643 21.1338 15.8789C21.1338 15.3935 20.7403 15 20.2549 15H14.7471C14.2617 15 13.8682 15.3935 13.8682 15.8789C13.8682 16.3643 14.2617 16.7578 14.7471 16.7578H14.8643V22.7343H14.7471C14.2617 22.7343 13.8682 23.1278 13.8682 23.6132C13.8682 24.0986 14.2617 24.4921 14.7471 24.4921H20.2549C20.7403 24.4921 21.1338 24.0986 21.1338 23.6132C21.1338 23.1278 20.7403 22.7343 20.2549 22.7343ZM16.622 16.7578H18.3798V22.7343H16.622V16.7578Z" fill="#B28A30"/>
<path d="M17.6367 22.7343H16.2695V16.7578H17.6367C18.1221 16.7578 18.5156 16.3643 18.5156 15.8789C18.5156 15.3935 18.1221 15 17.6367 15H10.8789C10.3935 15 10 15.3935 10 15.8789C10 16.3643 10.3935 16.7578 10.8789 16.7578H10.9961V22.7343H10.8789C10.3935 22.7343 10 23.1278 10 23.6132C10 24.0986 10.3935 24.4921 10.8789 24.4921H17.6367C18.1221 24.4921 18.5156 24.0986 18.5156 23.6132C18.5156 23.1278 18.1221 22.7343 17.6367 22.7343ZM12.7538 16.7578H14.5117V22.7343H12.7538V16.7578Z" fill="#876926"/>
<path d="M20.2541 22.7343H20.1369V16.7578H20.2541C20.7394 16.7578 21.133 16.3643 21.133 15.8789C21.133 15.3935 20.7394 15 20.2541 15H15V16.7578H18.3791V22.7343H15V24.4921H20.2541C20.7394 24.4921 21.133 24.0986 21.133 23.6132C21.133 23.1278 20.7394 22.7343 20.2541 22.7343Z" fill="#876926"/>
</g>
<defs>
<clipPath id="clip0">
<rect width="30" height="30" fill="white"/>
</clipPath>
</defs>
</svg>
