<svg width="16" height="16" viewBox="0 0 16 16" fill="none" xmlns="http://www.w3.org/2000/svg">
<path d="M13.9997 11.3333H13.333V6.00001C13.333 3.05934 10.9403 0.666672 7.99967 0.666672C5.05902 0.666672 2.66635 3.05934 2.66635 6.00001V11.3333H1.99968C1.63101 11.3333 1.33301 11.6314 1.33301 12C1.33301 12.3687 1.63101 12.6667 1.99968 12.6667H2.66635H5.33301C5.33301 14.1373 6.529 15.3333 7.99967 15.3333C9.47035 15.3333 10.6663 14.1373 10.6663 12.6667H13.333H13.9997C14.3683 12.6667 14.6663 12.3687 14.6663 12C14.6663 11.6313 14.3683 11.3333 13.9997 11.3333ZM7.99967 14C7.26434 14 6.66636 13.402 6.66636 12.6667H9.33302C9.33299 13.402 8.73501 14 7.99967 14ZM11.9997 11.3333H10.6663H5.33301H3.9997V6.00001C3.9997 3.79402 5.79369 2.00002 7.99967 2.00002C10.2057 2.00002 11.9997 3.79402 11.9997 6.00001V11.3333Z" fill="#9EA6C9" stroke="#B2B5C2" stroke-width="0.7"/>
</svg>
