<svg width="14" height="14" viewBox="0 0 14 14" fill="none" xmlns="http://www.w3.org/2000/svg">
<g clip-path="url(#clip0)">
<path d="M0.0437269 1.52688C0.087904 1.42017 0.162765 1.32897 0.258823 1.26484C0.354881 1.20072 0.467813 1.16655 0.58331 1.16667H3.49998C3.5766 1.16667 3.65247 1.18176 3.72326 1.21109C3.79405 1.24041 3.85837 1.2834 3.91254 1.33759L6.67214 4.09792C6.89054 4.08039 7.10999 4.08039 7.32839 4.09792L10.0874 1.33759C10.1416 1.2834 10.2059 1.24041 10.2767 1.21109C10.3475 1.18176 10.4234 1.16667 10.5 1.16667H13.4166C13.532 1.16667 13.6448 1.20087 13.7407 1.26496C13.8366 1.32905 13.9114 1.42014 13.9556 1.52672C13.9997 1.6333 14.0113 1.75058 13.9888 1.86374C13.9663 1.97689 13.9108 2.08083 13.8292 2.16242L10.27 5.72162C10.7239 6.32852 10.9999 7.04976 11.0672 7.80462C11.1345 8.55947 10.9904 9.31816 10.651 9.99576C10.3116 10.6734 9.79032 11.2432 9.14552 11.6414C8.50072 12.0396 7.75783 12.2505 6.99998 12.2505C6.24213 12.2505 5.49923 12.0396 4.85443 11.6414C4.20963 11.2432 3.68837 10.6734 3.34898 9.99576C3.0096 9.31816 2.86549 8.55947 2.93277 7.80462C3.00005 7.04976 3.27608 6.32852 3.72996 5.72162L0.170747 2.16242C0.0891047 2.08092 0.0334616 1.97704 0.0108528 1.86391C-0.0117569 1.75079 -0.00031662 1.6335 0.0437269 1.52688ZM10.7416 2.33334L8.64629 4.42867C8.92966 4.55355 9.19779 4.71047 9.44546 4.89635L12.0083 2.33334H10.7416ZM6.99998 11.0833C7.73417 11.0831 8.44126 10.8059 8.98009 10.3073C9.51893 9.80856 9.84987 9.125 9.90685 8.39303C9.96383 7.66105 9.74266 6.93451 9.28749 6.35845C8.83232 5.78238 8.17664 5.39916 7.45133 5.28529H7.45031C7.05295 5.22291 6.64699 5.24339 6.25793 5.34545C5.86886 5.4475 5.50512 5.62892 5.18954 5.87831C4.87396 6.12771 4.61338 6.43967 4.42417 6.79461C4.23495 7.14955 4.1212 7.53979 4.09005 7.94081C4.05891 8.34182 4.11104 8.74495 4.24318 9.12485C4.37532 9.50474 4.5846 9.85321 4.85789 10.1483C5.13117 10.4435 5.46254 10.6789 5.83118 10.8398C6.19982 11.0007 6.59775 11.0836 6.99998 11.0833ZM4.55596 4.89781C4.80376 4.7121 5.07211 4.55551 5.35571 4.43115L3.25833 2.33334H1.99162L4.55596 4.89781Z" fill="#541BB7"/>
<path d="M6.08456 6.95364L6.47699 6.15841C6.52516 6.0608 6.59968 5.97861 6.69213 5.92114C6.78457 5.86368 6.89125 5.83322 7.0001 5.83322C7.10894 5.83322 7.21562 5.86368 7.30807 5.92114C7.40051 5.97861 7.47503 6.0608 7.5232 6.15841L7.91564 6.95364L8.79311 7.08124C8.90081 7.09691 9.00197 7.14239 9.08517 7.21254C9.16837 7.28269 9.23029 7.37471 9.26392 7.47821C9.29756 7.58171 9.30157 7.69256 9.2755 7.79822C9.24944 7.90388 9.19434 8.00014 9.11642 8.07612L8.48147 8.69504L8.63138 9.56902C8.64972 9.67623 8.63772 9.78643 8.59673 9.88717C8.55574 9.98792 8.48741 10.0752 8.39944 10.1392C8.31147 10.2031 8.20737 10.2412 8.09889 10.2491C7.99041 10.2571 7.88188 10.2345 7.78555 10.184L7.0001 9.77085L6.21522 10.1836C6.11889 10.2341 6.01036 10.2566 5.90189 10.2487C5.79341 10.2408 5.68931 10.2027 5.60134 10.1387C5.51337 10.0748 5.44503 9.98748 5.40404 9.88674C5.36306 9.78599 5.35106 9.67579 5.36939 9.56858L5.51931 8.6946L4.88435 8.07568C4.80659 7.99977 4.75158 7.90365 4.72553 7.79815C4.69947 7.69265 4.7034 7.58197 4.73688 7.47858C4.77036 7.37519 4.83205 7.28322 4.91499 7.21301C4.99794 7.14281 5.09885 7.09717 5.20635 7.08124L6.08456 6.95364ZM6.55268 8.07364C6.62041 8.13964 6.67108 8.22112 6.70032 8.31105C6.72956 8.40099 6.7365 8.49668 6.72053 8.58989L6.71849 8.60127L6.7287 8.59587C6.8124 8.55188 6.90554 8.52889 7.0001 8.52889C7.09465 8.52889 7.18779 8.55188 7.27149 8.59587L7.2817 8.60127L7.27966 8.58989C7.26369 8.49668 7.27063 8.40099 7.29987 8.31105C7.32911 8.22112 7.37978 8.13964 7.44751 8.07364L7.45568 8.06577L7.4443 8.06402C7.35073 8.0504 7.26187 8.01424 7.18538 7.95866C7.10888 7.90307 7.04705 7.82972 7.0052 7.74493L7.0001 7.73472L6.99499 7.74493C6.95322 7.82983 6.89141 7.9033 6.81491 7.95899C6.73842 8.01468 6.64952 8.05093 6.55589 8.0646L6.54451 8.06635L6.55268 8.07364Z" fill="#541BB7"/>
</g>
<defs>
<clipPath id="clip0">
<rect width="14" height="14" fill="white" transform="matrix(-1 0 0 1 14 0)"/>
</clipPath>
</defs>
</svg>
