<svg width="16" height="16" viewBox="0 0 16 16" fill="none" xmlns="http://www.w3.org/2000/svg">
<path d="M11.1001 3.78175C11.9235 3.78175 12.5933 4.46935 12.5933 5.31453C12.5933 6.15971 11.9235 6.84731 11.1001 6.84731C10.2768 6.84731 9.60702 6.15971 9.60702 5.31453C9.60702 4.46935 10.2768 3.78175 11.1001 3.78175ZM11.1001 6.05271C11.4966 6.05271 11.8192 5.72156 11.8192 5.31453C11.8192 4.90749 11.4966 4.57635 11.1001 4.57635C10.7036 4.57635 10.3811 4.90749 10.3811 5.31453C10.3811 5.72156 10.7036 6.05271 11.1001 6.05271Z" fill="#9EA6C9"/>
<path d="M0.805379 13.4114L7.05585 6.99489C6.42982 5.37308 6.79465 3.50954 8.01229 2.26008C8.82221 1.42789 9.89949 0.969574 11.0457 0.969574C12.192 0.969574 13.2698 1.4278 14.0807 2.25996C15.7521 3.97631 15.7497 6.77098 14.0754 8.48971C13.2652 9.32142 12.1869 9.77949 11.0389 9.77949C10.4985 9.77949 9.95816 9.67347 9.45749 9.47078L6.45863 12.5406C6.36984 12.6316 6.24965 12.6828 6.12422 12.6832L5.71684 12.6846V12.7223C5.71684 12.992 5.50384 13.2107 5.24106 13.2107H4.79671V13.977C4.79671 14.0816 4.764 14.1834 4.70346 14.2674L4.58594 14.4306C4.57203 14.4499 4.5568 14.468 4.54027 14.485C4.1887 14.8469 3.79035 15.0304 3.35626 15.0304C3.16717 15.0304 2.97282 14.9942 2.77858 14.9228C2.77528 14.9216 2.77198 14.9203 2.76871 14.9191L0.971694 14.2128C0.82114 14.1537 0.710046 14.0203 0.676474 13.8585C0.642872 13.6967 0.691401 13.5284 0.805379 13.4114ZM3.10357 14.0047C3.19307 14.0371 3.27806 14.0536 3.35629 14.0536C3.52276 14.0536 3.68232 13.9766 3.84331 13.8186L3.84522 13.816V12.7222C3.84522 12.4525 4.05822 12.2338 4.32099 12.2338H4.76534V12.1977C4.76534 11.9285 4.97742 11.7101 5.23957 11.7092L5.92541 11.707L9.01588 8.54331C9.15998 8.39578 9.37952 8.35869 9.56205 8.451C10.017 8.68105 10.5277 8.80263 11.0389 8.80263C11.9327 8.80263 12.7721 8.44621 13.4026 7.79897C14.7059 6.46102 14.7082 4.28602 13.4078 2.95067C12.7768 2.30307 11.9379 1.9464 11.0457 1.9464C10.1538 1.9464 9.31559 2.303 8.68525 2.9507C7.67359 3.98879 7.41819 5.57101 8.0497 6.88783C8.13968 7.07545 8.10331 7.30106 7.95927 7.44893L1.99676 13.5698L3.10357 14.0047Z" fill="#9EA6C9"/>
<path d="M11.1001 3.78175C11.9235 3.78175 12.5933 4.46935 12.5933 5.31453C12.5933 6.15971 11.9235 6.84731 11.1001 6.84731C10.2768 6.84731 9.60702 6.15971 9.60702 5.31453C9.60702 4.46935 10.2768 3.78175 11.1001 3.78175ZM11.1001 6.05271C11.4966 6.05271 11.8192 5.72156 11.8192 5.31453C11.8192 4.90749 11.4966 4.57635 11.1001 4.57635C10.7036 4.57635 10.3811 4.90749 10.3811 5.31453C10.3811 5.72156 10.7036 6.05271 11.1001 6.05271Z" stroke="#9EA6C9" stroke-width="0.8"/>
<path d="M0.805379 13.4114L7.05585 6.99489C6.42982 5.37308 6.79465 3.50954 8.01229 2.26008C8.82221 1.42789 9.89949 0.969574 11.0457 0.969574C12.192 0.969574 13.2698 1.4278 14.0807 2.25996C15.7521 3.97631 15.7497 6.77098 14.0754 8.48971C13.2652 9.32142 12.1869 9.77949 11.0389 9.77949C10.4985 9.77949 9.95816 9.67347 9.45749 9.47078L6.45863 12.5406C6.36984 12.6316 6.24965 12.6828 6.12422 12.6832L5.71684 12.6846V12.7223C5.71684 12.992 5.50384 13.2107 5.24106 13.2107H4.79671V13.977C4.79671 14.0816 4.764 14.1834 4.70346 14.2674L4.58594 14.4306C4.57203 14.4499 4.5568 14.468 4.54027 14.485C4.1887 14.8469 3.79035 15.0304 3.35626 15.0304C3.16717 15.0304 2.97282 14.9942 2.77858 14.9228C2.77528 14.9216 2.77198 14.9203 2.76871 14.9191L0.971694 14.2128C0.82114 14.1537 0.710046 14.0203 0.676474 13.8585C0.642872 13.6967 0.691401 13.5284 0.805379 13.4114ZM3.10357 14.0047C3.19307 14.0371 3.27806 14.0536 3.35629 14.0536C3.52276 14.0536 3.68232 13.9766 3.84331 13.8186L3.84522 13.816V12.7222C3.84522 12.4525 4.05822 12.2338 4.32099 12.2338H4.76534V12.1977C4.76534 11.9285 4.97742 11.7101 5.23957 11.7092L5.92541 11.707L9.01588 8.54331C9.15998 8.39578 9.37952 8.35869 9.56205 8.451C10.017 8.68105 10.5277 8.80263 11.0389 8.80263C11.9327 8.80263 12.7721 8.44621 13.4026 7.79897C14.7059 6.46102 14.7082 4.28602 13.4078 2.95067C12.7768 2.30307 11.9379 1.9464 11.0457 1.9464C10.1538 1.9464 9.31559 2.303 8.68525 2.9507C7.67359 3.98879 7.41819 5.57101 8.0497 6.88783C8.13968 7.07545 8.10331 7.30106 7.95927 7.44893L1.99676 13.5698L3.10357 14.0047Z" stroke="#9EA6C9" stroke-width="0.8"/>
</svg>
