<svg width="16" height="16" viewBox="0 0 16 16" fill="none" xmlns="http://www.w3.org/2000/svg">
<path d="M12.0003 15.3333H4.00033C3.26551 15.3333 2.66699 14.7167 2.66699 13.9583V7.54166C2.66699 6.78327 3.26551 6.16666 4.00033 6.16666H12.0003C12.7351 6.16666 13.3337 6.78327 13.3337 7.54166V13.9583C13.3337 14.7167 12.7351 15.3333 12.0003 15.3333ZM4.00033 7.08333C3.75558 7.08333 3.55588 7.28866 3.55588 7.54166V13.9583C3.55588 14.2113 3.75558 14.4167 4.00033 14.4167H12.0003C12.2451 14.4167 12.4448 14.2113 12.4448 13.9583V7.54166C12.4448 7.28866 12.2451 7.08333 12.0003 7.08333H4.00033Z" fill="#9EA6C9"/>
<path d="M11.1114 7.08332C10.8661 7.08332 10.667 6.87799 10.667 6.62499V4.33332C10.667 2.81716 9.47055 1.58332 8.00033 1.58332C6.53011 1.58332 5.33366 2.81716 5.33366 4.33332V6.62499C5.33366 6.87799 5.13455 7.08332 4.88922 7.08332C4.64389 7.08332 4.44477 6.87799 4.44477 6.62499V4.33332C4.44477 2.31116 6.03944 0.666656 8.00033 0.666656C9.96122 0.666656 11.5559 2.31116 11.5559 4.33332V6.62499C11.5559 6.87799 11.3568 7.08332 11.1114 7.08332Z" fill="#9EA6C9"/>
<path d="M8.00031 11.0556C7.34668 11.0556 6.81513 10.5074 6.81513 9.83335C6.81513 9.1593 7.34668 8.61114 8.00031 8.61114C8.65394 8.61114 9.1855 9.1593 9.1855 9.83335C9.1855 10.5074 8.65394 11.0556 8.00031 11.0556ZM8.00031 9.5278C7.83735 9.5278 7.70402 9.66469 7.70402 9.83335C7.70402 10.002 7.83735 10.1389 8.00031 10.1389C8.16328 10.1389 8.29661 10.002 8.29661 9.83335C8.29661 9.66469 8.16328 9.5278 8.00031 9.5278Z" fill="#9EA6C9"/>
<path d="M8.00033 12.8889C7.755 12.8889 7.55589 12.6835 7.55589 12.4305V10.75C7.55589 10.497 7.755 10.2917 8.00033 10.2917C8.24566 10.2917 8.44477 10.497 8.44477 10.75V12.4305C8.44477 12.6835 8.24566 12.8889 8.00033 12.8889Z" fill="#9EA6C9"/>
<path d="M12.0003 15.3333H4.00033C3.26551 15.3333 2.66699 14.7167 2.66699 13.9583V7.54166C2.66699 6.78327 3.26551 6.16666 4.00033 6.16666H12.0003C12.7351 6.16666 13.3337 6.78327 13.3337 7.54166V13.9583C13.3337 14.7167 12.7351 15.3333 12.0003 15.3333ZM4.00033 7.08333C3.75558 7.08333 3.55588 7.28866 3.55588 7.54166V13.9583C3.55588 14.2113 3.75558 14.4167 4.00033 14.4167H12.0003C12.2451 14.4167 12.4448 14.2113 12.4448 13.9583V7.54166C12.4448 7.28866 12.2451 7.08333 12.0003 7.08333H4.00033Z" stroke="#9EA6C9" stroke-width="0.8"/>
<path d="M11.1114 7.08332C10.8661 7.08332 10.667 6.87799 10.667 6.62499V4.33332C10.667 2.81716 9.47055 1.58332 8.00033 1.58332C6.53011 1.58332 5.33366 2.81716 5.33366 4.33332V6.62499C5.33366 6.87799 5.13455 7.08332 4.88922 7.08332C4.64389 7.08332 4.44477 6.87799 4.44477 6.62499V4.33332C4.44477 2.31116 6.03944 0.666656 8.00033 0.666656C9.96122 0.666656 11.5559 2.31116 11.5559 4.33332V6.62499C11.5559 6.87799 11.3568 7.08332 11.1114 7.08332Z" stroke="#9EA6C9" stroke-width="0.8"/>
<path d="M8.00031 11.0556C7.34668 11.0556 6.81513 10.5074 6.81513 9.83335C6.81513 9.1593 7.34668 8.61114 8.00031 8.61114C8.65394 8.61114 9.1855 9.1593 9.1855 9.83335C9.1855 10.5074 8.65394 11.0556 8.00031 11.0556ZM8.00031 9.5278C7.83735 9.5278 7.70402 9.66469 7.70402 9.83335C7.70402 10.002 7.83735 10.1389 8.00031 10.1389C8.16328 10.1389 8.29661 10.002 8.29661 9.83335C8.29661 9.66469 8.16328 9.5278 8.00031 9.5278Z" stroke="#9EA6C9" stroke-width="0.8"/>
<path d="M8.00033 12.8889C7.755 12.8889 7.55589 12.6835 7.55589 12.4305V10.75C7.55589 10.497 7.755 10.2917 8.00033 10.2917C8.24566 10.2917 8.44477 10.497 8.44477 10.75V12.4305C8.44477 12.6835 8.24566 12.8889 8.00033 12.8889Z" stroke="#9EA6C9" stroke-width="0.8"/>
</svg>
