<svg width="47" height="114" viewBox="0 0 47 114" fill="none" xmlns="http://www.w3.org/2000/svg">
<path d="M46.7159 59.3744C46.6295 59.3031 46.504 59.2804 46.4062 59.3134C46.2868 59.3501 46.1774 59.382 46.0742 59.4121L46.0238 59.4269C45.7693 59.5013 45.5494 59.5651 45.3317 59.6526C41.8909 61.0197 39.182 63.3619 37.0501 66.8126C36.5236 67.6652 36.1158 68.5515 35.791 69.4353C36.3237 66.4624 36.4472 65.3042 36.5415 61.9776C36.5459 61.838 36.5459 61.696 36.5459 61.5551C36.5459 61.1702 36.5459 60.8067 36.63 60.475C36.7308 60.082 36.9335 59.6899 37.1297 59.3106C37.1849 59.2033 37.2401 59.0959 37.2857 59.0016C37.3015 58.9831 37.3526 58.9519 37.3725 58.9488C38.3565 58.7986 39.2266 58.3808 40.0333 57.6719C40.8462 56.954 41.5146 56.0753 42.0205 55.0594C43.8363 51.4183 44.7448 47.3938 44.7218 43.0991C44.7198 42.6848 44.6711 42.2814 44.6176 41.8427C44.5932 41.6462 44.5685 41.4452 44.5479 41.237C44.5363 41.1228 44.466 41.0213 44.3641 40.9719C44.2636 40.9232 44.1422 40.9266 44.0407 40.988C43.9793 41.0265 43.9268 41.0577 43.8791 41.0854C43.7869 41.1403 43.7166 41.1832 43.65 41.2312C42.1011 42.3414 40.7351 43.7236 39.5892 45.3384C37.7193 47.9776 36.6317 50.9618 36.3388 54.2448C36.3096 53.8789 36.2801 53.5129 36.2506 53.147L36.2403 53.0142C36.1254 51.5795 36.0068 50.0958 35.91 48.6368C35.8857 48.2674 35.8147 47.908 35.7461 47.5602C35.6137 46.8917 35.4885 46.2603 35.6888 45.5987C35.7344 45.4492 35.7728 45.2986 35.8113 45.1484C35.9059 44.7762 36.3631 44.2031 37.0652 43.5765L37.0916 43.5528C37.3505 43.3333 38.6806 42.1164 39.4352 39.7094C40.201 37.264 40.1431 34.7088 40.1009 32.843L40.0999 32.7933C40.0436 30.2285 39.7665 28.2958 39.2013 26.5257C39.1282 26.2993 39.0414 26.076 38.9495 25.8414C38.9018 25.7193 38.8531 25.5931 38.8031 25.4611C38.7619 25.3493 38.6631 25.268 38.5476 25.2488L38.491 25.2436C38.3908 25.2436 38.2972 25.2886 38.2337 25.3661L37.6846 26.0352C35.0519 29.2462 33.7585 33.0121 33.8395 37.2287C33.8535 37.9712 33.9091 38.733 34.0075 39.5194C33.3384 37.2101 32.5537 34.9623 31.6612 32.7998C31.6427 32.7524 31.6307 32.6938 31.6293 32.6441L31.6232 32.3484C31.6139 31.9218 31.6043 31.4803 31.6225 31.0461C31.6252 30.9741 31.6719 30.8448 31.7689 30.7176C31.9068 30.5354 32.0598 30.3574 32.2182 30.1722C32.4882 29.8581 32.767 29.5336 32.9879 29.1632C33.6992 27.9717 34.0333 26.5641 34.0387 24.7329C34.0484 22.5773 33.716 20.3089 32.9916 17.5935C32.5958 16.1122 31.9984 14.1877 30.8858 12.443C30.8103 12.3257 30.7259 12.2153 30.6361 12.0983C30.5956 12.0465 30.5531 11.9913 30.5098 11.932C30.4467 11.8472 30.3596 11.7979 30.219 11.7979C30.1069 11.8061 30.0067 11.8699 29.9508 11.969C28.5542 14.4896 27.8586 17.1823 27.8257 20.2012C27.7976 22.7183 28.1906 24.8842 28.6835 26.596C27.4292 24.3046 26.0354 22.0906 24.5245 19.9906L24.4899 19.9429C24.4556 19.8973 24.4412 19.875 24.4436 19.8908C24.3486 19.2113 24.2827 18.6677 24.2371 18.1944C24.2382 18.1872 24.2471 18.1474 24.3177 18.0294C24.4175 17.8593 24.5269 17.6926 24.6432 17.5163C24.8764 17.1617 25.1172 16.7947 25.2715 16.3838C25.7373 15.1436 25.8419 13.7371 25.5905 12.0853C25.0387 8.42947 23.427 5.13757 20.6647 2.02092C20.3803 1.70093 20.0662 1.41797 19.7338 1.11889L19.6419 1.03555C19.5119 0.917907 19.3785 0.797522 19.2437 0.670277C19.158 0.588648 19.0352 0.558124 18.9162 0.593107C18.8037 0.628777 18.7169 0.722066 18.6901 0.837993L18.6298 1.10277C18.5886 1.27838 18.5567 1.41694 18.5331 1.55619C18.1613 3.77526 18.1884 6.1521 18.6164 8.82321C19.041 11.4724 19.8871 13.7573 21.1853 15.7421C19.2386 13.4483 17.345 11.5221 15.366 9.8151C15.3571 9.80344 15.344 9.76811 15.343 9.7592C15.4977 8.42673 15.1691 7.17143 14.3377 5.92162C13.2461 4.27909 11.7291 3.02722 9.82896 2.20133C8.69199 1.70813 7.51386 1.27152 6.36042 0.843824C5.80788 0.638723 5.25534 0.434308 4.68634 0.215145C4.1146 -0.0122495 3.87005 -0.052721 3.73732 0.0700651C3.56652 0.229207 3.60768 0.365027 3.68211 0.611971L3.70611 0.69257C4.40338 3.04128 5.32874 4.89885 6.53568 6.37126C8.75132 9.07701 11.3425 10.4517 14.4533 10.5731C14.5624 10.5796 14.6488 10.6098 14.6842 10.6372C15.1221 10.9651 15.4445 11.2275 15.7295 11.4875C16.6309 12.3113 17.5185 13.189 18.3869 14.1133C17.0953 13.3107 15.5166 12.9486 13.7386 13.0384C12.7655 13.0875 11.7997 13.2301 10.8658 13.368L10.8301 13.3735C10.554 13.414 10.2793 13.4541 10.0052 13.4929C9.40503 13.5741 8.80002 13.6805 8.26566 13.7738C8.04924 13.8125 7.53238 13.9302 7.41337 14.1809C7.37221 14.2666 7.37564 14.3606 7.42228 14.446C7.46344 14.5204 7.50871 14.5904 7.5581 14.6542C9.10048 16.6555 10.8599 17.9735 12.937 18.6831C15.4696 19.5529 17.7957 19.4813 19.8858 18.4582C20.2054 18.2822 20.5909 18.193 21.0313 18.193C21.3637 18.193 21.613 18.2455 21.6957 18.2644C21.8195 18.2849 21.9875 18.3542 22.0218 18.3988C23.3217 20.1079 24.5554 21.9332 25.7075 23.8508C24.7341 22.9042 23.4647 22.2659 21.7354 21.8502C20.2198 21.489 18.6702 21.4115 17.1721 21.3361L16.6703 21.3107C16.2005 21.2867 15.7306 21.2569 15.2466 21.2263L14.4352 21.1763C14.3302 21.1763 14.2304 21.227 14.1693 21.3114C14.1018 21.4023 14.0857 21.5203 14.1254 21.6262C14.158 21.7147 14.2174 21.8708 14.2479 21.9229C15.828 24.5659 17.6835 26.394 19.9197 27.5121C22.1059 28.6041 24.0811 28.8929 26.0734 28.4165C26.3039 28.361 26.5711 28.3315 26.8472 28.3315C27.6947 28.3315 28.2856 28.5901 28.4098 28.8295C29.506 31.0907 30.4841 33.4405 31.3279 35.8372C30.443 34.6172 29.2055 33.6264 27.6388 32.8852C26.0824 32.1505 24.4618 31.479 22.8673 30.8181C22.182 30.5348 21.494 30.2504 20.8091 29.9596C20.7072 29.915 20.5868 29.9243 20.4918 29.987C20.3985 30.0491 20.343 30.1527 20.343 30.2641C20.343 30.4782 22.6169 36.7893 25.9194 39.2762C27.2667 40.2908 28.926 41.3344 31.0185 41.3835C31.6448 41.3962 32.2923 41.4847 32.7814 42.0406C32.8562 42.1291 32.9553 42.1981 33.0633 42.2348C33.2304 42.2896 33.2763 42.3918 33.3586 42.7403C34.0364 45.5857 34.5299 48.5185 34.8338 51.4965C34.7419 51.1944 34.6352 50.8891 34.5128 50.5801C33.7736 48.7057 32.5297 47.0656 30.598 45.4183C29.6023 44.5656 28.5597 43.7401 27.5513 42.9413L27.5033 42.9036C27.0441 42.5397 26.5858 42.1771 26.129 41.8102C26.0347 41.7344 25.9428 41.6562 25.8361 41.5649L25.5511 41.3207C25.4513 41.2364 25.3028 41.2189 25.1862 41.2772C25.0665 41.3379 24.9948 41.4634 25.004 41.5975C25.0181 41.7988 25.0294 41.9892 25.04 42.172L25.0455 42.2574C25.0682 42.6337 25.0894 42.9886 25.1275 43.3392C25.4849 46.7521 26.4998 49.6016 28.2301 52.0501C29.3012 53.5637 30.8377 55.4137 33.2338 56.2886C33.8168 56.5027 34.2397 56.8268 34.6928 57.4085C35.1202 57.9531 35.1997 58.4508 35.1901 59.077C35.1493 61.7005 34.9624 64.303 34.6328 66.8517C34.5556 66.1424 34.3924 65.4122 34.1417 64.6535C33.6227 63.0827 32.814 61.5554 31.6688 59.9846C30.6803 58.6243 29.6517 57.2593 28.6571 55.9385L28.5909 55.8503C28.1965 55.3273 27.8024 54.8035 27.4186 54.2911C27.3466 54.1858 27.2426 54.1481 27.1826 54.1272C27.0976 54.0857 26.996 54.0816 26.9058 54.12C26.8173 54.1577 26.7494 54.2321 26.7196 54.3234L26.7079 54.359C26.6915 54.4071 26.6784 54.4496 26.6716 54.4921C25.9856 58.5825 26.4065 62.2472 27.9578 65.6969C28.7154 67.3836 29.7316 69.2933 31.5234 70.6673C32.3414 71.2946 32.9872 72.1747 33.3418 73.145C33.4169 73.3539 33.4142 73.4444 33.4056 73.4794C32.6473 76.6204 31.6568 79.6499 30.4526 82.5172C30.7626 81.006 30.7414 79.4187 30.3874 77.7742C29.8849 75.4433 29.0213 73.1844 28.251 71.25L28.0202 70.6707C27.659 69.7642 27.2955 68.8506 26.9199 67.9036C26.8722 67.7825 26.7573 67.6999 26.604 67.6923C26.4833 67.6923 26.3722 67.7613 26.3145 67.8731L26.1935 68.1008C26.1403 68.2006 26.0906 68.2936 26.0481 68.3896C24.4985 71.8859 23.9751 75.47 24.4933 79.0425C24.8637 81.597 25.4914 83.4261 26.5286 84.9736C27.0653 85.7734 27.5753 86.6645 27.6679 87.7603C27.6899 88.0196 27.6796 88.1983 27.564 88.4017C26.2559 90.6924 24.7893 92.8542 23.1831 94.8627C23.1893 94.8517 23.1952 94.8408 23.2013 94.8298C24.3568 92.7181 24.3918 90.4349 24.2738 88.4795C24.172 86.8034 23.9799 85.1297 23.795 83.5115L23.7844 83.4179C23.71 82.7696 23.6359 82.1217 23.5683 81.4725C23.5292 81.1045 23.4857 80.7365 23.4407 80.363L23.3814 79.8574C23.3684 79.7456 23.3001 79.6489 23.202 79.6002C23.0196 79.5048 22.7243 79.652 22.4053 80.0292C20.2133 82.6218 18.8531 85.5515 18.3619 88.7375C17.8526 92.0407 18.1287 94.8675 19.207 97.3795C19.2358 97.4464 19.2351 97.5829 19.2348 97.6285L19.1768 99.0738C19.1682 99.1777 19.1134 99.295 19.0681 99.3386C16.8792 101.447 14.4695 103.279 11.8834 104.804C13.1075 103.698 13.9876 102.254 14.5579 100.425C15.1901 98.3971 15.5145 96.2867 15.829 94.2405L15.8564 94.0584C15.9679 93.3395 16.0842 92.622 16.2029 91.8887L16.337 91.0598C16.3562 90.939 16.3085 90.8183 16.2149 90.7459C16.1219 90.6719 15.9875 90.654 15.8805 90.7L15.7635 90.7483C15.6387 90.7994 15.5299 90.8451 15.4274 90.8975C10.5386 93.3392 7.32042 99.034 7.77521 104.438C7.84655 105.284 7.76903 106.079 7.53786 106.867C7.51625 106.939 7.44698 107.016 7.41885 107.03C5.09689 108.009 2.88914 108.723 0.667673 109.214C0.553461 109.24 0.462909 109.322 0.425868 109.432C0.388483 109.543 0.411125 109.663 0.487266 109.753C0.728723 110.039 0.938963 110.347 1.11182 110.669C1.18282 110.801 1.35191 110.868 1.47847 110.836C3.28836 110.423 5.05093 109.888 6.71883 109.245C6.85362 109.191 6.95651 109.165 7.05289 109.181C7.42399 109.23 7.81602 109.307 8.25126 109.415C8.34112 109.437 8.41555 109.478 8.41692 109.474C9.36765 111.37 11.0016 112.577 13.4138 113.164C13.9385 113.29 14.4797 113.383 15.0223 113.44C15.5903 113.5 16.2238 113.531 16.9046 113.531C17.8478 113.531 18.5204 113.472 18.5286 113.472C20.6194 113.238 22.4049 112.767 23.9864 112.033C24.6353 111.732 25.3748 111.327 25.9431 110.604C26.0518 110.465 26.0336 110.265 25.9016 110.149C24.2951 108.731 22.6594 107.701 20.9003 107C18.294 105.965 15.9199 105.684 13.5928 106.132C13.245 106.199 12.9055 106.284 12.5755 106.382C14.7524 105.081 16.8367 103.551 18.805 101.809C18.8428 101.775 18.9048 101.745 18.9532 101.736C19.2753 101.682 19.703 101.617 20.1406 101.585C20.1811 101.585 20.2325 101.605 20.2383 101.607C21.4244 102.934 22.9523 103.579 24.9097 103.579C25.0095 103.579 25.1097 103.577 25.2095 103.574C27.3377 103.505 29.4771 102.92 31.5697 101.835C33.0904 101.041 34.6757 100.118 35.9611 98.7404C36.2462 98.4341 36.5006 98.0877 36.7253 97.7821L36.7472 97.7523C36.8467 97.6175 36.9472 97.4817 37.0504 97.3476C37.1067 97.2752 37.1304 97.1819 37.1156 97.0879C37.0998 96.9974 37.0474 96.9168 36.9578 96.8585C36.9352 96.8462 36.3909 96.5543 35.8939 96.3619C32.5664 95.076 29.2069 94.9443 26.0021 95.977C24.9529 96.3142 23.9655 96.8204 23.0041 97.5201C24.7821 95.4533 26.4284 93.1876 27.9231 90.7497C27.9392 90.724 27.9818 90.6544 27.9955 90.6417C28.1262 90.5583 28.2599 90.4794 28.3933 90.4016C28.6324 90.2613 28.88 90.1162 29.1126 89.9434C29.3087 89.7969 29.364 89.7932 29.5622 89.9207C29.8428 90.1029 30.1689 90.1975 30.4533 90.2719C32.1167 90.6979 33.7935 90.4856 35.6484 89.6148C37.3427 88.8205 38.6453 87.5648 39.8011 86.3267C41.4824 84.5205 42.581 82.8911 43.2587 81.1981C43.401 80.8428 43.5025 80.4754 43.6082 80.0913C43.6517 79.9301 43.6963 79.7689 43.7437 79.6105C43.7955 79.4404 43.7049 79.2603 43.5368 79.201L43.3976 79.1903C42.712 79.1903 36.596 79.2908 33.0187 82.7617C32.2405 83.517 31.5429 84.3196 30.906 85.1983C32.3211 82.2013 33.5212 79.0428 34.4884 75.7643L34.5025 75.7163C34.5141 75.6762 34.5316 75.6155 34.5433 75.599L35.4789 74.3142C35.5139 74.2627 35.518 74.2627 35.5729 74.2627C35.5973 74.2627 35.624 74.2645 35.6545 74.2662L35.8545 74.2782C36.5507 74.3214 36.9606 74.3152 37.2977 74.2624C38.6299 74.0522 39.8323 73.3813 40.9734 72.2111C43.6421 69.4741 45.4791 66.0594 46.589 61.7729C46.708 61.3136 46.7413 60.8499 46.777 60.3581C46.7927 60.1351 46.8102 59.9053 46.8356 59.668C46.8462 59.5541 46.8017 59.4454 46.7159 59.3744Z" fill="#FFB408"/>
</svg>
