<svg width="24" height="24" viewBox="0 0 24 24" fill="none" xmlns="http://www.w3.org/2000/svg">
<path d="M13.1644 16.4638H12.9082V14.0917C12.9082 13.6829 12.6829 13.3119 12.3201 13.1235C11.9573 12.935 11.5242 12.964 11.1898 13.199L10.5169 13.6718C10.1992 13.8951 10.1227 14.3336 10.3459 14.6513C10.5692 14.9691 11.0077 15.0457 11.3255 14.8223L11.502 14.6983V16.4638H11.2467C10.8584 16.4638 10.5435 16.7786 10.5435 17.1669C10.5435 17.5552 10.8584 17.87 11.2467 17.87H13.1644C13.5527 17.87 13.8675 17.5552 13.8675 17.1669C13.8675 16.7786 13.5527 16.4638 13.1644 16.4638Z" fill="#9EA6C9"/>
<path d="M23.2969 21.2032H23.0173V11.9676C23.0173 11.4714 22.7025 11.0692 22.3142 11.0692H16.917V8.89842C16.917 8.40225 16.6022 8 16.2139 8H7.78608C7.39777 8 7.08295 8.40225 7.08295 8.89842V12.8257H1.68581C1.2975 12.8257 0.982688 13.228 0.982688 13.7242V21.2032H0.703125C0.314812 21.2032 0 21.6054 0 22.1016C0 22.5977 0.314812 23 0.703125 23H23.2969C23.6852 23 24 22.5977 24 22.1016C24 21.6054 23.6852 21.2032 23.2969 21.2032ZM7.08295 21.2032H2.38894V14.6226H7.08295V21.2032ZM15.5108 21.2032H8.4892V9.79683H15.5108V21.2032ZM21.6111 21.2032H16.917V12.866H21.6111V21.2032Z" fill="#9EA6C9"/>
<path d="M11.6813 0.614473C11.939 -0.204824 13.061 -0.204824 13.3187 0.614473C13.434 0.980874 13.7645 1.22895 14.1375 1.22895C14.9714 1.22895 15.3182 2.3313 14.6435 2.83766C14.3418 3.06411 14.2155 3.46549 14.3308 3.83189C14.5885 4.65119 13.6807 5.33249 13.006 4.82613C12.7043 4.59968 12.2957 4.59968 11.994 4.82613C11.3193 5.33249 10.4115 4.65119 10.6692 3.83189C10.7845 3.46549 10.6582 3.06411 10.3565 2.83766C9.68184 2.3313 10.0286 1.22895 10.8625 1.22895C11.2355 1.22895 11.566 0.980874 11.6813 0.614473Z" fill="#9EA6C9"/>
</svg>
