<svg width="30" height="30" viewBox="0 0 30 30" fill="none" xmlns="http://www.w3.org/2000/svg">
<g clip-path="url(#clip0)">
<path d="M24.3717 16.6705L27.8498 17.6028C29.118 17.9427 29.9998 19.092 29.9998 20.4049V24.7142C29.9998 25.0476 29.7295 25.3178 29.3961 25.3178H16.3302C15.9968 25.3178 15.7266 25.0476 15.7266 24.7142V20.4049C15.7266 19.092 16.6083 17.9427 17.8765 17.6028L21.3546 16.6705H24.3717Z" fill="#8254D3"/>
<path d="M23.7114 20.2727C23.7114 18.7874 22.94 17.4407 21.7351 16.6705H21.3546L17.8765 17.6028C16.6084 17.9427 15.7266 19.092 15.7266 20.4049V24.7142C15.7266 25.0476 15.9968 25.3178 16.3302 25.3178H23.7114V20.2727Z" fill="#3E108D"/>
<path d="M28.3047 17.766C28.4629 18.1257 28.5498 18.5215 28.5498 18.9334V25.3179H29.3967C29.7301 25.3179 30.0003 25.0477 30.0003 24.7143V20.405C30.0003 19.2553 29.3242 18.2312 28.3047 17.766Z" fill="#541BB7"/>
<path d="M22.863 18.1791C22.0299 18.1791 21.3545 17.5036 21.3545 16.6705V14.8138H24.3716V16.6705C24.3716 17.5037 23.6962 18.1791 22.863 18.1791Z" fill="#E2A770"/>
<path d="M19.498 8.48959V11.8548C19.498 13.7133 21.0047 15.22 22.8633 15.22C24.7218 15.22 26.2285 13.7133 26.2285 11.8548V8.48959H19.498Z" fill="#F1B986"/>
<path d="M25.1838 9.64998H26.2282V7.84893C26.2282 6.90568 25.4636 6.14104 24.5203 6.14104H24.0234V8.48959C24.0234 9.13043 24.5429 9.64998 25.1838 9.64998Z" fill="#454045"/>
<path d="M22.8633 9.64999H19.498V7.72407C19.498 6.27299 20.6744 5.09666 22.1254 5.09666H22.9793C23.5561 5.09666 24.0237 5.56424 24.0237 6.14104V8.4896C24.0237 9.13044 23.5042 9.64999 22.8633 9.64999Z" fill="#544F57"/>
<path d="M8.64516 16.6705L12.1232 17.6028C13.3914 17.9427 14.2732 19.092 14.2732 20.4049V24.7142C14.2732 25.0476 14.003 25.3178 13.6696 25.3178H0.603633C0.270234 25.3178 0 25.0476 0 24.7142V20.4049C0 19.092 0.881777 17.9427 2.14998 17.6028L5.62805 16.6705H8.64516Z" fill="#8254D3"/>
<path d="M14.2729 24.7142V20.4049C14.2729 19.092 13.3911 17.9427 12.1229 17.6028L8.64484 16.6705H8.26428C7.05947 17.4407 6.28809 18.7873 6.28809 20.2727V25.3178H13.6693C14.0027 25.3178 14.2729 25.0476 14.2729 24.7142Z" fill="#3E108D"/>
<path d="M7.13648 18.1791C6.30334 18.1791 5.62793 17.5036 5.62793 16.6705V14.8138H8.64504V16.6705C8.64504 17.5037 7.96963 18.1791 7.13648 18.1791Z" fill="#E2A770"/>
<path d="M3.77148 8.48959V11.8548C3.77148 13.7133 5.27816 15.22 7.1367 15.22C8.99524 15.22 10.5019 13.7133 10.5019 11.8548V8.48959H3.77148Z" fill="#F1B986"/>
<path d="M9.45726 9.64998H10.5016V7.84893C10.5016 6.90569 9.73699 6.14104 8.79375 6.14104H8.29688V8.48959C8.29682 9.13043 8.81637 9.64998 9.45726 9.64998Z" fill="#454045"/>
<path d="M7.1367 9.64999H3.77148V7.72407C3.77148 6.27299 4.94781 5.09666 6.39889 5.09666H7.25272C7.82951 5.09666 8.29709 5.56424 8.29709 6.14104V8.4896C8.29709 9.13044 7.7776 9.64999 7.1367 9.64999Z" fill="#544F57"/>
<path d="M10.501 10.9095H19.5367V18.9684H10.501V10.9095Z" fill="#454045"/>
<path d="M19.5374 10.9095H18.5605V8.95581H19.5374C20.0768 8.95581 20.5142 9.39316 20.5142 9.93263C20.5142 10.4722 20.0768 10.9095 19.5374 10.9095Z" fill="#F1D0A5"/>
<path d="M16.6066 16.3432L20.2664 17.3241C21.6009 17.6818 22.5287 18.8911 22.5287 20.2727V26.5458C22.5287 26.8792 22.2585 27.1494 21.9251 27.1494H8.1134C7.78 27.1494 7.50977 26.8792 7.50977 26.5458V20.2727C7.50977 18.8912 8.43766 17.6818 9.77207 17.3241L13.4319 16.3432H16.6066Z" fill="#541BB7"/>
<path d="M14.5664 27.1494V21.0621C14.5664 20.812 14.7691 20.6094 15.0191 20.6094C15.2691 20.6094 15.4718 20.812 15.4718 21.0621V27.1494H14.5664Z" fill="#544F57"/>
<path d="M15.0192 16.3432H16.6066L18.476 16.8442L18.0884 18.2439C18.0884 18.2439 17.1561 21.2884 15.0192 21.2884C12.8824 21.2884 11.9501 18.2439 11.9501 18.2439L11.5625 16.8442L13.4319 16.3432H15.0192Z" fill="#E2DFE2"/>
<path d="M13.4319 16.3432L11.5625 16.8442L11.9501 18.2439C12.1868 19.0988 13.2271 19.4239 13.9085 18.8561L15.0192 17.9306V16.3432L13.4319 16.3432Z" fill="#EFECEF"/>
<path d="M16.6069 16.3432L18.4763 16.8442L18.0887 18.2439C17.852 19.0988 16.8116 19.4239 16.1302 18.8561L15.0195 17.9306V16.3432L16.6069 16.3432Z" fill="#EFECEF"/>
<path d="M20.7441 17.4959C20.9107 17.8744 21.0021 18.2908 21.0021 18.7242V27.1494H21.9247C22.2581 27.1494 22.5284 26.8792 22.5284 26.5458V20.2727C22.5284 19.063 21.8169 17.9854 20.7441 17.4959Z" fill="#541BB7"/>
<path d="M15.019 17.9305C14.1423 17.9305 13.4316 17.2198 13.4316 16.3431V14.3895H16.6064V16.3431C16.6064 17.2198 15.8957 17.9305 15.019 17.9305Z" fill="#F1D0A5"/>
<path d="M13.4316 15.6359C13.9271 15.8169 14.4617 15.9158 15.019 15.9158C15.5763 15.9158 16.1109 15.8169 16.6064 15.6359V14.3895H13.4316V15.6359Z" fill="#F1B986"/>
<path d="M11.4785 7.73479V11.2758C11.4785 13.2315 13.0639 14.8169 15.0196 14.8169C16.9753 14.8169 18.5606 13.2315 18.5606 11.2758V7.73479H11.4785Z" fill="#F1D0A5"/>
<path d="M10.5012 10.9095H11.478V8.95581H10.5012C9.96176 8.95581 9.52441 9.39316 9.52441 9.93263C9.52441 10.4722 9.96176 10.9095 10.5012 10.9095Z" fill="#F1D0A5"/>
<path d="M17.3391 7.73479V12.4969C17.3391 13.1616 17.1555 13.7833 16.8369 14.3147C17.869 13.696 18.5601 12.5668 18.5601 11.2758V7.73479H17.3391Z" fill="#F1B986"/>
<path d="M17.4613 8.95582C17.608 8.95582 17.7392 9.04729 17.7899 9.18498L18.5603 11.2758V8.95588H19.415V6.3917C19.415 5.04299 18.3216 3.94963 16.9729 3.94963H16.2402V7.7349C16.2402 8.40914 16.7869 8.95582 17.4613 8.95582Z" fill="#454045"/>
<path d="M15.0188 8.95582H14.8041C13.7158 8.95582 12.6977 9.49283 12.0832 10.391L11.4778 11.2758V8.95582H10.501V6.51375C10.501 4.49062 12.141 2.85059 14.1641 2.85059H15.141C15.7479 2.85059 16.2399 3.3426 16.2399 3.94951V7.73479C16.2399 8.40914 15.6932 8.95582 15.0188 8.95582Z" fill="#544F57"/>
<path d="M26.4727 25.3178V24.1574C26.4727 23.9073 26.6753 23.7047 26.9254 23.7047C27.1754 23.7047 27.378 23.9074 27.378 24.1574V25.3178H26.4727Z" fill="#5A25B7"/>
<path d="M2.62207 25.3178V24.1574C2.62207 23.9073 2.82475 23.7047 3.07477 23.7047C3.32478 23.7047 3.52746 23.9074 3.52746 24.1574V25.3178H2.62207Z" fill="#3E108D"/>
<path d="M10.293 27.1494V23.4863C10.293 23.2362 10.4956 23.0336 10.7457 23.0336C10.9957 23.0336 11.1984 23.2363 11.1984 23.4863V27.1494H10.293Z" fill="#541BB7"/>
<path d="M18.8398 27.1494V23.4863C18.8398 23.2362 19.0425 23.0336 19.2925 23.0336C19.5426 23.0336 19.7452 23.2363 19.7452 23.4863V27.1494H18.8398Z" fill="#541BB7"/>
</g>
<defs>
<clipPath id="clip0">
<rect width="30" height="30" fill="white"/>
</clipPath>
</defs>
</svg>
