<svg width="30" height="30" viewBox="0 0 30 30" fill="none" xmlns="http://www.w3.org/2000/svg">
<path d="M26.3154 11.7188L29.125 8.90625L20.6908 0L9.0752 11.7188" fill="#541BB7"/>
<path d="M17.3638 12.0373L23.634 5.76712L24.2971 6.43026L18.0269 12.7005L17.3638 12.0373Z" fill="white"/>
<path d="M22.2288 9.98611L25.0407 7.17414L25.7039 7.83728L22.8919 10.6493L22.2288 9.98611Z" fill="white"/>
<path d="M13.6796 9.04356L12.354 10.3692C12.1707 10.5525 12.1707 10.8487 12.354 11.032L14.3424 13.0204C14.5257 13.2037 14.822 13.2037 15.0053 13.0204L16.3309 11.6948C16.5142 11.5115 16.5142 11.2153 16.3309 11.032L15.6681 10.3692L15.0053 11.032L15.3367 11.3634L14.6738 12.0262L13.3482 10.7006L14.011 10.0378L14.3424 10.3692L15.0053 9.70637L14.3424 9.04356C14.1596 8.86028 13.8629 8.86028 13.6796 9.04356Z" fill="white"/>
<path d="M20.6403 3.4088L21.3031 2.74552L20.6398 2.0827L18.6509 4.07161L19.3142 4.73442L19.977 4.07208L21.9659 6.06052L22.6292 5.39723L20.6403 3.4088Z" fill="white"/>
<path d="M17.657 7.91166H16.9816L17.1072 7.53478C17.1634 7.3665 17.1194 7.18041 16.9942 7.05525L16.3314 6.39197L15.6681 7.05478L16.1266 7.51322L15.7947 8.50744L15.0053 7.71806L14.342 8.38134L16.9938 11.0331L17.657 10.3698L16.5358 9.24853L16.6689 8.84962H17.4625L18.3194 9.70697L18.9827 9.04416L17.9884 8.04947C17.9008 7.96087 17.7813 7.91166 17.657 7.91166Z" fill="white"/>
<path d="M19.3141 7.38609L18.9827 7.05468L19.9769 6.06047L19.3136 5.39718L18.3194 6.3914L17.9885 6.06L18.9827 5.06578L18.3194 4.4025L16.9938 5.72859C16.811 5.91187 16.811 6.20859 16.9938 6.39187L18.9822 8.38078C19.0736 8.47218 19.1936 8.51765 19.3136 8.51765C19.4341 8.51765 19.5541 8.47218 19.6455 8.38078L20.9716 7.05468L20.3083 6.3914L19.3141 7.38609Z" fill="white"/>
<path d="M9.4375 23.9062H29.125V11.7188H9.4375C9.4375 12.1927 9.15813 12.6042 8.74563 12.8381C8.31906 13.0795 8.03125 13.5375 8.03125 14.0625C8.03125 14.7098 8.46859 15.255 9.06344 15.4186C9.27766 15.4772 9.4375 15.6544 9.4375 15.8766V15.9984C9.4375 16.2206 9.27766 16.3973 9.06344 16.4564C8.46859 16.62 8.03125 17.1652 8.03125 17.8125C8.03125 18.4598 8.46859 19.005 9.06344 19.1686C9.27766 19.2272 9.4375 19.4044 9.4375 19.6266V19.7484C9.4375 19.9706 9.27766 20.1473 9.06344 20.2064C8.46859 20.37 8.03125 20.9152 8.03125 21.5625C8.03125 22.0875 8.31906 22.5455 8.74563 22.7869C9.15813 23.0208 9.4375 23.4323 9.4375 23.9062Z" fill="#541BB7"/>
<path d="M14.139 23.9062L9.92028 28.125C9.58513 27.7898 9.49138 27.3014 9.61794 26.8444C9.74872 26.3719 9.62872 25.8445 9.257 25.4733C8.7995 25.0158 8.10481 24.9394 7.56809 25.2445C7.37497 25.3542 7.13684 25.342 6.97981 25.185L6.89356 25.0987C6.73653 24.9417 6.72434 24.7036 6.83403 24.5105C6.94091 24.323 7.00091 24.1158 7.01403 23.9062" fill="#946ADC"/>
<path d="M1 23.9062C1 23.4323 1.27938 23.0208 1.69188 22.7869C2.11844 22.5455 2.40625 22.0875 2.40625 21.5625C2.40625 20.9152 1.96891 20.37 1.37406 20.2064C1.15984 20.1478 1 19.9706 1 19.7484V19.6266C1 19.4044 1.15984 19.2277 1.37406 19.1686C1.96891 19.005 2.40625 18.4598 2.40625 17.8125C2.40625 17.1652 1.96891 16.62 1.37406 16.4564C1.15984 16.3978 1 16.2206 1 15.9984V15.8766C1 15.6544 1.15984 15.4777 1.37406 15.4186C1.96891 15.255 2.40625 14.7098 2.40625 14.0625C2.40625 13.5375 2.11844 13.0795 1.69188 12.8381C1.27938 12.6042 1 12.1927 1 11.7188H9.4375C9.4375 12.1927 9.15812 12.6042 8.74563 12.8381C8.31906 13.0795 8.03125 13.5375 8.03125 14.0625C8.03125 14.7098 8.46859 15.255 9.06344 15.4186C9.27766 15.4772 9.4375 15.6544 9.4375 15.8766V15.9984C9.4375 16.2206 9.27766 16.3973 9.06344 16.4564C8.46859 16.62 8.03125 17.1652 8.03125 17.8125C8.03125 18.4598 8.46859 19.005 9.06344 19.1686C9.27766 19.2272 9.4375 19.4044 9.4375 19.6266V19.7484C9.4375 19.9706 9.27766 20.1473 9.06344 20.2064C8.46859 20.37 8.03125 20.9152 8.03125 21.5625C8.03125 22.0875 8.31906 22.5455 8.74563 22.7869C9.15812 23.0208 9.4375 23.4323 9.4375 23.9062H1Z" fill="#541BB7"/>
<path d="M3.81201 13.5938H6.62404V14.5312H3.81201V13.5938Z" fill="#946ADC"/>
<path d="M3.81201 15.4688H6.62404V16.4062H3.81201V15.4688Z" fill="#946ADC"/>
<path d="M3.81201 17.3438H6.62404V18.2812H3.81201V17.3438Z" fill="#946ADC"/>
<path d="M3.81201 19.2188H6.62404V20.1562H3.81201V19.2188Z" fill="#946ADC"/>
<path d="M3.81201 21.0938H6.62404V22.0312H3.81201V21.0938Z" fill="#946ADC"/>
<path d="M10.8433 14.062H11.7808V16.8745H12.7178V14.062H13.6553V13.125H10.8433V14.062Z" fill="white"/>
<path d="M27.7183 13.125H24.9062V14.062H25.8437V16.8745H26.7808V14.062H27.7183V13.125Z" fill="white"/>
<path d="M14.1245 13.125H15.0615V16.875H14.1245V13.125Z" fill="white"/>
<path d="M17.874 13.125H15.9995C15.7403 13.125 15.5308 13.3345 15.5308 13.5938V16.4062C15.5308 16.6655 15.7403 16.875 15.9995 16.875H17.874C18.1333 16.875 18.3428 16.6655 18.3428 16.4062V15.4688H17.4053V15.9375H16.4683V14.0625H17.4053V14.5312H18.3428V13.5938C18.3428 13.3345 18.1333 13.125 17.874 13.125Z" fill="white"/>
<path d="M20.6865 13.7723L19.749 14.2411V13.125H18.812V16.875H19.749V15.2897L20.1254 15.1017L20.687 15.6633V16.875H21.624V15.4688C21.624 15.3441 21.5753 15.225 21.4872 15.1369L21.0095 14.6592L21.3648 14.4816C21.5237 14.4023 21.624 14.2397 21.624 14.0625V13.125H20.6865V13.7723Z" fill="white"/>
<path d="M22.0933 13.5938V16.4062C22.0933 16.6655 22.3028 16.875 22.562 16.875H24.4365V15.9375H23.0308V15.4688H24.4365V14.5312H23.0308V14.0625H24.4365V13.125H22.562C22.3028 13.125 22.0933 13.3345 22.0933 13.5938Z" fill="white"/>
<path d="M10.8433 17.8125H27.7178V18.75H10.8433V17.8125Z" fill="#9EA6C9"/>
<path d="M21.1558 19.6875H27.7178V20.625H21.1558V19.6875Z" fill="#541BB7"/>
<path d="M11.3125 20.1562H18.8125V22.0312H11.3125V20.1562Z" fill="white"/>
<path d="M11.3125 20.1562V22.0312H16.3319C16.9291 21.532 17.4006 20.8894 17.6973 20.1562H11.3125Z" fill="#F2F2F2"/>
</svg>
