<svg width="512" height="512" viewBox="0 0 512 512" fill="none" xmlns="http://www.w3.org/2000/svg">
<path d="M512 256C512 374.941 430.895 474.927 320.972 503.683C300.23 509.106 278.455 512 256 512C217.307 512 180.621 503.421 147.738 488.051C60.468 447.258 0 358.693 0 256C0 148.961 65.693 57.271 158.96 19.038C174.393 12.706 190.589 7.837 207.37 4.608C223.117 1.588 239.376 0 256 0C397.385 0 512 114.615 512 256Z" fill="#EBEBED"/>
<path d="M320.972 503.683C300.23 509.106 278.455 512 256 512C217.307 512 180.621 503.421 147.738 488.051C155.836 478.563 165.574 470.507 176.504 464.332C175.062 442.379 211.539 462.326 236.575 416.371C255.509 381.607 256.198 319.101 208.843 293.512C161.488 267.912 128.647 223.117 128.647 182.586C128.647 118.596 190.495 108.785 181.968 48.202C179.753 32.508 169.043 23.804 158.959 19.039C149.931 14.755 141.394 13.626 139.952 13.47C147.686 6.844 161.729 0 186.661 0C194.874 0 201.708 1.661 207.371 4.608C234.967 18.954 234.706 63.854 229.753 96.413C223.776 135.659 225.908 162.534 238.279 183.871C245.269 195.919 259.553 209.44 270.66 218.917C278.486 225.594 290.555 222.679 294.431 213.16C296.709 207.57 298.778 201.645 300.565 195.386C316.343 139.933 371.806 127.551 371.806 127.551C375.306 134.865 378.107 143.151 380.374 151.772C380.071 151.866 379.768 151.981 379.465 152.085C368.17 156.16 359.8 161.698 360.793 164.436C361.786 167.163 371.608 166.118 382.809 162.106C389.726 194.811 389.726 228.311 389.726 228.311C361.556 228.844 328.38 237.715 304.4 269.616C254.067 336.594 279.228 369.017 279.228 369.017L260.033 400.155C260.033 400.155 263.878 404 280.513 402.297C296.887 400.615 309.54 386.112 309.937 385.673C309.728 386.425 302.696 410.448 276.239 413.812C249.364 417.218 248.518 424.052 248.518 439.412C248.518 449.004 255.341 453.435 260.472 455.409C261.381 455.691 262.29 455.994 263.199 456.297C264.881 456.757 265.163 456.997 265.163 456.997C288.778 465.565 308.506 482.252 320.972 503.683Z" fill="#1B3466"/>
<path d="M180.367 9.27996C180.367 9.27996 205.017 7.03196 215.562 24.958C225.16 41.276 222.921 72.951 221.321 86.39C219.721 99.828 215.562 132.144 217.802 142.702C217.802 142.702 179.407 136.303 181.007 111.986C182.607 87.669 197.325 75.511 189.966 44.796C189.966 44.796 203.404 41.916 199.245 28.799C196.898 21.396 193.939 18.17 191.806 16.766C191.806 16.766 188.126 19.761 184.287 17.601C180.447 15.438 180.367 9.27996 180.367 9.27996Z" fill="white"/>
</svg>
