<svg width="24" height="24" viewBox="0 0 24 24" fill="none" xmlns="http://www.w3.org/2000/svg">
<g clip-path="url(#clip0)">
<path d="M19.2695 7.14424L20.7065 5.70724L19.2925 4.29274L17.7553 5.82999C16.3509 4.83478 14.7122 4.22142 12.9995 4.04999V1.99999H14.9995V-7.62939e-06H8.99952V1.99999H10.9995V4.04999C9.28686 4.22142 7.6481 4.83478 6.24377 5.82999L4.70652 4.29274L3.29252 5.70724L4.72952 7.14424C3.38816 8.56444 2.49216 10.3464 2.15215 12.2701C1.81214 14.1938 2.04302 16.175 2.81628 17.9689C3.58954 19.7629 4.8713 21.2911 6.50329 22.3647C8.13528 23.4384 10.046 24.0106 11.9995 24.0106C13.953 24.0106 15.8638 23.4384 17.4957 22.3647C19.1277 21.2911 20.4095 19.7629 21.1828 17.9689C21.956 16.175 22.1869 14.1938 21.8469 12.2701C21.5069 10.3464 20.6109 8.56444 19.2695 7.14424ZM11.9995 22C10.4173 22 8.87055 21.5308 7.55496 20.6518C6.23936 19.7727 5.21398 18.5233 4.60848 17.0615C4.00298 15.5997 3.84455 13.9911 4.15323 12.4393C4.46192 10.8874 5.22384 9.46196 6.34266 8.34314C7.46148 7.22432 8.88695 6.46239 10.4388 6.15371C11.9906 5.84503 13.5992 6.00346 15.061 6.60896C16.5228 7.21446 17.7722 8.23984 18.6513 9.55543C19.5303 10.871 19.9995 12.4177 19.9995 14C19.9971 16.121 19.1535 18.1544 17.6537 19.6542C16.154 21.154 14.1205 21.9976 11.9995 22Z" fill="#9EA6C9"/>
<path d="M11.9995 7.00031C11.7343 7.00031 11.4799 7.10567 11.2924 7.29321C11.1049 7.48074 10.9995 7.7351 10.9995 8.00031V13.0003H5.99951C5.7343 13.0003 5.47994 13.1057 5.29241 13.2932C5.10487 13.4807 4.99951 13.7351 4.99951 14.0003C4.99951 15.3848 5.41005 16.7382 6.17922 17.8893C6.94839 19.0404 8.04164 19.9377 9.32073 20.4675C10.5998 20.9973 12.0073 21.1359 13.3651 20.8658C14.723 20.5957 15.9703 19.929 16.9493 18.9501C17.9282 17.9711 18.5949 16.7238 18.865 15.3659C19.1351 14.0081 18.9965 12.6006 18.4667 11.3215C17.9369 10.0424 17.0396 8.94919 15.8885 8.18003C14.7374 7.41086 13.384 7.00031 11.9995 7.00031ZM11.9995 19.0003C10.8473 18.9988 9.73087 18.6002 8.83831 17.8715C7.94575 17.1429 7.33165 16.1289 7.09951 15.0003H11.9995C12.2647 15.0003 12.5191 14.895 12.7066 14.7074C12.8942 14.5199 12.9995 14.2655 12.9995 14.0003V9.10031C14.2147 9.34706 15.2948 10.0365 16.0302 11.0348C16.7656 12.0332 17.1038 13.2691 16.9792 14.5028C16.8546 15.7365 16.276 16.8798 15.3558 17.7109C14.4356 18.542 13.2395 19.0016 11.9995 19.0003Z" fill="#9EA6C9"/>
</g>
<defs>
<clipPath id="clip0">
<rect width="24" height="24" fill="white"/>
</clipPath>
</defs>
</svg>
