<svg width="375" height="713" viewBox="0 0 375 713" fill="none" xmlns="http://www.w3.org/2000/svg">
<g clip-path="url(#clip0)">
<rect y="328" width="376" height="385" fill="#B1DE62"/>
<path d="M374.95 129.132V337.455H0V116.363C14.7578 115.958 29.5611 117.841 44.389 120.982C77.3197 127.959 110.335 141.138 143.141 149.163C177.671 157.613 213.217 160.228 248.602 157.909C291.676 155.084 334.505 144.95 374.95 129.132Z" fill="#E3F6F9"/>
<path d="M374.95 158.725V337.455H0V152.018C12.4431 140.407 27.4764 129.162 44.389 120.982C64.0315 111.49 86.1985 106.14 109.79 109.16C158.869 115.447 228.185 163.189 289.221 170.652C326.087 175.16 352.663 168.148 374.95 158.725Z" fill="#D7F2F6"/>
<path d="M374.95 314.554V337.455H0V322.143C28.796 314.759 103.436 297.097 182.251 290.435C189.085 289.859 195.954 289.363 202.823 288.967C203.833 288.902 204.838 288.847 205.848 288.797C206.602 288.752 207.357 288.712 208.112 288.677C209.907 288.582 211.707 288.496 213.507 288.426C214.661 288.371 215.816 288.326 216.971 288.286C217.386 288.266 217.801 288.251 218.216 288.236C219.431 288.191 220.646 288.151 221.86 288.116C223.34 288.066 224.82 288.025 226.3 287.995C227.925 287.955 229.549 287.925 231.174 287.9C232.784 287.87 234.389 287.855 235.989 287.84C237.648 287.83 239.303 287.825 240.953 287.825C242.823 287.825 244.692 287.84 246.557 287.86C246.822 287.865 247.087 287.865 247.352 287.87C249.082 287.89 250.807 287.92 252.531 287.96C254.431 288.005 256.331 288.056 258.221 288.121C260.36 288.191 262.49 288.281 264.615 288.381C267.079 288.496 269.534 288.632 271.974 288.787C274.578 288.952 277.173 289.137 279.748 289.353C282.027 289.538 284.297 289.744 286.552 289.969C288.767 290.184 290.966 290.425 293.151 290.68C295.176 290.921 297.19 291.176 299.19 291.447C301.075 291.702 302.945 291.968 304.804 292.253C306.734 292.549 308.649 292.859 310.549 293.19C312.428 293.51 314.298 293.851 316.153 294.212C317.927 294.552 319.692 294.913 321.442 295.289C323.247 295.669 325.032 296.07 326.801 296.491C326.836 296.496 326.871 296.506 326.906 296.516C328.451 296.876 329.987 297.257 331.506 297.648C333.021 298.039 334.53 298.439 336.02 298.86C337.275 299.206 338.52 299.566 339.755 299.937C340.23 300.077 340.7 300.223 341.17 300.368C341.699 300.528 342.224 300.688 342.749 300.859C343.904 301.219 345.054 301.595 346.194 301.981C347.539 302.432 348.874 302.892 350.193 303.373C351.533 303.854 352.858 304.35 354.172 304.861C357.608 306.193 360.947 307.611 364.186 309.129C365.501 309.745 366.786 310.361 368.036 310.977C370.456 312.169 372.76 313.361 374.95 314.554Z" fill="#B1DE62"/>
<path d="M305.087 317.314C266.877 301.269 192.197 317.093 178.149 304.826C171.11 298.675 175.809 293.786 182.248 290.435C248.069 284.865 316.8 286.968 364.184 309.129C365.499 309.745 366.783 310.361 368.033 310.977C370.583 314.799 372.038 318.25 372.838 320.86C377.597 336.413 343.292 333.358 305.087 317.314Z" fill="#9BD537"/>
<path d="M178.651 199.25C178.651 199.25 163.054 200.251 175.13 205.761C187.205 211.271 188.44 204.008 199.696 205.761C210.952 207.515 221.079 211.247 232.32 206.012C243.561 200.776 230.574 194.24 223.513 197.496C223.513 197.496 220.129 190.233 212.666 192.487C205.203 194.741 205.204 197.747 205.204 197.747C205.204 197.747 201.956 188.48 188.831 190.233C175.707 191.986 178.651 199.25 178.651 199.25Z" fill="white"/>
<path d="M323.748 215.086C323.748 215.086 308.997 205.577 303.404 212.875C297.81 220.172 323.045 218.103 338.342 221.142C353.64 224.179 370.382 234.308 370.329 226.883C370.275 219.457 353.425 220.701 353.425 220.701C353.425 220.701 352.238 215.366 345.042 217.876C345.042 217.876 342.838 210.802 337.083 215.23C337.083 215.23 324.251 200.623 323.748 215.086Z" fill="white"/>
<path d="M374.949 315.535V317.419L353.147 309.094L349.128 307.561L348.683 307.391L345.133 306.038L341.789 304.761L339.899 304.04L338.744 303.599L338.989 302.892L339.239 302.181L342.169 303.208L345.423 304.35L345.563 304.4L349.573 305.808L353.597 307.22L355.157 307.766L374.949 315.535Z" fill="white"/>
<path d="M363.625 334.833L185.027 315.45L205.77 304.028L206.492 305.344L189.922 314.47L360.498 332.981L350.357 318.49L351.585 317.627L363.625 334.833Z" fill="white"/>
<path d="M197.323 293.35L223.07 294.738L222.99 296.24L193.749 294.668L121.053 327.542L168.243 337.455L161.192 337.506L116.244 328.063L191.799 293.901L197.323 293.35Z" fill="white"/>
<path fill-rule="evenodd" clip-rule="evenodd" d="M351.987 318.164C352.045 317.602 351.638 317.099 351.078 317.04C309.692 312.733 273.476 309.39 247.607 307.123C234.672 305.99 224.323 305.126 217.208 304.545C213.65 304.254 210.901 304.035 209.041 303.888C208.111 303.814 207.403 303.759 206.928 303.722C206.69 303.703 206.511 303.689 206.391 303.68L206.21 303.666C206.21 303.666 206.209 303.666 206.132 304.686C206.054 305.706 206.054 305.706 206.055 305.706L206.234 305.72C206.354 305.729 206.533 305.743 206.77 305.762C207.245 305.799 207.952 305.854 208.881 305.927C210.739 306.074 213.487 306.294 217.042 306.584C224.154 307.165 234.499 308.028 247.429 309.161C273.29 311.427 309.495 314.77 350.867 319.075C351.427 319.134 351.929 318.725 351.987 318.164ZM205.114 304.608C205.071 305.172 205.492 305.663 206.054 305.706L206.132 304.686L206.209 303.666C205.648 303.623 205.157 304.045 205.114 304.608Z" fill="white"/>
<path fill-rule="evenodd" clip-rule="evenodd" d="M350.792 318.804C351.202 318.904 351.616 318.651 351.716 318.239L368.946 247.145C369.023 246.825 368.888 246.491 368.61 246.315C336.379 225.934 292.307 224.546 256.42 228.196C238.456 230.023 222.499 233.117 211.033 235.754C205.3 237.073 200.688 238.278 197.507 239.153C195.917 239.591 194.685 239.947 193.849 240.193C193.431 240.316 193.113 240.412 192.898 240.478C192.791 240.51 192.709 240.535 192.655 240.552L192.593 240.571L192.572 240.578C192.571 240.578 192.571 240.578 192.799 241.311L192.571 240.578C192.194 240.696 191.968 241.082 192.05 241.469L205.384 304.845C205.471 305.259 205.877 305.524 206.29 305.437C206.704 305.349 206.968 304.942 206.881 304.528L193.692 241.841C193.858 241.791 194.055 241.732 194.281 241.665C195.108 241.422 196.332 241.068 197.913 240.633C201.074 239.763 205.665 238.563 211.375 237.25C222.796 234.623 238.689 231.541 256.574 229.722C292.212 226.098 335.591 227.505 367.328 247.32L350.229 317.877C350.129 318.289 350.381 318.703 350.792 318.804Z" fill="#37003D"/>
<path fill-rule="evenodd" clip-rule="evenodd" d="M338.844 303.641C339.241 303.72 339.63 303.474 339.732 303.081L352.606 253.431C352.692 253.099 352.548 252.75 352.253 252.576C324.642 236.306 290.371 235.121 263.092 237.963C249.439 239.385 237.506 241.819 228.985 243.897C224.725 244.937 221.316 245.888 218.97 246.579C217.798 246.925 216.89 247.206 216.276 247.401C215.968 247.499 215.734 247.574 215.576 247.626C215.497 247.652 215.437 247.672 215.396 247.685L215.35 247.701L215.335 247.706C215.334 247.706 215.334 247.706 215.578 248.433L215.334 247.706C214.98 247.826 214.763 248.184 214.822 248.554L222.277 295.611C222.339 296.001 222.685 296.28 223.078 296.256C253.146 294.461 282.091 296.307 303.524 298.603C314.239 299.751 323.072 301.012 329.226 301.984C332.303 302.471 334.709 302.885 336.345 303.178C337.164 303.325 337.789 303.441 338.21 303.52C338.42 303.559 338.579 303.59 338.685 303.61C338.738 303.621 338.778 303.628 338.804 303.633L338.841 303.641L338.843 303.641C338.843 303.641 338.844 303.641 338.991 302.888L338.844 303.641ZM338.431 302C338.008 301.921 337.398 301.808 336.614 301.668C334.969 301.373 332.552 300.957 329.464 300.469C323.289 299.492 314.43 298.229 303.686 297.078C282.366 294.793 253.611 292.951 223.68 294.684L216.436 248.96C216.527 248.931 216.627 248.899 216.737 248.864C217.343 248.672 218.24 248.394 219.402 248.051C221.727 247.366 225.112 246.422 229.347 245.388C237.818 243.322 249.682 240.902 263.25 239.489C290.249 236.677 323.874 237.862 350.979 253.607L338.431 302Z" fill="#37003D"/>
<path fill-rule="evenodd" clip-rule="evenodd" d="M192.57 242.043L215.35 249.166L215.806 247.701L193.026 240.578L192.57 242.043Z" fill="#37003D"/>
<path fill-rule="evenodd" clip-rule="evenodd" d="M367.926 246.247L351.59 252.521L352.137 253.954L368.473 247.68L367.926 246.247Z" fill="#37003D"/>
<path fill-rule="evenodd" clip-rule="evenodd" d="M338.391 303.365L350.371 318.534L351.571 317.582L339.59 302.412L338.391 303.365Z" fill="#37003D"/>
<path fill-rule="evenodd" clip-rule="evenodd" d="M205.46 305.052C205.662 305.425 206.126 305.563 206.497 305.361L223.399 296.165C223.77 295.963 223.908 295.497 223.706 295.125C223.505 294.752 223.04 294.614 222.669 294.816L205.768 304.012C205.396 304.214 205.258 304.68 205.46 305.052Z" fill="#37003D"/>
<path fill-rule="evenodd" clip-rule="evenodd" d="M350.831 257.414L350.938 257.376L350.854 257.135C350.938 257.376 350.938 257.376 350.938 257.376L350.938 257.376L351.07 257.33C351.156 257.3 351.284 257.256 351.448 257.199C351.776 257.085 352.249 256.922 352.831 256.723C353.995 256.325 355.592 255.785 357.327 255.215C360.803 254.074 364.815 252.822 367.006 252.357L366.901 251.856C364.677 252.328 360.639 253.59 357.169 254.729C355.431 255.299 353.831 255.84 352.666 256.239C352.084 256.438 351.61 256.602 351.281 256.715C351.117 256.772 350.989 256.817 350.902 256.847L350.876 256.856C322.013 241.176 288.321 239.9 261.856 242.538C248.606 243.858 237.158 246.161 229.024 248.133C224.956 249.12 221.716 250.024 219.492 250.681C218.381 251.01 217.523 251.277 216.943 251.462C216.652 251.555 216.432 251.627 216.283 251.676C216.219 251.697 216.168 251.714 216.132 251.726L216.046 251.703C215.941 251.676 215.786 251.635 215.586 251.582C215.187 251.477 214.607 251.325 213.885 251.137C212.441 250.762 210.431 250.245 208.165 249.678C203.634 248.544 198.074 247.207 193.969 246.399L193.871 246.901C197.962 247.706 203.512 249.04 208.042 250.174C210.306 250.741 212.315 251.258 213.757 251.632C214.478 251.82 215.058 251.972 215.457 252.077C215.656 252.129 215.811 252.17 215.916 252.198L216.075 252.24C216.075 252.24 216.075 252.24 216.14 251.993C216.222 252.235 216.223 252.235 216.223 252.235L216.236 252.231L216.277 252.217C216.314 252.204 216.369 252.186 216.443 252.162C216.59 252.113 216.809 252.042 217.097 251.95C217.674 251.765 218.528 251.499 219.637 251.172C221.853 250.516 225.085 249.615 229.143 248.631C237.261 246.662 248.685 244.365 261.907 243.047C288.358 240.411 321.977 241.7 350.732 257.36L350.831 257.414ZM216.14 251.993L216.222 252.235L216.149 252.26L216.075 252.24L216.14 251.993Z" fill="#37003D"/>
<path fill-rule="evenodd" clip-rule="evenodd" d="M350.043 260.405L350.129 260.387L350.075 260.137C350.129 260.387 350.129 260.387 350.129 260.387L350.129 260.387L350.244 260.362C350.32 260.346 350.432 260.322 350.576 260.291C350.865 260.23 351.283 260.142 351.802 260.035C352.839 259.82 354.278 259.527 355.883 259.217C359.097 258.597 362.967 257.907 365.62 257.625L365.567 257.116C362.889 257.401 359 258.094 355.787 258.715C354.179 259.026 352.738 259.319 351.699 259.534C351.179 259.641 350.76 259.73 350.47 259.791C350.326 259.822 350.214 259.846 350.137 259.862L350.107 259.868C320.087 245.258 286.698 244.191 260.822 246.771C247.87 248.063 236.794 250.269 228.956 252.152C225.036 253.094 221.926 253.955 219.795 254.581C218.729 254.894 217.908 255.148 217.354 255.324C217.076 255.412 216.865 255.48 216.724 255.527C216.659 255.548 216.609 255.565 216.574 255.576C216.545 255.571 216.507 255.563 216.46 255.554C216.342 255.53 216.168 255.496 215.945 255.453C215.498 255.366 214.855 255.242 214.066 255.095C212.488 254.8 210.327 254.412 207.997 254.036C203.35 253.286 197.987 252.577 195.244 252.777L195.281 253.287C197.952 253.092 203.253 253.788 207.916 254.541C210.241 254.916 212.397 255.304 213.973 255.598C214.76 255.744 215.402 255.868 215.847 255.955C216.07 255.998 216.243 256.032 216.361 256.055C216.42 256.067 216.465 256.076 216.495 256.082L216.54 256.091C216.54 256.091 216.54 256.091 216.59 255.84C216.672 256.083 216.672 256.083 216.673 256.082L216.675 256.082L216.685 256.078L216.724 256.065C216.76 256.053 216.812 256.036 216.882 256.013C217.023 255.967 217.232 255.899 217.508 255.811C218.059 255.636 218.876 255.383 219.938 255.071C222.062 254.448 225.164 253.589 229.075 252.649C236.896 250.77 247.948 248.569 260.872 247.28C286.725 244.702 320.042 245.779 349.963 260.367L350.043 260.405ZM216.59 255.84L216.672 256.083L216.607 256.105L216.54 256.091L216.59 255.84Z" fill="#37003D"/>
<path fill-rule="evenodd" clip-rule="evenodd" d="M349.013 264.365L349.09 264.352L349.047 264.1C349.09 264.352 349.09 264.352 349.09 264.352L349.199 264.334C349.271 264.321 349.378 264.304 349.515 264.281C349.79 264.235 350.19 264.169 350.687 264.09C351.683 263.93 353.07 263.715 354.639 263.49C357.779 263.04 361.638 262.554 364.533 262.405L364.507 261.894C361.587 262.044 357.709 262.533 354.567 262.984C352.995 263.209 351.604 263.425 350.607 263.585C350.108 263.665 349.708 263.73 349.432 263.776C349.294 263.799 349.187 263.817 349.115 263.829L349.082 263.835C318.927 250.033 285.939 248.751 260.495 250.916C247.761 252 236.912 253.947 229.245 255.623C225.412 256.462 222.374 257.232 220.293 257.794C219.253 258.074 218.452 258.303 217.911 258.461C217.641 258.54 217.435 258.602 217.297 258.644C217.228 258.665 217.176 258.681 217.141 258.691L217.131 258.694L216.983 258.687C216.856 258.68 216.67 258.671 216.432 258.66C215.955 258.637 215.271 258.605 214.439 258.569C212.775 258.498 210.519 258.411 208.153 258.35C205.787 258.289 203.31 258.253 201.202 258.284C199.104 258.315 197.344 258.411 196.434 258.623L196.549 259.121C197.397 258.924 199.101 258.826 201.209 258.796C203.307 258.765 205.777 258.8 208.14 258.861C210.502 258.922 212.755 259.009 214.417 259.08C215.248 259.116 215.932 259.148 216.407 259.171C216.645 259.182 216.831 259.191 216.957 259.198L217.15 259.207C217.15 259.207 217.15 259.207 217.163 258.952C217.24 259.196 217.24 259.196 217.24 259.196L217.252 259.192L217.291 259.18C217.325 259.17 217.376 259.154 217.445 259.133C217.581 259.092 217.785 259.031 218.054 258.952C218.592 258.795 219.389 258.567 220.426 258.288C222.499 257.728 225.529 256.96 229.354 256.123C237.004 254.45 247.831 252.507 260.538 251.426C285.958 249.263 318.879 250.551 348.941 264.333L349.013 264.365ZM217.163 258.952L217.24 259.196L217.196 259.21L217.15 259.207L217.163 258.952Z" fill="#37003D"/>
<path fill-rule="evenodd" clip-rule="evenodd" d="M347.929 268.474L347.998 268.468L347.98 268.213L347.867 268.443L347.929 268.474ZM348.03 267.953L348.057 267.951C348.119 267.947 348.212 267.94 348.333 267.932C348.575 267.914 348.928 267.89 349.373 267.859C350.264 267.798 351.523 267.715 352.999 267.626C355.951 267.447 359.771 267.242 363.24 267.139L363.255 267.65C359.793 267.753 355.979 267.957 353.03 268.136C351.555 268.226 350.297 268.309 349.408 268.37C348.963 268.4 348.611 268.425 348.369 268.442C348.249 268.45 348.156 268.457 348.093 268.462L347.998 268.468C347.998 268.468 347.998 268.468 347.98 268.213C347.867 268.443 347.866 268.443 347.866 268.442L347.864 268.442L347.857 268.438L347.829 268.424C347.803 268.412 347.764 268.393 347.713 268.368C347.61 268.319 347.455 268.246 347.249 268.151C346.839 267.961 346.225 267.686 345.417 267.342C343.8 266.654 341.403 265.694 338.287 264.606C332.056 262.429 322.951 259.74 311.462 257.695C288.484 253.605 255.97 252.091 217.836 262.399L217.81 262.406L217.782 262.407L217.77 262.152C217.782 262.407 217.783 262.407 217.782 262.407L217.589 262.417C217.463 262.424 217.277 262.433 217.039 262.446C216.564 262.471 215.881 262.509 215.053 262.557C213.395 262.654 211.155 262.794 208.821 262.969C206.487 263.144 204.062 263.352 202.035 263.586C199.994 263.821 198.392 264.078 197.677 264.34L197.502 263.86C198.284 263.573 199.953 263.311 201.977 263.078C204.014 262.843 206.447 262.634 208.783 262.459C211.121 262.284 213.364 262.143 215.023 262.046C215.852 261.998 216.536 261.961 217.012 261.935C217.25 261.922 217.436 261.913 217.563 261.906L217.73 261.898C255.937 251.575 288.518 253.092 311.551 257.191C323.07 259.242 332.202 261.938 338.455 264.122C341.582 265.215 343.989 266.179 345.616 266.871C346.429 267.217 347.047 267.495 347.463 267.686C347.67 267.782 347.827 267.856 347.933 267.907C347.972 267.926 348.005 267.941 348.03 267.953Z" fill="#37003D"/>
<path fill-rule="evenodd" clip-rule="evenodd" d="M352.285 272.186C355.291 272.23 359.044 272.33 362.043 272.551L362.08 272.041C359.066 271.819 355.301 271.719 352.293 271.675C350.788 271.653 349.471 271.645 348.531 271.642C348.06 271.641 347.684 271.641 347.425 271.641C347.296 271.641 347.196 271.642 347.128 271.642L347.074 271.642C314.834 258.898 282.652 257.47 258.532 259.227C246.465 260.106 236.413 261.782 229.377 263.238C225.859 263.967 223.095 264.64 221.209 265.132C220.266 265.378 219.543 265.578 219.055 265.717C218.811 265.786 218.626 265.841 218.502 265.878C218.44 265.896 218.393 265.91 218.361 265.92L218.332 265.929L218.197 265.949C218.096 265.964 217.948 265.987 217.757 266.016C217.376 266.074 216.825 266.159 216.144 266.265C214.783 266.478 212.906 266.775 210.839 267.115C206.707 267.795 201.812 268.648 198.779 269.335L198.892 269.834C201.908 269.151 206.789 268.3 210.921 267.62C212.986 267.28 214.863 266.983 216.223 266.771C216.903 266.665 217.454 266.58 217.834 266.522C218.025 266.492 218.173 266.47 218.273 266.455L218.426 266.432C218.426 266.432 218.426 266.432 218.388 266.179C218.463 266.423 218.463 266.423 218.463 266.423L218.465 266.422L218.474 266.42L218.508 266.409C218.539 266.4 218.585 266.386 218.646 266.368C218.769 266.332 218.952 266.278 219.195 266.209C219.679 266.071 220.398 265.872 221.337 265.627C223.215 265.137 225.971 264.466 229.48 263.739C236.499 262.286 246.528 260.614 258.569 259.737C282.652 257.983 314.77 259.413 346.933 272.136L346.978 272.154L347.028 272.154L347.026 271.898C347.028 272.154 347.028 272.154 347.028 272.154L347.13 272.153C347.197 272.153 347.297 272.153 347.426 272.153C347.684 272.152 348.06 272.152 348.529 272.154C349.468 272.156 350.783 272.164 352.285 272.186ZM218.388 266.179L218.463 266.423L218.445 266.429L218.426 266.432L218.388 266.179Z" fill="#37003D"/>
<path fill-rule="evenodd" clip-rule="evenodd" d="M350.03 276.56C352.601 276.925 356.285 277.411 360.739 277.897L360.794 277.388C356.346 276.903 352.668 276.418 350.102 276.054C348.819 275.872 347.814 275.72 347.13 275.613C346.788 275.56 346.526 275.519 346.35 275.49C346.262 275.476 346.195 275.465 346.15 275.458L346.108 275.451C312.704 262.931 280.92 261.558 257.489 263.314C245.769 264.193 236.138 265.854 229.434 267.296C226.082 268.017 223.463 268.683 221.68 269.169C220.789 269.413 220.106 269.611 219.647 269.748C219.417 269.817 219.243 269.871 219.126 269.907C219.067 269.925 219.023 269.939 218.993 269.949L218.963 269.958L218.952 269.96L218.877 269.975C218.81 269.989 218.712 270.008 218.582 270.035C218.324 270.087 217.943 270.166 217.454 270.27C216.476 270.478 215.062 270.788 213.322 271.196C209.842 272.012 205.053 273.221 199.82 274.792L199.967 275.282C205.187 273.715 209.965 272.508 213.438 271.694C215.175 271.287 216.584 270.977 217.56 270.77C218.048 270.666 218.427 270.588 218.684 270.536C218.812 270.51 218.91 270.49 218.976 270.477L219.05 270.462L219.075 270.458C219.075 270.458 219.075 270.458 219.026 270.206C219.105 270.45 219.105 270.45 219.105 270.45L219.107 270.449L219.115 270.447L219.147 270.436C219.176 270.427 219.22 270.413 219.277 270.395C219.392 270.36 219.565 270.307 219.793 270.238C220.248 270.102 220.927 269.905 221.814 269.663C223.588 269.179 226.199 268.515 229.541 267.796C236.225 266.358 245.834 264.701 257.527 263.824C280.913 262.072 312.627 263.444 345.952 275.939L345.975 275.947L346 275.951L346.042 275.699C346 275.951 346 275.951 346 275.951L346.017 275.954L346.068 275.963C346.113 275.97 346.18 275.981 346.269 275.995C346.446 276.024 346.709 276.066 347.052 276.119C347.738 276.226 348.745 276.378 350.03 276.56ZM219.026 270.206L219.105 270.45L219.09 270.455L219.075 270.458L219.026 270.206Z" fill="#37003D"/>
<path fill-rule="evenodd" clip-rule="evenodd" d="M350.206 281.014C353.18 281.569 356.828 282.258 359.529 282.792L359.628 282.291C356.924 281.755 353.274 281.066 350.3 280.511C348.813 280.234 347.495 279.99 346.548 279.815C346.075 279.728 345.695 279.658 345.433 279.609L345.048 279.539L345.023 279.53C344.993 279.519 344.948 279.502 344.888 279.481C344.769 279.439 344.592 279.376 344.358 279.296C343.891 279.134 343.198 278.9 342.293 278.608C340.484 278.024 337.829 277.209 334.445 276.287C327.677 274.442 317.988 272.165 306.306 270.432C282.943 266.968 251.593 265.684 219.664 274.413L219.663 274.413L219.732 274.66C219.663 274.413 219.663 274.413 219.663 274.413L219.662 274.413L219.548 274.446C219.473 274.467 219.361 274.498 219.216 274.539C218.926 274.621 218.502 274.742 217.968 274.894C216.898 275.199 215.386 275.633 213.612 276.149C210.064 277.18 205.47 278.541 201.287 279.857L201.44 280.345C205.618 279.031 210.208 277.671 213.754 276.64C215.527 276.124 217.039 275.691 218.107 275.386C218.641 275.234 219.065 275.114 219.354 275.032C219.499 274.991 219.611 274.959 219.686 274.938L219.799 274.906C251.636 266.202 282.911 267.481 306.231 270.938C317.891 272.667 327.559 274.94 334.311 276.781C337.687 277.701 340.334 278.513 342.137 279.095C343.038 279.385 343.728 279.619 344.192 279.779C344.424 279.859 344.6 279.921 344.718 279.963C344.776 279.984 344.821 280 344.85 280.011L344.883 280.023L344.893 280.026C344.894 280.027 344.894 280.027 344.981 279.786C344.935 280.038 344.935 280.038 344.936 280.038L345.341 280.112C345.603 280.161 345.983 280.231 346.456 280.318C347.402 280.493 348.72 280.737 350.206 281.014ZM344.981 279.786L344.936 280.038L344.914 280.034L344.894 280.027L344.981 279.786Z" fill="#37003D"/>
<path fill-rule="evenodd" clip-rule="evenodd" d="M344.321 303.671C346.898 306.082 350.078 309.05 352.487 311.274L352.833 310.898C350.425 308.675 347.246 305.708 344.669 303.297C343.381 302.091 342.242 301.024 341.427 300.259C341.019 299.876 340.691 299.569 340.466 299.357L340.123 299.035L340.118 299.031L340.117 299.03C340.117 299.03 340.117 299.03 340.091 299.057L340.117 299.03L340.067 298.983L340.001 298.967C312.899 292.534 283.558 291.03 260.999 291.133C249.718 291.185 240.13 291.639 233.362 292.08C229.977 292.3 227.298 292.517 225.464 292.679C224.548 292.76 223.842 292.827 223.366 292.875C223.128 292.898 222.947 292.916 222.825 292.929C222.764 292.935 222.719 292.94 222.688 292.943L222.642 292.948C222.642 292.948 222.641 292.948 222.669 293.203L222.641 292.948L222.596 292.953L205.4 301.527L205.628 301.985L222.741 293.452C222.772 293.449 222.817 293.444 222.878 293.438C222.998 293.425 223.178 293.407 223.416 293.384C223.891 293.337 224.594 293.27 225.509 293.189C227.339 293.027 230.015 292.81 233.395 292.59C240.155 292.15 249.732 291.697 261.001 291.645C283.523 291.542 312.79 293.042 339.818 299.449L340.117 299.731C340.343 299.942 340.67 300.25 341.078 300.632C341.894 301.398 343.032 302.465 344.321 303.671Z" fill="#37003D"/>
<path fill-rule="evenodd" clip-rule="evenodd" d="M345.745 299.332C348.592 300.975 351.991 302.966 354.207 304.365L354.479 303.932C352.253 302.527 348.847 300.531 345.999 298.888C344.575 298.067 343.29 297.333 342.36 296.804C341.896 296.54 341.52 296.327 341.261 296.18C341.183 296.136 341.116 296.098 341.06 296.067L340.859 295.953L340.858 295.952C340.858 295.952 340.858 295.952 340.732 296.175C340.801 295.928 340.8 295.928 340.8 295.928L340.791 295.926L340.761 295.917C340.735 295.91 340.696 295.9 340.644 295.886C340.541 295.858 340.387 295.817 340.184 295.763C339.778 295.657 339.173 295.502 338.382 295.308C336.798 294.92 334.463 294.377 331.458 293.752C325.447 292.502 316.753 290.928 306.015 289.631C284.539 287.036 254.883 285.546 222.164 289.966L222.127 289.971L204.635 297.835L204.843 298.302L222.268 290.468C254.92 286.061 284.517 287.549 305.954 290.139C316.676 291.434 325.356 293.006 331.354 294.253C334.354 294.876 336.682 295.419 338.261 295.805C339.05 295.998 339.651 296.153 340.055 296.258C340.257 296.311 340.41 296.352 340.512 296.38C340.563 296.393 340.601 296.404 340.626 296.411L340.635 296.413L340.711 296.456C340.78 296.495 340.88 296.552 341.01 296.625C341.269 296.772 341.644 296.985 342.109 297.249C343.037 297.777 344.322 298.511 345.745 299.332ZM340.732 296.175L340.801 295.928L340.831 295.937L340.858 295.952L340.732 296.175Z" fill="#37003D"/>
<path fill-rule="evenodd" clip-rule="evenodd" d="M347.253 294.597C350.239 296.018 353.691 297.699 355.581 298.752L355.829 298.305C353.922 297.243 350.455 295.555 347.472 294.135C345.979 293.425 344.605 292.781 343.604 292.314C343.104 292.081 342.697 291.892 342.415 291.761C342.274 291.696 342.164 291.645 342.089 291.61L341.977 291.559L341.976 291.558L341.976 291.558C341.975 291.558 341.975 291.558 341.869 291.79C341.945 291.546 341.945 291.546 341.944 291.546L341.943 291.546L341.936 291.543L341.911 291.536C341.898 291.532 341.881 291.526 341.861 291.52C341.846 291.516 341.829 291.511 341.81 291.505C341.721 291.478 341.588 291.438 341.412 291.387C341.06 291.284 340.534 291.135 339.838 290.948C338.447 290.574 336.378 290.05 333.661 289.449C328.227 288.246 320.204 286.734 309.839 285.493C289.109 283.012 259.012 281.615 221.533 285.953L221.494 285.958L221.458 285.974L221.562 286.207C221.458 285.974 221.458 285.974 221.458 285.974L221.457 285.974L221.011 286.176C220.721 286.306 220.298 286.497 219.768 286.737C218.706 287.216 217.212 287.892 215.482 288.677C212.02 290.247 207.612 292.254 203.826 294.002L204.04 294.467C207.824 292.719 212.231 290.713 215.692 289.143C217.422 288.358 218.916 287.683 219.977 287.203C220.508 286.963 220.93 286.773 221.22 286.642L221.631 286.457C259.048 282.13 289.091 283.525 309.778 286.001C320.126 287.24 328.132 288.749 333.551 289.948C336.26 290.548 338.322 291.07 339.706 291.442C340.398 291.628 340.921 291.776 341.27 291.878C341.444 291.929 341.575 291.968 341.663 291.995C341.706 292.008 341.739 292.018 341.761 292.024L341.777 292.03L341.965 292.116C342.029 292.146 342.108 292.182 342.201 292.225C342.482 292.356 342.889 292.545 343.389 292.778C344.389 293.244 345.762 293.888 347.253 294.597ZM341.869 291.79L341.945 291.546L341.961 291.551L341.976 291.558L341.869 291.79Z" fill="#37003D"/>
<path fill-rule="evenodd" clip-rule="evenodd" d="M347.819 289.549C350.65 290.537 354.191 291.795 357.042 292.876L357.222 292.397C354.365 291.314 350.818 290.054 347.987 289.066C346.571 288.571 345.334 288.144 344.45 287.841C344.009 287.69 343.655 287.569 343.413 287.486C343.291 287.445 343.197 287.413 343.134 287.391L343.039 287.359L343.037 287.358C343.037 287.358 343.037 287.358 342.955 287.601L343.037 287.358L343.036 287.358L342.956 287.599C343.036 287.358 343.036 287.358 343.035 287.358L343.033 287.357L343.026 287.355L342.999 287.346C342.974 287.338 342.938 287.326 342.89 287.31C342.793 287.279 342.649 287.233 342.458 287.173C342.077 287.055 341.508 286.882 340.76 286.666C339.263 286.235 337.044 285.632 334.156 284.943C328.379 283.565 319.922 281.844 309.196 280.469C287.743 277.719 257.209 276.354 220.88 281.89L220.851 281.895L220.824 281.905L220.918 282.143C220.824 281.905 220.825 281.905 220.824 281.905L220.791 281.919L220.694 281.957C220.608 281.992 220.481 282.042 220.318 282.108C219.992 282.239 219.519 282.431 218.931 282.672C217.756 283.153 216.123 283.833 214.29 284.624C210.628 286.205 206.162 288.235 202.969 290.022L203.217 290.469C206.386 288.695 210.832 286.674 214.492 285.094C216.321 284.304 217.951 283.626 219.124 283.145C219.711 282.905 220.183 282.714 220.508 282.583C220.671 282.517 220.797 282.467 220.882 282.433L220.979 282.394L220.985 282.392C257.248 276.869 287.722 278.232 309.131 280.976C319.838 282.349 328.277 284.067 334.038 285.441C336.918 286.128 339.129 286.729 340.619 287.158C341.364 287.373 341.929 287.544 342.307 287.662C342.496 287.721 342.638 287.766 342.733 287.797C342.781 287.812 342.816 287.824 342.84 287.832L342.866 287.84L342.874 287.843L342.874 287.843L342.875 287.843L342.97 287.876C343.033 287.897 343.127 287.929 343.248 287.97C343.491 288.053 343.844 288.174 344.285 288.325C345.168 288.628 346.405 289.055 347.819 289.549Z" fill="#37003D"/>
<path fill-rule="evenodd" clip-rule="evenodd" d="M349.246 285.103C352.199 285.918 355.788 286.917 358.331 287.652L358.473 287.16C355.926 286.424 352.335 285.425 349.381 284.61C347.905 284.202 346.587 283.841 345.638 283.581C345.164 283.451 344.782 283.347 344.519 283.275L344.119 283.166L344.117 283.165L344.087 283.154C344.06 283.145 344.019 283.131 343.966 283.113C343.859 283.076 343.7 283.023 343.49 282.954C343.069 282.815 342.444 282.614 341.624 282.363C339.984 281.862 337.567 281.161 334.451 280.365C328.219 278.773 319.194 276.797 308.017 275.262C285.663 272.192 254.695 270.884 220.241 277.933L220.221 277.937L220.202 277.944L220.292 278.183C220.202 277.944 220.202 277.944 220.202 277.944L218.498 278.594C217.424 279.004 215.906 279.582 214.127 280.26C210.569 281.615 205.971 283.365 201.809 284.943L201.989 285.422C206.152 283.843 210.75 282.093 214.308 280.738C216.087 280.061 217.606 279.482 218.68 279.072L220.364 278.43C254.739 271.4 285.639 272.705 307.947 275.769C319.103 277.301 328.109 279.272 334.325 280.861C337.432 281.655 339.843 282.353 341.475 282.852C342.291 283.102 342.913 283.302 343.33 283.44C343.539 283.508 343.697 283.561 343.802 283.597C343.854 283.615 343.894 283.629 343.92 283.638L343.95 283.648L343.957 283.651L343.959 283.651C343.959 283.651 343.959 283.651 344.043 283.41C343.977 283.657 343.977 283.657 343.977 283.657L344.385 283.768C344.648 283.84 345.03 283.944 345.504 284.074C346.452 284.334 347.77 284.695 349.246 285.103ZM344.043 283.41L343.977 283.657L343.968 283.654L343.959 283.651L344.043 283.41Z" fill="#37003D"/>
<path fill-rule="evenodd" clip-rule="evenodd" d="M341.721 306.095L355.064 251.976L354.89 251.882C322.55 234.343 286.551 233.25 258.654 236.534C244.703 238.176 232.772 240.913 224.328 243.239C220.106 244.403 216.755 245.464 214.459 246.234C213.311 246.619 212.427 246.932 211.829 247.148C211.531 247.256 211.303 247.341 211.151 247.398C211.074 247.426 211.017 247.448 210.978 247.463L210.934 247.48L210.923 247.484L210.92 247.485C210.919 247.485 210.919 247.486 211.011 247.724C211.103 247.963 211.103 247.963 211.103 247.963L211.116 247.957L211.159 247.941C211.197 247.927 211.254 247.905 211.329 247.877C211.48 247.82 211.706 247.737 212.003 247.629C212.597 247.414 213.477 247.103 214.621 246.719C216.909 245.951 220.251 244.893 224.463 243.733C232.888 241.411 244.793 238.68 258.713 237.042C286.508 233.77 322.308 234.859 354.474 252.238L341.226 305.972L341.721 306.095Z" fill="#37003D"/>
<path fill-rule="evenodd" clip-rule="evenodd" d="M363.898 248.613L347.309 313.67L347.803 313.796L364.479 248.4L364.338 248.298L364.188 248.505C364.338 248.298 364.337 248.298 364.337 248.297L364.335 248.296L364.327 248.29C364.32 248.285 364.31 248.278 364.297 248.269C364.271 248.25 364.231 248.223 364.179 248.187C364.075 248.115 363.92 248.009 363.713 247.873C363.298 247.602 362.677 247.208 361.847 246.72C360.188 245.744 357.693 244.388 354.348 242.866C347.657 239.821 337.563 236.109 323.936 233.431C296.68 228.077 255.3 226.864 198.765 243.394L198.539 243.46L210.627 302.156L211.127 302.053L199.134 243.819C255.48 227.379 296.703 228.603 323.838 233.933C337.424 236.603 347.48 240.302 354.137 243.332C357.466 244.846 359.944 246.194 361.589 247.162C362.412 247.645 363.026 248.034 363.433 248.302C363.637 248.435 363.789 248.539 363.89 248.608C363.893 248.61 363.895 248.612 363.898 248.613Z" fill="#37003D"/>
<path fill-rule="evenodd" clip-rule="evenodd" d="M220.068 297.196L211.129 246.919L210.627 247.009L219.565 297.286L220.068 297.196Z" fill="#37003D"/>
<path fill-rule="evenodd" clip-rule="evenodd" d="M344.471 309.579L360.038 250.044L359.867 249.947C327.845 231.876 289.225 230.717 258.636 234.062C243.338 235.735 230.039 238.536 220.565 240.919C215.827 242.111 212.045 243.198 209.447 243.987C208.148 244.382 207.145 244.702 206.467 244.924C206.127 245.034 205.869 245.121 205.695 245.179C205.609 245.209 205.543 245.231 205.499 245.246L205.449 245.263L205.433 245.269C205.432 245.269 205.432 245.269 205.516 245.511L205.432 245.269L205.225 245.341L215.327 299.594L215.829 299.5L205.807 245.681C205.823 245.676 205.84 245.67 205.858 245.664C206.03 245.606 206.287 245.52 206.625 245.41C207.3 245.189 208.3 244.87 209.595 244.476C212.186 243.689 215.96 242.604 220.689 241.415C230.146 239.037 243.421 236.241 258.691 234.571C289.184 231.236 327.594 232.395 359.445 250.296L343.977 309.45L344.471 309.579Z" fill="#37003D"/>
<path fill-rule="evenodd" clip-rule="evenodd" d="M220.16 247.119L227.093 295.294L227.598 295.221L220.631 246.808L205.649 237.639L205.383 238.076L220.16 247.119Z" fill="#37003D"/>
<path fill-rule="evenodd" clip-rule="evenodd" d="M225.475 245.623L231.843 295.087L232.349 295.022L225.961 245.398L216.688 235.152L216.311 235.496L225.475 245.623Z" fill="#37003D"/>
<path fill-rule="evenodd" clip-rule="evenodd" d="M236.977 294.884L231.709 244.07L231.201 244.122L236.469 294.937L236.977 294.884Z" fill="#37003D"/>
<path fill-rule="evenodd" clip-rule="evenodd" d="M237.332 242.79L241.218 294.834L241.727 294.796L237.836 242.69L234.331 231.894L233.846 232.053L237.332 242.79Z" fill="#37003D"/>
<path fill-rule="evenodd" clip-rule="evenodd" d="M247.274 294.752L243.724 241.293L243.215 241.327L246.765 294.786L247.274 294.752Z" fill="#37003D"/>
<path fill-rule="evenodd" clip-rule="evenodd" d="M249.945 240.451L252.584 294.264L253.094 294.239L250.453 240.407L249.131 229.789L248.625 229.852L249.945 240.451Z" fill="#37003D"/>
<path fill-rule="evenodd" clip-rule="evenodd" d="M257.087 239.419L258.086 294.773L258.596 294.764L257.597 239.392L256.704 228.942L256.195 228.986L257.087 239.419Z" fill="#37003D"/>
<path fill-rule="evenodd" clip-rule="evenodd" d="M265.072 238.512L264.266 295.051L264.776 295.058L265.582 238.512L265.582 228.183H265.072V238.512Z" fill="#37003D"/>
<path fill-rule="evenodd" clip-rule="evenodd" d="M273.704 237.853L271.457 295.481L271.967 295.501L274.214 237.863V227.666H273.704V237.853Z" fill="#37003D"/>
<path fill-rule="evenodd" clip-rule="evenodd" d="M282.708 237.509L279.092 295.761L279.601 295.793L283.217 237.544L283.217 237.54L283.976 227.401L283.467 227.363L282.708 237.505L282.708 237.509Z" fill="#37003D"/>
<path fill-rule="evenodd" clip-rule="evenodd" d="M285.738 296.212L286.246 296.258L291.465 237.884L292.704 227.412L292.197 227.352L290.958 237.831L285.738 296.212Z" fill="#37003D"/>
<path fill-rule="evenodd" clip-rule="evenodd" d="M292.199 296.729L292.706 296.788L299.475 238.066L301.21 227.864L300.707 227.778L298.97 237.994L292.199 296.729Z" fill="#37003D"/>
<path fill-rule="evenodd" clip-rule="evenodd" d="M298.207 297.209L298.713 297.273L306.07 238.709L308.462 228.449L307.965 228.332L305.567 238.619L298.207 297.209Z" fill="#37003D"/>
<path fill-rule="evenodd" clip-rule="evenodd" d="M303.705 298.032L304.21 298.106L312.715 239.655L316.315 229.39L315.834 229.22L312.217 239.532L303.705 298.032Z" fill="#37003D"/>
<path fill-rule="evenodd" clip-rule="evenodd" d="M309.457 298.489L309.961 298.568L319.056 240.851L323.818 230.606L323.356 230.39L318.563 240.7L309.457 298.489Z" fill="#37003D"/>
<path fill-rule="evenodd" clip-rule="evenodd" d="M315.1 299.187L315.603 299.267L324.682 242.188L330.973 232.101L330.541 231.83L324.195 242.005L315.1 299.187Z" fill="#37003D"/>
<path fill-rule="evenodd" clip-rule="evenodd" d="M320.43 299.9L320.933 299.982L330.127 243.737L336.994 233.619L336.572 233.331L329.642 243.543L320.43 299.9Z" fill="#37003D"/>
<path fill-rule="evenodd" clip-rule="evenodd" d="M325.836 300.682L326.339 300.767L335.672 245.614L335.961 245.227C336.169 244.948 336.465 244.551 336.821 244.074C337.532 243.12 338.48 241.848 339.426 240.576C340.373 239.303 341.318 238.03 342.025 237.074C342.378 236.596 342.671 236.197 342.875 235.917C342.977 235.777 343.058 235.666 343.112 235.589C343.139 235.551 343.161 235.52 343.176 235.497C343.183 235.486 343.191 235.474 343.198 235.463C343.2 235.459 343.207 235.447 343.214 235.432L343.214 235.431C343.217 235.426 343.227 235.404 343.233 235.374C343.235 235.356 343.237 235.304 343.232 235.272C343.214 235.217 343.131 235.116 343.065 235.082L342.9 235.566C342.834 235.532 342.751 235.431 342.733 235.377C342.728 235.345 342.729 235.293 342.732 235.275C342.738 235.246 342.747 235.226 342.749 235.221L342.749 235.221C342.753 235.214 342.755 235.208 342.757 235.206C342.758 235.204 342.759 235.202 342.759 235.201C342.759 235.201 342.758 235.204 342.752 235.212C342.741 235.229 342.723 235.255 342.696 235.293C342.644 235.367 342.565 235.475 342.464 235.615C342.26 235.894 341.968 236.292 341.615 236.769C340.909 237.725 339.964 238.997 339.017 240.27C338.071 241.542 337.123 242.814 336.412 243.768C336.056 244.245 335.76 244.642 335.553 244.92L335.227 245.357L335.227 245.357C335.226 245.357 335.226 245.357 335.431 245.511L335.227 245.357L335.189 245.407L325.836 300.682Z" fill="#37003D"/>
<path fill-rule="evenodd" clip-rule="evenodd" d="M330.508 301.527L331.009 301.622L341.219 247.85L350.896 238.296L350.538 237.932L340.748 247.598L330.508 301.527Z" fill="#37003D"/>
<path fill-rule="evenodd" clip-rule="evenodd" d="M335.182 301.52L335.68 301.629L346.782 250.497L360.163 242.544L359.903 242.104L346.33 250.171L335.182 301.52Z" fill="#37003D"/>
<path fill-rule="evenodd" clip-rule="evenodd" d="M225.422 233.591L231.227 244.988L231.681 244.756L225.876 233.358L225.422 233.591Z" fill="#37003D"/>
<path fill-rule="evenodd" clip-rule="evenodd" d="M241.223 230.866L243.218 242.141L243.72 242.052L241.725 230.777L241.223 230.866Z" fill="#37003D"/>
<path d="M69.1774 464.744C76.1243 477.48 94.4202 465.416 107.392 475.748C116.688 483.154 162.86 477.7 164.515 461.534C167.079 436.492 61.9004 451.399 69.1774 464.744Z" fill="#9BD537"/>
<path d="M119.5 328C269 361.5 376 369 376 369" stroke="white" stroke-width="2"/>
<mask id="path-58-inside-1" fill="white">
<path d="M185.455 432.509C185.232 437.013 184.26 441.488 182.569 445.677C181.445 448.467 179.997 451.116 178.225 453.571C178.043 453.824 177.85 454.088 177.658 454.332C177.253 454.868 176.838 455.387 176.392 455.904C176.18 456.158 175.957 456.411 175.724 456.655C175.056 457.405 174.337 458.126 173.587 458.826C173.142 459.232 172.686 459.628 172.22 460.013C172.008 460.195 171.795 460.368 171.572 460.541C171.309 460.744 171.046 460.946 170.783 461.149C168.525 462.834 166.013 464.173 163.431 465.279C155.584 468.647 146.825 470.037 138.4 468.678C137.965 468.606 137.53 468.525 137.094 468.434C137.033 468.434 136.973 468.414 136.912 468.403L135.94 468.191C135.363 468.057 134.796 467.906 134.218 467.744C133.783 467.622 133.358 467.49 132.922 467.348C132.902 467.348 132.882 467.338 132.862 467.328C132.426 467.186 131.991 467.034 131.555 466.882C131.069 466.699 130.573 466.517 130.097 466.314C129.682 466.141 129.277 465.968 128.872 465.796C128.426 465.593 127.981 465.38 127.535 465.167C127.1 464.954 126.665 464.731 126.239 464.497C125.804 464.274 125.379 464.031 124.963 463.787C124.548 463.544 124.123 463.29 123.718 463.037C123.303 462.773 122.898 462.509 122.493 462.235C122.159 462.012 121.835 461.789 121.511 461.555C121.409 461.474 121.308 461.403 121.207 461.332C120.842 461.068 120.478 460.794 120.123 460.51C119.759 460.226 119.404 459.932 119.05 459.638C118.604 459.252 118.159 458.867 117.734 458.471C117.146 457.933 116.569 457.375 116.022 456.797C115.719 456.482 115.425 456.168 115.141 455.844C114.979 455.661 114.807 455.478 114.655 455.286C114.179 454.728 113.714 454.159 113.278 453.581C113.096 453.346 112.914 453.104 112.742 452.861C112.732 452.839 112.711 452.82 112.701 452.8C112.509 452.536 112.326 452.272 112.144 451.998C111.952 451.714 111.77 451.43 111.587 451.146C111.506 451.024 111.435 450.892 111.354 450.771C111.142 450.436 110.939 450.091 110.747 449.736C110.716 449.685 110.686 449.624 110.656 449.573C110.453 449.218 110.261 448.863 110.089 448.498C110.048 448.427 110.008 448.356 109.977 448.285C109.785 447.899 109.603 447.513 109.431 447.128V447.118C109.268 446.763 109.117 446.408 108.975 446.043C108.934 445.952 108.904 445.86 108.863 445.759C108.701 445.343 108.55 444.937 108.408 444.511C108.408 444.501 108.398 444.48 108.398 444.469C108.286 444.135 108.175 443.791 108.084 443.445C108.033 443.283 107.983 443.111 107.942 442.938C107.861 442.644 107.78 442.35 107.709 442.035C107.669 441.873 107.628 441.7 107.598 441.528C107.527 441.193 107.456 440.858 107.395 440.513C107.365 440.351 107.345 440.189 107.324 440.026C107.253 439.661 107.203 439.286 107.162 438.91C106.808 435.785 106.737 432.802 106.95 429.952C106.97 429.627 107 429.303 107.031 428.978C107.081 428.451 107.142 427.923 107.213 427.395C107.253 427.121 107.294 426.847 107.334 426.584C107.334 426.563 107.345 426.543 107.345 426.533C107.385 426.239 107.436 425.944 107.496 425.65C107.598 425.092 107.709 424.524 107.841 423.976C107.891 423.723 107.952 423.479 108.023 423.236C108.408 421.693 108.894 420.192 109.471 418.731C110.392 416.428 111.537 414.237 112.924 412.146C113.116 411.842 113.329 411.548 113.531 411.254C113.734 410.959 113.947 410.665 114.169 410.381C114.382 410.087 114.605 409.803 114.828 409.519C115.152 409.103 115.486 408.697 115.84 408.291C116.043 408.048 116.255 407.804 116.478 407.561C116.64 407.368 116.812 407.184 116.984 407.003C117.187 406.78 117.389 406.566 117.602 406.353C117.916 406.029 118.24 405.704 118.564 405.39C118.837 405.126 119.111 404.862 119.394 404.598C120.994 403.117 122.746 401.696 124.65 400.336C136.112 392.15 151.787 391.764 164.525 397.039C170.124 399.363 174.61 402.934 177.962 407.297H177.972C182.265 412.887 184.726 419.746 185.343 426.827C185.516 428.714 185.546 430.611 185.455 432.509Z"/>
</mask>
<path d="M185.455 432.509C185.232 437.013 184.26 441.488 182.569 445.677C181.445 448.467 179.997 451.116 178.225 453.571C178.043 453.824 177.85 454.088 177.658 454.332C177.253 454.868 176.838 455.387 176.392 455.904C176.18 456.158 175.957 456.411 175.724 456.655C175.056 457.405 174.337 458.126 173.587 458.826C173.142 459.232 172.686 459.628 172.22 460.013C172.008 460.195 171.795 460.368 171.572 460.541C171.309 460.744 171.046 460.946 170.783 461.149C168.525 462.834 166.013 464.173 163.431 465.279C155.584 468.647 146.825 470.037 138.4 468.678C137.965 468.606 137.53 468.525 137.094 468.434C137.033 468.434 136.973 468.414 136.912 468.403L135.94 468.191C135.363 468.057 134.796 467.906 134.218 467.744C133.783 467.622 133.358 467.49 132.922 467.348C132.902 467.348 132.882 467.338 132.862 467.328C132.426 467.186 131.991 467.034 131.555 466.882C131.069 466.699 130.573 466.517 130.097 466.314C129.682 466.141 129.277 465.968 128.872 465.796C128.426 465.593 127.981 465.38 127.535 465.167C127.1 464.954 126.665 464.731 126.239 464.497C125.804 464.274 125.379 464.031 124.963 463.787C124.548 463.544 124.123 463.29 123.718 463.037C123.303 462.773 122.898 462.509 122.493 462.235C122.159 462.012 121.835 461.789 121.511 461.555C121.409 461.474 121.308 461.403 121.207 461.332C120.842 461.068 120.478 460.794 120.123 460.51C119.759 460.226 119.404 459.932 119.05 459.638C118.604 459.252 118.159 458.867 117.734 458.471C117.146 457.933 116.569 457.375 116.022 456.797C115.719 456.482 115.425 456.168 115.141 455.844C114.979 455.661 114.807 455.478 114.655 455.286C114.179 454.728 113.714 454.159 113.278 453.581C113.096 453.346 112.914 453.104 112.742 452.861C112.732 452.839 112.711 452.82 112.701 452.8C112.509 452.536 112.326 452.272 112.144 451.998C111.952 451.714 111.77 451.43 111.587 451.146C111.506 451.024 111.435 450.892 111.354 450.771C111.142 450.436 110.939 450.091 110.747 449.736C110.716 449.685 110.686 449.624 110.656 449.573C110.453 449.218 110.261 448.863 110.089 448.498C110.048 448.427 110.008 448.356 109.977 448.285C109.785 447.899 109.603 447.513 109.431 447.128V447.118C109.268 446.763 109.117 446.408 108.975 446.043C108.934 445.952 108.904 445.86 108.863 445.759C108.701 445.343 108.55 444.937 108.408 444.511C108.408 444.501 108.398 444.48 108.398 444.469C108.286 444.135 108.175 443.791 108.084 443.445C108.033 443.283 107.983 443.111 107.942 442.938C107.861 442.644 107.78 442.35 107.709 442.035C107.669 441.873 107.628 441.7 107.598 441.528C107.527 441.193 107.456 440.858 107.395 440.513C107.365 440.351 107.345 440.189 107.324 440.026C107.253 439.661 107.203 439.286 107.162 438.91C106.808 435.785 106.737 432.802 106.95 429.952C106.97 429.627 107 429.303 107.031 428.978C107.081 428.451 107.142 427.923 107.213 427.395C107.253 427.121 107.294 426.847 107.334 426.584C107.334 426.563 107.345 426.543 107.345 426.533C107.385 426.239 107.436 425.944 107.496 425.65C107.598 425.092 107.709 424.524 107.841 423.976C107.891 423.723 107.952 423.479 108.023 423.236C108.408 421.693 108.894 420.192 109.471 418.731C110.392 416.428 111.537 414.237 112.924 412.146C113.116 411.842 113.329 411.548 113.531 411.254C113.734 410.959 113.947 410.665 114.169 410.381C114.382 410.087 114.605 409.803 114.828 409.519C115.152 409.103 115.486 408.697 115.84 408.291C116.043 408.048 116.255 407.804 116.478 407.561C116.64 407.368 116.812 407.184 116.984 407.003C117.187 406.78 117.389 406.566 117.602 406.353C117.916 406.029 118.24 405.704 118.564 405.39C118.837 405.126 119.111 404.862 119.394 404.598C120.994 403.117 122.746 401.696 124.65 400.336C136.112 392.15 151.787 391.764 164.525 397.039C170.124 399.363 174.61 402.934 177.962 407.297H177.972C182.265 412.887 184.726 419.746 185.343 426.827C185.516 428.714 185.546 430.611 185.455 432.509Z" fill="white"/>
<path d="M182.569 445.677L182.445 445.628L182.445 445.627L182.569 445.677ZM178.225 453.571L178.117 453.493L178.117 453.493L178.225 453.571ZM177.658 454.332L177.552 454.251L177.553 454.249L177.658 454.332ZM176.392 455.904L176.29 455.819L176.291 455.817L176.392 455.904ZM175.724 456.655L175.624 456.566L175.628 456.563L175.724 456.655ZM173.587 458.826L173.678 458.924L173.677 458.925L173.587 458.826ZM172.22 460.013L172.134 459.912L172.135 459.91L172.22 460.013ZM171.572 460.541L171.654 460.646L171.654 460.646L171.572 460.541ZM170.783 461.149L170.864 461.255L170.862 461.256L170.783 461.149ZM163.431 465.279L163.379 465.156L163.379 465.156L163.431 465.279ZM138.4 468.678L138.379 468.809L138.379 468.809L138.4 468.678ZM137.094 468.434V468.301H137.108L137.122 468.303L137.094 468.434ZM136.912 468.403L136.889 468.535L136.883 468.534L136.912 468.403ZM135.94 468.191L135.911 468.321L135.91 468.32L135.94 468.191ZM134.218 467.744L134.254 467.616L134.255 467.616L134.218 467.744ZM132.922 467.348V467.215H132.943L132.964 467.222L132.922 467.348ZM132.862 467.328L132.903 467.201L132.912 467.204L132.92 467.208L132.862 467.328ZM131.555 466.882L131.511 467.007L131.508 467.006L131.555 466.882ZM130.097 466.314L130.148 466.19L130.149 466.191L130.097 466.314ZM128.872 465.796L128.82 465.919L128.817 465.917L128.872 465.796ZM127.535 465.167L127.478 465.287L127.477 465.287L127.535 465.167ZM126.239 464.497L126.3 464.379L126.303 464.38L126.239 464.497ZM124.963 463.787L125.031 463.672L125.031 463.672L124.963 463.787ZM123.718 463.037L123.647 463.15L123.646 463.149L123.718 463.037ZM122.493 462.235L122.567 462.124L122.567 462.125L122.493 462.235ZM121.511 461.555L121.433 461.663L121.427 461.659L121.511 461.555ZM121.207 461.332L121.13 461.441L121.129 461.44L121.207 461.332ZM120.123 460.51L120.205 460.405L120.207 460.406L120.123 460.51ZM119.05 459.638L118.965 459.74L118.963 459.739L119.05 459.638ZM117.734 458.471L117.824 458.373L117.824 458.373L117.734 458.471ZM116.022 456.797L116.118 456.704L116.119 456.705L116.022 456.797ZM115.141 455.844L115.241 455.755L115.242 455.756L115.141 455.844ZM114.655 455.286L114.757 455.199L114.76 455.203L114.655 455.286ZM113.278 453.581L113.384 453.499L113.385 453.501L113.278 453.581ZM112.742 452.861L112.633 452.937L112.626 452.928L112.621 452.918L112.742 452.861ZM112.701 452.8L112.809 452.721L112.815 452.73L112.82 452.74L112.701 452.8ZM112.144 451.998L112.255 451.923L112.255 451.924L112.144 451.998ZM111.587 451.146L111.698 451.072L111.7 451.074L111.587 451.146ZM111.354 450.771L111.243 450.845L111.242 450.842L111.354 450.771ZM110.747 449.736L110.861 449.667L110.864 449.672L110.747 449.736ZM110.656 449.573L110.541 449.642L110.54 449.64L110.656 449.573ZM110.089 448.498L110.205 448.432L110.209 448.441L110.089 448.498ZM109.977 448.285L110.097 448.225L110.1 448.233L109.977 448.285ZM109.431 447.128L109.309 447.183L109.297 447.157V447.128H109.431ZM109.431 447.118L109.552 447.063L109.564 447.089V447.118H109.431ZM108.975 446.043L109.097 445.989L109.099 445.995L108.975 446.043ZM108.863 445.759L108.74 445.808L108.739 445.807L108.863 445.759ZM108.408 444.511L108.281 444.553L108.274 444.532V444.511H108.408ZM108.398 444.469L108.524 444.427L108.531 444.447V444.469H108.398ZM108.084 443.445L108.211 443.406L108.213 443.411L108.084 443.445ZM107.942 442.938L108.071 442.903L108.072 442.908L107.942 442.938ZM107.709 442.035L107.839 442.003L107.839 442.006L107.709 442.035ZM107.598 441.528L107.728 441.5L107.729 441.505L107.598 441.528ZM107.395 440.513L107.526 440.489L107.527 440.49L107.395 440.513ZM107.324 440.026L107.456 440.001L107.457 440.01L107.324 440.026ZM107.162 438.91L107.295 438.895L107.295 438.896L107.162 438.91ZM106.95 429.952L107.083 429.96L107.083 429.962L106.95 429.952ZM107.031 428.978L106.898 428.966L106.898 428.965L107.031 428.978ZM107.213 427.395L107.081 427.377L107.081 427.376L107.213 427.395ZM107.334 426.584H107.468V426.594L107.466 426.604L107.334 426.584ZM107.345 426.533H107.211V426.524L107.213 426.515L107.345 426.533ZM107.496 425.65L107.628 425.674L107.627 425.677L107.496 425.65ZM107.841 423.976L107.972 424.002L107.97 424.007L107.841 423.976ZM108.023 423.236L108.152 423.268L108.151 423.273L108.023 423.236ZM109.471 418.731L109.347 418.682L109.347 418.681L109.471 418.731ZM112.924 412.146L113.037 412.218L113.035 412.22L112.924 412.146ZM113.531 411.254L113.641 411.329L113.641 411.329L113.531 411.254ZM114.169 410.381L114.277 410.459L114.274 410.463L114.169 410.381ZM114.828 409.519L114.933 409.601L114.932 409.601L114.828 409.519ZM115.84 408.291L115.943 408.376L115.941 408.379L115.84 408.291ZM116.478 407.561L116.58 407.647L116.576 407.651L116.478 407.561ZM116.984 407.003L117.083 407.092L117.081 407.094L116.984 407.003ZM117.602 406.353L117.698 406.446L117.696 406.448L117.602 406.353ZM118.564 405.39L118.471 405.294L118.471 405.294L118.564 405.39ZM119.394 404.598L119.303 404.501L119.304 404.5L119.394 404.598ZM124.65 400.336L124.572 400.228L124.572 400.228L124.65 400.336ZM164.525 397.039L164.576 396.916L164.576 396.916L164.525 397.039ZM177.962 407.297V407.43H177.896L177.856 407.378L177.962 407.297ZM177.972 407.297V407.164H178.038L178.078 407.216L177.972 407.297ZM185.343 426.827L185.211 426.839L185.211 426.839L185.343 426.827ZM185.588 432.515C185.364 437.035 184.389 441.523 182.693 445.727L182.445 445.627C184.131 441.452 185.1 436.992 185.322 432.502L185.588 432.515ZM182.693 445.727C181.565 448.527 180.112 451.185 178.333 453.649L178.117 453.493C179.882 451.047 181.325 448.408 182.445 445.628L182.693 445.727ZM178.333 453.649C178.151 453.902 177.957 454.168 177.763 454.414L177.553 454.249C177.744 454.008 177.935 453.746 178.117 453.493L178.333 453.649ZM177.764 454.412C177.358 454.951 176.941 455.472 176.493 455.991L176.291 455.817C176.735 455.302 177.148 454.786 177.552 454.251L177.764 454.412ZM176.494 455.99C176.28 456.245 176.056 456.501 175.82 456.747L175.628 456.563C175.858 456.322 176.079 456.071 176.29 455.819L176.494 455.99ZM175.823 456.744C175.152 457.497 174.43 458.222 173.678 458.924L173.496 458.729C174.243 458.031 174.959 457.312 175.624 456.566L175.823 456.744ZM173.677 458.925C173.23 459.332 172.773 459.729 172.305 460.116L172.135 459.91C172.6 459.526 173.054 459.132 173.498 458.728L173.677 458.925ZM172.307 460.115C172.093 460.297 171.879 460.472 171.654 460.646L171.491 460.435C171.712 460.264 171.923 460.092 172.134 459.912L172.307 460.115ZM171.654 460.646C171.522 460.748 171.391 460.849 171.259 460.951C171.127 461.052 170.996 461.153 170.864 461.255L170.701 461.044C170.833 460.942 170.964 460.841 171.096 460.739C171.228 460.638 171.359 460.536 171.491 460.435L171.654 460.646ZM170.862 461.256C168.594 462.949 166.073 464.292 163.484 465.401L163.379 465.156C165.954 464.053 168.455 462.719 170.703 461.042L170.862 461.256ZM163.484 465.401C155.616 468.778 146.832 470.173 138.379 468.809L138.422 468.546C146.818 469.901 155.551 468.516 163.379 465.156L163.484 465.401ZM138.379 468.809C137.942 468.738 137.504 468.656 137.067 468.564L137.122 468.303C137.555 468.395 137.988 468.475 138.422 468.546L138.379 468.809ZM137.094 468.567C137.05 468.567 137.009 468.56 136.976 468.553C136.938 468.545 136.917 468.54 136.889 468.535L136.934 468.272C136.967 468.278 137.008 468.287 137.03 468.292C137.058 468.298 137.078 468.301 137.094 468.301V468.567ZM136.883 468.534L135.911 468.321L135.968 468.06L136.94 468.273L136.883 468.534ZM135.91 468.32C135.33 468.187 134.761 468.035 134.182 467.872L134.255 467.616C134.831 467.778 135.395 467.928 135.97 468.061L135.91 468.32ZM134.183 467.872C133.745 467.75 133.318 467.617 132.881 467.475L132.964 467.222C133.398 467.363 133.821 467.495 134.254 467.616L134.183 467.872ZM132.922 467.482C132.864 467.482 132.813 467.453 132.803 467.448L132.92 467.208C132.926 467.211 132.93 467.213 132.933 467.215C132.937 467.216 132.938 467.217 132.939 467.217C132.941 467.218 132.934 467.215 132.922 467.215V467.482ZM132.82 467.455C132.383 467.312 131.947 467.16 131.511 467.007L131.599 466.756C132.035 466.908 132.469 467.06 132.903 467.201L132.82 467.455ZM131.508 467.006C131.024 466.825 130.524 466.641 130.045 466.436L130.149 466.191C130.622 466.392 131.115 466.574 131.602 466.757L131.508 467.006ZM130.046 466.437C129.63 466.264 129.225 466.091 128.82 465.919L128.924 465.673C129.329 465.846 129.734 466.018 130.148 466.19L130.046 466.437ZM128.817 465.917C128.37 465.714 127.923 465.501 127.478 465.287L127.593 465.047C128.039 465.26 128.483 465.472 128.927 465.675L128.817 465.917ZM127.477 465.287C127.04 465.073 126.603 464.849 126.175 464.614L126.303 464.38C126.727 464.613 127.16 464.835 127.594 465.047L127.477 465.287ZM126.178 464.616C125.74 464.391 125.312 464.146 124.896 463.902L125.031 463.672C125.445 463.916 125.868 464.157 126.3 464.379L126.178 464.616ZM124.896 463.902C124.48 463.659 124.054 463.404 123.647 463.15L123.789 462.924C124.192 463.176 124.616 463.429 125.031 463.672L124.896 463.902ZM123.646 463.149C123.23 462.885 122.824 462.62 122.418 462.346L122.567 462.125C122.971 462.398 123.375 462.661 123.79 462.924L123.646 463.149ZM122.419 462.346C122.083 462.122 121.758 461.898 121.433 461.663L121.588 461.447C121.911 461.679 122.234 461.902 122.567 462.124L122.419 462.346ZM121.427 461.659C121.33 461.581 121.232 461.512 121.13 461.441L121.283 461.223C121.384 461.294 121.489 461.367 121.594 461.451L121.427 461.659ZM121.129 461.44C120.763 461.176 120.396 460.9 120.04 460.615L120.207 460.406C120.559 460.689 120.922 460.961 121.285 461.224L121.129 461.44ZM120.041 460.616C119.675 460.33 119.319 460.034 118.965 459.74L119.135 459.535C119.49 459.83 119.843 460.123 120.205 460.405L120.041 460.616ZM118.963 459.739C118.518 459.353 118.07 458.966 117.643 458.569L117.824 458.373C118.248 458.767 118.691 459.151 119.137 459.537L118.963 459.739ZM117.644 458.569C117.055 458.03 116.475 457.47 115.926 456.889L116.119 456.705C116.663 457.281 117.238 457.837 117.824 458.373L117.644 458.569ZM115.926 456.89C115.622 456.574 115.326 456.258 115.041 455.931L115.242 455.756C115.523 456.078 115.815 456.391 116.118 456.705L115.926 456.89ZM115.042 455.932C114.883 455.753 114.706 455.565 114.551 455.368L114.76 455.203C114.909 455.392 115.076 455.568 115.241 455.755L115.042 455.932ZM114.554 455.372C114.077 454.813 113.609 454.242 113.172 453.661L113.385 453.501C113.818 454.076 114.282 454.642 114.757 455.199L114.554 455.372ZM113.173 453.663C112.99 453.427 112.806 453.183 112.633 452.937L112.851 452.784C113.021 453.025 113.202 453.266 113.384 453.499L113.173 453.663ZM112.621 452.918C112.623 452.921 112.623 452.922 112.622 452.92C112.621 452.918 112.619 452.916 112.615 452.911C112.612 452.906 112.606 452.899 112.601 452.891C112.596 452.884 112.588 452.873 112.582 452.86L112.82 452.74C112.819 452.737 112.818 452.736 112.819 452.738C112.821 452.741 112.823 452.743 112.827 452.749C112.834 452.757 112.85 452.778 112.862 452.804L112.621 452.918ZM112.593 452.878C112.4 452.613 112.216 452.347 112.033 452.072L112.255 451.924C112.437 452.197 112.618 452.459 112.809 452.721L112.593 452.878ZM112.034 452.073C111.84 451.787 111.657 451.502 111.475 451.218L111.7 451.074C111.882 451.358 112.063 451.641 112.255 451.923L112.034 452.073ZM111.476 451.22C111.434 451.156 111.394 451.09 111.356 451.027C111.318 450.963 111.282 450.902 111.243 450.845L111.465 450.697C111.508 450.761 111.548 450.827 111.585 450.89C111.623 450.954 111.66 451.014 111.698 451.072L111.476 451.22ZM111.242 450.842C111.028 450.505 110.823 450.157 110.63 449.799L110.864 449.672C111.055 450.025 111.256 450.367 111.467 450.699L111.242 450.842ZM110.632 449.804C110.616 449.776 110.599 449.746 110.584 449.718C110.569 449.69 110.555 449.665 110.541 449.642L110.77 449.505C110.787 449.533 110.803 449.563 110.818 449.591C110.834 449.619 110.848 449.644 110.861 449.667L110.632 449.804ZM110.54 449.64C110.337 449.283 110.142 448.924 109.968 448.555L110.209 448.441C110.379 448.802 110.57 449.154 110.772 449.507L110.54 449.64ZM109.973 448.564C109.933 448.494 109.889 448.417 109.855 448.338L110.1 448.233C110.127 448.295 110.163 448.36 110.204 448.432L109.973 448.564ZM109.858 448.345C109.665 447.957 109.482 447.569 109.309 447.183L109.552 447.074C109.724 447.457 109.905 447.842 110.097 448.226L109.858 448.345ZM109.297 447.128V447.118H109.564V447.128H109.297ZM109.309 447.174C109.146 446.817 108.993 446.459 108.851 446.091L109.099 445.995C109.24 446.357 109.391 446.71 109.552 447.063L109.309 447.174ZM108.853 446.097C108.812 446.004 108.776 445.899 108.74 445.808L108.987 445.709C109.032 445.822 109.057 445.899 109.097 445.989L108.853 446.097ZM108.739 445.807C108.577 445.39 108.424 444.982 108.281 444.553L108.534 444.469C108.675 444.892 108.826 445.295 108.988 445.71L108.739 445.807ZM108.274 444.511C108.274 444.52 108.276 444.527 108.276 444.53C108.277 444.534 108.277 444.536 108.278 444.537C108.278 444.537 108.278 444.537 108.276 444.532C108.275 444.529 108.272 444.521 108.27 444.512C108.269 444.508 108.268 444.502 108.267 444.496C108.265 444.489 108.264 444.48 108.264 444.469H108.531C108.531 444.461 108.53 444.455 108.53 444.452C108.529 444.449 108.529 444.446 108.528 444.445C108.528 444.444 108.528 444.445 108.529 444.449C108.53 444.451 108.533 444.459 108.535 444.466C108.536 444.47 108.537 444.476 108.539 444.483C108.54 444.489 108.541 444.499 108.541 444.511H108.274ZM108.271 444.511C108.16 444.177 108.047 443.829 107.955 443.479L108.213 443.411C108.303 443.752 108.413 444.094 108.524 444.427L108.271 444.511ZM107.956 443.485C107.905 443.322 107.854 443.146 107.812 442.969L108.072 442.908C108.111 443.076 108.161 443.245 108.211 443.406L107.956 443.485ZM107.813 442.973C107.733 442.68 107.651 442.383 107.579 442.065L107.839 442.006C107.909 442.317 107.989 442.608 108.071 442.903L107.813 442.973ZM107.58 442.068C107.539 441.904 107.498 441.728 107.466 441.551L107.729 441.505C107.759 441.673 107.798 441.841 107.838 442.003L107.58 442.068ZM107.467 441.556C107.396 441.221 107.325 440.884 107.264 440.537L107.527 440.49C107.587 440.832 107.657 441.165 107.728 441.5L107.467 441.556ZM107.264 440.538C107.233 440.371 107.212 440.205 107.192 440.043L107.457 440.01C107.477 440.173 107.497 440.331 107.526 440.489L107.264 440.538ZM107.193 440.052C107.122 439.682 107.071 439.302 107.03 438.925L107.295 438.896C107.335 439.269 107.385 439.641 107.455 440.001L107.193 440.052ZM107.03 438.925C106.675 435.793 106.603 432.801 106.817 429.942L107.083 429.962C106.871 432.802 106.941 435.778 107.295 438.895L107.03 438.925ZM106.817 429.943C106.837 429.617 106.868 429.29 106.898 428.966L107.163 428.99C107.133 429.315 107.103 429.638 107.083 429.96L106.817 429.943ZM106.898 428.965C106.949 428.436 107.01 427.907 107.081 427.377L107.345 427.413C107.274 427.939 107.214 428.465 107.163 428.991L106.898 428.965ZM107.081 427.376C107.122 427.102 107.162 426.828 107.203 426.563L107.466 426.604C107.426 426.867 107.385 427.141 107.345 427.415L107.081 427.376ZM107.201 426.584C107.201 426.568 107.203 426.554 107.205 426.543C107.207 426.533 107.21 426.524 107.211 426.518C107.212 426.515 107.213 426.512 107.213 426.511C107.214 426.509 107.214 426.509 107.214 426.509C107.214 426.509 107.213 426.511 107.213 426.514C107.212 426.517 107.211 426.524 107.211 426.533H107.478C107.478 426.544 107.477 426.554 107.475 426.56C107.474 426.567 107.473 426.572 107.472 426.576C107.471 426.58 107.47 426.583 107.469 426.585C107.469 426.588 107.468 426.589 107.468 426.591C107.467 426.594 107.467 426.595 107.467 426.594C107.467 426.593 107.468 426.589 107.468 426.584H107.201ZM107.213 426.515C107.253 426.218 107.305 425.92 107.366 425.623L107.627 425.677C107.567 425.968 107.517 426.26 107.477 426.551L107.213 426.515ZM107.365 425.626C107.467 425.067 107.579 424.496 107.711 423.945L107.97 424.007C107.84 424.552 107.729 425.117 107.628 425.674L107.365 425.626ZM107.71 423.95C107.761 423.692 107.823 423.445 107.895 423.198L108.151 423.273C108.081 423.513 108.021 423.753 107.972 424.002L107.71 423.95ZM107.894 423.203C108.28 421.655 108.768 420.148 109.347 418.682L109.595 418.78C109.02 420.236 108.536 421.732 108.152 423.268L107.894 423.203ZM109.347 418.681C110.272 416.37 111.42 414.171 112.813 412.073L113.035 412.22C111.653 414.303 110.513 416.486 109.595 418.781L109.347 418.681ZM112.811 412.075C113.005 411.768 113.221 411.469 113.422 411.178L113.641 411.329C113.436 411.627 113.227 411.916 113.037 412.218L112.811 412.075ZM113.422 411.178C113.625 410.882 113.84 410.586 114.064 410.299L114.274 410.463C114.054 410.745 113.843 411.037 113.641 411.329L113.422 411.178ZM114.061 410.303C114.276 410.007 114.5 409.72 114.723 409.437L114.932 409.601C114.709 409.885 114.488 410.168 114.277 410.459L114.061 410.303ZM114.722 409.437C115.048 409.019 115.384 408.611 115.74 408.203L115.941 408.379C115.588 408.783 115.255 409.187 114.933 409.601L114.722 409.437ZM115.738 408.206C115.942 407.961 116.156 407.716 116.38 407.471L116.576 407.651C116.355 407.893 116.144 408.135 115.943 408.376L115.738 408.206ZM116.376 407.475C116.541 407.279 116.715 407.092 116.888 406.911L117.081 407.094C116.909 407.276 116.739 407.457 116.58 407.646L116.376 407.475ZM116.886 406.913C117.089 406.688 117.293 406.474 117.508 406.259L117.696 406.448C117.485 406.659 117.284 406.871 117.083 407.092L116.886 406.913ZM117.506 406.261C117.821 405.935 118.146 405.61 118.471 405.294L118.657 405.485C118.334 405.799 118.011 406.123 117.698 406.446L117.506 406.261ZM118.471 405.294C118.745 405.03 119.019 404.765 119.303 404.501L119.485 404.696C119.203 404.959 118.93 405.222 118.657 405.486L118.471 405.294ZM119.304 404.5C120.908 403.015 122.664 401.591 124.572 400.228L124.727 400.445C122.828 401.802 121.08 403.219 119.485 404.696L119.304 404.5ZM124.572 400.228C136.079 392.009 151.804 391.627 164.576 396.916L164.474 397.162C151.769 391.901 136.144 392.29 124.727 400.445L124.572 400.228ZM164.576 396.916C170.198 399.249 174.702 402.835 178.067 407.216L177.856 407.378C174.518 403.034 170.051 399.477 164.474 397.162L164.576 396.916ZM177.962 407.164H177.972V407.43H177.962V407.164ZM178.078 407.216C182.388 412.828 184.857 419.711 185.476 426.816L185.211 426.839C184.595 419.78 182.142 412.946 177.866 407.378L178.078 407.216ZM185.476 426.815C185.649 428.709 185.679 430.612 185.588 432.515L185.322 432.502C185.412 430.61 185.382 428.72 185.211 426.839L185.476 426.815Z" fill="#37003D" mask="url(#path-58-inside-1)"/>
<mask id="path-60-inside-2" fill="white">
<path d="M143.687 455.742L138.401 468.678C127.89 466.983 117.39 460.348 111.588 451.146L120.135 441.711L136.627 442.727L143.687 455.742Z"/>
</mask>
<path d="M143.687 455.742L138.401 468.678C127.89 466.983 117.39 460.348 111.588 451.146L120.135 441.711L136.627 442.727L143.687 455.742Z" fill="#37003D"/>
<path d="M138.401 468.678L138.524 468.728L138.484 468.826L138.38 468.809L138.401 468.678ZM111.588 451.146L111.475 451.217L111.421 451.131L111.489 451.056L111.588 451.146ZM120.135 441.711L120.036 441.621L120.079 441.574L120.143 441.578L120.135 441.711ZM136.627 442.727L136.635 442.594L136.709 442.599L136.744 442.664L136.627 442.727ZM143.81 455.792L138.524 468.728L138.277 468.627L143.563 455.692L143.81 455.792ZM138.38 468.809C127.833 467.109 117.299 460.453 111.475 451.217L111.701 451.075C117.481 460.243 127.948 466.857 138.422 468.546L138.38 468.809ZM111.489 451.056L120.036 441.621L120.234 441.8L111.687 451.236L111.489 451.056ZM120.143 441.578L136.635 442.594L136.619 442.86L120.127 441.844L120.143 441.578ZM136.744 442.664L143.804 455.678L143.569 455.806L136.51 442.791L136.744 442.664Z" fill="#37003D" mask="url(#path-60-inside-2)"/>
<path d="M173.585 458.826C172.705 459.638 171.763 460.419 170.781 461.149C168.523 462.834 166.011 464.173 163.429 465.279C155.582 468.647 146.823 470.037 138.398 468.678L143.684 455.742L166.275 451.146L173.585 458.826Z" stroke="#37003D" stroke-width="1.33333" stroke-miterlimit="10"/>
<path d="M185.455 432.509C185.232 437.013 184.26 441.488 182.569 445.677C181.445 448.467 179.997 451.116 178.225 453.571C178.043 453.824 177.86 454.078 177.658 454.332C177.263 454.868 176.838 455.397 176.392 455.904C176.18 456.158 175.957 456.411 175.724 456.655C175.056 457.405 174.337 458.126 173.587 458.826C173.142 459.232 172.686 459.627 172.22 460.013C172.008 460.195 171.795 460.368 171.572 460.541C171.309 460.744 171.046 460.946 170.783 461.149C168.525 462.834 166.013 464.173 163.431 465.279C155.584 468.647 146.825 470.037 138.4 468.678C137.965 468.606 137.53 468.525 137.094 468.434C137.033 468.434 136.973 468.414 136.912 468.403L135.94 468.191C135.363 468.057 134.796 467.906 134.218 467.744C133.783 467.622 133.358 467.49 132.922 467.348C132.902 467.348 132.882 467.338 132.862 467.328C132.426 467.186 131.991 467.034 131.555 466.882C131.069 466.699 130.573 466.517 130.097 466.314C129.682 466.141 129.277 465.968 128.872 465.796C128.426 465.593 127.981 465.38 127.535 465.167C127.1 464.954 126.665 464.731 126.239 464.497C125.804 464.274 125.379 464.031 124.963 463.787C124.548 463.544 124.123 463.29 123.718 463.037C123.303 462.773 122.898 462.509 122.493 462.235C122.159 462.012 121.835 461.789 121.511 461.555C121.409 461.474 121.308 461.403 121.207 461.332C120.842 461.068 120.478 460.794 120.123 460.51C119.759 460.226 119.404 459.932 119.05 459.638C118.604 459.252 118.159 458.867 117.734 458.471C117.146 457.933 116.569 457.375 116.022 456.797C115.719 456.482 115.425 456.168 115.141 455.844C114.979 455.661 114.807 455.478 114.655 455.286C114.179 454.727 113.714 454.159 113.278 453.581C113.096 453.346 112.914 453.104 112.742 452.861C112.732 452.839 112.711 452.82 112.701 452.8C112.509 452.536 112.326 452.272 112.144 451.998C111.952 451.714 111.77 451.43 111.587 451.146C111.506 451.024 111.435 450.892 111.354 450.771C111.142 450.436 110.939 450.091 110.747 449.736C110.716 449.685 110.686 449.624 110.656 449.573C110.453 449.218 110.261 448.863 110.089 448.498C110.048 448.427 110.008 448.356 109.977 448.285C109.785 447.899 109.603 447.513 109.431 447.128V447.118C109.268 446.763 109.117 446.408 108.975 446.043C108.934 445.952 108.904 445.86 108.863 445.759C108.701 445.343 108.55 444.937 108.408 444.511C108.408 444.501 108.398 444.48 108.398 444.469C108.286 444.135 108.175 443.79 108.084 443.445C108.033 443.283 107.983 443.111 107.942 442.938C107.861 442.644 107.78 442.35 107.709 442.035C107.669 441.873 107.628 441.7 107.598 441.528C107.527 441.193 107.456 440.858 107.395 440.513C107.365 440.351 107.345 440.189 107.324 440.026C107.253 439.661 107.203 439.286 107.162 438.91C106.808 435.785 106.737 432.802 106.95 429.952C106.97 429.627 107 429.303 107.031 428.978C107.081 428.45 107.142 427.923 107.213 427.395C107.253 427.121 107.294 426.847 107.334 426.584C107.334 426.563 107.345 426.543 107.345 426.533C107.385 426.239 107.436 425.944 107.496 425.65C107.598 425.092 107.709 424.524 107.841 423.976C107.891 423.723 107.952 423.479 108.023 423.235C108.408 421.693 108.894 420.192 109.471 418.731C110.392 416.428 111.537 414.236 112.924 412.146C113.116 411.842 113.329 411.548 113.531 411.254C113.734 410.959 113.947 410.665 114.169 410.381C114.382 410.087 114.605 409.803 114.828 409.519C115.152 409.103 115.486 408.697 115.84 408.291C116.043 408.048 116.255 407.804 116.478 407.561C116.64 407.368 116.812 407.184 116.984 407.003C117.187 406.779 117.389 406.566 117.602 406.353C117.916 406.029 118.24 405.704 118.564 405.39C118.837 405.126 119.111 404.862 119.394 404.598C120.994 403.117 122.746 401.696 124.65 400.336C127.687 398.166 131.029 396.543 134.532 395.437C141.6 393.174 149.346 393.002 156.647 394.595H156.667L156.728 394.605C159.401 395.183 162.024 396.005 164.525 397.039C168.464 398.673 171.856 400.925 174.681 403.645C181.04 409.732 184.584 418.112 185.343 426.827C185.516 428.714 185.546 430.611 185.455 432.509V432.509Z" stroke="#37003D" stroke-width="1.33333" stroke-miterlimit="10"/>
<path d="M182.506 445.652L182.506 445.652C184.194 441.47 185.165 437.003 185.387 432.505C185.477 430.629 185.448 428.753 185.281 426.887L177.101 425.913L166.342 435.368V451.119L168.45 453.332L168.45 453.332L173.589 458.732C174.32 458.048 175.021 457.342 175.673 456.611L175.673 456.611L175.675 456.609C175.906 456.367 176.128 456.114 176.34 455.861L176.34 455.861L176.341 455.86C176.785 455.354 177.209 454.827 177.603 454.292L177.603 454.292L177.605 454.29C177.806 454.038 177.987 453.786 178.17 453.532L178.17 453.532C179.938 451.081 181.384 448.438 182.506 445.652Z" fill="#37003D" stroke="#37003D" stroke-width="0.133333"/>
<path d="M136.625 442.727L141.66 429.619L154.98 426.627L166.275 435.338V451.146L143.685 455.742L136.625 442.727Z" stroke="#37003D" stroke-width="1.33333" stroke-miterlimit="10"/>
<path d="M185.342 426.827L177.08 425.843L173.354 409.904L174.68 403.645C181.039 409.732 184.583 418.112 185.342 426.827Z" stroke="#37003D" stroke-width="1.33333" stroke-miterlimit="10"/>
<path d="M143.695 404.841L131.601 415.045L141.687 429.544L154.922 426.571L158.268 410.957L143.695 404.841Z" fill="#37003D" stroke="#37003D" stroke-width="0.133333"/>
<path d="M158.345 410.917L173.352 409.904L177.078 425.843L166.274 435.338L154.979 426.627L158.345 410.917Z" stroke="#37003D" stroke-width="1.33333" stroke-miterlimit="10"/>
<path d="M131.515 415.033L116.833 417.191L111.588 431.369L120.135 441.711L136.627 442.727L141.661 429.619L131.515 415.033Z" stroke="#37003D" stroke-width="1.33333" stroke-miterlimit="10"/>
<path d="M120.133 441.711L111.354 450.771C111.142 450.436 110.939 450.091 110.747 449.736C110.716 449.685 110.686 449.624 110.656 449.574C110.453 449.218 110.261 448.863 110.089 448.498C110.048 448.427 110.008 448.356 109.977 448.285C109.785 447.9 109.603 447.513 109.431 447.128V447.118C109.268 446.763 109.117 446.408 108.975 446.043C108.934 445.952 108.904 445.86 108.863 445.759C108.701 445.343 108.55 444.937 108.408 444.511C108.408 444.501 108.398 444.481 108.398 444.469C108.286 444.135 108.175 443.791 108.084 443.445C108.033 443.283 107.983 443.111 107.942 442.938C107.861 442.644 107.78 442.35 107.709 442.035C107.669 441.873 107.628 441.7 107.598 441.528C107.527 441.193 107.456 440.858 107.395 440.514C107.365 440.351 107.345 440.189 107.324 440.026C107.253 439.661 107.203 439.286 107.162 438.91C106.808 435.786 106.737 432.802 106.95 429.952L111.587 431.372L120.133 441.711Z" stroke="#37003D" stroke-width="1.33333" stroke-miterlimit="10"/>
<mask id="path-71-inside-3" fill="white">
<path d="M119.394 404.598L116.832 417.189L111.587 431.372L106.949 429.952C106.969 429.627 107 429.303 107.03 428.978C107.081 428.451 107.142 427.923 107.212 427.395C107.253 427.121 107.293 426.848 107.334 426.584C107.334 426.563 107.344 426.543 107.344 426.533C107.385 426.239 107.435 425.944 107.496 425.65C107.597 425.092 107.709 424.524 107.84 423.976C107.891 423.723 107.952 423.479 108.023 423.236C108.407 421.694 108.893 420.192 109.471 418.731C110.392 416.428 111.536 414.237 112.923 412.146C113.116 411.842 113.328 411.548 113.531 411.254C113.733 410.959 113.946 410.665 114.169 410.381C114.382 410.087 114.604 409.803 114.827 409.519C115.151 409.103 115.485 408.697 115.84 408.291C116.042 408.048 116.255 407.804 116.478 407.561C116.64 407.368 116.812 407.184 116.984 407.003C117.186 406.78 117.389 406.566 117.602 406.354C117.915 406.029 118.239 405.704 118.563 405.39C118.837 405.126 119.11 404.862 119.394 404.598Z"/>
</mask>
<path d="M119.394 404.598L116.832 417.189L111.587 431.372L106.949 429.952C106.969 429.627 107 429.303 107.03 428.978C107.081 428.451 107.142 427.923 107.212 427.395C107.253 427.121 107.293 426.848 107.334 426.584C107.334 426.563 107.344 426.543 107.344 426.533C107.385 426.239 107.435 425.944 107.496 425.65C107.597 425.092 107.709 424.524 107.84 423.976C107.891 423.723 107.952 423.479 108.023 423.236C108.407 421.694 108.893 420.192 109.471 418.731C110.392 416.428 111.536 414.237 112.923 412.146C113.116 411.842 113.328 411.548 113.531 411.254C113.733 410.959 113.946 410.665 114.169 410.381C114.382 410.087 114.604 409.803 114.827 409.519C115.151 409.103 115.485 408.697 115.84 408.291C116.042 408.048 116.255 407.804 116.478 407.561C116.64 407.368 116.812 407.184 116.984 407.003C117.186 406.78 117.389 406.566 117.602 406.354C117.915 406.029 118.239 405.704 118.563 405.39C118.837 405.126 119.11 404.862 119.394 404.598Z" fill="#37003D"/>
<path d="M116.832 417.189L116.963 417.216L116.961 417.226L116.957 417.235L116.832 417.189ZM111.587 431.372L111.712 431.419L111.668 431.537L111.548 431.5L111.587 431.372ZM106.949 429.952L106.91 430.079L106.81 430.049L106.816 429.944L106.949 429.952ZM107.03 428.978L106.897 428.966L106.897 428.965L107.03 428.978ZM107.212 427.395L107.08 427.378L107.081 427.376L107.212 427.395ZM107.334 426.584H107.467V426.594L107.466 426.604L107.334 426.584ZM107.344 426.533H107.211V426.524L107.212 426.515L107.344 426.533ZM107.496 425.65L107.627 425.674L107.627 425.677L107.496 425.65ZM107.84 423.976L107.971 424.002L107.97 424.008L107.84 423.976ZM108.023 423.236L108.152 423.268L108.151 423.273L108.023 423.236ZM109.471 418.731L109.347 418.682L109.347 418.682L109.471 418.731ZM112.923 412.146L113.036 412.218L113.035 412.22L112.923 412.146ZM113.531 411.254L113.641 411.329L113.641 411.33L113.531 411.254ZM114.169 410.381L114.277 410.459L114.274 410.464L114.169 410.381ZM114.827 409.519L114.932 409.601L114.932 409.601L114.827 409.519ZM115.84 408.291L115.942 408.376L115.94 408.379L115.84 408.291ZM116.478 407.561L116.58 407.647L116.576 407.651L116.478 407.561ZM116.984 407.003L117.083 407.092L117.081 407.094L116.984 407.003ZM117.602 406.354L117.697 406.446L117.696 406.448L117.602 406.354ZM118.563 405.39L118.471 405.294L118.471 405.294L118.563 405.39ZM119.524 404.625L116.963 417.216L116.701 417.162L119.263 404.572L119.524 404.625ZM116.957 417.235L111.712 431.419L111.462 431.326L116.707 417.143L116.957 417.235ZM111.548 431.5L106.91 430.079L106.988 429.824L111.626 431.245L111.548 431.5ZM106.816 429.944C106.837 429.617 106.867 429.29 106.897 428.966L107.163 428.991C107.133 429.316 107.102 429.638 107.082 429.96L106.816 429.944ZM106.897 428.965C106.948 428.436 107.009 427.907 107.08 427.378L107.345 427.413C107.274 427.939 107.213 428.465 107.163 428.991L106.897 428.965ZM107.081 427.376C107.121 427.102 107.162 426.828 107.202 426.563L107.466 426.604C107.425 426.867 107.385 427.141 107.344 427.415L107.081 427.376ZM107.201 426.584C107.201 426.568 107.203 426.554 107.205 426.543C107.207 426.533 107.209 426.524 107.211 426.518C107.212 426.515 107.213 426.512 107.213 426.511C107.213 426.509 107.214 426.509 107.213 426.509C107.213 426.509 107.213 426.511 107.212 426.514C107.212 426.517 107.211 426.524 107.211 426.533H107.477C107.477 426.545 107.476 426.554 107.475 426.56C107.474 426.567 107.473 426.572 107.472 426.576C107.471 426.58 107.47 426.583 107.469 426.585C107.468 426.588 107.468 426.589 107.467 426.591C107.466 426.594 107.466 426.595 107.466 426.594C107.467 426.593 107.467 426.589 107.467 426.584H107.201ZM107.212 426.515C107.253 426.218 107.304 425.92 107.365 425.623L107.627 425.677C107.566 425.968 107.516 426.26 107.476 426.551L107.212 426.515ZM107.365 425.627C107.466 425.068 107.578 424.496 107.711 423.945L107.97 424.008C107.839 424.552 107.728 425.117 107.627 425.674L107.365 425.627ZM107.71 423.95C107.761 423.693 107.823 423.445 107.895 423.198L108.151 423.273C108.081 423.513 108.021 423.753 107.971 424.002L107.71 423.95ZM107.893 423.203C108.279 421.655 108.767 420.148 109.347 418.682L109.595 418.78C109.019 420.236 108.535 421.732 108.152 423.268L107.893 423.203ZM109.347 418.682C110.272 416.37 111.42 414.171 112.812 412.073L113.035 412.22C111.652 414.303 110.512 416.486 109.594 418.781L109.347 418.682ZM112.811 412.075C113.005 411.768 113.221 411.469 113.421 411.178L113.641 411.33C113.436 411.627 113.227 411.916 113.036 412.218L112.811 412.075ZM113.421 411.178C113.625 410.882 113.839 410.586 114.064 410.299L114.274 410.464C114.053 410.745 113.842 411.037 113.641 411.329L113.421 411.178ZM114.061 410.303C114.275 410.007 114.5 409.72 114.722 409.437L114.932 409.601C114.709 409.886 114.488 410.168 114.277 410.459L114.061 410.303ZM114.722 409.437C115.047 409.019 115.383 408.611 115.739 408.203L115.94 408.379C115.587 408.783 115.255 409.187 114.932 409.601L114.722 409.437ZM115.737 408.206C115.941 407.961 116.155 407.716 116.379 407.471L116.576 407.651C116.355 407.893 116.143 408.135 115.942 408.376L115.737 408.206ZM116.376 407.475C116.54 407.279 116.715 407.093 116.887 406.911L117.081 407.094C116.909 407.276 116.739 407.457 116.58 407.647L116.376 407.475ZM116.885 406.913C117.089 406.689 117.293 406.474 117.507 406.259L117.696 406.448C117.485 406.659 117.284 406.871 117.083 407.092L116.885 406.913ZM117.506 406.261C117.821 405.935 118.146 405.61 118.471 405.294L118.656 405.485C118.333 405.799 118.01 406.123 117.697 406.446L117.506 406.261ZM118.471 405.294C118.744 405.03 119.018 404.766 119.303 404.501L119.485 404.696C119.202 404.959 118.93 405.222 118.656 405.486L118.471 405.294Z" fill="#37003D" mask="url(#path-71-inside-3)"/>
<path d="M144.933 397.973L143.687 404.761L131.516 415.028L116.834 417.189L118.565 405.39C118.839 405.126 119.112 404.862 119.396 404.598C120.996 403.117 122.747 401.696 124.651 400.336C127.689 398.166 131.03 396.543 134.534 395.437L144.933 397.973Z" stroke="#37003D" stroke-width="1.33333" stroke-miterlimit="10"/>
<path d="M174.683 403.645L173.356 409.904L158.35 410.919L143.688 404.761L144.933 397.973L156.648 394.595H156.669L156.73 394.605C159.403 395.183 162.025 396.005 164.526 397.039C168.465 398.673 171.857 400.926 174.683 403.645V403.645Z" stroke="#37003D" stroke-width="1.33333" stroke-miterlimit="10"/>
<path d="M134.776 395.428L144.927 397.904L156.371 394.604C149.234 393.09 141.687 393.264 134.776 395.428Z" fill="#37003D" stroke="#37003D" stroke-width="0.133333"/>
<path opacity="0.15" d="M182.569 445.677C181.445 448.467 179.997 451.116 178.225 453.571C178.043 453.824 177.86 454.078 177.658 454.332C177.263 454.868 176.838 455.397 176.392 455.904C176.179 456.158 175.957 456.411 175.724 456.655C175.056 457.405 174.337 458.126 173.587 458.826C173.142 459.232 172.686 459.628 172.22 460.013C172.008 460.195 171.795 460.368 171.572 460.541C171.309 460.744 171.046 460.946 170.782 461.149C168.524 462.834 166.013 464.173 163.431 465.279C155.584 468.647 146.825 470.037 138.4 468.678C137.965 468.606 137.529 468.525 137.094 468.434C137.033 468.434 136.973 468.414 136.912 468.403L135.94 468.191C135.363 468.057 134.796 467.906 134.218 467.744C133.783 467.622 133.358 467.49 132.922 467.348C132.902 467.348 132.882 467.338 132.862 467.328C132.426 467.186 131.991 467.034 131.555 466.882C131.069 466.699 130.573 466.517 130.097 466.314C129.682 466.141 129.277 465.968 128.872 465.796C128.426 465.593 127.981 465.38 127.535 465.167C127.1 464.954 126.665 464.731 126.239 464.497C125.804 464.274 125.379 464.031 124.963 463.787C124.548 463.544 124.123 463.29 123.718 463.037C123.303 462.773 122.888 462.509 122.493 462.235C122.159 462.012 121.835 461.789 121.511 461.555C121.409 461.474 121.308 461.403 121.207 461.332C120.842 461.068 120.478 460.794 120.123 460.51C119.759 460.226 119.404 459.932 119.05 459.638C118.604 459.252 118.159 458.867 117.734 458.471C117.146 457.933 116.569 457.375 116.022 456.797C115.719 456.482 115.425 456.168 115.141 455.844C114.979 455.661 114.807 455.478 114.655 455.286C114.179 454.728 113.714 454.159 113.278 453.581C113.096 453.346 112.914 453.104 112.742 452.861C112.731 452.839 112.711 452.82 112.701 452.8C112.509 452.536 112.326 452.272 112.144 451.998C111.952 451.714 111.77 451.43 111.587 451.146C111.506 451.024 111.435 450.892 111.354 450.771C111.142 450.436 110.939 450.091 110.747 449.736C110.716 449.685 110.686 449.624 110.656 449.573C110.453 449.218 110.261 448.863 110.089 448.498C110.048 448.427 110.008 448.356 109.977 448.285C109.785 447.899 109.603 447.513 109.431 447.128V447.118C109.268 446.763 109.117 446.408 108.975 446.043C108.934 445.952 108.904 445.86 108.863 445.759C108.701 445.343 108.55 444.937 108.408 444.511C108.408 444.501 108.398 444.481 108.398 444.469C108.286 444.135 108.175 443.791 108.084 443.445C108.033 443.283 107.983 443.111 107.942 442.938C107.861 442.644 107.78 442.35 107.709 442.035C107.669 441.873 107.628 441.7 107.598 441.528C107.527 441.193 107.456 440.858 107.395 440.513C107.365 440.351 107.345 440.189 107.324 440.026C107.253 439.661 107.203 439.286 107.162 438.91C106.808 435.785 106.737 432.802 106.95 429.952C106.97 429.627 107 429.303 107.031 428.978C107.081 428.451 107.142 427.923 107.213 427.395C107.253 427.121 107.294 426.847 107.334 426.584C107.334 426.563 107.345 426.543 107.345 426.533C107.385 426.239 107.436 425.944 107.496 425.65C107.598 425.092 107.709 424.524 107.841 423.976C107.891 423.723 107.952 423.479 108.023 423.236C108.408 421.693 108.894 420.192 109.471 418.731C110.392 416.428 111.537 414.237 112.924 412.146C113.116 411.842 113.329 411.548 113.531 411.254C113.734 410.959 113.947 410.665 114.169 410.381C114.382 410.087 114.605 409.803 114.828 409.519C115.152 409.103 115.486 408.697 115.84 408.291C116.043 408.048 116.255 407.804 116.478 407.561C116.64 407.368 116.812 407.184 116.984 407.003C117.187 406.78 117.389 406.566 117.602 406.353C117.916 406.029 118.24 405.704 118.564 405.39C118.837 405.126 119.111 404.862 119.394 404.598C120.549 405.44 121.531 406.81 122.017 408.971C124.581 420.434 106.141 449.187 139.666 458.826C153.265 462.731 161.801 458.166 168.403 453.378C173.871 449.401 178.002 445.272 182.569 445.677Z" fill="#9EA6C9"/>
<g opacity="0.1" filter="url(#filter0_f)">
<circle cx="259.5" cy="64.5" r="51.5" fill="#FFE400"/>
</g>
<circle opacity="0.15" cx="259.499" cy="64.5" r="32.7727" fill="#FFE400"/>
<circle cx="259.5" cy="64.5" r="26.0844" fill="#FFE400"/>
</g>
<defs>
<filter id="filter0_f" x="195" y="0" width="129" height="129" filterUnits="userSpaceOnUse" color-interpolation-filters="sRGB">
<feFlood flood-opacity="0" result="BackgroundImageFix"/>
<feBlend mode="normal" in="SourceGraphic" in2="BackgroundImageFix" result="shape"/>
<feGaussianBlur stdDeviation="6.5" result="effect1_foregroundBlur"/>
</filter>
<clipPath id="clip0">
<rect width="375" height="713" fill="white"/>
</clipPath>
</defs>
</svg>
